<?xml version="1.0" encoding="UTF-8" standalone="no"?>
<!DOCTYPE svg PUBLIC "-//W3C//DTD SVG 1.1//EN"
 "http://www.w3.org/Graphics/SVG/1.1/DTD/svg11.dtd">
<!-- Generated by graphviz version 2.38.0 (20140413.2041)
 -->
<!-- Title: G Pages: 1 -->
<svg width="604pt" height="640pt"
 viewBox="0.00 0.00 679.20 720.00" xmlns="http://www.w3.org/2000/svg" xmlns:xlink="http://www.w3.org/1999/xlink">
<g id="graph0" class="graph" transform="scale(0.442294 0.442294) rotate(0) translate(4 1443)">
<title>G</title>
<polygon fill="white" stroke="none" points="-4,4 -4,-1443 1361,-1443 1361,4 -4,4"/>
<text text-anchor="middle" x="678.5" y="-1406.2" font-family="Arial" font-size="36.00" fill="blue">Reaction Path Analysis</text>
<!-- CH3CH2OH -->
<g id="node1" class="node"><title>CH3CH2OH</title>
<g id="a_node1"><a xlink:href="Species\0.svg" xlink:title="CH3CH2OH">
<polygon fill="none" stroke="none" points="299.5,-1391 100.5,-1391 100.5,-1344 299.5,-1344 299.5,-1391"/>
<text text-anchor="middle" x="200" y="-1359" font-family="Times New Roman,serif" font-size="35.00">CH3CH2OH</text>
</a>
</g>
</g>
<!-- CH3CH2OH(S) -->
<g id="node2" class="node"><title>CH3CH2OH(S)</title>
<g id="a_node2"><a xlink:href="Species\14.svg" xlink:title="CH3CH2OH(S)">
<polygon fill="dodgerblue" stroke="none" points="321,-1279 79,-1279 79,-1232 321,-1232 321,-1279"/>
<text text-anchor="middle" x="200" y="-1247" font-family="Times New Roman,serif" font-size="35.00">CH3CH2OH(S)</text>
</a>
</g>
</g>
<!-- CH3CH2OH&#45;&gt;CH3CH2OH(S) -->
<g id="edge1" class="edge"><title>CH3CH2OH&#45;&gt;CH3CH2OH(S)</title>
<path fill="none" stroke="green" stroke-width="5" d="M200,-1343.97C200,-1328.36 200,-1307.3 200,-1289.76"/>
<polygon fill="green" stroke="green" stroke-width="5" points="204.375,-1289.37 200,-1279.37 195.625,-1289.37 204.375,-1289.37"/>
<text text-anchor="middle" x="246.5" y="-1304" font-family="Times New Roman,serif" font-size="30.00"> &#160;&#160;100%</text>
</g>
<!-- H(S) -->
<g id="node7" class="node"><title>H(S)</title>
<g id="a_node7"><a xlink:href="Species\62.svg" xlink:title="H(S)">
<polygon fill="orange" stroke="none" points="599.5,-383 514.5,-383 514.5,-336 599.5,-336 599.5,-383"/>
<text text-anchor="middle" x="557" y="-351" font-family="Times New Roman,serif" font-size="35.00">H(S)</text>
</a>
</g>
</g>
<!-- CH3CH2OH(S)&#45;&gt;H(S) -->
<g id="edge12" class="edge"><title>CH3CH2OH(S)&#45;&gt;H(S)</title>
<path fill="none" stroke="black" stroke-width="5" d="M82.7914,-1231.9C39.1405,-1216.08 0,-1189.38 0,-1144.5 0,-1144.5 0,-1144.5 0,-470.5 0,-368.43 364.548,-359.516 503.803,-359.835"/>
<polygon fill="black" stroke="black" stroke-width="5" points="504.2,-364.211 514.218,-359.877 504.236,-355.462 504.2,-364.211"/>
<text text-anchor="middle" x="39" y="-800" font-family="Times New Roman,serif" font-size="30.00"> &#160;&#160;87%</text>
</g>
<!-- CH3CH2OH(S)&#45;&gt;H(S) -->
<g id="edge14" class="edge"><title>CH3CH2OH(S)&#45;&gt;H(S)</title>
<path fill="none" stroke="black" d="M167.487,-1231.84C143.133,-1211.96 114,-1180.62 114,-1144.5 114,-1144.5 114,-1144.5 114,-862.5 114,-647.563 60.4927,-496.584 252,-399 294.92,-377.13 428.955,-366.96 504.273,-362.864"/>
<polygon fill="black" stroke="black" points="504.693,-366.347 514.495,-362.326 504.325,-359.356 504.693,-366.347"/>
<text text-anchor="middle" x="153" y="-800" font-family="Times New Roman,serif" font-size="30.00"> &#160;&#160;12%</text>
</g>
<!-- CH3CHOH(S) -->
<g id="node17" class="node"><title>CH3CHOH(S)</title>
<g id="a_node17"><a xlink:href="Species\15.svg" xlink:title="CH3CHOH(S)">
<polygon fill="dodgerblue" stroke="none" points="584,-1167 360,-1167 360,-1120 584,-1120 584,-1167"/>
<text text-anchor="middle" x="472" y="-1135" font-family="Times New Roman,serif" font-size="35.00">CH3CHOH(S)</text>
</a>
</g>
</g>
<!-- CH3CH2OH(S)&#45;&gt;CH3CHOH(S) -->
<g id="edge11" class="edge"><title>CH3CH2OH(S)&#45;&gt;CH3CHOH(S)</title>
<path fill="none" stroke="black" stroke-width="5" d="M255.7,-1231.97C299.467,-1214.27 360.521,-1189.58 406.607,-1170.95"/>
<polygon fill="black" stroke="black" stroke-width="5" points="408.278,-1174.99 415.908,-1167.18 404.997,-1166.88 408.278,-1174.99"/>
<text text-anchor="middle" x="416" y="-1192" font-family="Times New Roman,serif" font-size="30.00"> &#160;&#160;87%</text>
</g>
<!-- CH3CH2O(S) -->
<g id="node18" class="node"><title>CH3CH2O(S)</title>
<g id="a_node18"><a xlink:href="Species\26.svg" xlink:title="CH3CH2O(S)">
<polygon fill="purple" stroke="none" points="1295,-1167 1077,-1167 1077,-1120 1295,-1120 1295,-1167"/>
<text text-anchor="middle" x="1186" y="-1135" font-family="Times New Roman,serif" font-size="35.00">CH3CH2O(S)</text>
</a>
</g>
</g>
<!-- CH3CH2OH(S)&#45;&gt;CH3CH2O(S) -->
<g id="edge13" class="edge"><title>CH3CH2OH(S)&#45;&gt;CH3CH2O(S)</title>
<path fill="none" stroke="black" d="M321.397,-1240.96C511.665,-1219.73 877.842,-1178.88 1066.77,-1157.8"/>
<polygon fill="black" stroke="black" points="1067.19,-1161.28 1076.74,-1156.69 1066.41,-1154.32 1067.19,-1161.28"/>
<text text-anchor="middle" x="878" y="-1192" font-family="Times New Roman,serif" font-size="30.00"> &#160;&#160;12%</text>
</g>
<!-- CH3CHO(S) -->
<g id="node3" class="node"><title>CH3CHO(S)</title>
<g id="a_node3"><a xlink:href="Species\27.svg" xlink:title="CH3CHO(S)">
<polygon fill="dodgerblue" stroke="none" points="1134,-1055 934,-1055 934,-1008 1134,-1008 1134,-1055"/>
<text text-anchor="middle" x="1034" y="-1023" font-family="Times New Roman,serif" font-size="35.00">CH3CHO(S)</text>
</a>
</g>
</g>
<!-- CH3CHO -->
<g id="node4" class="node"><title>CH3CHO</title>
<g id="a_node4"><a xlink:href="Species\1.svg" xlink:title="CH3CHO">
<polygon fill="none" stroke="none" points="1112,-943 956,-943 956,-896 1112,-896 1112,-943"/>
<text text-anchor="middle" x="1034" y="-911" font-family="Times New Roman,serif" font-size="35.00">CH3CHO</text>
</a>
</g>
</g>
<!-- CH3CHO(S)&#45;&gt;CH3CHO -->
<g id="edge2" class="edge"><title>CH3CHO(S)&#45;&gt;CH3CHO</title>
<path fill="none" stroke="green" d="M1034,-1007.97C1034,-992.359 1034,-971.302 1034,-953.761"/>
<polygon fill="green" stroke="green" points="1037.5,-953.373 1034,-943.373 1030.5,-953.374 1037.5,-953.373"/>
<text text-anchor="middle" x="1065.5" y="-968" font-family="Times New Roman,serif" font-size="30.00"> &#160;&#160;0%</text>
</g>
<!-- CH3CHO(S)&#45;&gt;H(S) -->
<g id="edge30" class="edge"><title>CH3CHO(S)&#45;&gt;H(S)</title>
<path fill="none" stroke="green" d="M1082.71,-1007.78C1089.42,-1003.22 1095.79,-997.959 1101,-992 1116.48,-974.291 1115.29,-965.818 1121,-943 1150.4,-825.537 1135.82,-792.366 1149,-672 1154.89,-618.185 1159.88,-605.047 1163,-551 1164.2,-530.146 1168.51,-524.15 1163,-504 1159.43,-490.93 1112.52,-406.128 1101,-399 1059.89,-373.568 738.181,-364.211 609.72,-361.467"/>
<polygon fill="green" stroke="green" points="609.789,-357.967 599.718,-361.258 609.643,-364.966 609.789,-357.967"/>
<text text-anchor="middle" x="1188" y="-688" font-family="Times New Roman,serif" font-size="30.00"> &#160;&#160;15%</text>
</g>
<!-- CH3CO(S) -->
<g id="node21" class="node"><title>CH3CO(S)</title>
<g id="a_node21"><a xlink:href="Species\28.svg" xlink:title="CH3CO(S)">
<polygon fill="springgreen" stroke="none" points="899.5,-943 724.5,-943 724.5,-896 899.5,-896 899.5,-943"/>
<text text-anchor="middle" x="812" y="-911" font-family="Times New Roman,serif" font-size="35.00">CH3CO(S)</text>
</a>
</g>
</g>
<!-- CH3CHO(S)&#45;&gt;CH3CO(S) -->
<g id="edge29" class="edge"><title>CH3CHO(S)&#45;&gt;CH3CO(S)</title>
<path fill="none" stroke="green" d="M985.31,-1007.96C974.321,-1002.79 962.734,-997.259 952,-992 922.842,-977.714 890.548,-961.264 864.331,-947.747"/>
<polygon fill="green" stroke="green" points="865.817,-944.575 855.326,-943.096 862.605,-950.795 865.817,-944.575"/>
<text text-anchor="middle" x="991" y="-968" font-family="Times New Roman,serif" font-size="30.00"> &#160;&#160;15%</text>
</g>
<!-- CH3CH2(S) -->
<g id="node5" class="node"><title>CH3CH2(S)</title>
<g id="a_node5"><a xlink:href="Species\38.svg" xlink:title="CH3CH2(S)">
<polygon fill="dodgerblue" stroke="none" points="531,-159 339,-159 339,-112 531,-112 531,-159"/>
<text text-anchor="middle" x="435" y="-127" font-family="Times New Roman,serif" font-size="35.00">CH3CH2(S)</text>
</a>
</g>
</g>
<!-- CH3CH3 -->
<g id="node6" class="node"><title>CH3CH3</title>
<g id="a_node6"><a xlink:href="Species\2.svg" xlink:title="CH3CH3">
<polygon fill="none" stroke="none" points="416.5,-47 267.5,-47 267.5,3.55271e-015 416.5,3.55271e-015 416.5,-47"/>
<text text-anchor="middle" x="342" y="-15" font-family="Times New Roman,serif" font-size="35.00">CH3CH3</text>
</a>
</g>
</g>
<!-- CH3CH2(S)&#45;&gt;CH3CH3 -->
<g id="edge3" class="edge"><title>CH3CH2(S)&#45;&gt;CH3CH3</title>
<path fill="none" stroke="green" d="M415.956,-111.974C402.131,-95.6222 383.261,-73.3032 368.043,-55.303"/>
<polygon fill="green" stroke="green" points="370.468,-52.7503 361.338,-47.3735 365.122,-57.2697 370.468,-52.7503"/>
<text text-anchor="middle" x="434.5" y="-72" font-family="Times New Roman,serif" font-size="30.00"> &#160;&#160;0%</text>
</g>
<!-- H(S)&#45;&gt;CH3CH2(S) -->
<g id="edge40" class="edge"><title>H(S)&#45;&gt;CH3CH2(S)</title>
<path fill="none" stroke="black" d="M555.752,-335.804C552.509,-297.919 540.853,-221.389 499,-175 495.802,-171.456 492.201,-168.135 488.378,-165.046"/>
<polygon fill="black" stroke="black" points="490.395,-162.184 480.278,-159.036 486.223,-167.806 490.395,-162.184"/>
<text text-anchor="middle" x="576.5" y="-240" font-family="Times New Roman,serif" font-size="30.00"> &#160;&#160;0%</text>
</g>
<!-- H(S)&#45;&gt;CH3CH3 -->
<g id="edge4" class="edge"><title>H(S)&#45;&gt;CH3CH3</title>
<path fill="none" stroke="green" d="M514.431,-356.25C460.638,-350.824 370.225,-332.505 330,-271 286.997,-205.248 311.755,-107.222 329.265,-56.8901"/>
<polygon fill="green" stroke="green" points="332.662,-57.7872 332.757,-47.1927 326.076,-55.4159 332.662,-57.7872"/>
<text text-anchor="middle" x="339.5" y="-184" font-family="Times New Roman,serif" font-size="30.00"> &#160;&#160;0%</text>
</g>
<!-- CH3(S) -->
<g id="node8" class="node"><title>CH3(S)</title>
<g id="a_node8"><a xlink:href="Species\55.svg" xlink:title="CH3(S)">
<polygon fill="dodgerblue" stroke="none" points="915,-159 789,-159 789,-112 915,-112 915,-159"/>
<text text-anchor="middle" x="852" y="-127" font-family="Times New Roman,serif" font-size="35.00">CH3(S)</text>
</a>
</g>
</g>
<!-- H(S)&#45;&gt;CH3(S) -->
<g id="edge45" class="edge"><title>H(S)&#45;&gt;CH3(S)</title>
<path fill="none" stroke="black" stroke-width="5" d="M599.649,-346.251C617.372,-340.007 637.589,-331.308 654,-320 701.661,-287.159 699.666,-263.471 742,-224 764.473,-203.047 791.45,-181.538 813.064,-165.088"/>
<polygon fill="black" stroke="black" stroke-width="5" points="815.724,-168.562 821.065,-159.043 810.449,-161.581 815.724,-168.562"/>
<text text-anchor="middle" x="781" y="-240" font-family="Times New Roman,serif" font-size="30.00"> &#160;&#160;99%</text>
</g>
<!-- CH4 -->
<g id="node9" class="node"><title>CH4</title>
<g id="a_node9"><a xlink:href="Species\7.svg" xlink:title="CH4">
<polygon fill="none" stroke="none" points="697.5,-47 614.5,-47 614.5,3.55271e-015 697.5,3.55271e-015 697.5,-47"/>
<text text-anchor="middle" x="656" y="-15" font-family="Times New Roman,serif" font-size="35.00">CH4</text>
</a>
</g>
</g>
<!-- H(S)&#45;&gt;CH4 -->
<g id="edge6" class="edge"><title>H(S)&#45;&gt;CH4</title>
<path fill="none" stroke="black" stroke-width="5" d="M574.802,-335.678C587.119,-318.745 602.877,-294.597 612,-271 640.272,-197.87 650.547,-105.431 654.151,-57.19"/>
<polygon fill="black" stroke="black" stroke-width="5" points="658.528,-57.3104 654.859,-47.0304 649.799,-56.702 658.528,-57.3104"/>
<text text-anchor="middle" x="678" y="-184" font-family="Times New Roman,serif" font-size="30.00"> &#160;&#160;99%</text>
</g>
<!-- H2 -->
<g id="node10" class="node"><title>H2</title>
<g id="a_node10"><a xlink:href="Species\8.svg" xlink:title="H2">
<polygon fill="none" stroke="none" points="888.5,-271 829.5,-271 829.5,-224 888.5,-224 888.5,-271"/>
<text text-anchor="middle" x="859" y="-239" font-family="Times New Roman,serif" font-size="35.00">H2</text>
</a>
</g>
</g>
<!-- H(S)&#45;&gt;H2 -->
<g id="edge7" class="edge"><title>H(S)&#45;&gt;H2</title>
<path fill="none" stroke="green" stroke-width="8" d="M599.801,-354.378C639.183,-349.537 698.633,-339.546 747,-320 770.372,-310.555 794.198,-296.146 813.831,-282.731"/>
<polygon fill="green" stroke="green" stroke-width="8" points="822.007,-294.097 830.219,-271.106 805.807,-271.259 822.007,-294.097"/>
<text text-anchor="middle" x="854.5" y="-296" font-family="Times New Roman,serif" font-size="30.00"> &#160;&#160;144%</text>
</g>
<!-- CH3CH(S) -->
<g id="node27" class="node"><title>CH3CH(S)</title>
<g id="a_node27"><a xlink:href="Species\39.svg" xlink:title="CH3CH(S)">
<polygon fill="dodgerblue" stroke="none" points="513,-271 339,-271 339,-224 513,-224 513,-271"/>
<text text-anchor="middle" x="426" y="-239" font-family="Times New Roman,serif" font-size="35.00">CH3CH(S)</text>
</a>
</g>
</g>
<!-- H(S)&#45;&gt;CH3CH(S) -->
<g id="edge42" class="edge"><title>H(S)&#45;&gt;CH3CH(S)</title>
<path fill="none" stroke="green" d="M514.437,-344.828C499.915,-338.777 484.262,-330.587 472,-320 459.382,-309.106 448.945,-293.909 441.219,-280.325"/>
<polygon fill="green" stroke="green" points="444.148,-278.382 436.311,-271.251 437.991,-281.712 444.148,-278.382"/>
<text text-anchor="middle" x="503.5" y="-296" font-family="Times New Roman,serif" font-size="30.00"> &#160;&#160;0%</text>
</g>
<!-- CH2(S) -->
<g id="node29" class="node"><title>CH2(S)</title>
<g id="a_node29"><a xlink:href="Species\56.svg" xlink:title="CH2(S)">
<polygon fill="dodgerblue" stroke="none" points="1035,-271 909,-271 909,-224 1035,-224 1035,-271"/>
<text text-anchor="middle" x="972" y="-239" font-family="Times New Roman,serif" font-size="35.00">CH2(S)</text>
</a>
</g>
</g>
<!-- H(S)&#45;&gt;CH2(S) -->
<g id="edge47" class="edge"><title>H(S)&#45;&gt;CH2(S)</title>
<path fill="none" stroke="green" stroke-width="5" d="M599.695,-357.443C680.5,-354.848 852.409,-346.321 905,-320 923.483,-310.749 939.514,-294.174 951.257,-279.31"/>
<polygon fill="green" stroke="green" stroke-width="5" points="954.783,-281.901 957.327,-271.286 947.805,-276.621 954.783,-281.901"/>
<text text-anchor="middle" x="983" y="-296" font-family="Times New Roman,serif" font-size="30.00"> &#160;&#160;99%</text>
</g>
<!-- CH3(S)&#45;&gt;CH4 -->
<g id="edge5" class="edge"><title>CH3(S)&#45;&gt;CH4</title>
<path fill="none" stroke="black" stroke-width="5" d="M811.864,-111.974C781.05,-94.6808 738.345,-70.7138 705.426,-52.2392"/>
<polygon fill="black" stroke="black" stroke-width="5" points="707.281,-48.2632 696.419,-47.1842 702.998,-55.8936 707.281,-48.2632"/>
<text text-anchor="middle" x="823" y="-72" font-family="Times New Roman,serif" font-size="30.00"> &#160;&#160;99%</text>
</g>
<!-- CO(S) -->
<g id="node11" class="node"><title>CO(S)</title>
<g id="a_node11"><a xlink:href="Species\54.svg" xlink:title="CO(S)">
<polygon fill="orange" stroke="none" points="982.5,-607 873.5,-607 873.5,-560 982.5,-560 982.5,-607"/>
<text text-anchor="middle" x="928" y="-575" font-family="Times New Roman,serif" font-size="35.00">CO(S)</text>
</a>
</g>
</g>
<!-- CO -->
<g id="node12" class="node"><title>CO</title>
<g id="a_node12"><a xlink:href="Species\10.svg" xlink:title="CO">
<polygon fill="none" stroke="none" points="919.5,-495 854.5,-495 854.5,-448 919.5,-448 919.5,-495"/>
<text text-anchor="middle" x="887" y="-463" font-family="Times New Roman,serif" font-size="35.00">CO</text>
</a>
</g>
</g>
<!-- CO(S)&#45;&gt;CO -->
<g id="edge8" class="edge"><title>CO(S)&#45;&gt;CO</title>
<path fill="none" stroke="green" stroke-width="3" d="M887.215,-559.606C884.791,-556.985 882.665,-554.12 881,-551 873.576,-537.087 874.062,-519.77 876.837,-504.944"/>
<polygon fill="green" stroke="green" stroke-width="3" points="880.26,-505.675 879.054,-495.149 873.433,-504.13 880.26,-505.675"/>
<text text-anchor="middle" x="920" y="-520" font-family="Times New Roman,serif" font-size="30.00"> &#160;&#160;53%</text>
</g>
<!-- COOH(S) -->
<g id="node28" class="node"><title>COOH(S)</title>
<g id="a_node28"><a xlink:href="Species\64.svg" xlink:title="COOH(S)">
<polygon fill="dodgerblue" stroke="none" points="836.5,-495 677.5,-495 677.5,-448 836.5,-448 836.5,-495"/>
<text text-anchor="middle" x="757" y="-463" font-family="Times New Roman,serif" font-size="35.00">COOH(S)</text>
</a>
</g>
</g>
<!-- CO(S)&#45;&gt;COOH(S) -->
<g id="edge43" class="edge"><title>CO(S)&#45;&gt;COOH(S)</title>
<path fill="none" stroke="black" stroke-width="3" d="M873.415,-562.454C870.249,-561.559 867.095,-560.731 864,-560 848.522,-556.342 805.818,-560.414 793,-551 778.089,-540.049 769.189,-521.418 763.969,-505.054"/>
<polygon fill="black" stroke="black" stroke-width="3" points="767.281,-503.905 761.173,-495.247 760.549,-505.823 767.281,-503.905"/>
<text text-anchor="middle" x="832" y="-520" font-family="Times New Roman,serif" font-size="30.00"> &#160;&#160;45%</text>
</g>
<!-- CO2(S) -->
<g id="node13" class="node"><title>CO2(S)</title>
<g id="a_node13"><a xlink:href="Species\63.svg" xlink:title="CO2(S)">
<polygon fill="dodgerblue" stroke="none" points="1262.5,-383 1135.5,-383 1135.5,-336 1262.5,-336 1262.5,-383"/>
<text text-anchor="middle" x="1199" y="-351" font-family="Times New Roman,serif" font-size="35.00">CO2(S)</text>
</a>
</g>
</g>
<!-- CO2 -->
<g id="node14" class="node"><title>CO2</title>
<g id="a_node14"><a xlink:href="Species\11.svg" xlink:title="CO2">
<polygon fill="none" stroke="none" points="1239.5,-271 1156.5,-271 1156.5,-224 1239.5,-224 1239.5,-271"/>
<text text-anchor="middle" x="1198" y="-239" font-family="Times New Roman,serif" font-size="35.00">CO2</text>
</a>
</g>
</g>
<!-- CO2(S)&#45;&gt;CO2 -->
<g id="edge9" class="edge"><title>CO2(S)&#45;&gt;CO2</title>
<path fill="none" stroke="green" stroke-width="3" d="M1198.8,-335.974C1198.65,-320.359 1198.46,-299.302 1198.3,-281.761"/>
<polygon fill="green" stroke="green" stroke-width="3" points="1201.8,-281.341 1198.21,-271.373 1194.8,-281.405 1201.8,-281.341"/>
<text text-anchor="middle" x="1237" y="-296" font-family="Times New Roman,serif" font-size="30.00"> &#160;&#160;45%</text>
</g>
<!-- H2O -->
<g id="node15" class="node"><title>H2O</title>
<g id="a_node15"><a xlink:href="Species\12.svg" xlink:title="H2O">
<polygon fill="none" stroke="none" points="671.5,-831 586.5,-831 586.5,-784 671.5,-784 671.5,-831"/>
<text text-anchor="middle" x="629" y="-799" font-family="Times New Roman,serif" font-size="35.00">H2O</text>
</a>
</g>
</g>
<!-- H2O(S) -->
<g id="node16" class="node"><title>H2O(S)</title>
<g id="a_node16"><a xlink:href="Species\59.svg" xlink:title="H2O(S)">
<polygon fill="springgreen" stroke="none" points="694,-719 566,-719 566,-672 694,-672 694,-719"/>
<text text-anchor="middle" x="630" y="-687" font-family="Times New Roman,serif" font-size="35.00">H2O(S)</text>
</a>
</g>
</g>
<!-- H2O&#45;&gt;H2O(S) -->
<g id="edge10" class="edge"><title>H2O&#45;&gt;H2O(S)</title>
<path fill="none" stroke="green" stroke-width="3" d="M629.205,-783.974C629.347,-768.359 629.538,-747.302 629.698,-729.761"/>
<polygon fill="green" stroke="green" stroke-width="3" points="633.201,-729.405 629.792,-719.373 626.201,-729.341 633.201,-729.405"/>
<text text-anchor="middle" x="669" y="-744" font-family="Times New Roman,serif" font-size="30.00"> &#160;&#160;45%</text>
</g>
<!-- H2O(S)&#45;&gt;H(S) -->
<g id="edge49" class="edge"><title>H2O(S)&#45;&gt;H(S)</title>
<path fill="none" stroke="green" stroke-width="3" d="M600.058,-671.734C594.432,-666.836 588.812,-661.476 584,-656 565.729,-635.208 524.755,-577.57 517,-551 500.939,-495.973 523.724,-430.231 540.927,-392.133"/>
<polygon fill="green" stroke="green" stroke-width="3" points="544.101,-393.608 545.153,-383.065 537.756,-390.65 544.101,-393.608"/>
<text text-anchor="middle" x="556" y="-520" font-family="Times New Roman,serif" font-size="30.00"> &#160;&#160;45%</text>
</g>
<!-- OH(S) -->
<g id="node23" class="node"><title>OH(S)</title>
<g id="a_node23"><a xlink:href="Species\60.svg" xlink:title="OH(S)">
<polygon fill="purple" stroke="none" points="855,-607 745,-607 745,-560 855,-560 855,-607"/>
<text text-anchor="middle" x="800" y="-575" font-family="Times New Roman,serif" font-size="35.00">OH(S)</text>
</a>
</g>
</g>
<!-- H2O(S)&#45;&gt;OH(S) -->
<g id="edge48" class="edge"><title>H2O(S)&#45;&gt;OH(S)</title>
<path fill="none" stroke="green" stroke-width="3" d="M664.812,-671.974C691.31,-654.829 727.946,-631.123 756.396,-612.714"/>
<polygon fill="green" stroke="green" stroke-width="3" points="758.448,-615.555 764.943,-607.184 754.645,-609.678 758.448,-615.555"/>
<text text-anchor="middle" x="780" y="-632" font-family="Times New Roman,serif" font-size="30.00"> &#160;&#160;45%</text>
</g>
<!-- CH3CHOH(S)&#45;&gt;CH3CHO(S) -->
<g id="edge17" class="edge"><title>CH3CHOH(S)&#45;&gt;CH3CHO(S)</title>
<path fill="none" stroke="black" d="M584.042,-1120.57C682.799,-1101.24 825.843,-1073.24 923.988,-1054.03"/>
<polygon fill="black" stroke="black" points="924.796,-1057.44 933.938,-1052.09 923.451,-1050.57 924.796,-1057.44"/>
<text text-anchor="middle" x="868.5" y="-1080" font-family="Times New Roman,serif" font-size="30.00"> &#160;&#160;2%</text>
</g>
<!-- CH3CHOH(S)&#45;&gt;H(S) -->
<g id="edge16" class="edge"><title>CH3CHOH(S)&#45;&gt;H(S)</title>
<path fill="none" stroke="black" stroke-width="5" d="M584.251,-1135.67C765.451,-1123.51 1105.98,-1095.52 1143,-1055 1191.27,-1002.17 1133.97,-790.619 1179,-735 1193.15,-717.522 1213.85,-737.243 1227,-719 1299.55,-618.348 1214.95,-559.24 1160,-448 1148.26,-424.234 1149.06,-412.076 1126,-399 1081.82,-373.945 742.904,-364.32 610.119,-361.487"/>
<polygon fill="black" stroke="black" stroke-width="5" points="609.884,-357.106 599.795,-361.271 609.701,-365.854 609.884,-357.106"/>
<text text-anchor="middle" x="1218" y="-744" font-family="Times New Roman,serif" font-size="30.00"> &#160;&#160;84%</text>
</g>
<!-- CH3CHOH(S)&#45;&gt;H(S) -->
<g id="edge18" class="edge"><title>CH3CHOH(S)&#45;&gt;H(S)</title>
<path fill="none" stroke="black" d="M442.295,-1119.77C420.057,-1102.49 389.105,-1077.86 363,-1055 290.942,-991.891 258.167,-977.912 228,-887 209.14,-830.164 220,-812.383 220,-752.5 220,-752.5 220,-752.5 220,-470.5 220,-411.416 409.57,-379.082 504.35,-366.609"/>
<polygon fill="black" stroke="black" points="504.848,-370.073 514.319,-365.324 503.953,-363.131 504.848,-370.073"/>
<text text-anchor="middle" x="251.5" y="-744" font-family="Times New Roman,serif" font-size="30.00"> &#160;&#160;2%</text>
</g>
<!-- CH3COH(S) -->
<g id="node19" class="node"><title>CH3COH(S)</title>
<g id="a_node19"><a xlink:href="Species\16.svg" xlink:title="CH3COH(S)">
<polygon fill="springgreen" stroke="none" points="572,-1055 372,-1055 372,-1008 572,-1008 572,-1055"/>
<text text-anchor="middle" x="472" y="-1023" font-family="Times New Roman,serif" font-size="35.00">CH3COH(S)</text>
</a>
</g>
</g>
<!-- CH3CHOH(S)&#45;&gt;CH3COH(S) -->
<g id="edge15" class="edge"><title>CH3CHOH(S)&#45;&gt;CH3COH(S)</title>
<path fill="none" stroke="black" stroke-width="5" d="M472,-1119.97C472,-1104.36 472,-1083.3 472,-1065.76"/>
<polygon fill="black" stroke="black" stroke-width="5" points="476.375,-1065.37 472,-1055.37 467.625,-1065.37 476.375,-1065.37"/>
<text text-anchor="middle" x="511" y="-1080" font-family="Times New Roman,serif" font-size="30.00"> &#160;&#160;84%</text>
</g>
<!-- CH3CH2O(S)&#45;&gt;CH3CHO(S) -->
<g id="edge27" class="edge"><title>CH3CH2O(S)&#45;&gt;CH3CHO(S)</title>
<path fill="none" stroke="black" d="M1154.87,-1119.97C1131.39,-1102.98 1098.99,-1079.53 1073.65,-1061.19"/>
<polygon fill="black" stroke="black" points="1075.5,-1058.21 1065.35,-1055.18 1071.39,-1063.88 1075.5,-1058.21"/>
<text text-anchor="middle" x="1171" y="-1080" font-family="Times New Roman,serif" font-size="30.00"> &#160;&#160;12%</text>
</g>
<!-- CH3CH2O(S)&#45;&gt;H(S) -->
<g id="edge28" class="edge"><title>CH3CH2O(S)&#45;&gt;H(S)</title>
<path fill="none" stroke="black" d="M1221.96,-1119.85C1248.13,-1100.28 1279,-1069.39 1279,-1032.5 1279,-1032.5 1279,-1032.5 1279,-750.5 1279,-664.924 1278.85,-640.917 1251,-560 1241.74,-533.101 1234.27,-528.608 1220,-504 1213,-491.924 1163.2,-405.786 1151,-399 1104.41,-373.082 746.911,-363.931 610.059,-361.358"/>
<polygon fill="black" stroke="black" points="609.884,-357.854 599.822,-361.17 609.756,-364.853 609.884,-357.854"/>
<text text-anchor="middle" x="1318" y="-744" font-family="Times New Roman,serif" font-size="30.00"> &#160;&#160;12%</text>
</g>
<!-- CH3COH(S)&#45;&gt;H(S) -->
<g id="edge20" class="edge"><title>CH3COH(S)&#45;&gt;H(S)</title>
<path fill="none" stroke="green" stroke-width="4" d="M432.894,-1007.84C427.26,-1003.2 422.02,-997.899 418,-992 378.785,-934.457 401.33,-906.287 380,-840 362.278,-784.926 342.86,-775.826 332,-719 328.079,-698.482 328.825,-692.646 332,-672 341.668,-609.133 372.244,-443.183 418,-399 440.962,-376.828 475.52,-367.19 504.433,-363.102"/>
<polygon fill="green" stroke="green" stroke-width="4" points="504.898,-366.572 514.396,-361.876 504.043,-359.624 504.898,-366.572"/>
<text text-anchor="middle" x="371" y="-688" font-family="Times New Roman,serif" font-size="30.00"> &#160;&#160;72%</text>
</g>
<!-- CH3COH(S)&#45;&gt;H(S) -->
<g id="edge22" class="edge"><title>CH3COH(S)&#45;&gt;H(S)</title>
<path fill="none" stroke="green" d="M458.458,-1007.77C446.854,-986.113 432,-952.2 432,-920.5 432,-920.5 432,-920.5 432,-470.5 432,-429.236 470.864,-399.789 505.251,-381.81"/>
<polygon fill="green" stroke="green" points="506.956,-384.871 514.332,-377.265 503.823,-378.611 506.956,-384.871"/>
<text text-anchor="middle" x="471" y="-688" font-family="Times New Roman,serif" font-size="30.00"> &#160;&#160;11%</text>
</g>
<!-- CH2COH(S) -->
<g id="node20" class="node"><title>CH2COH(S)</title>
<g id="a_node20"><a xlink:href="Species\19.svg" xlink:title="CH2COH(S)">
<polygon fill="springgreen" stroke="none" points="660,-943 460,-943 460,-896 660,-896 660,-943"/>
<text text-anchor="middle" x="560" y="-911" font-family="Times New Roman,serif" font-size="35.00">CH2COH(S)</text>
</a>
</g>
</g>
<!-- CH3COH(S)&#45;&gt;CH2COH(S) -->
<g id="edge19" class="edge"><title>CH3COH(S)&#45;&gt;CH2COH(S)</title>
<path fill="none" stroke="green" stroke-width="4" d="M490.02,-1007.97C503.102,-991.622 520.957,-969.303 535.358,-951.303"/>
<polygon fill="green" stroke="green" stroke-width="4" points="538.187,-953.369 541.701,-943.373 532.721,-948.996 538.187,-953.369"/>
<text text-anchor="middle" x="569" y="-968" font-family="Times New Roman,serif" font-size="30.00"> &#160;&#160;72%</text>
</g>
<!-- CH3COH(S)&#45;&gt;CH3CO(S) -->
<g id="edge21" class="edge"><title>CH3COH(S)&#45;&gt;CH3CO(S)</title>
<path fill="none" stroke="green" d="M557.812,-1008C575.787,-1002.98 594.572,-997.503 612,-992 655.924,-978.131 704.601,-960.773 742.935,-946.633"/>
<polygon fill="green" stroke="green" points="744.285,-949.865 752.449,-943.111 741.855,-943.3 744.285,-949.865"/>
<text text-anchor="middle" x="745" y="-968" font-family="Times New Roman,serif" font-size="30.00"> &#160;&#160;11%</text>
</g>
<!-- CH3C(S) -->
<g id="node22" class="node"><title>CH3C(S)</title>
<g id="a_node22"><a xlink:href="Species\40.svg" xlink:title="CH3C(S)">
<polygon fill="springgreen" stroke="none" points="378.5,-887 229.5,-887 229.5,-840 378.5,-840 378.5,-887"/>
<text text-anchor="middle" x="304" y="-855" font-family="Times New Roman,serif" font-size="35.00">CH3C(S)</text>
</a>
</g>
</g>
<!-- CH3COH(S)&#45;&gt;CH3C(S) -->
<g id="edge23" class="edge"><title>CH3COH(S)&#45;&gt;CH3C(S)</title>
<path fill="none" stroke="black" d="M371.724,-1014.92C347,-1009.07 325.221,-1001.48 317,-992 294.765,-966.364 294.41,-926.02 297.755,-897.592"/>
<polygon fill="black" stroke="black" points="301.271,-897.722 299.181,-887.335 294.338,-896.758 301.271,-897.722"/>
<text text-anchor="middle" x="348.5" y="-968" font-family="Times New Roman,serif" font-size="30.00"> &#160;&#160;0%</text>
</g>
<!-- CH3COH(S)&#45;&gt;OH(S) -->
<g id="edge24" class="edge"><title>CH3COH(S)&#45;&gt;OH(S)</title>
<path fill="none" stroke="black" d="M572.187,-1027.48C694.29,-1022.93 887.693,-1012.56 914,-992 949.551,-964.221 912.026,-924.502 947,-896 971.315,-876.184 995.383,-909.729 1017,-887 1057.53,-844.392 1074.6,-666.474 1035,-623 1011.01,-596.657 915.265,-612.675 865.208,-606.53"/>
<polygon fill="black" stroke="black" points="865.704,-603.064 855.262,-604.859 864.544,-609.967 865.704,-603.064"/>
<text text-anchor="middle" x="1083.5" y="-800" font-family="Times New Roman,serif" font-size="30.00"> &#160;&#160;0%</text>
</g>
<!-- CH2COH(S)&#45;&gt;H(S) -->
<g id="edge26" class="edge"><title>CH2COH(S)&#45;&gt;H(S)</title>
<path fill="none" stroke="green" stroke-width="4" d="M562.321,-895.937C565.899,-848.869 567.496,-739.031 514,-672 502.824,-657.997 486.838,-670.973 477,-656 468.946,-643.743 475.676,-637.607 477,-623 486.17,-521.87 473.444,-488.183 522,-399 523.465,-396.31 525.155,-393.657 526.986,-391.079"/>
<polygon fill="green" stroke="green" stroke-width="4" points="529.792,-393.173 533.208,-383.144 524.283,-388.854 529.792,-393.173"/>
<text text-anchor="middle" x="516" y="-632" font-family="Times New Roman,serif" font-size="30.00"> &#160;&#160;72%</text>
</g>
<!-- CH2CO(S) -->
<g id="node24" class="node"><title>CH2CO(S)</title>
<g id="a_node24"><a xlink:href="Species\31.svg" xlink:title="CH2CO(S)">
<polygon fill="springgreen" stroke="none" points="917.5,-831 742.5,-831 742.5,-784 917.5,-784 917.5,-831"/>
<text text-anchor="middle" x="830" y="-799" font-family="Times New Roman,serif" font-size="35.00">CH2CO(S)</text>
</a>
</g>
</g>
<!-- CH2COH(S)&#45;&gt;CH2CO(S) -->
<g id="edge25" class="edge"><title>CH2COH(S)&#45;&gt;CH2CO(S)</title>
<path fill="none" stroke="green" stroke-width="4" d="M607.284,-895.922C642.421,-879.511 691.731,-857.244 736,-840 740.74,-838.154 745.638,-836.314 750.595,-834.504"/>
<polygon fill="green" stroke="green" stroke-width="4" points="751.945,-837.738 760.174,-831.065 749.579,-831.15 751.945,-837.738"/>
<text text-anchor="middle" x="775" y="-856" font-family="Times New Roman,serif" font-size="30.00"> &#160;&#160;72%</text>
</g>
<!-- CH3CO(S)&#45;&gt;H(S) -->
<g id="edge32" class="edge"><title>CH3CO(S)&#45;&gt;H(S)</title>
<path fill="none" stroke="green" stroke-width="2" d="M785.119,-895.994C767.526,-879.752 745.55,-856.302 733,-831 701.046,-766.576 754.347,-722.349 703,-672 672.428,-642.023 637.017,-687.485 608,-656 562.05,-606.142 606.611,-570.801 595,-504 588.279,-465.33 576.106,-421.883 567.346,-393.029"/>
<polygon fill="green" stroke="green" stroke-width="2" points="570.576,-391.623 564.29,-383.095 563.885,-393.682 570.576,-391.623"/>
<text text-anchor="middle" x="647" y="-632" font-family="Times New Roman,serif" font-size="30.00"> &#160;&#160;26%</text>
</g>
<!-- CH3CO(S)&#45;&gt;CH3(S) -->
<g id="edge33" class="edge"><title>CH3CO(S)&#45;&gt;CH3(S)</title>
<path fill="none" stroke="black" d="M899.532,-902.888C910.981,-898.771 922.142,-893.57 932,-887 945.68,-877.883 1291,-432.939 1291,-416.5 1291,-416.5 1291,-416.5 1291,-246.5 1291,-172.083 1050.64,-147.568 925.628,-139.85"/>
<polygon fill="black" stroke="black" points="925.556,-136.34 915.366,-139.238 925.139,-143.327 925.556,-136.34"/>
<text text-anchor="middle" x="1260.5" y="-520" font-family="Times New Roman,serif" font-size="30.00"> &#160;&#160;0%</text>
</g>
<!-- CH3CO(S)&#45;&gt;CO(S) -->
<g id="edge34" class="edge"><title>CH3CO(S)&#45;&gt;CO(S)</title>
<path fill="none" stroke="black" d="M896.061,-895.913C899.988,-893.265 903.671,-890.306 907,-887 956.566,-837.776 900.819,-787.413 947,-735 961.033,-719.074 973.842,-729.994 992,-719 1027.24,-697.662 1043.51,-693.756 1060,-656 1065.87,-642.559 1068.8,-634.733 1060,-623 1044.26,-602.01 1017.7,-591.947 992.518,-587.297"/>
<polygon fill="black" stroke="black" points="993.017,-583.833 982.591,-585.719 991.917,-590.746 993.017,-583.833"/>
<text text-anchor="middle" x="978.5" y="-744" font-family="Times New Roman,serif" font-size="30.00"> &#160;&#160;0%</text>
</g>
<!-- CH3CO(S)&#45;&gt;CH2CO(S) -->
<g id="edge31" class="edge"><title>CH3CO(S)&#45;&gt;CH2CO(S)</title>
<path fill="none" stroke="green" stroke-width="2" d="M815.686,-895.974C818.265,-880.211 821.752,-858.904 824.638,-841.265"/>
<polygon fill="green" stroke="green" stroke-width="2" points="828.096,-841.807 826.257,-831.373 821.188,-840.677 828.096,-841.807"/>
<text text-anchor="middle" x="864" y="-856" font-family="Times New Roman,serif" font-size="30.00"> &#160;&#160;26%</text>
</g>
<!-- CH3C(S)&#45;&gt;CH3CH(S) -->
<g id="edge41" class="edge"><title>CH3C(S)&#45;&gt;CH3CH(S)</title>
<path fill="none" stroke="green" d="M300.651,-839.825C291.928,-779.089 269.866,-613.71 280,-560 300.77,-449.922 369.475,-333.936 404.727,-279.786"/>
<polygon fill="green" stroke="green" points="407.719,-281.607 410.29,-271.328 401.87,-277.76 407.719,-281.607"/>
<text text-anchor="middle" x="311.5" y="-576" font-family="Times New Roman,serif" font-size="30.00"> &#160;&#160;0%</text>
</g>
<!-- OH(S)&#45;&gt;COOH(S) -->
<g id="edge50" class="edge"><title>OH(S)&#45;&gt;COOH(S)</title>
<path fill="none" stroke="black" stroke-width="3" d="M744.819,-563.828C740.165,-562.46 735.515,-561.163 731,-560 710.404,-554.693 697.551,-567.392 684,-551 670.691,-534.9 672.522,-521.453 684,-504 684.265,-503.596 684.537,-503.198 684.815,-502.804"/>
<polygon fill="black" stroke="black" stroke-width="3" points="687.478,-505.077 691.482,-495.268 682.235,-500.439 687.478,-505.077"/>
<text text-anchor="middle" x="723" y="-520" font-family="Times New Roman,serif" font-size="30.00"> &#160;&#160;45%</text>
</g>
<!-- CH2CO(S)&#45;&gt;H(S) -->
<g id="edge36" class="edge"><title>CH2CO(S)&#45;&gt;H(S)</title>
<path fill="none" stroke="green" stroke-width="5" d="M825.665,-783.817C816.535,-737.131 795.168,-633.752 783,-623 741.029,-585.914 698.377,-645.816 658,-607 590.42,-542.032 676.296,-476.12 623,-399 619.048,-393.281 613.948,-388.29 608.335,-383.969"/>
<polygon fill="green" stroke="green" stroke-width="5" points="610.539,-380.174 599.821,-378.11 605.579,-387.383 610.539,-380.174"/>
<text text-anchor="middle" x="697" y="-576" font-family="Times New Roman,serif" font-size="30.00"> &#160;&#160;98%</text>
</g>
<!-- CHCO(S) -->
<g id="node25" class="node"><title>CHCO(S)</title>
<g id="a_node25"><a xlink:href="Species\34.svg" xlink:title="CHCO(S)">
<polygon fill="springgreen" stroke="none" points="982.5,-719 825.5,-719 825.5,-672 982.5,-672 982.5,-719"/>
<text text-anchor="middle" x="904" y="-687" font-family="Times New Roman,serif" font-size="35.00">CHCO(S)</text>
</a>
</g>
</g>
<!-- CH2CO(S)&#45;&gt;CHCO(S) -->
<g id="edge35" class="edge"><title>CH2CO(S)&#45;&gt;CHCO(S)</title>
<path fill="none" stroke="green" stroke-width="5" d="M830.756,-783.822C832.237,-768.826 836.125,-749.359 846,-735 848.183,-731.826 850.722,-728.845 853.493,-726.059"/>
<polygon fill="green" stroke="green" stroke-width="5" points="856.715,-729.049 861.291,-719.14 850.908,-722.505 856.715,-729.049"/>
<text text-anchor="middle" x="885" y="-744" font-family="Times New Roman,serif" font-size="30.00"> &#160;&#160;98%</text>
</g>
<!-- CHCO(S)&#45;&gt;CO(S) -->
<g id="edge38" class="edge"><title>CHCO(S)&#45;&gt;CO(S)</title>
<path fill="none" stroke="black" stroke-width="5" d="M868.019,-671.969C863.158,-667.309 858.865,-661.971 856,-656 849.655,-642.777 848.461,-635.581 856,-623 858.552,-618.741 861.755,-614.926 865.381,-611.514"/>
<polygon fill="black" stroke="black" stroke-width="5" points="868.329,-614.757 873.347,-605.063 862.823,-607.956 868.329,-614.757"/>
<text text-anchor="middle" x="895" y="-632" font-family="Times New Roman,serif" font-size="30.00"> &#160;&#160;98%</text>
</g>
<!-- CH(S) -->
<g id="node26" class="node"><title>CH(S)</title>
<g id="a_node26"><a xlink:href="Species\57.svg" xlink:title="CH(S)">
<polygon fill="springgreen" stroke="none" points="1076,-551 968,-551 968,-504 1076,-504 1076,-551"/>
<text text-anchor="middle" x="1022" y="-519" font-family="Times New Roman,serif" font-size="35.00">CH(S)</text>
</a>
</g>
</g>
<!-- CHCO(S)&#45;&gt;CH(S) -->
<g id="edge37" class="edge"><title>CHCO(S)&#45;&gt;CH(S)</title>
<path fill="none" stroke="black" stroke-width="5" d="M932.522,-671.753C951.485,-655.403 975.79,-631.924 992,-607 1001.18,-592.889 1008.18,-575.553 1013.1,-560.764"/>
<polygon fill="black" stroke="black" stroke-width="5" points="1017.34,-561.857 1016.17,-551.004 1008.99,-559.227 1017.34,-561.857"/>
<text text-anchor="middle" x="1018" y="-632" font-family="Times New Roman,serif" font-size="30.00"> &#160;&#160;98%</text>
</g>
<!-- CH(S)&#45;&gt;CH2(S) -->
<g id="edge46" class="edge"><title>CH(S)&#45;&gt;CH2(S)</title>
<path fill="none" stroke="green" stroke-width="5" d="M1059.07,-503.816C1092.44,-480.197 1134.11,-440.856 1119,-399 1100.17,-346.842 1051.97,-303.614 1015.86,-277.07"/>
<polygon fill="green" stroke="green" stroke-width="5" points="1018.1,-273.295 1007.43,-271.012 1013,-280.401 1018.1,-273.295"/>
<text text-anchor="middle" x="1161" y="-408" font-family="Times New Roman,serif" font-size="30.00"> &#160;&#160;99%</text>
</g>
<!-- CH3CH(S)&#45;&gt;CH3CH2(S) -->
<g id="edge39" class="edge"><title>CH3CH(S)&#45;&gt;CH3CH2(S)</title>
<path fill="none" stroke="black" d="M427.843,-223.974C429.121,-208.359 430.843,-187.302 432.279,-169.761"/>
<polygon fill="black" stroke="black" points="435.801,-169.626 433.129,-159.373 428.825,-169.055 435.801,-169.626"/>
<text text-anchor="middle" x="463.5" y="-184" font-family="Times New Roman,serif" font-size="30.00"> &#160;&#160;0%</text>
</g>
<!-- COOH(S)&#45;&gt;H(S) -->
<g id="edge52" class="edge"><title>COOH(S)&#45;&gt;H(S)</title>
<path fill="none" stroke="black" stroke-width="3" d="M731.722,-447.899C713.583,-432.554 688.021,-412.647 663,-399 646.177,-389.824 626.723,-382.037 609.11,-375.918"/>
<polygon fill="black" stroke="black" stroke-width="3" points="610.136,-372.57 599.542,-372.692 607.9,-379.203 610.136,-372.57"/>
<text text-anchor="middle" x="751" y="-408" font-family="Times New Roman,serif" font-size="30.00"> &#160;&#160;45%</text>
</g>
<!-- COOH(S)&#45;&gt;CO2(S) -->
<g id="edge51" class="edge"><title>COOH(S)&#45;&gt;CO2(S)</title>
<path fill="none" stroke="black" stroke-width="3" d="M836.618,-450.113C839.446,-449.398 842.247,-448.692 845,-448 941.901,-423.637 1053.87,-396.056 1125.5,-378.486"/>
<polygon fill="black" stroke="black" stroke-width="3" points="1126.45,-381.856 1135.33,-376.074 1124.79,-375.057 1126.45,-381.856"/>
<text text-anchor="middle" x="1076" y="-408" font-family="Times New Roman,serif" font-size="30.00"> &#160;&#160;45%</text>
</g>
<!-- CH2(S)&#45;&gt;CH3(S) -->
<g id="edge44" class="edge"><title>CH2(S)&#45;&gt;CH3(S)</title>
<path fill="none" stroke="black" stroke-width="5" d="M947.427,-223.974C929.266,-207.328 904.36,-184.497 884.546,-166.334"/>
<polygon fill="black" stroke="black" stroke-width="5" points="887.281,-162.906 876.953,-159.373 881.368,-169.356 887.281,-162.906"/>
<text text-anchor="middle" x="969" y="-184" font-family="Times New Roman,serif" font-size="30.00"> &#160;&#160;99%</text>
</g>
</g>
</svg>
