<?xml version="1.0" encoding="UTF-8" standalone="no"?>
<!DOCTYPE svg PUBLIC "-//W3C//DTD SVG 1.1//EN"
 "http://www.w3.org/Graphics/SVG/1.1/DTD/svg11.dtd">
<!-- Generated by graphviz version 2.38.0 (20140413.2041)
 -->
<!-- Title: G Pages: 1 -->
<svg width="640pt" height="75pt"
 viewBox="0.00 0.00 720.00 84.33" xmlns="http://www.w3.org/2000/svg" xmlns:xlink="http://www.w3.org/1999/xlink">
<g id="graph0" class="graph" transform="scale(0.66632 0.66632) rotate(0) translate(4 108.5)">
<title>G</title>
<polygon fill="white" stroke="none" points="-4,4 -4,-108.5 956.5,-108.5 956.5,4 -4,4"/>
<text text-anchor="middle" x="476.25" y="-71.7" font-family="Arial" font-size="36.00" fill="blue">Reaction Path Analysis</text>
<!-- CH3CH2OH -->
<g id="node1" class="node"><title>CH3CH2OH</title>
<g id="a_node1"><a xlink:href="0.svg" xlink:title="CH3CH2OH">
<polygon fill="none" stroke="none" points="199,-47 0,-47 0,3.55271e-015 199,3.55271e-015 199,-47"/>
<text text-anchor="middle" x="99.5" y="-15" font-family="Times New Roman,serif" font-size="35.00">CH3CH2OH</text>
</a>
</g>
</g>
<!-- CH3CH2OH(S) -->
<g id="node2" class="node"><title>CH3CH2OH(S)</title>
<g id="a_node2"><a xlink:href="14.svg" xlink:title="CH3CH2OH(S)">
<polygon fill="dodgerblue" stroke="none" points="952.5,-47 710.5,-47 710.5,3.55271e-015 952.5,3.55271e-015 952.5,-47"/>
<text text-anchor="middle" x="831.5" y="-15" font-family="Times New Roman,serif" font-size="35.00">CH3CH2OH(S)</text>
</a>
</g>
</g>
<!-- CH3CH2OH&#45;&gt;CH3CH2OH(S) -->
<g id="edge1" class="edge"><title>CH3CH2OH&#45;&gt;CH3CH2OH(S)</title>
<path fill="none" stroke="green" stroke-width="6" d="M199.331,-23.5C325.963,-23.5 546.265,-23.5 690.222,-23.5"/>
<polygon fill="green" stroke="green" stroke-width="6" points="690.448,-34.0001 710.448,-23.5 690.448,-13.0001 690.448,-34.0001"/>
<text text-anchor="middle" x="465.5" y="-32.5" font-family="Times New Roman,serif" font-size="30.00"> &#160;&#160;2 &#160;&#160;100% &#160;&#160;5.48e&#45;06 mol/s &#160;&#160;&#160;5.00E&#45;01</text>
</g>
</g>
</svg>
