<?xml version="1.0" encoding="UTF-8" standalone="no"?>
<!DOCTYPE svg PUBLIC "-//W3C//DTD SVG 1.1//EN"
 "http://www.w3.org/Graphics/SVG/1.1/DTD/svg11.dtd">
<!-- Generated by graphviz version 2.38.0 (20140413.2041)
 -->
<!-- Title: G Pages: 1 -->
<svg width="640pt" height="82pt"
 viewBox="0.00 0.00 720.00 92.47" xmlns="http://www.w3.org/2000/svg" xmlns:xlink="http://www.w3.org/1999/xlink">
<g id="graph0" class="graph" transform="scale(0.730594 0.730594) rotate(0) translate(4 108.5)">
<title>G</title>
<polygon fill="white" stroke="none" points="-4,4 -4,-108.5 872,-108.5 872,4 -4,4"/>
<text text-anchor="middle" x="434" y="-71.7" font-family="Arial" font-size="36.00" fill="blue">Reaction Path Analysis</text>
<!-- CH3CHO -->
<g id="node1" class="node"><title>CH3CHO</title>
<g id="a_node1"><a xlink:href="1.svg" xlink:title="CH3CHO">
<polygon fill="none" stroke="none" points="868,-47 712,-47 712,3.55271e-015 868,3.55271e-015 868,-47"/>
<text text-anchor="middle" x="790" y="-15" font-family="Times New Roman,serif" font-size="35.00">CH3CHO</text>
</a>
</g>
</g>
<!-- CH3CHO(S) -->
<g id="node2" class="node"><title>CH3CHO(S)</title>
<g id="a_node2"><a xlink:href="27.svg" xlink:title="CH3CHO(S)">
<polygon fill="dodgerblue" stroke="none" points="200,-47 0,-47 0,3.55271e-015 200,3.55271e-015 200,-47"/>
<text text-anchor="middle" x="100" y="-15" font-family="Times New Roman,serif" font-size="35.00">CH3CHO(S)</text>
</a>
</g>
</g>
<!-- CH3CHO(S)&#45;&gt;CH3CHO -->
<g id="edge1" class="edge"><title>CH3CHO(S)&#45;&gt;CH3CHO</title>
<path fill="none" stroke="green" stroke-width="6" d="M200.306,-23.5C331.619,-23.5 561.56,-23.5 691.805,-23.5"/>
<polygon fill="green" stroke="green" stroke-width="6" points="691.822,-34.0001 711.822,-23.5 691.822,-13.0001 691.822,-34.0001"/>
<text text-anchor="middle" x="445" y="-32.5" font-family="Times New Roman,serif" font-size="30.00"> &#160;&#160;3 &#160;&#160;100% &#160;&#160;1.67e&#45;08 mol/s &#160;&#160;&#160;5.00E&#45;01</text>
</g>
</g>
</svg>
