<?xml version="1.0" encoding="UTF-8" standalone="no"?>
<!DOCTYPE svg PUBLIC "-//W3C//DTD SVG 1.1//EN"
 "http://www.w3.org/Graphics/SVG/1.1/DTD/svg11.dtd">
<!-- Generated by graphviz version 2.38.0 (20140413.2041)
 -->
<!-- Title: G Pages: 1 -->
<svg width="630pt" height="100pt"
 viewBox="0.00 0.00 709.00 112.50" xmlns="http://www.w3.org/2000/svg" xmlns:xlink="http://www.w3.org/1999/xlink">
<g id="graph0" class="graph" transform="scale(0.888889 0.888889) rotate(0) translate(4 108.5)">
<title>G</title>
<polygon fill="white" stroke="none" points="-4,4 -4,-108.5 705,-108.5 705,4 -4,4"/>
<text text-anchor="middle" x="350.5" y="-71.7" font-family="Arial" font-size="36.00" fill="blue">Reaction Path Analysis</text>
<!-- CO -->
<g id="node1" class="node"><title>CO</title>
<g id="a_node1"><a xlink:href="10.svg" xlink:title="CO">
<polygon fill="none" stroke="none" points="701,-47 636,-47 636,3.55271e-015 701,3.55271e-015 701,-47"/>
<text text-anchor="middle" x="668.5" y="-15" font-family="Times New Roman,serif" font-size="35.00">CO</text>
</a>
</g>
</g>
<!-- CO(S) -->
<g id="node2" class="node"><title>CO(S)</title>
<g id="a_node2"><a xlink:href="54.svg" xlink:title="CO(S)">
<polygon fill="orange" stroke="none" points="109,-47 0,-47 0,3.55271e-015 109,3.55271e-015 109,-47"/>
<text text-anchor="middle" x="54.5" y="-15" font-family="Times New Roman,serif" font-size="35.00">CO(S)</text>
</a>
</g>
</g>
<!-- CO(S)&#45;&gt;CO -->
<g id="edge1" class="edge"><title>CO(S)&#45;&gt;CO</title>
<path fill="none" stroke="green" stroke-width="6" d="M109.007,-23.5C225.429,-23.5 500.491,-23.5 615.515,-23.5"/>
<polygon fill="green" stroke="green" stroke-width="6" points="615.675,-34.0001 635.675,-23.5 615.675,-13.0001 615.675,-34.0001"/>
<text text-anchor="middle" x="361.5" y="-32.5" font-family="Times New Roman,serif" font-size="30.00"> &#160;&#160;12 &#160;&#160;100% &#160;&#160;2.95e&#45;06 mol/s &#160;&#160;&#160;5.00E&#45;01</text>
</g>
</g>
</svg>
