<?xml version="1.0" encoding="UTF-8" standalone="no"?>
<!DOCTYPE svg PUBLIC "-//W3C//DTD SVG 1.1//EN"
 "http://www.w3.org/Graphics/SVG/1.1/DTD/svg11.dtd">
<!-- Generated by graphviz version 2.38.0 (20140413.2041)
 -->
<!-- Title: G Pages: 1 -->
<svg width="640pt" height="99pt"
 viewBox="0.00 0.00 720.00 110.96" xmlns="http://www.w3.org/2000/svg" xmlns:xlink="http://www.w3.org/1999/xlink">
<g id="graph0" class="graph" transform="scale(0.876712 0.876712) rotate(0) translate(4 108.5)">
<title>G</title>
<polygon fill="white" stroke="none" points="-4,4 -4,-108.5 726,-108.5 726,4 -4,4"/>
<text text-anchor="middle" x="361" y="-71.7" font-family="Arial" font-size="36.00" fill="blue">Reaction Path Analysis</text>
<!-- CO2 -->
<g id="node1" class="node"><title>CO2</title>
<g id="a_node1"><a xlink:href="11.svg" xlink:title="CO2">
<polygon fill="none" stroke="none" points="722,-47 639,-47 639,3.55271e-015 722,3.55271e-015 722,-47"/>
<text text-anchor="middle" x="680.5" y="-15" font-family="Times New Roman,serif" font-size="35.00">CO2</text>
</a>
</g>
</g>
<!-- CO2(S) -->
<g id="node2" class="node"><title>CO2(S)</title>
<g id="a_node2"><a xlink:href="63.svg" xlink:title="CO2(S)">
<polygon fill="dodgerblue" stroke="none" points="127,-47 -7.10543e-015,-47 -7.10543e-015,3.55271e-015 127,3.55271e-015 127,-47"/>
<text text-anchor="middle" x="63.5" y="-15" font-family="Times New Roman,serif" font-size="35.00">CO2(S)</text>
</a>
</g>
</g>
<!-- CO2(S)&#45;&gt;CO2 -->
<g id="edge1" class="edge"><title>CO2(S)&#45;&gt;CO2</title>
<path fill="none" stroke="green" stroke-width="6" d="M127.14,-23.5C245.73,-23.5 501.626,-23.5 618.745,-23.5"/>
<polygon fill="green" stroke="green" stroke-width="6" points="618.935,-34.0001 638.934,-23.5 618.934,-13.0001 618.935,-34.0001"/>
<text text-anchor="middle" x="372" y="-32.5" font-family="Times New Roman,serif" font-size="30.00"> &#160;&#160;13 &#160;&#160;100% &#160;&#160;2.5e&#45;06 mol/s &#160;&#160;&#160;5.00E&#45;01</text>
</g>
</g>
</svg>
