<?xml version="1.0" encoding="UTF-8" standalone="no"?>
<!DOCTYPE svg PUBLIC "-//W3C//DTD SVG 1.1//EN"
 "http://www.w3.org/Graphics/SVG/1.1/DTD/svg11.dtd">
<!-- Generated by graphviz version 2.38.0 (20140413.2041)
 -->
<!-- Title: G Pages: 1 -->
<svg width="640pt" height="96pt"
 viewBox="0.00 0.00 720.00 108.36" xmlns="http://www.w3.org/2000/svg" xmlns:xlink="http://www.w3.org/1999/xlink">
<g id="graph0" class="graph" transform="scale(0.856187 0.856187) rotate(0) translate(4 108.5)">
<title>G</title>
<polygon fill="white" stroke="none" points="-4,4 -4,-108.5 743.5,-108.5 743.5,4 -4,4"/>
<text text-anchor="middle" x="369.75" y="-71.7" font-family="Arial" font-size="36.00" fill="blue">Reaction Path Analysis</text>
<!-- H2O -->
<g id="node1" class="node"><title>H2O</title>
<g id="a_node1"><a xlink:href="12.svg" xlink:title="H2O">
<polygon fill="none" stroke="none" points="85,-47 0,-47 0,3.55271e-015 85,3.55271e-015 85,-47"/>
<text text-anchor="middle" x="42.5" y="-15" font-family="Times New Roman,serif" font-size="35.00">H2O</text>
</a>
</g>
</g>
<!-- H2O(S) -->
<g id="node2" class="node"><title>H2O(S)</title>
<g id="a_node2"><a xlink:href="59.svg" xlink:title="H2O(S)">
<polygon fill="springgreen" stroke="none" points="739.5,-47 611.5,-47 611.5,3.55271e-015 739.5,3.55271e-015 739.5,-47"/>
<text text-anchor="middle" x="675.5" y="-15" font-family="Times New Roman,serif" font-size="35.00">H2O(S)</text>
</a>
</g>
</g>
<!-- H2O&#45;&gt;H2O(S) -->
<g id="edge1" class="edge"><title>H2O&#45;&gt;H2O(S)</title>
<path fill="none" stroke="green" stroke-width="6" d="M85.3903,-23.5C188.178,-23.5 454.407,-23.5 590.987,-23.5"/>
<polygon fill="green" stroke="green" stroke-width="6" points="591.353,-34.0001 611.353,-23.5 591.353,-13.0001 591.353,-34.0001"/>
<text text-anchor="middle" x="359" y="-32.5" font-family="Times New Roman,serif" font-size="30.00"> &#160;&#160;14 &#160;&#160;100% &#160;&#160;2.48e&#45;06 mol/s &#160;&#160;&#160;5.00E&#45;01</text>
</g>
</g>
</svg>
