<?xml version="1.0" encoding="UTF-8" standalone="no"?>
<!DOCTYPE svg PUBLIC "-//W3C//DTD SVG 1.1//EN"
 "http://www.w3.org/Graphics/SVG/1.1/DTD/svg11.dtd">
<!-- Generated by graphviz version 2.38.0 (20140413.2041)
 -->
<!-- Title: G Pages: 1 -->
<svg width="640pt" height="112pt"
 viewBox="0.00 0.00 720.00 126.23" xmlns="http://www.w3.org/2000/svg" xmlns:xlink="http://www.w3.org/1999/xlink">
<g id="graph0" class="graph" transform="scale(0.38016 0.38016) rotate(0) translate(4 291.151)">
<title>G</title>
<polygon fill="white" stroke="none" points="-4,4 -4,-291.151 1679.5,-291.151 1679.5,4 -4,4"/>
<text text-anchor="middle" x="837.75" y="-254.351" font-family="Arial" font-size="36.00" fill="blue">Reaction Path Analysis</text>
<!-- CH3CH2OH(S) -->
<g id="node1" class="node"><title>CH3CH2OH(S)</title>
<g id="a_node1"><a xlink:href="14.svg" xlink:title="CH3CH2OH(S)">
<polygon fill="dodgerblue" stroke="none" points="952.5,-143.651 710.5,-143.651 710.5,-96.6508 952.5,-96.6508 952.5,-143.651"/>
<text text-anchor="middle" x="831.5" y="-111.651" font-family="Times New Roman,serif" font-size="35.00">CH3CH2OH(S)</text>
</a>
</g>
</g>
<!-- CH3CHOH(S) -->
<g id="node3" class="node"><title>CH3CHOH(S)</title>
<g id="a_node3"><a xlink:href="15.svg" xlink:title="CH3CHOH(S)">
<polygon fill="dodgerblue" stroke="none" points="1675.5,-227.651 1451.5,-227.651 1451.5,-180.651 1675.5,-180.651 1675.5,-227.651"/>
<text text-anchor="middle" x="1563.5" y="-195.651" font-family="Times New Roman,serif" font-size="35.00">CH3CHOH(S)</text>
</a>
</g>
</g>
<!-- CH3CH2OH(S)&#45;&gt;CH3CHOH(S) -->
<g id="edge2" class="edge"><title>CH3CH2OH(S)&#45;&gt;CH3CHOH(S)</title>
<path fill="none" stroke="black" stroke-width="5" d="M887.721,-143.672C910.204,-152.232 936.697,-161.05 961.5,-166.151 1120.79,-198.911 1308.39,-205.89 1431.09,-206.322"/>
<polygon fill="black" stroke="black" stroke-width="5" points="1431.33,-215.072 1451.33,-206.336 1431.34,-197.572 1431.33,-215.072"/>
<text text-anchor="middle" x="1197.5" y="-215.151" font-family="Times New Roman,serif" font-size="30.00"> &#160;&#160;15 &#160;&#160;87% &#160;&#160;4.77e&#45;06 mol/s &#160;&#160;&#160;9.99E&#45;01</text>
</g>
<!-- H(S) -->
<g id="node4" class="node"><title>H(S)</title>
<g id="a_node4"><a xlink:href="62.svg" xlink:title="H(S)">
<polygon fill="orange" stroke="none" points="1606,-143.651 1521,-143.651 1521,-96.6508 1606,-96.6508 1606,-143.651"/>
<text text-anchor="middle" x="1563.5" y="-111.651" font-family="Times New Roman,serif" font-size="35.00">H(S)</text>
</a>
</g>
</g>
<!-- CH3CH2OH(S)&#45;&gt;H(S) -->
<g id="edge3" class="edge"><title>CH3CH2OH(S)&#45;&gt;H(S)</title>
<path fill="none" stroke="black" stroke-width="5" d="M952.66,-125.923C955.636,-126.007 958.586,-126.083 961.5,-126.151 1171.22,-131.025 1223.78,-131.025 1433.5,-126.151 1455.44,-125.641 1479.46,-124.644 1500.76,-123.607"/>
<polygon fill="black" stroke="black" stroke-width="5" points="1501.45,-132.333 1520.98,-122.573 1500.56,-114.856 1501.45,-132.333"/>
<text text-anchor="middle" x="1197.5" y="-138.151" font-family="Times New Roman,serif" font-size="30.00"> &#160;&#160;15 &#160;&#160;87% &#160;&#160;4.77e&#45;06 mol/s &#160;&#160;&#160;9.99E&#45;01</text>
</g>
<!-- CH3CH2OH(S)&#45;&gt;H(S) -->
<g id="edge5" class="edge"><title>CH3CH2OH(S)&#45;&gt;H(S)</title>
<path fill="none" stroke="black" d="M918.033,-96.6195C932.44,-93.5155 947.318,-90.8309 961.5,-89.1508 1169.82,-64.4713 1225.18,-64.4713 1433.5,-89.1508 1459.42,-92.2214 1487.67,-98.6472 1511.1,-104.856"/>
<polygon fill="black" stroke="black" points="1510.26,-108.255 1520.83,-107.494 1512.1,-101.499 1510.26,-108.255"/>
<text text-anchor="middle" x="1197.5" y="-98.1508" font-family="Times New Roman,serif" font-size="30.00"> &#160;&#160;69 &#160;&#160;12% &#160;&#160;7.05e&#45;07 mol/s &#160;&#160;&#160;9.45E&#45;01</text>
</g>
<!-- CH3CH2O(S) -->
<g id="node5" class="node"><title>CH3CH2O(S)</title>
<g id="a_node5"><a xlink:href="26.svg" xlink:title="CH3CH2O(S)">
<polygon fill="purple" stroke="none" points="1672.5,-59.6508 1454.5,-59.6508 1454.5,-12.6508 1672.5,-12.6508 1672.5,-59.6508"/>
<text text-anchor="middle" x="1563.5" y="-27.6508" font-family="Times New Roman,serif" font-size="35.00">CH3CH2O(S)</text>
</a>
</g>
</g>
<!-- CH3CH2OH(S)&#45;&gt;CH3CH2O(S) -->
<g id="edge4" class="edge"><title>CH3CH2OH(S)&#45;&gt;CH3CH2O(S)</title>
<path fill="none" stroke="black" d="M857.777,-96.6052C882.201,-75.5921 921.312,-46.3188 961.5,-34.1508 1123.23,14.8161 1320.85,1.02904 1444.23,-15.711"/>
<polygon fill="black" stroke="black" points="1444.07,-19.2223 1454.46,-17.1284 1445.03,-12.2886 1444.07,-19.2223"/>
<text text-anchor="middle" x="1197.5" y="-43.1508" font-family="Times New Roman,serif" font-size="30.00"> &#160;&#160;69 &#160;&#160;12% &#160;&#160;7.05e&#45;07 mol/s &#160;&#160;&#160;9.45E&#45;01</text>
</g>
<!-- CH3CH2OH -->
<g id="node2" class="node"><title>CH3CH2OH</title>
<g id="a_node2"><a xlink:href="0.svg" xlink:title="CH3CH2OH">
<polygon fill="none" stroke="none" points="199,-143.651 0,-143.651 0,-96.6508 199,-96.6508 199,-143.651"/>
<text text-anchor="middle" x="99.5" y="-111.651" font-family="Times New Roman,serif" font-size="35.00">CH3CH2OH</text>
</a>
</g>
</g>
<!-- CH3CH2OH&#45;&gt;CH3CH2OH(S) -->
<g id="edge1" class="edge"><title>CH3CH2OH&#45;&gt;CH3CH2OH(S)</title>
<path fill="none" stroke="green" stroke-width="6" d="M199.331,-120.151C325.963,-120.151 546.265,-120.151 690.222,-120.151"/>
<polygon fill="green" stroke="green" stroke-width="6" points="690.448,-130.651 710.448,-120.151 690.448,-109.651 690.448,-130.651"/>
<text text-anchor="middle" x="465.5" y="-129.151" font-family="Times New Roman,serif" font-size="30.00"> &#160;&#160;2 &#160;&#160;100% &#160;&#160;5.48e&#45;06 mol/s &#160;&#160;&#160;5.00E&#45;01</text>
</g>
</g>
</svg>
