<?xml version="1.0" encoding="UTF-8" standalone="no"?>
<!DOCTYPE svg PUBLIC "-//W3C//DTD SVG 1.1//EN"
 "http://www.w3.org/Graphics/SVG/1.1/DTD/svg11.dtd">
<!-- Generated by graphviz version 2.38.0 (20140413.2041)
 -->
<!-- Title: G Pages: 1 -->
<svg width="640pt" height="108pt"
 viewBox="0.00 0.00 720.00 121.98" xmlns="http://www.w3.org/2000/svg" xmlns:xlink="http://www.w3.org/1999/xlink">
<g id="graph0" class="graph" transform="scale(0.371445 0.371445) rotate(0) translate(4 287.913)">
<title>G</title>
<polygon fill="white" stroke="none" points="-4,4 -4,-287.913 1719,-287.913 1719,4 -4,4"/>
<text text-anchor="middle" x="857.5" y="-251.113" font-family="Arial" font-size="36.00" fill="blue">Reaction Path Analysis</text>
<!-- CH3CHOH(S) -->
<g id="node1" class="node"><title>CH3CHOH(S)</title>
<g id="a_node1"><a xlink:href="15.svg" xlink:title="CH3CHOH(S)">
<polygon fill="dodgerblue" stroke="none" points="980,-141.413 756,-141.413 756,-94.4132 980,-94.4132 980,-141.413"/>
<text text-anchor="middle" x="868" y="-109.413" font-family="Times New Roman,serif" font-size="35.00">CH3CHOH(S)</text>
</a>
</g>
</g>
<!-- CH3COH(S) -->
<g id="node3" class="node"><title>CH3COH(S)</title>
<g id="a_node3"><a xlink:href="16.svg" xlink:title="CH3COH(S)">
<polygon fill="springgreen" stroke="none" points="1715,-225.413 1515,-225.413 1515,-178.413 1715,-178.413 1715,-225.413"/>
<text text-anchor="middle" x="1615" y="-193.413" font-family="Times New Roman,serif" font-size="35.00">CH3COH(S)</text>
</a>
</g>
</g>
<!-- CH3CHOH(S)&#45;&gt;CH3COH(S) -->
<g id="edge2" class="edge"><title>CH3CHOH(S)&#45;&gt;CH3COH(S)</title>
<path fill="none" stroke="black" stroke-width="5" d="M927.881,-141.529C951.614,-150.047 979.488,-158.811 1005.5,-163.913 1173.08,-196.787 1371.13,-203.318 1494.68,-203.653"/>
<polygon fill="black" stroke="black" stroke-width="5" points="1494.97,-212.403 1514.98,-203.654 1494.98,-194.903 1494.97,-212.403"/>
<text text-anchor="middle" x="1241.5" y="-211.913" font-family="Times New Roman,serif" font-size="30.00"> &#160;&#160;16 &#160;&#160;96% &#160;&#160;4.62e&#45;06 mol/s &#160;&#160;&#160;5.57E&#45;01</text>
</g>
<!-- H(S) -->
<g id="node4" class="node"><title>H(S)</title>
<g id="a_node4"><a xlink:href="62.svg" xlink:title="H(S)">
<polygon fill="orange" stroke="none" points="1657.5,-141.413 1572.5,-141.413 1572.5,-94.4132 1657.5,-94.4132 1657.5,-141.413"/>
<text text-anchor="middle" x="1615" y="-109.413" font-family="Times New Roman,serif" font-size="35.00">H(S)</text>
</a>
</g>
</g>
<!-- CH3CHOH(S)&#45;&gt;H(S) -->
<g id="edge3" class="edge"><title>CH3CHOH(S)&#45;&gt;H(S)</title>
<path fill="none" stroke="black" stroke-width="5" d="M980.356,-123.212C988.863,-123.493 997.318,-123.733 1005.5,-123.913 1215.23,-128.52 1267.77,-128.52 1477.5,-123.913 1501.92,-123.377 1528.78,-122.301 1552.17,-121.207"/>
<polygon fill="black" stroke="black" stroke-width="5" points="1552.95,-129.929 1572.5,-120.211 1552.09,-112.45 1552.95,-129.929"/>
<text text-anchor="middle" x="1241.5" y="-135.913" font-family="Times New Roman,serif" font-size="30.00"> &#160;&#160;16 &#160;&#160;96% &#160;&#160;4.62e&#45;06 mol/s &#160;&#160;&#160;5.57E&#45;01</text>
</g>
<!-- CH3CHOH(S)&#45;&gt;H(S) -->
<g id="edge5" class="edge"><title>CH3CHOH(S)&#45;&gt;H(S)</title>
<path fill="none" stroke="black" d="M959.563,-94.3797C974.8,-91.276 990.527,-88.592 1005.5,-86.9132 1213.97,-63.5382 1269.03,-63.5382 1477.5,-86.9132 1505.96,-90.1045 1537.15,-96.9277 1562.52,-103.362"/>
<polygon fill="black" stroke="black" points="1561.73,-106.775 1572.29,-105.895 1563.49,-99.9987 1561.73,-106.775"/>
<text text-anchor="middle" x="1241.5" y="-95.9132" font-family="Times New Roman,serif" font-size="30.00"> &#160;&#160;70 &#160;&#160;3% &#160;&#160;1.53e&#45;07 mol/s &#160;&#160;&#160;5.55E&#45;01</text>
</g>
<!-- CH3CHO(S) -->
<g id="node5" class="node"><title>CH3CHO(S)</title>
<g id="a_node5"><a xlink:href="27.svg" xlink:title="CH3CHO(S)">
<polygon fill="dodgerblue" stroke="none" points="1715,-57.4132 1515,-57.4132 1515,-10.4132 1715,-10.4132 1715,-57.4132"/>
<text text-anchor="middle" x="1615" y="-25.4132" font-family="Times New Roman,serif" font-size="35.00">CH3CHO(S)</text>
</a>
</g>
</g>
<!-- CH3CHOH(S)&#45;&gt;CH3CHO(S) -->
<g id="edge4" class="edge"><title>CH3CHOH(S)&#45;&gt;CH3CHO(S)</title>
<path fill="none" stroke="black" d="M896.548,-94.2155C922.632,-73.4593 963.896,-44.808 1005.5,-32.9132 1174.44,15.3876 1380.72,0.503821 1504.5,-15.8505"/>
<polygon fill="black" stroke="black" points="1504.36,-19.3636 1514.74,-17.2319 1505.3,-12.4265 1504.36,-19.3636"/>
<text text-anchor="middle" x="1241.5" y="-41.9132" font-family="Times New Roman,serif" font-size="30.00"> &#160;&#160;70 &#160;&#160;3% &#160;&#160;1.53e&#45;07 mol/s &#160;&#160;&#160;5.55E&#45;01</text>
</g>
<!-- CH3CH2OH(S) -->
<g id="node2" class="node"><title>CH3CH2OH(S)</title>
<g id="a_node2"><a xlink:href="14.svg" xlink:title="CH3CH2OH(S)">
<polygon fill="dodgerblue" stroke="none" points="242,-141.413 0,-141.413 0,-94.4132 242,-94.4132 242,-141.413"/>
<text text-anchor="middle" x="121" y="-109.413" font-family="Times New Roman,serif" font-size="35.00">CH3CH2OH(S)</text>
</a>
</g>
</g>
<!-- CH3CH2OH(S)&#45;&gt;CH3CHOH(S) -->
<g id="edge1" class="edge"><title>CH3CH2OH(S)&#45;&gt;CH3CHOH(S)</title>
<path fill="none" stroke="black" stroke-width="6" d="M242.111,-117.913C377.21,-117.913 595.93,-117.913 735.519,-117.913"/>
<polygon fill="black" stroke="black" stroke-width="6" points="735.945,-128.413 755.945,-117.913 735.945,-107.413 735.945,-128.413"/>
<text text-anchor="middle" x="494.5" y="-126.913" font-family="Times New Roman,serif" font-size="30.00"> &#160;&#160;15 &#160;&#160;100% &#160;&#160;4.77e&#45;06 mol/s &#160;&#160;&#160;9.99E&#45;01</text>
</g>
</g>
</svg>
