<?xml version="1.0" encoding="UTF-8" standalone="no"?>
<!DOCTYPE svg PUBLIC "-//W3C//DTD SVG 1.1//EN"
 "http://www.w3.org/Graphics/SVG/1.1/DTD/svg11.dtd">
<!-- Generated by graphviz version 2.38.0 (20140413.2041)
 -->
<!-- Title: G Pages: 1 -->
<svg width="640pt" height="173pt"
 viewBox="0.00 0.00 720.00 195.00" xmlns="http://www.w3.org/2000/svg" xmlns:xlink="http://www.w3.org/1999/xlink">
<g id="graph0" class="graph" transform="scale(0.381406 0.381406) rotate(0) translate(4 450.449)">
<title>G</title>
<polygon fill="white" stroke="none" points="-4,4 -4,-450.449 1674,-450.449 1674,4 -4,4"/>
<text text-anchor="middle" x="835" y="-413.649" font-family="Arial" font-size="36.00" fill="blue">Reaction Path Analysis</text>
<!-- CH3COH(S) -->
<g id="node1" class="node"><title>CH3COH(S)</title>
<g id="a_node1"><a xlink:href="16.svg" xlink:title="CH3COH(S)">
<polygon fill="springgreen" stroke="none" points="941,-223.949 741,-223.949 741,-176.949 941,-176.949 941,-223.949"/>
<text text-anchor="middle" x="841" y="-191.949" font-family="Times New Roman,serif" font-size="35.00">CH3COH(S)</text>
</a>
</g>
</g>
<!-- CH2COH(S) -->
<g id="node3" class="node"><title>CH2COH(S)</title>
<g id="a_node3"><a xlink:href="19.svg" xlink:title="CH2COH(S)">
<polygon fill="springgreen" stroke="none" points="1670,-363.949 1470,-363.949 1470,-316.949 1670,-316.949 1670,-363.949"/>
<text text-anchor="middle" x="1570" y="-331.949" font-family="Times New Roman,serif" font-size="35.00">CH2COH(S)</text>
</a>
</g>
</g>
<!-- CH3COH(S)&#45;&gt;CH2COH(S) -->
<g id="edge2" class="edge"><title>CH3COH(S)&#45;&gt;CH2COH(S)</title>
<path fill="none" stroke="green" stroke-width="5" d="M859.963,-224.253C881.721,-250.986 921.088,-293.035 966,-311.449 1123.66,-376.088 1324.26,-370.324 1449.68,-357.508"/>
<polygon fill="green" stroke="green" stroke-width="5" points="1450.97,-366.17 1469.91,-355.313 1449.08,-348.772 1450.97,-366.17"/>
<text text-anchor="middle" x="1205.5" y="-374.449" font-family="Times New Roman,serif" font-size="30.00"> &#160;&#160;39 &#160;&#160;85% &#160;&#160;3.95e&#45;06 mol/s &#160;&#160;&#160;5.43E&#45;01</text>
</g>
<!-- H(S) -->
<g id="node4" class="node"><title>H(S)</title>
<g id="a_node4"><a xlink:href="62.svg" xlink:title="H(S)">
<polygon fill="orange" stroke="none" points="1612.5,-282.949 1527.5,-282.949 1527.5,-235.949 1612.5,-235.949 1612.5,-282.949"/>
<text text-anchor="middle" x="1570" y="-250.949" font-family="Times New Roman,serif" font-size="35.00">H(S)</text>
</a>
</g>
</g>
<!-- CH3COH(S)&#45;&gt;H(S) -->
<g id="edge3" class="edge"><title>CH3COH(S)&#45;&gt;H(S)</title>
<path fill="none" stroke="green" stroke-width="5" d="M877.99,-224.064C901.865,-238.275 934.493,-255.012 966,-262.449 1067.2,-286.34 1374.45,-271.346 1507.02,-263.43"/>
<polygon fill="green" stroke="green" stroke-width="5" points="1507.68,-272.156 1527.11,-262.204 1506.61,-254.689 1507.68,-272.156"/>
<text text-anchor="middle" x="1205.5" y="-283.449" font-family="Times New Roman,serif" font-size="30.00"> &#160;&#160;39 &#160;&#160;85% &#160;&#160;3.95e&#45;06 mol/s &#160;&#160;&#160;5.43E&#45;01</text>
</g>
<!-- CH3COH(S)&#45;&gt;H(S) -->
<g id="edge5" class="edge"><title>CH3COH(S)&#45;&gt;H(S)</title>
<path fill="none" stroke="green" d="M941.151,-205.324C949.556,-205.714 957.925,-206.094 966,-206.449 1178.85,-215.82 1234.45,-192.846 1445,-225.449 1469.2,-229.197 1495.43,-235.976 1517.5,-242.5"/>
<polygon fill="green" stroke="green" points="1516.75,-245.928 1527.33,-245.468 1518.77,-239.226 1516.75,-245.928"/>
<text text-anchor="middle" x="1205.5" y="-234.449" font-family="Times New Roman,serif" font-size="30.00"> &#160;&#160;71 &#160;&#160;14% &#160;&#160;6.48e&#45;07 mol/s &#160;&#160;&#160;5.00E&#45;01</text>
</g>
<!-- CH3CO(S) -->
<g id="node5" class="node"><title>CH3CO(S)</title>
<g id="a_node5"><a xlink:href="28.svg" xlink:title="CH3CO(S)">
<polygon fill="springgreen" stroke="none" points="1657.5,-200.949 1482.5,-200.949 1482.5,-153.949 1657.5,-153.949 1657.5,-200.949"/>
<text text-anchor="middle" x="1570" y="-168.949" font-family="Times New Roman,serif" font-size="35.00">CH3CO(S)</text>
</a>
</g>
</g>
<!-- CH3COH(S)&#45;&gt;CH3CO(S) -->
<g id="edge4" class="edge"><title>CH3COH(S)&#45;&gt;CH3CO(S)</title>
<path fill="none" stroke="green" d="M941.183,-176.893C949.542,-175.506 957.895,-174.322 966,-173.449 1143.76,-154.321 1352.69,-162.493 1472.1,-170.054"/>
<polygon fill="green" stroke="green" points="1472.11,-173.562 1482.31,-170.713 1472.56,-166.576 1472.11,-173.562"/>
<text text-anchor="middle" x="1205.5" y="-182.449" font-family="Times New Roman,serif" font-size="30.00"> &#160;&#160;71 &#160;&#160;14% &#160;&#160;6.48e&#45;07 mol/s &#160;&#160;&#160;5.00E&#45;01</text>
</g>
<!-- CH3C(S) -->
<g id="node6" class="node"><title>CH3C(S)</title>
<g id="a_node6"><a xlink:href="40.svg" xlink:title="CH3C(S)">
<polygon fill="springgreen" stroke="none" points="1644.5,-135.949 1495.5,-135.949 1495.5,-88.9494 1644.5,-88.9494 1644.5,-135.949"/>
<text text-anchor="middle" x="1570" y="-103.949" font-family="Times New Roman,serif" font-size="35.00">CH3C(S)</text>
</a>
</g>
</g>
<!-- CH3COH(S)&#45;&gt;CH3C(S) -->
<g id="edge6" class="edge"><title>CH3COH(S)&#45;&gt;CH3C(S)</title>
<path fill="none" stroke="black" d="M870.981,-176.85C894.87,-158.966 930.485,-135.768 966,-125.449 1145.05,-73.428 1366.75,-87.4841 1485.14,-100.865"/>
<polygon fill="black" stroke="black" points="1484.89,-104.359 1495.23,-102.031 1485.7,-97.4055 1484.89,-104.359"/>
<text text-anchor="middle" x="1205.5" y="-134.449" font-family="Times New Roman,serif" font-size="30.00"> &#160;&#160;120 &#160;&#160;0% &#160;&#160;1.82e&#45;08 mol/s &#160;&#160;&#160;1.00E+00</text>
</g>
<!-- OH(S) -->
<g id="node7" class="node"><title>OH(S)</title>
<g id="a_node7"><a xlink:href="60.svg" xlink:title="OH(S)">
<polygon fill="purple" stroke="none" points="1625,-70.9494 1515,-70.9494 1515,-23.9494 1625,-23.9494 1625,-70.9494"/>
<text text-anchor="middle" x="1570" y="-38.9494" font-family="Times New Roman,serif" font-size="35.00">OH(S)</text>
</a>
</g>
</g>
<!-- CH3COH(S)&#45;&gt;OH(S) -->
<g id="edge7" class="edge"><title>CH3COH(S)&#45;&gt;OH(S)</title>
<path fill="none" stroke="black" d="M853.413,-176.738C871.645,-141.953 910.977,-78.4104 966,-52.4494 1145.68,32.3266 1390.33,-5.83842 1504.89,-31.2589"/>
<polygon fill="black" stroke="black" points="1504.37,-34.7309 1514.9,-33.522 1505.92,-27.9032 1504.37,-34.7309"/>
<text text-anchor="middle" x="1205.5" y="-61.4494" font-family="Times New Roman,serif" font-size="30.00"> &#160;&#160;120 &#160;&#160;0% &#160;&#160;1.82e&#45;08 mol/s &#160;&#160;&#160;1.00E+00</text>
</g>
<!-- CH3CHOH(S) -->
<g id="node2" class="node"><title>CH3CHOH(S)</title>
<g id="a_node2"><a xlink:href="15.svg" xlink:title="CH3CHOH(S)">
<polygon fill="dodgerblue" stroke="none" points="224,-223.949 1.42109e-014,-223.949 1.42109e-014,-176.949 224,-176.949 224,-223.949"/>
<text text-anchor="middle" x="112" y="-191.949" font-family="Times New Roman,serif" font-size="35.00">CH3CHOH(S)</text>
</a>
</g>
</g>
<!-- CH3CHOH(S)&#45;&gt;CH3COH(S) -->
<g id="edge1" class="edge"><title>CH3CHOH(S)&#45;&gt;CH3COH(S)</title>
<path fill="none" stroke="black" stroke-width="6" d="M224.207,-200.449C358.372,-200.449 583.018,-200.449 720.703,-200.449"/>
<polygon fill="black" stroke="black" stroke-width="6" points="720.78,-210.949 740.78,-200.449 720.78,-189.949 720.78,-210.949"/>
<text text-anchor="middle" x="476.5" y="-209.449" font-family="Times New Roman,serif" font-size="30.00"> &#160;&#160;16 &#160;&#160;100% &#160;&#160;4.62e&#45;06 mol/s &#160;&#160;&#160;5.57E&#45;01</text>
</g>
</g>
</svg>
