<?xml version="1.0" encoding="UTF-8" standalone="no"?>
<!DOCTYPE svg PUBLIC "-//W3C//DTD SVG 1.1//EN"
 "http://www.w3.org/Graphics/SVG/1.1/DTD/svg11.dtd">
<!-- Generated by graphviz version 2.38.0 (20140413.2041)
 -->
<!-- Title: G Pages: 1 -->
<svg width="640pt" height="71pt"
 viewBox="0.00 0.00 720.00 79.75" xmlns="http://www.w3.org/2000/svg" xmlns:xlink="http://www.w3.org/1999/xlink">
<g id="graph0" class="graph" transform="scale(0.40622 0.40622) rotate(0) translate(4 170.5)">
<title>G</title>
<polygon fill="white" stroke="none" points="-4,4 -4,-170.5 1571.5,-170.5 1571.5,4 -4,4"/>
<text text-anchor="middle" x="783.75" y="-133.7" font-family="Arial" font-size="36.00" fill="blue">Reaction Path Analysis</text>
<!-- CH2COH(S) -->
<g id="node1" class="node"><title>CH2COH(S)</title>
<g id="a_node1"><a xlink:href="19.svg" xlink:title="CH2COH(S)">
<polygon fill="springgreen" stroke="none" points="890,-79 690,-79 690,-32 890,-32 890,-79"/>
<text text-anchor="middle" x="790" y="-47" font-family="Times New Roman,serif" font-size="35.00">CH2COH(S)</text>
</a>
</g>
</g>
<!-- CH2CO(S) -->
<g id="node3" class="node"><title>CH2CO(S)</title>
<g id="a_node3"><a xlink:href="31.svg" xlink:title="CH2CO(S)">
<polygon fill="springgreen" stroke="none" points="1567.5,-112 1392.5,-112 1392.5,-65 1567.5,-65 1567.5,-112"/>
<text text-anchor="middle" x="1480" y="-80" font-family="Times New Roman,serif" font-size="35.00">CH2CO(S)</text>
</a>
</g>
</g>
<!-- CH2COH(S)&#45;&gt;CH2CO(S) -->
<g id="edge2" class="edge"><title>CH2COH(S)&#45;&gt;CH2CO(S)</title>
<path fill="none" stroke="green" stroke-width="5" d="M890.144,-65.8452C893.129,-66.0774 896.086,-66.2965 899,-66.5 1064,-78.0205 1255.86,-83.8121 1372.3,-86.485"/>
<polygon fill="green" stroke="green" stroke-width="5" points="1372.25,-95.2359 1392.44,-86.9333 1372.63,-77.7402 1372.25,-95.2359"/>
<text text-anchor="middle" x="1135" y="-94.5" font-family="Times New Roman,serif" font-size="30.00"> &#160;&#160;74 &#160;&#160;99% &#160;&#160;3.95e&#45;06 mol/s &#160;&#160;&#160;5.00E&#45;01</text>
</g>
<!-- H(S) -->
<g id="node4" class="node"><title>H(S)</title>
<g id="a_node4"><a xlink:href="62.svg" xlink:title="H(S)">
<polygon fill="orange" stroke="none" points="1522.5,-47 1437.5,-47 1437.5,3.55271e-015 1522.5,3.55271e-015 1522.5,-47"/>
<text text-anchor="middle" x="1480" y="-15" font-family="Times New Roman,serif" font-size="35.00">H(S)</text>
</a>
</g>
</g>
<!-- CH2COH(S)&#45;&gt;H(S) -->
<g id="edge3" class="edge"><title>CH2COH(S)&#45;&gt;H(S)</title>
<path fill="none" stroke="green" stroke-width="5" d="M890.054,-34.5872C893.064,-34.1874 896.052,-33.8229 899,-33.5 1086.78,-12.9316 1310.77,-17.1362 1417.09,-20.8532"/>
<polygon fill="green" stroke="green" stroke-width="5" points="1417.03,-29.6068 1437.34,-21.6062 1417.68,-12.1189 1417.03,-29.6068"/>
<text text-anchor="middle" x="1135" y="-42.5" font-family="Times New Roman,serif" font-size="30.00"> &#160;&#160;74 &#160;&#160;99% &#160;&#160;3.95e&#45;06 mol/s &#160;&#160;&#160;5.00E&#45;01</text>
</g>
<!-- CH3COH(S) -->
<g id="node2" class="node"><title>CH3COH(S)</title>
<g id="a_node2"><a xlink:href="16.svg" xlink:title="CH3COH(S)">
<polygon fill="springgreen" stroke="none" points="200,-79 0,-79 0,-32 200,-32 200,-79"/>
<text text-anchor="middle" x="100" y="-47" font-family="Times New Roman,serif" font-size="35.00">CH3COH(S)</text>
</a>
</g>
</g>
<!-- CH3COH(S)&#45;&gt;CH2COH(S) -->
<g id="edge1" class="edge"><title>CH3COH(S)&#45;&gt;CH2COH(S)</title>
<path fill="none" stroke="green" stroke-width="5" d="M200.306,-55.5C324.417,-55.5 536.634,-55.5 669.508,-55.5"/>
<polygon fill="green" stroke="green" stroke-width="5" points="669.724,-64.2501 689.724,-55.5 669.724,-46.7501 669.724,-64.2501"/>
<text text-anchor="middle" x="445" y="-64.5" font-family="Times New Roman,serif" font-size="30.00"> &#160;&#160;39 &#160;&#160;99% &#160;&#160;3.95e&#45;06 mol/s &#160;&#160;&#160;5.43E&#45;01</text>
</g>
</g>
</svg>
