<?xml version="1.0" encoding="UTF-8" standalone="no"?>
<!DOCTYPE svg PUBLIC "-//W3C//DTD SVG 1.1//EN"
 "http://www.w3.org/Graphics/SVG/1.1/DTD/svg11.dtd">
<!-- Generated by graphviz version 2.38.0 (20140413.2041)
 -->
<!-- Title: G Pages: 1 -->
<svg width="640pt" height="131pt"
 viewBox="0.00 0.00 720.00 146.84" xmlns="http://www.w3.org/2000/svg" xmlns:xlink="http://www.w3.org/1999/xlink">
<g id="graph0" class="graph" transform="scale(0.743754 0.743754) rotate(0) translate(4 171.5)">
<title>G</title>
<polygon fill="white" stroke="none" points="-4,4 -4,-171.5 856.5,-171.5 856.5,4 -4,4"/>
<text text-anchor="middle" x="426.25" y="-134.7" font-family="Arial" font-size="36.00" fill="blue">Reaction Path Analysis</text>
<!-- CH3CH3 -->
<g id="node1" class="node"><title>CH3CH3</title>
<g id="a_node1"><a xlink:href="2.svg" xlink:title="CH3CH3">
<polygon fill="none" stroke="none" points="852.5,-79 703.5,-79 703.5,-32 852.5,-32 852.5,-79"/>
<text text-anchor="middle" x="778" y="-47" font-family="Times New Roman,serif" font-size="35.00">CH3CH3</text>
</a>
</g>
</g>
<!-- CH3CH2(S) -->
<g id="node2" class="node"><title>CH3CH2(S)</title>
<g id="a_node2"><a xlink:href="38.svg" xlink:title="CH3CH2(S)">
<polygon fill="dodgerblue" stroke="none" points="192,-112 0,-112 0,-65 192,-65 192,-112"/>
<text text-anchor="middle" x="96" y="-80" font-family="Times New Roman,serif" font-size="35.00">CH3CH2(S)</text>
</a>
</g>
</g>
<!-- CH3CH2(S)&#45;&gt;CH3CH3 -->
<g id="edge1" class="edge"><title>CH3CH2(S)&#45;&gt;CH3CH3</title>
<path fill="none" stroke="green" stroke-width="6" d="M192.15,-86.8232C306.446,-84.3567 503.938,-78.6556 673,-66.5 676.393,-66.2561 679.846,-65.9889 683.332,-65.7033"/>
<polygon fill="green" stroke="green" stroke-width="6" points="684.495,-76.1413 703.478,-63.8977 682.62,-55.2251 684.495,-76.1413"/>
<text text-anchor="middle" x="437" y="-95.5" font-family="Times New Roman,serif" font-size="30.00"> &#160;&#160;4 &#160;&#160;100% &#160;&#160;1.84e&#45;08 mol/s &#160;&#160;&#160;4.54E&#45;01</text>
</g>
<!-- H(S) -->
<g id="node3" class="node"><title>H(S)</title>
<g id="a_node3"><a xlink:href="62.svg" xlink:title="H(S)">
<polygon fill="orange" stroke="none" points="138.5,-47 53.5,-47 53.5,3.55271e-015 138.5,3.55271e-015 138.5,-47"/>
<text text-anchor="middle" x="96" y="-15" font-family="Times New Roman,serif" font-size="35.00">H(S)</text>
</a>
</g>
</g>
<!-- H(S)&#45;&gt;CH3CH3 -->
<g id="edge2" class="edge"><title>H(S)&#45;&gt;CH3CH3</title>
<path fill="none" stroke="green" stroke-width="6" d="M138.739,-21.5056C233.882,-17.5526 473.995,-10.9339 673,-33.5 676.404,-33.886 679.861,-34.3317 683.346,-34.8264"/>
<polygon fill="green" stroke="green" stroke-width="6" points="681.99,-45.2442 703.426,-38.121 685.39,-24.5213 681.99,-45.2442"/>
<text text-anchor="middle" x="437" y="-42.5" font-family="Times New Roman,serif" font-size="30.00"> &#160;&#160;4 &#160;&#160;100% &#160;&#160;1.84e&#45;08 mol/s &#160;&#160;&#160;4.54E&#45;01</text>
</g>
</g>
</svg>
