<?xml version="1.0" encoding="UTF-8" standalone="no"?>
<!DOCTYPE svg PUBLIC "-//W3C//DTD SVG 1.1//EN"
 "http://www.w3.org/Graphics/SVG/1.1/DTD/svg11.dtd">
<!-- Generated by graphviz version 2.38.0 (20140413.2041)
 -->
<!-- Title: G Pages: 1 -->
<svg width="640pt" height="64pt"
 viewBox="0.00 0.00 720.00 72.50" xmlns="http://www.w3.org/2000/svg" xmlns:xlink="http://www.w3.org/1999/xlink">
<g id="graph0" class="graph" transform="scale(0.371445 0.371445) rotate(0) translate(4 169.5)">
<title>G</title>
<polygon fill="white" stroke="none" points="-4,4 -4,-169.5 1719,-169.5 1719,4 -4,4"/>
<text text-anchor="middle" x="857.5" y="-132.7" font-family="Arial" font-size="36.00" fill="blue">Reaction Path Analysis</text>
<!-- CH3CH2O(S) -->
<g id="node1" class="node"><title>CH3CH2O(S)</title>
<g id="a_node1"><a xlink:href="26.svg" xlink:title="CH3CH2O(S)">
<polygon fill="purple" stroke="none" points="977,-79 759,-79 759,-32 977,-32 977,-79"/>
<text text-anchor="middle" x="868" y="-47" font-family="Times New Roman,serif" font-size="35.00">CH3CH2O(S)</text>
</a>
</g>
</g>
<!-- CH3CHO(S) -->
<g id="node2" class="node"><title>CH3CHO(S)</title>
<g id="a_node2"><a xlink:href="27.svg" xlink:title="CH3CHO(S)">
<polygon fill="dodgerblue" stroke="none" points="1715,-112 1515,-112 1515,-65 1715,-65 1715,-112"/>
<text text-anchor="middle" x="1615" y="-80" font-family="Times New Roman,serif" font-size="35.00">CH3CHO(S)</text>
</a>
</g>
</g>
<!-- CH3CH2O(S)&#45;&gt;CH3CHO(S) -->
<g id="edge1" class="edge"><title>CH3CH2O(S)&#45;&gt;CH3CHO(S)</title>
<path fill="none" stroke="black" stroke-width="5" d="M977.009,-64.6478C986.64,-65.3292 996.244,-65.96 1005.5,-66.5 1175.27,-76.4046 1371.96,-82.5485 1494.7,-85.7471"/>
<polygon fill="black" stroke="black" stroke-width="5" points="1494.65,-94.4985 1514.86,-86.2634 1495.09,-77.0043 1494.65,-94.4985"/>
<text text-anchor="middle" x="1241.5" y="-93.5" font-family="Times New Roman,serif" font-size="30.00"> &#160;&#160;23 &#160;&#160;99% &#160;&#160;7.05e&#45;07 mol/s &#160;&#160;&#160;9.91E&#45;01</text>
</g>
<!-- H(S) -->
<g id="node3" class="node"><title>H(S)</title>
<g id="a_node3"><a xlink:href="62.svg" xlink:title="H(S)">
<polygon fill="orange" stroke="none" points="1657.5,-47 1572.5,-47 1572.5,3.55271e-015 1657.5,3.55271e-015 1657.5,-47"/>
<text text-anchor="middle" x="1615" y="-15" font-family="Times New Roman,serif" font-size="35.00">H(S)</text>
</a>
</g>
</g>
<!-- CH3CH2O(S)&#45;&gt;H(S) -->
<g id="edge2" class="edge"><title>CH3CH2O(S)&#45;&gt;H(S)</title>
<path fill="none" stroke="black" stroke-width="5" d="M977.232,-36.6042C986.77,-35.3795 996.294,-34.3133 1005.5,-33.5 1204.56,-15.9139 1441.64,-18.8554 1551.9,-21.5914"/>
<polygon fill="black" stroke="black" stroke-width="5" points="1551.98,-30.3467 1572.21,-22.1297 1552.45,-12.8528 1551.98,-30.3467"/>
<text text-anchor="middle" x="1241.5" y="-42.5" font-family="Times New Roman,serif" font-size="30.00"> &#160;&#160;23 &#160;&#160;99% &#160;&#160;7.05e&#45;07 mol/s &#160;&#160;&#160;9.91E&#45;01</text>
</g>
<!-- CH3CH2OH(S) -->
<g id="node4" class="node"><title>CH3CH2OH(S)</title>
<g id="a_node4"><a xlink:href="14.svg" xlink:title="CH3CH2OH(S)">
<polygon fill="dodgerblue" stroke="none" points="242,-79 0,-79 0,-32 242,-32 242,-79"/>
<text text-anchor="middle" x="121" y="-47" font-family="Times New Roman,serif" font-size="35.00">CH3CH2OH(S)</text>
</a>
</g>
</g>
<!-- CH3CH2OH(S)&#45;&gt;CH3CH2O(S) -->
<g id="edge3" class="edge"><title>CH3CH2OH(S)&#45;&gt;CH3CH2O(S)</title>
<path fill="none" stroke="black" stroke-width="6" d="M242.111,-55.5C378.189,-55.5 599.107,-55.5 738.544,-55.5"/>
<polygon fill="black" stroke="black" stroke-width="6" points="738.928,-66.0001 758.928,-55.5 738.928,-45.0001 738.928,-66.0001"/>
<text text-anchor="middle" x="494.5" y="-64.5" font-family="Times New Roman,serif" font-size="30.00"> &#160;&#160;69 &#160;&#160;100% &#160;&#160;7.05e&#45;07 mol/s &#160;&#160;&#160;9.45E&#45;01</text>
</g>
</g>
</svg>
