<?xml version="1.0" encoding="UTF-8" standalone="no"?>
<!DOCTYPE svg PUBLIC "-//W3C//DTD SVG 1.1//EN"
 "http://www.w3.org/Graphics/SVG/1.1/DTD/svg11.dtd">
<!-- Generated by graphviz version 2.38.0 (20140413.2041)
 -->
<!-- Title: G Pages: 1 -->
<svg width="640pt" height="96pt"
 viewBox="0.00 0.00 720.00 108.08" xmlns="http://www.w3.org/2000/svg" xmlns:xlink="http://www.w3.org/1999/xlink">
<g id="graph0" class="graph" transform="scale(0.391318 0.391318) rotate(0) translate(4 241.5)">
<title>G</title>
<polygon fill="white" stroke="none" points="-4,4 -4,-241.5 1631.5,-241.5 1631.5,4 -4,4"/>
<text text-anchor="middle" x="813.75" y="-204.7" font-family="Arial" font-size="36.00" fill="blue">Reaction Path Analysis</text>
<!-- CH3CHO(S) -->
<g id="node1" class="node"><title>CH3CHO(S)</title>
<g id="a_node1"><a xlink:href="27.svg" xlink:title="CH3CHO(S)">
<polygon fill="dodgerblue" stroke="none" points="926,-112 726,-112 726,-65 926,-65 926,-112"/>
<text text-anchor="middle" x="826" y="-80" font-family="Times New Roman,serif" font-size="35.00">CH3CHO(S)</text>
</a>
</g>
</g>
<!-- CH3CHO -->
<g id="node2" class="node"><title>CH3CHO</title>
<g id="a_node2"><a xlink:href="1.svg" xlink:title="CH3CHO">
<polygon fill="none" stroke="none" points="1618,-177 1462,-177 1462,-130 1618,-130 1618,-177"/>
<text text-anchor="middle" x="1540" y="-145" font-family="Times New Roman,serif" font-size="35.00">CH3CHO</text>
</a>
</g>
</g>
<!-- CH3CHO(S)&#45;&gt;CH3CHO -->
<g id="edge1" class="edge"><title>CH3CHO(S)&#45;&gt;CH3CHO</title>
<path fill="none" stroke="green" d="M892.917,-112.082C910.295,-117.397 929.176,-122.382 947,-125.5 1124.09,-156.478 1335.22,-158.213 1451.43,-156.192"/>
<polygon fill="green" stroke="green" points="1451.76,-159.687 1461.69,-156 1451.63,-152.688 1451.76,-159.687"/>
<text text-anchor="middle" x="1183" y="-165.5" font-family="Times New Roman,serif" font-size="30.00"> &#160;&#160;3 &#160;&#160;1% &#160;&#160;1.67e&#45;08 mol/s &#160;&#160;&#160;5.00E&#45;01</text>
</g>
<!-- CH3CO(S) -->
<g id="node4" class="node"><title>CH3CO(S)</title>
<g id="a_node4"><a xlink:href="28.svg" xlink:title="CH3CO(S)">
<polygon fill="springgreen" stroke="none" points="1627.5,-112 1452.5,-112 1452.5,-65 1627.5,-65 1627.5,-112"/>
<text text-anchor="middle" x="1540" y="-80" font-family="Times New Roman,serif" font-size="35.00">CH3CO(S)</text>
</a>
</g>
</g>
<!-- CH3CHO(S)&#45;&gt;CH3CO(S) -->
<g id="edge3" class="edge"><title>CH3CHO(S)&#45;&gt;CH3CO(S)</title>
<path fill="none" stroke="green" stroke-width="5" d="M926.001,-88.5C1059.11,-88.5 1294.87,-88.5 1431.97,-88.5"/>
<polygon fill="green" stroke="green" stroke-width="5" points="1432.28,-97.2501 1452.28,-88.5 1432.28,-79.7501 1432.28,-97.2501"/>
<text text-anchor="middle" x="1183" y="-97.5" font-family="Times New Roman,serif" font-size="30.00"> &#160;&#160;24 &#160;&#160;98% &#160;&#160;8.41e&#45;07 mol/s &#160;&#160;&#160;5.02E&#45;01</text>
</g>
<!-- H(S) -->
<g id="node5" class="node"><title>H(S)</title>
<g id="a_node5"><a xlink:href="62.svg" xlink:title="H(S)">
<polygon fill="orange" stroke="none" points="1582.5,-47 1497.5,-47 1497.5,3.55271e-015 1582.5,3.55271e-015 1582.5,-47"/>
<text text-anchor="middle" x="1540" y="-15" font-family="Times New Roman,serif" font-size="35.00">H(S)</text>
</a>
</g>
</g>
<!-- CH3CHO(S)&#45;&gt;H(S) -->
<g id="edge4" class="edge"><title>CH3CHO(S)&#45;&gt;H(S)</title>
<path fill="none" stroke="green" stroke-width="5" d="M892.917,-64.9178C910.295,-59.6034 929.176,-54.6179 947,-51.5 1138.03,-18.0846 1368.66,-18.6951 1477.04,-21.342"/>
<polygon fill="green" stroke="green" stroke-width="5" points="1477.11,-30.0971 1497.34,-21.8983 1477.59,-12.6037 1477.11,-30.0971"/>
<text text-anchor="middle" x="1183" y="-60.5" font-family="Times New Roman,serif" font-size="30.00"> &#160;&#160;24 &#160;&#160;98% &#160;&#160;8.41e&#45;07 mol/s &#160;&#160;&#160;5.02E&#45;01</text>
</g>
<!-- CH3CH2O(S) -->
<g id="node3" class="node"><title>CH3CH2O(S)</title>
<g id="a_node3"><a xlink:href="26.svg" xlink:title="CH3CH2O(S)">
<polygon fill="purple" stroke="none" points="221,-145 3,-145 3,-98 221,-98 221,-145"/>
<text text-anchor="middle" x="112" y="-113" font-family="Times New Roman,serif" font-size="35.00">CH3CH2O(S)</text>
</a>
</g>
</g>
<!-- CH3CH2O(S)&#45;&gt;CH3CHO(S) -->
<g id="edge2" class="edge"><title>CH3CH2O(S)&#45;&gt;CH3CHO(S)</title>
<path fill="none" stroke="black" stroke-width="5" d="M221.115,-119.243C339.867,-116.352 536.163,-110.367 705,-99.5 705.212,-99.4864 705.424,-99.4726 705.637,-99.4589"/>
<polygon fill="black" stroke="black" stroke-width="5" points="706.502,-108.169 725.826,-98.0145 705.253,-90.714 706.502,-108.169"/>
<text text-anchor="middle" x="469" y="-127.5" font-family="Times New Roman,serif" font-size="30.00"> &#160;&#160;23 &#160;&#160;82% &#160;&#160;7.05e&#45;07 mol/s &#160;&#160;&#160;9.91E&#45;01</text>
</g>
<!-- CH3CHOH(S) -->
<g id="node6" class="node"><title>CH3CHOH(S)</title>
<g id="a_node6"><a xlink:href="15.svg" xlink:title="CH3CHOH(S)">
<polygon fill="dodgerblue" stroke="none" points="224,-80 1.42109e-014,-80 1.42109e-014,-33 224,-33 224,-80"/>
<text text-anchor="middle" x="112" y="-48" font-family="Times New Roman,serif" font-size="35.00">CH3CHOH(S)</text>
</a>
</g>
</g>
<!-- CH3CHOH(S)&#45;&gt;CH3CHO(S) -->
<g id="edge5" class="edge"><title>CH3CHOH(S)&#45;&gt;CH3CHO(S)</title>
<path fill="none" stroke="black" d="M224.06,-52.9484C343.261,-50.4024 538.015,-49.8965 705,-66.5 708.639,-66.8618 712.333,-67.2749 716.058,-67.7307"/>
<polygon fill="black" stroke="black" points="715.604,-71.2011 725.974,-69.0311 716.514,-64.2605 715.604,-71.2011"/>
<text text-anchor="middle" x="469" y="-75.5" font-family="Times New Roman,serif" font-size="30.00"> &#160;&#160;70 &#160;&#160;17% &#160;&#160;1.53e&#45;07 mol/s &#160;&#160;&#160;5.55E&#45;01</text>
</g>
</g>
</svg>
