<?xml version="1.0" encoding="UTF-8" standalone="no"?>
<!DOCTYPE svg PUBLIC "-//W3C//DTD SVG 1.1//EN"
 "http://www.w3.org/Graphics/SVG/1.1/DTD/svg11.dtd">
<!-- Generated by graphviz version 2.38.0 (20140413.2041)
 -->
<!-- Title: G Pages: 1 -->
<svg width="640pt" height="130pt"
 viewBox="0.00 0.00 720.00 146.47" xmlns="http://www.w3.org/2000/svg" xmlns:xlink="http://www.w3.org/1999/xlink">
<g id="graph0" class="graph" transform="scale(0.40622 0.40622) rotate(0) translate(4 316.5)">
<title>G</title>
<polygon fill="white" stroke="none" points="-4,4 -4,-316.5 1571.5,-316.5 1571.5,4 -4,4"/>
<text text-anchor="middle" x="783.75" y="-279.7" font-family="Arial" font-size="36.00" fill="blue">Reaction Path Analysis</text>
<!-- CH3CO(S) -->
<g id="node1" class="node"><title>CH3CO(S)</title>
<g id="a_node1"><a xlink:href="28.svg" xlink:title="CH3CO(S)">
<polygon fill="springgreen" stroke="none" points="877.5,-144 702.5,-144 702.5,-97 877.5,-97 877.5,-144"/>
<text text-anchor="middle" x="790" y="-112" font-family="Times New Roman,serif" font-size="35.00">CH3CO(S)</text>
</a>
</g>
</g>
<!-- CH2CO(S) -->
<g id="node3" class="node"><title>CH2CO(S)</title>
<g id="a_node3"><a xlink:href="31.svg" xlink:title="CH2CO(S)">
<polygon fill="springgreen" stroke="none" points="1567.5,-242 1392.5,-242 1392.5,-195 1567.5,-195 1567.5,-242"/>
<text text-anchor="middle" x="1480" y="-210" font-family="Times New Roman,serif" font-size="35.00">CH2CO(S)</text>
</a>
</g>
</g>
<!-- CH3CO(S)&#45;&gt;CH2CO(S) -->
<g id="edge2" class="edge"><title>CH3CO(S)&#45;&gt;CH2CO(S)</title>
<path fill="none" stroke="green" stroke-width="5" d="M820.168,-144.266C840.836,-159.619 869.95,-178.376 899,-187.5 1057.99,-237.436 1253.41,-235.819 1371.97,-228.398"/>
<polygon fill="green" stroke="green" stroke-width="5" points="1372.75,-237.116 1392.11,-227.035 1371.57,-219.656 1372.75,-237.116"/>
<text text-anchor="middle" x="1135" y="-240.5" font-family="Times New Roman,serif" font-size="30.00"> &#160;&#160;48 &#160;&#160;98% &#160;&#160;1.47e&#45;06 mol/s &#160;&#160;&#160;5.43E&#45;01</text>
</g>
<!-- H(S) -->
<g id="node4" class="node"><title>H(S)</title>
<g id="a_node4"><a xlink:href="62.svg" xlink:title="H(S)">
<polygon fill="orange" stroke="none" points="1522.5,-177 1437.5,-177 1437.5,-130 1522.5,-130 1522.5,-177"/>
<text text-anchor="middle" x="1480" y="-145" font-family="Times New Roman,serif" font-size="35.00">H(S)</text>
</a>
</g>
</g>
<!-- CH3CO(S)&#45;&gt;H(S) -->
<g id="edge3" class="edge"><title>CH3CO(S)&#45;&gt;H(S)</title>
<path fill="none" stroke="green" stroke-width="5" d="M877.611,-129.811C884.842,-130.439 892.044,-131.014 899,-131.5 1087.56,-144.665 1311.19,-150.349 1417.26,-152.447"/>
<polygon fill="green" stroke="green" stroke-width="5" points="1417.29,-161.199 1437.46,-152.83 1417.63,-143.702 1417.29,-161.199"/>
<text text-anchor="middle" x="1135" y="-159.5" font-family="Times New Roman,serif" font-size="30.00"> &#160;&#160;48 &#160;&#160;98% &#160;&#160;1.47e&#45;06 mol/s &#160;&#160;&#160;5.43E&#45;01</text>
</g>
<!-- CH3(S) -->
<g id="node6" class="node"><title>CH3(S)</title>
<g id="a_node6"><a xlink:href="55.svg" xlink:title="CH3(S)">
<polygon fill="dodgerblue" stroke="none" points="1543,-112 1417,-112 1417,-65 1543,-65 1543,-112"/>
<text text-anchor="middle" x="1480" y="-80" font-family="Times New Roman,serif" font-size="35.00">CH3(S)</text>
</a>
</g>
</g>
<!-- CH3CO(S)&#45;&gt;CH3(S) -->
<g id="edge5" class="edge"><title>CH3CO(S)&#45;&gt;CH3(S)</title>
<path fill="none" stroke="black" d="M877.727,-101.391C884.899,-100.251 892.057,-99.2605 899,-98.5 1080.84,-78.5825 1296.63,-81.8949 1406.65,-85.4996"/>
<polygon fill="black" stroke="black" points="1406.85,-89.0083 1416.96,-85.8486 1407.09,-82.0123 1406.85,-89.0083"/>
<text text-anchor="middle" x="1135" y="-107.5" font-family="Times New Roman,serif" font-size="30.00"> &#160;&#160;99 &#160;&#160;1% &#160;&#160;1.58e&#45;08 mol/s &#160;&#160;&#160;1.00E+00</text>
</g>
<!-- CO(S) -->
<g id="node7" class="node"><title>CO(S)</title>
<g id="a_node7"><a xlink:href="54.svg" xlink:title="CO(S)">
<polygon fill="orange" stroke="none" points="1534.5,-47 1425.5,-47 1425.5,3.55271e-015 1534.5,3.55271e-015 1534.5,-47"/>
<text text-anchor="middle" x="1480" y="-15" font-family="Times New Roman,serif" font-size="35.00">CO(S)</text>
</a>
</g>
</g>
<!-- CH3CO(S)&#45;&gt;CO(S) -->
<g id="edge6" class="edge"><title>CH3CO(S)&#45;&gt;CO(S)</title>
<path fill="none" stroke="black" d="M816.662,-96.6781C837.224,-79.2355 867.718,-56.8727 899,-46.5 1078.3,12.9539 1306,-2.32913 1415.08,-14.7761"/>
<polygon fill="black" stroke="black" points="1414.92,-18.2814 1425.26,-15.9692 1415.74,-11.3289 1414.92,-18.2814"/>
<text text-anchor="middle" x="1135" y="-55.5" font-family="Times New Roman,serif" font-size="30.00"> &#160;&#160;99 &#160;&#160;1% &#160;&#160;1.58e&#45;08 mol/s &#160;&#160;&#160;1.00E+00</text>
</g>
<!-- CH3CHO(S) -->
<g id="node2" class="node"><title>CH3CHO(S)</title>
<g id="a_node2"><a xlink:href="27.svg" xlink:title="CH3CHO(S)">
<polygon fill="dodgerblue" stroke="none" points="200,-177 0,-177 0,-130 200,-130 200,-177"/>
<text text-anchor="middle" x="100" y="-145" font-family="Times New Roman,serif" font-size="35.00">CH3CHO(S)</text>
</a>
</g>
</g>
<!-- CH3CHO(S)&#45;&gt;CH3CO(S) -->
<g id="edge1" class="edge"><title>CH3CHO(S)&#45;&gt;CH3CO(S)</title>
<path fill="none" stroke="green" stroke-width="3" d="M200.138,-151.657C315.698,-149.064 512.374,-143.274 681,-131.5 684.696,-131.242 688.46,-130.959 692.262,-130.656"/>
<polygon fill="green" stroke="green" stroke-width="3" points="692.714,-134.13 702.389,-129.811 692.132,-127.154 692.714,-134.13"/>
<text text-anchor="middle" x="445" y="-159.5" font-family="Times New Roman,serif" font-size="30.00"> &#160;&#160;24 &#160;&#160;56% &#160;&#160;8.41e&#45;07 mol/s &#160;&#160;&#160;5.02E&#45;01</text>
</g>
<!-- CH3COH(S) -->
<g id="node5" class="node"><title>CH3COH(S)</title>
<g id="a_node5"><a xlink:href="16.svg" xlink:title="CH3COH(S)">
<polygon fill="springgreen" stroke="none" points="200,-112 0,-112 0,-65 200,-65 200,-112"/>
<text text-anchor="middle" x="100" y="-80" font-family="Times New Roman,serif" font-size="35.00">CH3COH(S)</text>
</a>
</g>
</g>
<!-- CH3COH(S)&#45;&gt;CH3CO(S) -->
<g id="edge4" class="edge"><title>CH3COH(S)&#45;&gt;CH3CO(S)</title>
<path fill="none" stroke="green" stroke-width="3" d="M200.125,-84.6951C315.88,-81.5263 512.939,-80.092 681,-98.5 684.688,-98.904 688.438,-99.373 692.217,-99.8949"/>
<polygon fill="green" stroke="green" stroke-width="3" points="691.866,-103.381 702.273,-101.391 692.897,-96.4574 691.866,-103.381"/>
<text text-anchor="middle" x="445" y="-107.5" font-family="Times New Roman,serif" font-size="30.00"> &#160;&#160;71 &#160;&#160;43% &#160;&#160;6.48e&#45;07 mol/s &#160;&#160;&#160;5.00E&#45;01</text>
</g>
</g>
</svg>
