<?xml version="1.0" encoding="UTF-8" standalone="no"?>
<!DOCTYPE svg PUBLIC "-//W3C//DTD SVG 1.1//EN"
 "http://www.w3.org/Graphics/SVG/1.1/DTD/svg11.dtd">
<!-- Generated by graphviz version 2.38.0 (20140413.2041)
 -->
<!-- Title: G Pages: 1 -->
<svg width="640pt" height="71pt"
 viewBox="0.00 0.00 720.00 80.20" xmlns="http://www.w3.org/2000/svg" xmlns:xlink="http://www.w3.org/1999/xlink">
<g id="graph0" class="graph" transform="scale(0.408554 0.408554) rotate(0) translate(4 170.5)">
<title>G</title>
<polygon fill="white" stroke="none" points="-4,4 -4,-170.5 1562.5,-170.5 1562.5,4 -4,4"/>
<text text-anchor="middle" x="779.25" y="-133.7" font-family="Arial" font-size="36.00" fill="blue">Reaction Path Analysis</text>
<!-- CH2CO(S) -->
<g id="node1" class="node"><title>CH2CO(S)</title>
<g id="a_node1"><a xlink:href="31.svg" xlink:title="CH2CO(S)">
<polygon fill="springgreen" stroke="none" points="877.5,-79 702.5,-79 702.5,-32 877.5,-32 877.5,-79"/>
<text text-anchor="middle" x="790" y="-47" font-family="Times New Roman,serif" font-size="35.00">CH2CO(S)</text>
</a>
</g>
</g>
<!-- CHCO(S) -->
<g id="node3" class="node"><title>CHCO(S)</title>
<g id="a_node3"><a xlink:href="34.svg" xlink:title="CHCO(S)">
<polygon fill="springgreen" stroke="none" points="1558.5,-112 1401.5,-112 1401.5,-65 1558.5,-65 1558.5,-112"/>
<text text-anchor="middle" x="1480" y="-80" font-family="Times New Roman,serif" font-size="35.00">CHCO(S)</text>
</a>
</g>
</g>
<!-- CH2CO(S)&#45;&gt;CHCO(S) -->
<g id="edge2" class="edge"><title>CH2CO(S)&#45;&gt;CHCO(S)</title>
<path fill="none" stroke="green" stroke-width="5" d="M877.611,-64.8107C884.842,-65.4392 892.044,-66.0143 899,-66.5 1068.09,-78.3062 1265.39,-84.0958 1380.82,-86.6782"/>
<polygon fill="green" stroke="green" stroke-width="5" points="1380.87,-95.4311 1401.05,-87.1165 1381.24,-77.9352 1380.87,-95.4311"/>
<text text-anchor="middle" x="1135" y="-94.5" font-family="Times New Roman,serif" font-size="30.00"> &#160;&#160;51 &#160;&#160;99% &#160;&#160;5.42e&#45;06 mol/s &#160;&#160;&#160;5.18E&#45;01</text>
</g>
<!-- H(S) -->
<g id="node4" class="node"><title>H(S)</title>
<g id="a_node4"><a xlink:href="62.svg" xlink:title="H(S)">
<polygon fill="orange" stroke="none" points="1522.5,-47 1437.5,-47 1437.5,3.55271e-015 1522.5,3.55271e-015 1522.5,-47"/>
<text text-anchor="middle" x="1480" y="-15" font-family="Times New Roman,serif" font-size="35.00">H(S)</text>
</a>
</g>
</g>
<!-- CH2CO(S)&#45;&gt;H(S) -->
<g id="edge3" class="edge"><title>CH2CO(S)&#45;&gt;H(S)</title>
<path fill="none" stroke="green" stroke-width="5" d="M877.727,-36.3913C884.899,-35.2513 892.057,-34.2605 899,-33.5 1086.78,-12.9316 1310.77,-17.1362 1417.09,-20.8532"/>
<polygon fill="green" stroke="green" stroke-width="5" points="1417.03,-29.6068 1437.34,-21.6062 1417.68,-12.1189 1417.03,-29.6068"/>
<text text-anchor="middle" x="1135" y="-42.5" font-family="Times New Roman,serif" font-size="30.00"> &#160;&#160;51 &#160;&#160;99% &#160;&#160;5.42e&#45;06 mol/s &#160;&#160;&#160;5.18E&#45;01</text>
</g>
<!-- CH3CO(S) -->
<g id="node2" class="node"><title>CH3CO(S)</title>
<g id="a_node2"><a xlink:href="28.svg" xlink:title="CH3CO(S)">
<polygon fill="springgreen" stroke="none" points="187.5,-112 12.5,-112 12.5,-65 187.5,-65 187.5,-112"/>
<text text-anchor="middle" x="100" y="-80" font-family="Times New Roman,serif" font-size="35.00">CH3CO(S)</text>
</a>
</g>
</g>
<!-- CH3CO(S)&#45;&gt;CH2CO(S) -->
<g id="edge1" class="edge"><title>CH3CO(S)&#45;&gt;CH2CO(S)</title>
<path fill="none" stroke="green" stroke-width="2" d="M187.565,-86.9333C301.004,-84.4869 506.091,-78.7122 681,-66.5 684.696,-66.242 688.46,-65.9587 692.262,-65.6556"/>
<polygon fill="green" stroke="green" stroke-width="2" points="692.714,-69.1301 702.389,-64.8107 692.132,-62.1544 692.714,-69.1301"/>
<text text-anchor="middle" x="445" y="-94.5" font-family="Times New Roman,serif" font-size="30.00"> &#160;&#160;48 &#160;&#160;27% &#160;&#160;1.47e&#45;06 mol/s &#160;&#160;&#160;5.43E&#45;01</text>
</g>
<!-- CH2COH(S) -->
<g id="node5" class="node"><title>CH2COH(S)</title>
<g id="a_node5"><a xlink:href="19.svg" xlink:title="CH2COH(S)">
<polygon fill="springgreen" stroke="none" points="200,-47 0,-47 0,3.55271e-015 200,3.55271e-015 200,-47"/>
<text text-anchor="middle" x="100" y="-15" font-family="Times New Roman,serif" font-size="35.00">CH2COH(S)</text>
</a>
</g>
</g>
<!-- CH2COH(S)&#45;&gt;CH2CO(S) -->
<g id="edge4" class="edge"><title>CH2COH(S)&#45;&gt;CH2CO(S)</title>
<path fill="none" stroke="green" stroke-width="4" d="M200.125,-19.6951C315.88,-16.5263 512.939,-15.092 681,-33.5 681.434,-33.5475 681.869,-33.596 682.304,-33.6453"/>
<polygon fill="green" stroke="green" stroke-width="4" points="681.506,-40.6012 702.273,-36.3913 683.413,-26.7318 681.506,-40.6012"/>
<text text-anchor="middle" x="445" y="-42.5" font-family="Times New Roman,serif" font-size="30.00"> &#160;&#160;74 &#160;&#160;72% &#160;&#160;3.95e&#45;06 mol/s &#160;&#160;&#160;5.00E&#45;01</text>
</g>
</g>
</svg>
