<?xml version="1.0" encoding="UTF-8" standalone="no"?>
<!DOCTYPE svg PUBLIC "-//W3C//DTD SVG 1.1//EN"
 "http://www.w3.org/Graphics/SVG/1.1/DTD/svg11.dtd">
<!-- Generated by graphviz version 2.38.0 (20140413.2041)
 -->
<!-- Title: G Pages: 1 -->
<svg width="640pt" height="74pt"
 viewBox="0.00 0.00 720.00 83.68" xmlns="http://www.w3.org/2000/svg" xmlns:xlink="http://www.w3.org/1999/xlink">
<g id="graph0" class="graph" transform="scale(0.423841 0.423841) rotate(0) translate(4 171.5)">
<title>G</title>
<polygon fill="white" stroke="none" points="-4,4 -4,-171.5 1506,-171.5 1506,4 -4,4"/>
<text text-anchor="middle" x="751" y="-134.7" font-family="Arial" font-size="36.00" fill="blue">Reaction Path Analysis</text>
<!-- CHCO(S) -->
<g id="node1" class="node"><title>CHCO(S)</title>
<g id="a_node1"><a xlink:href="34.svg" xlink:title="CHCO(S)">
<polygon fill="springgreen" stroke="none" points="846,-79 689,-79 689,-32 846,-32 846,-79"/>
<text text-anchor="middle" x="767.5" y="-47" font-family="Times New Roman,serif" font-size="35.00">CHCO(S)</text>
</a>
</g>
</g>
<!-- CH(S) -->
<g id="node3" class="node"><title>CH(S)</title>
<g id="a_node3"><a xlink:href="57.svg" xlink:title="CH(S)">
<polygon fill="springgreen" stroke="none" points="1501.5,-112 1393.5,-112 1393.5,-65 1501.5,-65 1501.5,-112"/>
<text text-anchor="middle" x="1447.5" y="-80" font-family="Times New Roman,serif" font-size="35.00">CH(S)</text>
</a>
</g>
</g>
<!-- CHCO(S)&#45;&gt;CH(S) -->
<g id="edge2" class="edge"><title>CHCO(S)&#45;&gt;CH(S)</title>
<path fill="none" stroke="black" stroke-width="5" d="M846.256,-65.2482C851.072,-65.712 855.849,-66.1353 860.5,-66.5 1044.77,-80.9506 1262.4,-85.9697 1373.39,-87.6667"/>
<polygon fill="black" stroke="black" stroke-width="5" points="1373.37,-96.4171 1393.49,-87.9551 1373.62,-78.9189 1373.37,-96.4171"/>
<text text-anchor="middle" x="1107.5" y="-95.5" font-family="Times New Roman,serif" font-size="30.00"> &#160;&#160;105 &#160;&#160;99% &#160;&#160;5.42e&#45;06 mol/s &#160;&#160;&#160;1.00E+00</text>
</g>
<!-- CO(S) -->
<g id="node4" class="node"><title>CO(S)</title>
<g id="a_node4"><a xlink:href="54.svg" xlink:title="CO(S)">
<polygon fill="orange" stroke="none" points="1502,-47 1393,-47 1393,3.55271e-015 1502,3.55271e-015 1502,-47"/>
<text text-anchor="middle" x="1447.5" y="-15" font-family="Times New Roman,serif" font-size="35.00">CO(S)</text>
</a>
</g>
</g>
<!-- CHCO(S)&#45;&gt;CO(S) -->
<g id="edge3" class="edge"><title>CHCO(S)&#45;&gt;CO(S)</title>
<path fill="none" stroke="black" stroke-width="5" d="M846.081,-35.6935C850.94,-34.8428 855.775,-34.098 860.5,-33.5 1043.53,-10.3354 1261.25,-14.9676 1372.71,-19.642"/>
<polygon fill="black" stroke="black" stroke-width="5" points="1372.53,-28.3925 1392.9,-20.5389 1373.3,-10.9097 1372.53,-28.3925"/>
<text text-anchor="middle" x="1107.5" y="-42.5" font-family="Times New Roman,serif" font-size="30.00"> &#160;&#160;105 &#160;&#160;99% &#160;&#160;5.42e&#45;06 mol/s &#160;&#160;&#160;1.00E+00</text>
</g>
<!-- CH2CO(S) -->
<g id="node2" class="node"><title>CH2CO(S)</title>
<g id="a_node2"><a xlink:href="31.svg" xlink:title="CH2CO(S)">
<polygon fill="springgreen" stroke="none" points="175,-79 0,-79 0,-32 175,-32 175,-79"/>
<text text-anchor="middle" x="87.5" y="-47" font-family="Times New Roman,serif" font-size="35.00">CH2CO(S)</text>
</a>
</g>
</g>
<!-- CH2CO(S)&#45;&gt;CHCO(S) -->
<g id="edge1" class="edge"><title>CH2CO(S)&#45;&gt;CHCO(S)</title>
<path fill="none" stroke="green" stroke-width="6" d="M175.058,-55.5C301.454,-55.5 535.867,-55.5 668.463,-55.5"/>
<polygon fill="green" stroke="green" stroke-width="6" points="668.837,-66.0001 688.837,-55.5 668.837,-45.0001 668.837,-66.0001"/>
<text text-anchor="middle" x="427.5" y="-64.5" font-family="Times New Roman,serif" font-size="30.00"> &#160;&#160;51 &#160;&#160;100% &#160;&#160;5.42e&#45;06 mol/s &#160;&#160;&#160;5.18E&#45;01</text>
</g>
</g>
</svg>
