<?xml version="1.0" encoding="UTF-8" standalone="no"?>
<!DOCTYPE svg PUBLIC "-//W3C//DTD SVG 1.1//EN"
 "http://www.w3.org/Graphics/SVG/1.1/DTD/svg11.dtd">
<!-- Generated by graphviz version 2.38.0 (20140413.2041)
 -->
<!-- Title: G Pages: 1 -->
<svg width="640pt" height="74pt"
 viewBox="0.00 0.00 720.00 83.57" xmlns="http://www.w3.org/2000/svg" xmlns:xlink="http://www.w3.org/1999/xlink">
<g id="graph0" class="graph" transform="scale(0.425673 0.425673) rotate(0) translate(4 170.5)">
<title>G</title>
<polygon fill="white" stroke="none" points="-4,4 -4,-170.5 1499.5,-170.5 1499.5,4 -4,4"/>
<text text-anchor="middle" x="747.75" y="-133.7" font-family="Arial" font-size="36.00" fill="blue">Reaction Path Analysis</text>
<!-- CH3CH2(S) -->
<g id="node1" class="node"><title>CH3CH2(S)</title>
<g id="a_node1"><a xlink:href="38.svg" xlink:title="CH3CH2(S)">
<polygon fill="dodgerblue" stroke="none" points="850,-79 658,-79 658,-32 850,-32 850,-79"/>
<text text-anchor="middle" x="754" y="-47" font-family="Times New Roman,serif" font-size="35.00">CH3CH2(S)</text>
</a>
</g>
</g>
<!-- CH3CH3 -->
<g id="node2" class="node"><title>CH3CH3</title>
<g id="a_node2"><a xlink:href="2.svg" xlink:title="CH3CH3">
<polygon fill="none" stroke="none" points="1495.5,-79 1346.5,-79 1346.5,-32 1495.5,-32 1495.5,-79"/>
<text text-anchor="middle" x="1421" y="-47" font-family="Times New Roman,serif" font-size="35.00">CH3CH3</text>
</a>
</g>
</g>
<!-- CH3CH2(S)&#45;&gt;CH3CH3 -->
<g id="edge1" class="edge"><title>CH3CH2(S)&#45;&gt;CH3CH3</title>
<path fill="none" stroke="green" stroke-width="5" d="M850.278,-55.5C977.172,-55.5 1200.25,-55.5 1326.33,-55.5"/>
<polygon fill="green" stroke="green" stroke-width="5" points="1326.45,-64.2501 1346.45,-55.5 1326.45,-46.7501 1326.45,-64.2501"/>
<text text-anchor="middle" x="1087.5" y="-64.5" font-family="Times New Roman,serif" font-size="30.00"> &#160;&#160;4 &#160;&#160;99% &#160;&#160;1.84e&#45;08 mol/s &#160;&#160;&#160;4.54E&#45;01</text>
</g>
<!-- CH3CH(S) -->
<g id="node3" class="node"><title>CH3CH(S)</title>
<g id="a_node3"><a xlink:href="39.svg" xlink:title="CH3CH(S)">
<polygon fill="dodgerblue" stroke="none" points="174,-112 0,-112 0,-65 174,-65 174,-112"/>
<text text-anchor="middle" x="87" y="-80" font-family="Times New Roman,serif" font-size="35.00">CH3CH(S)</text>
</a>
</g>
</g>
<!-- CH3CH(S)&#45;&gt;CH3CH2(S) -->
<g id="edge2" class="edge"><title>CH3CH(S)&#45;&gt;CH3CH2(S)</title>
<path fill="none" stroke="black" stroke-width="5" d="M174.115,-86.8917C280.172,-84.52 466.387,-79.09 637.793,-67.2415"/>
<polygon fill="black" stroke="black" stroke-width="5" points="638.476,-75.9651 657.808,-65.8233 637.239,-58.5088 638.476,-75.9651"/>
<text text-anchor="middle" x="420.5" y="-94.5" font-family="Times New Roman,serif" font-size="30.00"> &#160;&#160;55 &#160;&#160;92% &#160;&#160;1.7e&#45;08 mol/s &#160;&#160;&#160;2.33E&#45;01</text>
</g>
<!-- H(S) -->
<g id="node4" class="node"><title>H(S)</title>
<g id="a_node4"><a xlink:href="62.svg" xlink:title="H(S)">
<polygon fill="orange" stroke="none" points="129.5,-47 44.5,-47 44.5,3.55271e-015 129.5,3.55271e-015 129.5,-47"/>
<text text-anchor="middle" x="87" y="-15" font-family="Times New Roman,serif" font-size="35.00">H(S)</text>
</a>
</g>
</g>
<!-- H(S)&#45;&gt;CH3CH2(S) -->
<g id="edge3" class="edge"><title>H(S)&#45;&gt;CH3CH2(S)</title>
<path fill="none" stroke="black" stroke-width="5" d="M129.7,-21.54C220.016,-17.8663 440.822,-11.9609 637.986,-32.455"/>
<polygon fill="black" stroke="black" stroke-width="5" points="637.074,-41.1573 657.904,-34.6261 638.97,-23.7603 637.074,-41.1573"/>
<text text-anchor="middle" x="420.5" y="-42.5" font-family="Times New Roman,serif" font-size="30.00"> &#160;&#160;55 &#160;&#160;92% &#160;&#160;1.7e&#45;08 mol/s &#160;&#160;&#160;2.33E&#45;01</text>
</g>
</g>
</svg>
