<?xml version="1.0" encoding="UTF-8" standalone="no"?>
<!DOCTYPE svg PUBLIC "-//W3C//DTD SVG 1.1//EN"
 "http://www.w3.org/Graphics/SVG/1.1/DTD/svg11.dtd">
<!-- Generated by graphviz version 2.38.0 (20140413.2041)
 -->
<!-- Title: G Pages: 1 -->
<svg width="640pt" height="74pt"
 viewBox="0.00 0.00 720.00 83.54" xmlns="http://www.w3.org/2000/svg" xmlns:xlink="http://www.w3.org/1999/xlink">
<g id="graph0" class="graph" transform="scale(0.42314 0.42314) rotate(0) translate(4 171.5)">
<title>G</title>
<polygon fill="white" stroke="none" points="-4,4 -4,-171.5 1508.5,-171.5 1508.5,4 -4,4"/>
<text text-anchor="middle" x="752.25" y="-134.7" font-family="Arial" font-size="36.00" fill="blue">Reaction Path Analysis</text>
<!-- CH3CH(S) -->
<g id="node1" class="node"><title>CH3CH(S)</title>
<g id="a_node1"><a xlink:href="39.svg" xlink:title="CH3CH(S)">
<polygon fill="dodgerblue" stroke="none" points="828.5,-79 654.5,-79 654.5,-32 828.5,-32 828.5,-79"/>
<text text-anchor="middle" x="741.5" y="-47" font-family="Times New Roman,serif" font-size="35.00">CH3CH(S)</text>
</a>
</g>
</g>
<!-- CH3CH2(S) -->
<g id="node2" class="node"><title>CH3CH2(S)</title>
<g id="a_node2"><a xlink:href="38.svg" xlink:title="CH3CH2(S)">
<polygon fill="dodgerblue" stroke="none" points="1504.5,-79 1312.5,-79 1312.5,-32 1504.5,-32 1504.5,-79"/>
<text text-anchor="middle" x="1408.5" y="-47" font-family="Times New Roman,serif" font-size="35.00">CH3CH2(S)</text>
</a>
</g>
</g>
<!-- CH3CH(S)&#45;&gt;CH3CH2(S) -->
<g id="edge1" class="edge"><title>CH3CH(S)&#45;&gt;CH3CH2(S)</title>
<path fill="none" stroke="black" stroke-width="5" d="M828.755,-55.5C947.133,-55.5 1160.25,-55.5 1292.21,-55.5"/>
<polygon fill="black" stroke="black" stroke-width="5" points="1292.26,-64.2501 1312.26,-55.5 1292.26,-46.7501 1292.26,-64.2501"/>
<text text-anchor="middle" x="1075" y="-64.5" font-family="Times New Roman,serif" font-size="30.00"> &#160;&#160;55 &#160;&#160;95% &#160;&#160;1.7e&#45;08 mol/s &#160;&#160;&#160;2.33E&#45;01</text>
</g>
<!-- CH3C(S) -->
<g id="node3" class="node"><title>CH3C(S)</title>
<g id="a_node3"><a xlink:href="40.svg" xlink:title="CH3C(S)">
<polygon fill="springgreen" stroke="none" points="149,-112 0,-112 0,-65 149,-65 149,-112"/>
<text text-anchor="middle" x="74.5" y="-80" font-family="Times New Roman,serif" font-size="35.00">CH3C(S)</text>
</a>
</g>
</g>
<!-- CH3C(S)&#45;&gt;CH3CH(S) -->
<g id="edge2" class="edge"><title>CH3C(S)&#45;&gt;CH3CH(S)</title>
<path fill="none" stroke="green" stroke-width="5" d="M149.192,-87.4077C253.818,-85.4724 451.951,-80.3945 634.119,-67.157"/>
<polygon fill="green" stroke="green" stroke-width="5" points="634.955,-75.8691 654.248,-65.6555 633.653,-58.4176 634.955,-75.8691"/>
<text text-anchor="middle" x="408" y="-95.5" font-family="Times New Roman,serif" font-size="30.00"> &#160;&#160;56 &#160;&#160;99% &#160;&#160;1.78e&#45;08 mol/s &#160;&#160;&#160;5.00E&#45;01</text>
</g>
<!-- H(S) -->
<g id="node4" class="node"><title>H(S)</title>
<g id="a_node4"><a xlink:href="62.svg" xlink:title="H(S)">
<polygon fill="orange" stroke="none" points="117,-47 32,-47 32,3.55271e-015 117,3.55271e-015 117,-47"/>
<text text-anchor="middle" x="74.5" y="-15" font-family="Times New Roman,serif" font-size="35.00">H(S)</text>
</a>
</g>
</g>
<!-- H(S)&#45;&gt;CH3CH(S) -->
<g id="edge3" class="edge"><title>H(S)&#45;&gt;CH3CH(S)</title>
<path fill="none" stroke="green" stroke-width="5" d="M117.075,-21.3089C208.236,-17.1214 432.903,-10.162 634.333,-32.598"/>
<polygon fill="green" stroke="green" stroke-width="5" points="633.493,-41.3093 654.373,-34.9383 635.523,-23.9274 633.493,-41.3093"/>
<text text-anchor="middle" x="408" y="-42.5" font-family="Times New Roman,serif" font-size="30.00"> &#160;&#160;56 &#160;&#160;99% &#160;&#160;1.78e&#45;08 mol/s &#160;&#160;&#160;5.00E&#45;01</text>
</g>
</g>
</svg>
