<?xml version="1.0" encoding="UTF-8" standalone="no"?>
<!DOCTYPE svg PUBLIC "-//W3C//DTD SVG 1.1//EN"
 "http://www.w3.org/Graphics/SVG/1.1/DTD/svg11.dtd">
<!-- Generated by graphviz version 2.38.0 (20140413.2041)
 -->
<!-- Title: G Pages: 1 -->
<svg width="640pt" height="44pt"
 viewBox="0.00 0.00 720.00 50.03" xmlns="http://www.w3.org/2000/svg" xmlns:xlink="http://www.w3.org/1999/xlink">
<g id="graph0" class="graph" transform="scale(0.395306 0.395306) rotate(0) translate(4 108.5)">
<title>G</title>
<polygon fill="white" stroke="none" points="-4,4 -4,-108.5 1615,-108.5 1615,4 -4,4"/>
<text text-anchor="middle" x="805.5" y="-71.7" font-family="Arial" font-size="36.00" fill="blue">Reaction Path Analysis</text>
<!-- CH3C(S) -->
<g id="node1" class="node"><title>CH3C(S)</title>
<g id="a_node1"><a xlink:href="40.svg" xlink:title="CH3C(S)">
<polygon fill="springgreen" stroke="none" points="886.5,-47 737.5,-47 737.5,3.55271e-015 886.5,3.55271e-015 886.5,-47"/>
<text text-anchor="middle" x="812" y="-15" font-family="Times New Roman,serif" font-size="35.00">CH3C(S)</text>
</a>
</g>
</g>
<!-- CH3CH(S) -->
<g id="node2" class="node"><title>CH3CH(S)</title>
<g id="a_node2"><a xlink:href="39.svg" xlink:title="CH3CH(S)">
<polygon fill="dodgerblue" stroke="none" points="1611,-47 1437,-47 1437,3.55271e-015 1611,3.55271e-015 1611,-47"/>
<text text-anchor="middle" x="1524" y="-15" font-family="Times New Roman,serif" font-size="35.00">CH3CH(S)</text>
</a>
</g>
</g>
<!-- CH3C(S)&#45;&gt;CH3CH(S) -->
<g id="edge1" class="edge"><title>CH3C(S)&#45;&gt;CH3CH(S)</title>
<path fill="none" stroke="green" stroke-width="5" d="M886.64,-23.5C1012.8,-23.5 1270.73,-23.5 1416.5,-23.5"/>
<polygon fill="green" stroke="green" stroke-width="5" points="1416.73,-32.2501 1436.73,-23.5 1416.73,-14.7501 1416.73,-32.2501"/>
<text text-anchor="middle" x="1168" y="-32.5" font-family="Times New Roman,serif" font-size="30.00"> &#160;&#160;56 &#160;&#160;97% &#160;&#160;1.78e&#45;08 mol/s &#160;&#160;&#160;5.00E&#45;01</text>
</g>
<!-- CH3COH(S) -->
<g id="node3" class="node"><title>CH3COH(S)</title>
<g id="a_node3"><a xlink:href="16.svg" xlink:title="CH3COH(S)">
<polygon fill="springgreen" stroke="none" points="200,-47 0,-47 0,3.55271e-015 200,3.55271e-015 200,-47"/>
<text text-anchor="middle" x="100" y="-15" font-family="Times New Roman,serif" font-size="35.00">CH3COH(S)</text>
</a>
</g>
</g>
<!-- CH3COH(S)&#45;&gt;CH3C(S) -->
<g id="edge2" class="edge"><title>CH3COH(S)&#45;&gt;CH3C(S)</title>
<path fill="none" stroke="black" stroke-width="5" d="M200.096,-23.5C337.244,-23.5 583.149,-23.5 717.348,-23.5"/>
<polygon fill="black" stroke="black" stroke-width="5" points="717.498,-32.2501 737.498,-23.5 717.498,-14.7501 717.498,-32.2501"/>
<text text-anchor="middle" x="456" y="-32.5" font-family="Times New Roman,serif" font-size="30.00"> &#160;&#160;120 &#160;&#160;99% &#160;&#160;1.82e&#45;08 mol/s &#160;&#160;&#160;1.00E+00</text>
</g>
</g>
</svg>
