<?xml version="1.0" encoding="UTF-8" standalone="no"?>
<!DOCTYPE svg PUBLIC "-//W3C//DTD SVG 1.1//EN"
 "http://www.w3.org/Graphics/SVG/1.1/DTD/svg11.dtd">
<!-- Generated by graphviz version 2.38.0 (20140413.2041)
 -->
<!-- Title: G Pages: 1 -->
<svg width="640pt" height="73pt"
 viewBox="0.00 0.00 720.00 81.58" xmlns="http://www.w3.org/2000/svg" xmlns:xlink="http://www.w3.org/1999/xlink">
<g id="graph0" class="graph" transform="scale(0.41317 0.41317) rotate(0) translate(4 171.5)">
<title>G</title>
<polygon fill="white" stroke="none" points="-4,4 -4,-171.5 1545,-171.5 1545,4 -4,4"/>
<text text-anchor="middle" x="770.5" y="-134.7" font-family="Arial" font-size="36.00" fill="blue">Reaction Path Analysis</text>
<!-- CO(S) -->
<g id="node1" class="node"><title>CO(S)</title>
<g id="a_node1"><a xlink:href="54.svg" xlink:title="CO(S)">
<polygon fill="orange" stroke="none" points="829,-79 720,-79 720,-32 829,-32 829,-79"/>
<text text-anchor="middle" x="774.5" y="-47" font-family="Times New Roman,serif" font-size="35.00">CO(S)</text>
</a>
</g>
</g>
<!-- CO -->
<g id="node2" class="node"><title>CO</title>
<g id="a_node2"><a xlink:href="10.svg" xlink:title="CO">
<polygon fill="none" stroke="none" points="1494,-112 1429,-112 1429,-65 1494,-65 1494,-112"/>
<text text-anchor="middle" x="1461.5" y="-80" font-family="Times New Roman,serif" font-size="35.00">CO</text>
</a>
</g>
</g>
<!-- CO(S)&#45;&gt;CO -->
<g id="edge1" class="edge"><title>CO(S)&#45;&gt;CO</title>
<path fill="none" stroke="green" stroke-width="3" d="M829.074,-61.7193C845.986,-63.4984 864.756,-65.2829 882,-66.5 1082.76,-80.6702 1323.4,-86.1329 1418.7,-87.8403"/>
<polygon fill="green" stroke="green" stroke-width="3" points="1418.73,-91.3414 1428.79,-88.0168 1418.86,-84.3425 1418.73,-91.3414"/>
<text text-anchor="middle" x="1118" y="-95.5" font-family="Times New Roman,serif" font-size="30.00"> &#160;&#160;12 &#160;&#160;54% &#160;&#160;2.95e&#45;06 mol/s &#160;&#160;&#160;5.00E&#45;01</text>
</g>
<!-- COOH(S) -->
<g id="node5" class="node"><title>COOH(S)</title>
<g id="a_node5"><a xlink:href="64.svg" xlink:title="COOH(S)">
<polygon fill="dodgerblue" stroke="none" points="1541,-47 1382,-47 1382,3.55271e-015 1541,3.55271e-015 1541,-47"/>
<text text-anchor="middle" x="1461.5" y="-15" font-family="Times New Roman,serif" font-size="35.00">COOH(S)</text>
</a>
</g>
</g>
<!-- CO(S)&#45;&gt;COOH(S) -->
<g id="edge4" class="edge"><title>CO(S)&#45;&gt;COOH(S)</title>
<path fill="none" stroke="black" stroke-width="3" d="M829.094,-42.3977C845.924,-38.8321 864.643,-35.4258 882,-33.5 1054.5,-14.3612 1257.68,-16.5021 1371.54,-19.9162"/>
<polygon fill="black" stroke="black" stroke-width="3" points="1371.5,-23.4165 1381.6,-20.2282 1371.72,-16.4198 1371.5,-23.4165"/>
<text text-anchor="middle" x="1118" y="-42.5" font-family="Times New Roman,serif" font-size="30.00"> &#160;&#160;154 &#160;&#160;45% &#160;&#160;2.5e&#45;06 mol/s &#160;&#160;&#160;7.20E&#45;01</text>
</g>
<!-- CH3CO(S) -->
<g id="node3" class="node"><title>CH3CO(S)</title>
<g id="a_node3"><a xlink:href="28.svg" xlink:title="CH3CO(S)">
<polygon fill="springgreen" stroke="none" points="175,-112 0,-112 0,-65 175,-65 175,-112"/>
<text text-anchor="middle" x="87.5" y="-80" font-family="Times New Roman,serif" font-size="35.00">CH3CO(S)</text>
</a>
</g>
</g>
<!-- CH3CO(S)&#45;&gt;CO(S) -->
<g id="edge2" class="edge"><title>CH3CO(S)&#45;&gt;CO(S)</title>
<path fill="none" stroke="black" d="M175.023,-87.3643C290.037,-85.3757 499.546,-80.0869 678,-66.5 688.278,-65.7175 699.155,-64.6723 709.744,-63.5367"/>
<polygon fill="black" stroke="black" points="710.225,-67.0049 719.78,-62.4259 709.455,-60.0474 710.225,-67.0049"/>
<text text-anchor="middle" x="431" y="-95.5" font-family="Times New Roman,serif" font-size="30.00"> &#160;&#160;99 &#160;&#160;0% &#160;&#160;1.58e&#45;08 mol/s &#160;&#160;&#160;1.00E+00</text>
</g>
<!-- CHCO(S) -->
<g id="node4" class="node"><title>CHCO(S)</title>
<g id="a_node4"><a xlink:href="34.svg" xlink:title="CHCO(S)">
<polygon fill="springgreen" stroke="none" points="166,-47 9,-47 9,3.55271e-015 166,3.55271e-015 166,-47"/>
<text text-anchor="middle" x="87.5" y="-15" font-family="Times New Roman,serif" font-size="35.00">CHCO(S)</text>
</a>
</g>
</g>
<!-- CHCO(S)&#45;&gt;CO(S) -->
<g id="edge3" class="edge"><title>CHCO(S)&#45;&gt;CO(S)</title>
<path fill="none" stroke="black" stroke-width="5" d="M166.105,-19.6703C279.18,-15.2539 495.625,-11.1968 678,-33.5 685.16,-34.3757 692.568,-35.5647 699.946,-36.9394"/>
<polygon fill="black" stroke="black" stroke-width="5" points="698.449,-45.5651 719.809,-41.059 702.003,-28.4297 698.449,-45.5651"/>
<text text-anchor="middle" x="431" y="-42.5" font-family="Times New Roman,serif" font-size="30.00"> &#160;&#160;105 &#160;&#160;99% &#160;&#160;5.42e&#45;06 mol/s &#160;&#160;&#160;1.00E+00</text>
</g>
</g>
</svg>
