<?xml version="1.0" encoding="UTF-8" standalone="no"?>
<!DOCTYPE svg PUBLIC "-//W3C//DTD SVG 1.1//EN"
 "http://www.w3.org/Graphics/SVG/1.1/DTD/svg11.dtd">
<!-- Generated by graphviz version 2.38.0 (20140413.2041)
 -->
<!-- Title: G Pages: 1 -->
<svg width="640pt" height="108pt"
 viewBox="0.00 0.00 720.00 121.47" xmlns="http://www.w3.org/2000/svg" xmlns:xlink="http://www.w3.org/1999/xlink">
<g id="graph0" class="graph" transform="scale(0.436264 0.436264) rotate(0) translate(4 243.5)">
<title>G</title>
<polygon fill="white" stroke="none" points="-4,4 -4,-243.5 1463,-243.5 1463,4 -4,4"/>
<text text-anchor="middle" x="729.5" y="-206.7" font-family="Arial" font-size="36.00" fill="blue">Reaction Path Analysis</text>
<!-- CH3(S) -->
<g id="node1" class="node"><title>CH3(S)</title>
<g id="a_node1"><a xlink:href="55.svg" xlink:title="CH3(S)">
<polygon fill="dodgerblue" stroke="none" points="815.5,-112 689.5,-112 689.5,-65 815.5,-65 815.5,-112"/>
<text text-anchor="middle" x="752.5" y="-80" font-family="Times New Roman,serif" font-size="35.00">CH3(S)</text>
</a>
</g>
</g>
<!-- CH4 -->
<g id="node2" class="node"><title>CH4</title>
<g id="a_node2"><a xlink:href="7.svg" xlink:title="CH4">
<polygon fill="none" stroke="none" points="1459,-112 1376,-112 1376,-65 1459,-65 1459,-112"/>
<text text-anchor="middle" x="1417.5" y="-80" font-family="Times New Roman,serif" font-size="35.00">CH4</text>
</a>
</g>
</g>
<!-- CH3(S)&#45;&gt;CH4 -->
<g id="edge1" class="edge"><title>CH3(S)&#45;&gt;CH4</title>
<path fill="none" stroke="black" stroke-width="6" d="M815.575,-88.5C942.471,-88.5 1230.18,-88.5 1355.85,-88.5"/>
<polygon fill="black" stroke="black" stroke-width="6" points="1355.98,-99.0001 1375.98,-88.5 1355.98,-78.0001 1355.98,-99.0001"/>
<text text-anchor="middle" x="1085" y="-97.5" font-family="Times New Roman,serif" font-size="30.00"> &#160;&#160;9 &#160;&#160;100% &#160;&#160;5.44e&#45;06 mol/s &#160;&#160;&#160;3.20E&#45;01</text>
</g>
<!-- CH2(S) -->
<g id="node3" class="node"><title>CH2(S)</title>
<g id="a_node3"><a xlink:href="56.svg" xlink:title="CH2(S)">
<polygon fill="dodgerblue" stroke="none" points="150.5,-177 24.5,-177 24.5,-130 150.5,-130 150.5,-177"/>
<text text-anchor="middle" x="87.5" y="-145" font-family="Times New Roman,serif" font-size="35.00">CH2(S)</text>
</a>
</g>
</g>
<!-- CH2(S)&#45;&gt;CH3(S) -->
<g id="edge2" class="edge"><title>CH2(S)&#45;&gt;CH3(S)</title>
<path fill="none" stroke="black" stroke-width="5" d="M150.634,-156.854C255.926,-161.117 475.567,-163.857 656,-125.5 664.055,-123.788 672.322,-121.484 680.46,-118.858"/>
<polygon fill="black" stroke="black" stroke-width="5" points="683.712,-126.989 699.634,-112.054 677.859,-110.497 683.712,-126.989"/>
<text text-anchor="middle" x="420" y="-167.5" font-family="Times New Roman,serif" font-size="30.00"> &#160;&#160;66 &#160;&#160;99% &#160;&#160;5.43e&#45;06 mol/s &#160;&#160;&#160;1.93E&#45;02</text>
</g>
<!-- H(S) -->
<g id="node4" class="node"><title>H(S)</title>
<g id="a_node4"><a xlink:href="62.svg" xlink:title="H(S)">
<polygon fill="orange" stroke="none" points="130,-112 45,-112 45,-65 130,-65 130,-112"/>
<text text-anchor="middle" x="87.5" y="-80" font-family="Times New Roman,serif" font-size="35.00">H(S)</text>
</a>
</g>
</g>
<!-- H(S)&#45;&gt;CH3(S) -->
<g id="edge3" class="edge"><title>H(S)&#45;&gt;CH3(S)</title>
<path fill="none" stroke="black" stroke-width="5" d="M130.225,-88.5C237.807,-88.5 526.154,-88.5 668.987,-88.5"/>
<polygon fill="black" stroke="black" stroke-width="5" points="669.378,-97.2501 689.378,-88.5 669.378,-79.7501 669.378,-97.2501"/>
<text text-anchor="middle" x="420" y="-97.5" font-family="Times New Roman,serif" font-size="30.00"> &#160;&#160;66 &#160;&#160;99% &#160;&#160;5.43e&#45;06 mol/s &#160;&#160;&#160;1.93E&#45;02</text>
</g>
<!-- CH3CO(S) -->
<g id="node5" class="node"><title>CH3CO(S)</title>
<g id="a_node5"><a xlink:href="28.svg" xlink:title="CH3CO(S)">
<polygon fill="springgreen" stroke="none" points="175,-47 0,-47 0,3.55271e-015 175,3.55271e-015 175,-47"/>
<text text-anchor="middle" x="87.5" y="-15" font-family="Times New Roman,serif" font-size="35.00">CH3CO(S)</text>
</a>
</g>
</g>
<!-- CH3CO(S)&#45;&gt;CH3(S) -->
<g id="edge4" class="edge"><title>CH3CO(S)&#45;&gt;CH3(S)</title>
<path fill="none" stroke="black" d="M175.168,-19.2617C287.435,-15.7016 488.593,-15.9124 656,-51.5 667.232,-53.8878 678.875,-57.4255 690.006,-61.3811"/>
<polygon fill="black" stroke="black" points="689.041,-64.7557 699.634,-64.9464 691.472,-58.1914 689.041,-64.7557"/>
<text text-anchor="middle" x="420" y="-60.5" font-family="Times New Roman,serif" font-size="30.00"> &#160;&#160;99 &#160;&#160;0% &#160;&#160;1.58e&#45;08 mol/s &#160;&#160;&#160;1.00E+00</text>
</g>
</g>
</svg>
