<?xml version="1.0" encoding="UTF-8" standalone="no"?>
<!DOCTYPE svg PUBLIC "-//W3C//DTD SVG 1.1//EN"
 "http://www.w3.org/Graphics/SVG/1.1/DTD/svg11.dtd">
<!-- Generated by graphviz version 2.38.0 (20140413.2041)
 -->
<!-- Title: G Pages: 1 -->
<svg width="640pt" height="81pt"
 viewBox="0.00 0.00 720.00 91.62" xmlns="http://www.w3.org/2000/svg" xmlns:xlink="http://www.w3.org/1999/xlink">
<g id="graph0" class="graph" transform="scale(0.461428 0.461428) rotate(0) translate(4 172.5)">
<title>G</title>
<polygon fill="white" stroke="none" points="-4,4 -4,-172.5 1383,-172.5 1383,4 -4,4"/>
<text text-anchor="middle" x="689.5" y="-135.7" font-family="Arial" font-size="36.00" fill="blue">Reaction Path Analysis</text>
<!-- CH2(S) -->
<g id="node1" class="node"><title>CH2(S)</title>
<g id="a_node1"><a xlink:href="56.svg" xlink:title="CH2(S)">
<polygon fill="dodgerblue" stroke="none" points="748,-79 622,-79 622,-32 748,-32 748,-79"/>
<text text-anchor="middle" x="685" y="-47" font-family="Times New Roman,serif" font-size="35.00">CH2(S)</text>
</a>
</g>
</g>
<!-- CH3(S) -->
<g id="node2" class="node"><title>CH3(S)</title>
<g id="a_node2"><a xlink:href="55.svg" xlink:title="CH3(S)">
<polygon fill="dodgerblue" stroke="none" points="1379,-79 1253,-79 1253,-32 1379,-32 1379,-79"/>
<text text-anchor="middle" x="1316" y="-47" font-family="Times New Roman,serif" font-size="35.00">CH3(S)</text>
</a>
</g>
</g>
<!-- CH2(S)&#45;&gt;CH3(S) -->
<g id="edge1" class="edge"><title>CH2(S)&#45;&gt;CH3(S)</title>
<path fill="none" stroke="black" stroke-width="6" d="M748.032,-55.5C862.093,-55.5 1105.1,-55.5 1232.76,-55.5"/>
<polygon fill="black" stroke="black" stroke-width="6" points="1232.97,-66.0001 1252.97,-55.5 1232.97,-45.0001 1232.97,-66.0001"/>
<text text-anchor="middle" x="1000.5" y="-64.5" font-family="Times New Roman,serif" font-size="30.00"> &#160;&#160;66 &#160;&#160;100% &#160;&#160;5.43e&#45;06 mol/s &#160;&#160;&#160;1.93E&#45;02</text>
</g>
<!-- CH(S) -->
<g id="node3" class="node"><title>CH(S)</title>
<g id="a_node3"><a xlink:href="57.svg" xlink:title="CH(S)">
<polygon fill="springgreen" stroke="none" points="108,-112 0,-112 0,-65 108,-65 108,-112"/>
<text text-anchor="middle" x="54" y="-80" font-family="Times New Roman,serif" font-size="35.00">CH(S)</text>
</a>
</g>
</g>
<!-- CH(S)&#45;&gt;CH2(S) -->
<g id="edge2" class="edge"><title>CH(S)&#45;&gt;CH2(S)</title>
<path fill="none" stroke="green" stroke-width="5" d="M108.256,-88.1263C203.345,-87.0824 409.063,-83.1234 601.823,-66.5562"/>
<polygon fill="green" stroke="green" stroke-width="5" points="602.782,-75.2556 621.933,-64.7769 601.24,-57.8237 602.782,-75.2556"/>
<text text-anchor="middle" x="369.5" y="-96.5" font-family="Times New Roman,serif" font-size="30.00"> &#160;&#160;67 &#160;&#160;99% &#160;&#160;5.43e&#45;06 mol/s &#160;&#160;&#160;5.00E&#45;01</text>
</g>
<!-- H(S) -->
<g id="node4" class="node"><title>H(S)</title>
<g id="a_node4"><a xlink:href="62.svg" xlink:title="H(S)">
<polygon fill="orange" stroke="none" points="96.5,-47 11.5,-47 11.5,3.55271e-015 96.5,3.55271e-015 96.5,-47"/>
<text text-anchor="middle" x="54" y="-15" font-family="Times New Roman,serif" font-size="35.00">H(S)</text>
</a>
</g>
</g>
<!-- H(S)&#45;&gt;CH2(S) -->
<g id="edge3" class="edge"><title>H(S)&#45;&gt;CH2(S)</title>
<path fill="none" stroke="green" stroke-width="5" d="M96.7298,-20.6589C186.068,-15.3359 402.724,-6.4759 601.916,-33.6709"/>
<polygon fill="green" stroke="green" stroke-width="5" points="600.714,-42.338 621.752,-36.5091 603.193,-25.0144 600.714,-42.338"/>
<text text-anchor="middle" x="369.5" y="-42.5" font-family="Times New Roman,serif" font-size="30.00"> &#160;&#160;67 &#160;&#160;99% &#160;&#160;5.43e&#45;06 mol/s &#160;&#160;&#160;5.00E&#45;01</text>
</g>
</g>
</svg>
