<?xml version="1.0" encoding="UTF-8" standalone="no"?>
<!DOCTYPE svg PUBLIC "-//W3C//DTD SVG 1.1//EN"
 "http://www.w3.org/Graphics/SVG/1.1/DTD/svg11.dtd">
<!-- Generated by graphviz version 2.38.0 (20140413.2041)
 -->
<!-- Title: G Pages: 1 -->
<svg width="640pt" height="48pt"
 viewBox="0.00 0.00 720.00 54.45" xmlns="http://www.w3.org/2000/svg" xmlns:xlink="http://www.w3.org/1999/xlink">
<g id="graph0" class="graph" transform="scale(0.430252 0.430252) rotate(0) translate(4 108.5)">
<title>G</title>
<polygon fill="white" stroke="none" points="-4,4 -4,-108.5 1483.5,-108.5 1483.5,4 -4,4"/>
<text text-anchor="middle" x="739.75" y="-71.7" font-family="Arial" font-size="36.00" fill="blue">Reaction Path Analysis</text>
<!-- CH(S) -->
<g id="node1" class="node"><title>CH(S)</title>
<g id="a_node1"><a xlink:href="57.svg" xlink:title="CH(S)">
<polygon fill="springgreen" stroke="none" points="801.5,-47 693.5,-47 693.5,3.55271e-015 801.5,3.55271e-015 801.5,-47"/>
<text text-anchor="middle" x="747.5" y="-15" font-family="Times New Roman,serif" font-size="35.00">CH(S)</text>
</a>
</g>
</g>
<!-- CH2(S) -->
<g id="node2" class="node"><title>CH2(S)</title>
<g id="a_node2"><a xlink:href="56.svg" xlink:title="CH2(S)">
<polygon fill="dodgerblue" stroke="none" points="1479.5,-47 1353.5,-47 1353.5,3.55271e-015 1479.5,3.55271e-015 1479.5,-47"/>
<text text-anchor="middle" x="1416.5" y="-15" font-family="Times New Roman,serif" font-size="35.00">CH2(S)</text>
</a>
</g>
</g>
<!-- CH(S)&#45;&gt;CH2(S) -->
<g id="edge1" class="edge"><title>CH(S)&#45;&gt;CH2(S)</title>
<path fill="none" stroke="green" stroke-width="6" d="M801.676,-23.5C917.632,-23.5 1193.94,-23.5 1332.83,-23.5"/>
<polygon fill="green" stroke="green" stroke-width="6" points="1333.09,-34.0001 1353.09,-23.5 1333.09,-13.0001 1333.09,-34.0001"/>
<text text-anchor="middle" x="1082" y="-32.5" font-family="Times New Roman,serif" font-size="30.00"> &#160;&#160;67 &#160;&#160;100% &#160;&#160;5.43e&#45;06 mol/s &#160;&#160;&#160;5.00E&#45;01</text>
</g>
<!-- CHCO(S) -->
<g id="node3" class="node"><title>CHCO(S)</title>
<g id="a_node3"><a xlink:href="34.svg" xlink:title="CHCO(S)">
<polygon fill="springgreen" stroke="none" points="157,-47 0,-47 0,3.55271e-015 157,3.55271e-015 157,-47"/>
<text text-anchor="middle" x="78.5" y="-15" font-family="Times New Roman,serif" font-size="35.00">CHCO(S)</text>
</a>
</g>
</g>
<!-- CHCO(S)&#45;&gt;CH(S) -->
<g id="edge2" class="edge"><title>CHCO(S)&#45;&gt;CH(S)</title>
<path fill="none" stroke="black" stroke-width="5" d="M157.319,-23.5C287.069,-23.5 545.861,-23.5 672.812,-23.5"/>
<polygon fill="black" stroke="black" stroke-width="5" points="673.108,-32.2501 693.108,-23.5 673.108,-14.7501 673.108,-32.2501"/>
<text text-anchor="middle" x="413" y="-32.5" font-family="Times New Roman,serif" font-size="30.00"> &#160;&#160;105 &#160;&#160;99% &#160;&#160;5.42e&#45;06 mol/s &#160;&#160;&#160;1.00E+00</text>
</g>
</g>
</svg>
