<?xml version="1.0" encoding="UTF-8" standalone="no"?>
<!DOCTYPE svg PUBLIC "-//W3C//DTD SVG 1.1//EN"
 "http://www.w3.org/Graphics/SVG/1.1/DTD/svg11.dtd">
<!-- Generated by graphviz version 2.38.0 (20140413.2041)
 -->
<!-- Title: G Pages: 1 -->
<svg width="640pt" height="82pt"
 viewBox="0.00 0.00 720.00 92.66" xmlns="http://www.w3.org/2000/svg" xmlns:xlink="http://www.w3.org/1999/xlink">
<g id="graph0" class="graph" transform="scale(0.466642 0.466642) rotate(0) translate(4 172.5)">
<title>G</title>
<polygon fill="white" stroke="none" points="-4,4 -4,-172.5 1367.5,-172.5 1367.5,4 -4,4"/>
<text text-anchor="middle" x="681.75" y="-135.7" font-family="Arial" font-size="36.00" fill="blue">Reaction Path Analysis</text>
<!-- H2O(S) -->
<g id="node1" class="node"><title>H2O(S)</title>
<g id="a_node1"><a xlink:href="59.svg" xlink:title="H2O(S)">
<polygon fill="springgreen" stroke="none" points="739.5,-79 611.5,-79 611.5,-32 739.5,-32 739.5,-79"/>
<text text-anchor="middle" x="675.5" y="-47" font-family="Times New Roman,serif" font-size="35.00">H2O(S)</text>
</a>
</g>
</g>
<!-- OH(S) -->
<g id="node3" class="node"><title>OH(S)</title>
<g id="a_node3"><a xlink:href="60.svg" xlink:title="OH(S)">
<polygon fill="purple" stroke="none" points="1363.5,-112 1253.5,-112 1253.5,-65 1363.5,-65 1363.5,-112"/>
<text text-anchor="middle" x="1308.5" y="-80" font-family="Times New Roman,serif" font-size="35.00">OH(S)</text>
</a>
</g>
</g>
<!-- H2O(S)&#45;&gt;OH(S) -->
<g id="edge2" class="edge"><title>H2O(S)&#45;&gt;OH(S)</title>
<path fill="none" stroke="green" stroke-width="5" d="M739.666,-65.5606C742.649,-65.9065 745.605,-66.2228 748.5,-66.5 921.62,-83.0783 1126.05,-87.2282 1233.29,-88.2253"/>
<polygon fill="green" stroke="green" stroke-width="5" points="1233.33,-96.9758 1253.4,-88.3854 1233.47,-79.4764 1233.33,-96.9758"/>
<text text-anchor="middle" x="992" y="-96.5" font-family="Times New Roman,serif" font-size="30.00"> &#160;&#160;150 &#160;&#160;99% &#160;&#160;2.48e&#45;06 mol/s &#160;&#160;&#160;5.02E&#45;01</text>
</g>
<!-- H(S) -->
<g id="node4" class="node"><title>H(S)</title>
<g id="a_node4"><a xlink:href="62.svg" xlink:title="H(S)">
<polygon fill="orange" stroke="none" points="1351,-47 1266,-47 1266,3.55271e-015 1351,3.55271e-015 1351,-47"/>
<text text-anchor="middle" x="1308.5" y="-15" font-family="Times New Roman,serif" font-size="35.00">H(S)</text>
</a>
</g>
</g>
<!-- H2O(S)&#45;&gt;H(S) -->
<g id="edge3" class="edge"><title>H2O(S)&#45;&gt;H(S)</title>
<path fill="none" stroke="green" stroke-width="5" d="M739.878,-35.088C742.776,-34.4855 745.66,-33.9502 748.5,-33.5 927.241,-5.16513 1142.14,-12.7989 1245.71,-19.0386"/>
<polygon fill="green" stroke="green" stroke-width="5" points="1245.27,-27.7777 1265.78,-20.3158 1246.38,-10.313 1245.27,-27.7777"/>
<text text-anchor="middle" x="992" y="-42.5" font-family="Times New Roman,serif" font-size="30.00"> &#160;&#160;150 &#160;&#160;99% &#160;&#160;2.48e&#45;06 mol/s &#160;&#160;&#160;5.02E&#45;01</text>
</g>
<!-- H2O -->
<g id="node2" class="node"><title>H2O</title>
<g id="a_node2"><a xlink:href="12.svg" xlink:title="H2O">
<polygon fill="none" stroke="none" points="85,-79 0,-79 0,-32 85,-32 85,-79"/>
<text text-anchor="middle" x="42.5" y="-47" font-family="Times New Roman,serif" font-size="35.00">H2O</text>
</a>
</g>
</g>
<!-- H2O&#45;&gt;H2O(S) -->
<g id="edge1" class="edge"><title>H2O&#45;&gt;H2O(S)</title>
<path fill="none" stroke="green" stroke-width="5" d="M85.3903,-55.5C188.178,-55.5 454.407,-55.5 590.987,-55.5"/>
<polygon fill="green" stroke="green" stroke-width="5" points="591.353,-64.2501 611.353,-55.5 591.353,-46.7501 591.353,-64.2501"/>
<text text-anchor="middle" x="359" y="-64.5" font-family="Times New Roman,serif" font-size="30.00"> &#160;&#160;14 &#160;&#160;99% &#160;&#160;2.48e&#45;06 mol/s &#160;&#160;&#160;5.00E&#45;01</text>
</g>
</g>
</svg>
