<?xml version="1.0" encoding="UTF-8" standalone="no"?>
<!DOCTYPE svg PUBLIC "-//W3C//DTD SVG 1.1//EN"
 "http://www.w3.org/Graphics/SVG/1.1/DTD/svg11.dtd">
<!-- Generated by graphviz version 2.38.0 (20140413.2041)
 -->
<!-- Title: G Pages: 1 -->
<svg width="640pt" height="70pt"
 viewBox="0.00 0.00 720.00 79.10" xmlns="http://www.w3.org/2000/svg" xmlns:xlink="http://www.w3.org/1999/xlink">
<g id="graph0" class="graph" transform="scale(0.400626 0.400626) rotate(0) translate(4 171.5)">
<title>G</title>
<polygon fill="white" stroke="none" points="-4,4 -4,-171.5 1593.5,-171.5 1593.5,4 -4,4"/>
<text text-anchor="middle" x="794.75" y="-134.7" font-family="Arial" font-size="36.00" fill="blue">Reaction Path Analysis</text>
<!-- OH(S) -->
<g id="node1" class="node"><title>OH(S)</title>
<g id="a_node1"><a xlink:href="60.svg" xlink:title="OH(S)">
<polygon fill="purple" stroke="none" points="860,-79 750,-79 750,-32 860,-32 860,-79"/>
<text text-anchor="middle" x="805" y="-47" font-family="Times New Roman,serif" font-size="35.00">OH(S)</text>
</a>
</g>
</g>
<!-- COOH(S) -->
<g id="node4" class="node"><title>COOH(S)</title>
<g id="a_node4"><a xlink:href="64.svg" xlink:title="COOH(S)">
<polygon fill="dodgerblue" stroke="none" points="1589.5,-79 1430.5,-79 1430.5,-32 1589.5,-32 1589.5,-79"/>
<text text-anchor="middle" x="1510" y="-47" font-family="Times New Roman,serif" font-size="35.00">COOH(S)</text>
</a>
</g>
</g>
<!-- OH(S)&#45;&gt;COOH(S) -->
<g id="edge3" class="edge"><title>OH(S)&#45;&gt;COOH(S)</title>
<path fill="none" stroke="black" stroke-width="5" d="M860.287,-55.5C978.249,-55.5 1259.42,-55.5 1409.93,-55.5"/>
<polygon fill="black" stroke="black" stroke-width="5" points="1410.26,-64.2501 1430.26,-55.5 1410.26,-46.7501 1410.26,-64.2501"/>
<text text-anchor="middle" x="1157.5" y="-64.5" font-family="Times New Roman,serif" font-size="30.00"> &#160;&#160;154 &#160;&#160;99% &#160;&#160;2.5e&#45;06 mol/s &#160;&#160;&#160;7.20E&#45;01</text>
</g>
<!-- CH3COH(S) -->
<g id="node2" class="node"><title>CH3COH(S)</title>
<g id="a_node2"><a xlink:href="16.svg" xlink:title="CH3COH(S)">
<polygon fill="springgreen" stroke="none" points="200,-112 0,-112 0,-65 200,-65 200,-112"/>
<text text-anchor="middle" x="100" y="-80" font-family="Times New Roman,serif" font-size="35.00">CH3COH(S)</text>
</a>
</g>
</g>
<!-- CH3COH(S)&#45;&gt;OH(S) -->
<g id="edge1" class="edge"><title>CH3COH(S)&#45;&gt;OH(S)</title>
<path fill="none" stroke="black" d="M200.066,-86.7914C318.242,-84.3013 521.725,-78.5844 696,-66.5 710.146,-65.5191 725.306,-64.1646 739.662,-62.7409"/>
<polygon fill="black" stroke="black" points="740.352,-66.1889 749.947,-61.6963 739.644,-59.2247 740.352,-66.1889"/>
<text text-anchor="middle" x="452.5" y="-95.5" font-family="Times New Roman,serif" font-size="30.00"> &#160;&#160;120 &#160;&#160;0% &#160;&#160;1.82e&#45;08 mol/s &#160;&#160;&#160;1.00E+00</text>
</g>
<!-- H2O(S) -->
<g id="node3" class="node"><title>H2O(S)</title>
<g id="a_node3"><a xlink:href="59.svg" xlink:title="H2O(S)">
<polygon fill="springgreen" stroke="none" points="164,-47 36,-47 36,3.55271e-015 164,3.55271e-015 164,-47"/>
<text text-anchor="middle" x="100" y="-15" font-family="Times New Roman,serif" font-size="35.00">H2O(S)</text>
</a>
</g>
</g>
<!-- H2O(S)&#45;&gt;OH(S) -->
<g id="edge2" class="edge"><title>H2O(S)&#45;&gt;OH(S)</title>
<path fill="none" stroke="green" stroke-width="5" d="M164.207,-20.7589C273.152,-16.8825 503.178,-12.4222 696,-33.5 707.056,-34.7086 718.66,-36.5025 729.992,-38.5536"/>
<polygon fill="green" stroke="green" stroke-width="5" points="728.611,-47.1994 749.919,-42.4526 731.971,-30.025 728.611,-47.1994"/>
<text text-anchor="middle" x="452.5" y="-42.5" font-family="Times New Roman,serif" font-size="30.00"> &#160;&#160;150 &#160;&#160;99% &#160;&#160;2.48e&#45;06 mol/s &#160;&#160;&#160;5.02E&#45;01</text>
</g>
</g>
</svg>
