<?xml version="1.0" encoding="UTF-8" standalone="no"?>
<!DOCTYPE svg PUBLIC "-//W3C//DTD SVG 1.1//EN"
 "http://www.w3.org/Graphics/SVG/1.1/DTD/svg11.dtd">
<!-- Generated by graphviz version 2.38.0 (20140413.2041)
 -->
<!-- Title: G Pages: 1 -->
<svg width="640pt" height="337pt"
 viewBox="0.00 0.00 720.00 378.59" xmlns="http://www.w3.org/2000/svg" xmlns:xlink="http://www.w3.org/1999/xlink">
<g id="graph0" class="graph" transform="scale(0.378922 0.378922) rotate(0) translate(4 884.109)">
<title>G</title>
<polygon fill="white" stroke="none" points="-4,4 -4,-884.109 1685,-884.109 1685,4 -4,4"/>
<text text-anchor="middle" x="840.5" y="-847.309" font-family="Arial" font-size="36.00" fill="blue">Reaction Path Analysis</text>
<!-- H(S) -->
<g id="node1" class="node"><title>H(S)</title>
<g id="a_node1"><a xlink:href="62.svg" xlink:title="H(S)">
<polygon fill="orange" stroke="none" points="895.5,-447.609 810.5,-447.609 810.5,-400.609 895.5,-400.609 895.5,-447.609"/>
<text text-anchor="middle" x="853" y="-415.609" font-family="Times New Roman,serif" font-size="35.00">H(S)</text>
</a>
</g>
</g>
<!-- CH3CH3 -->
<g id="node2" class="node"><title>CH3CH3</title>
<g id="a_node2"><a xlink:href="2.svg" xlink:title="CH3CH3">
<polygon fill="none" stroke="none" points="1659.5,-642.609 1510.5,-642.609 1510.5,-595.609 1659.5,-595.609 1659.5,-642.609"/>
<text text-anchor="middle" x="1585" y="-610.609" font-family="Times New Roman,serif" font-size="35.00">CH3CH3</text>
</a>
</g>
</g>
<!-- H(S)&#45;&gt;CH3CH3 -->
<g id="edge1" class="edge"><title>H(S)&#45;&gt;CH3CH3</title>
<path fill="none" stroke="green" d="M863.635,-447.652C880.955,-486.482 921.388,-562.86 983,-595.109 1149.48,-682.244 1378.85,-658.743 1500.46,-637.086"/>
<polygon fill="green" stroke="green" points="1501.24,-640.501 1510.45,-635.267 1499.99,-633.614 1501.24,-640.501"/>
<text text-anchor="middle" x="1219" y="-666.109" font-family="Times New Roman,serif" font-size="30.00"> &#160;&#160;4 &#160;&#160;0% &#160;&#160;1.84e&#45;08 mol/s &#160;&#160;&#160;4.54E&#45;01</text>
</g>
<!-- CH4 -->
<g id="node3" class="node"><title>CH4</title>
<g id="a_node3"><a xlink:href="7.svg" xlink:title="CH4">
<polygon fill="none" stroke="none" points="1626.5,-577.609 1543.5,-577.609 1543.5,-530.609 1626.5,-530.609 1626.5,-577.609"/>
<text text-anchor="middle" x="1585" y="-545.609" font-family="Times New Roman,serif" font-size="35.00">CH4</text>
</a>
</g>
</g>
<!-- H(S)&#45;&gt;CH4 -->
<g id="edge2" class="edge"><title>H(S)&#45;&gt;CH4</title>
<path fill="none" stroke="black" d="M874.478,-447.836C897.839,-472.989 938.591,-511.349 983,-528.109 1082.91,-565.814 1406.71,-559.87 1532.95,-555.953"/>
<polygon fill="black" stroke="black" points="1533.24,-559.446 1543.12,-555.628 1533.01,-552.449 1533.24,-559.446"/>
<text text-anchor="middle" x="1219" y="-567.109" font-family="Times New Roman,serif" font-size="30.00"> &#160;&#160;9 &#160;&#160;16% &#160;&#160;5.44e&#45;06 mol/s &#160;&#160;&#160;3.20E&#45;01</text>
</g>
<!-- H2 -->
<g id="node4" class="node"><title>H2</title>
<g id="a_node4"><a xlink:href="8.svg" xlink:title="H2">
<polygon fill="none" stroke="none" points="1614.5,-512.609 1555.5,-512.609 1555.5,-465.609 1614.5,-465.609 1614.5,-512.609"/>
<text text-anchor="middle" x="1585" y="-480.609" font-family="Times New Roman,serif" font-size="35.00">H2</text>
</a>
</g>
</g>
<!-- H(S)&#45;&gt;H2 -->
<g id="edge3" class="edge"><title>H(S)&#45;&gt;H2</title>
<path fill="none" stroke="green" stroke-width="3" d="M895.557,-438.698C920.566,-446.803 953.228,-456.214 983,-461.109 1192.87,-495.61 1449.1,-492.942 1545.17,-490.405"/>
<polygon fill="green" stroke="green" stroke-width="3" points="1545.39,-493.9 1555.29,-490.122 1545.19,-486.903 1545.39,-493.9"/>
<text text-anchor="middle" x="1219" y="-500.109" font-family="Times New Roman,serif" font-size="30.00"> &#160;&#160;10 &#160;&#160;49% &#160;&#160;7.94e&#45;06 mol/s &#160;&#160;&#160;5.00E&#45;01</text>
</g>
<!-- CH3CH2(S) -->
<g id="node12" class="node"><title>CH3CH2(S)</title>
<g id="a_node12"><a xlink:href="38.svg" xlink:title="CH3CH2(S)">
<polygon fill="dodgerblue" stroke="none" points="1681,-447.609 1489,-447.609 1489,-400.609 1681,-400.609 1681,-447.609"/>
<text text-anchor="middle" x="1585" y="-415.609" font-family="Times New Roman,serif" font-size="35.00">CH3CH2(S)</text>
</a>
</g>
</g>
<!-- H(S)&#45;&gt;CH3CH2(S) -->
<g id="edge11" class="edge"><title>H(S)&#45;&gt;CH3CH2(S)</title>
<path fill="none" stroke="black" d="M895.604,-424.109C1007.08,-424.109 1315.1,-424.109 1478.71,-424.109"/>
<polygon fill="black" stroke="black" points="1478.79,-427.609 1488.79,-424.109 1478.79,-420.609 1478.79,-427.609"/>
<text text-anchor="middle" x="1219" y="-433.109" font-family="Times New Roman,serif" font-size="30.00"> &#160;&#160;55 &#160;&#160;0% &#160;&#160;1.7e&#45;08 mol/s &#160;&#160;&#160;2.33E&#45;01</text>
</g>
<!-- CH3CH(S) -->
<g id="node13" class="node"><title>CH3CH(S)</title>
<g id="a_node13"><a xlink:href="39.svg" xlink:title="CH3CH(S)">
<polygon fill="dodgerblue" stroke="none" points="1672,-382.609 1498,-382.609 1498,-335.609 1672,-335.609 1672,-382.609"/>
<text text-anchor="middle" x="1585" y="-350.609" font-family="Times New Roman,serif" font-size="35.00">CH3CH(S)</text>
</a>
</g>
</g>
<!-- H(S)&#45;&gt;CH3CH(S) -->
<g id="edge12" class="edge"><title>H(S)&#45;&gt;CH3CH(S)</title>
<path fill="none" stroke="green" d="M895.557,-409.519C920.566,-401.414 953.228,-392.003 983,-387.109 1159.27,-358.131 1368.23,-355.374 1487.55,-356.737"/>
<polygon fill="green" stroke="green" points="1487.71,-360.239 1497.75,-356.866 1487.8,-353.239 1487.71,-360.239"/>
<text text-anchor="middle" x="1219" y="-396.109" font-family="Times New Roman,serif" font-size="30.00"> &#160;&#160;56 &#160;&#160;0% &#160;&#160;1.78e&#45;08 mol/s &#160;&#160;&#160;5.00E&#45;01</text>
</g>
<!-- CH3(S) -->
<g id="node14" class="node"><title>CH3(S)</title>
<g id="a_node14"><a xlink:href="55.svg" xlink:title="CH3(S)">
<polygon fill="dodgerblue" stroke="none" points="1648,-317.609 1522,-317.609 1522,-270.609 1648,-270.609 1648,-317.609"/>
<text text-anchor="middle" x="1585" y="-285.609" font-family="Times New Roman,serif" font-size="35.00">CH3(S)</text>
</a>
</g>
</g>
<!-- H(S)&#45;&gt;CH3(S) -->
<g id="edge13" class="edge"><title>H(S)&#45;&gt;CH3(S)</title>
<path fill="none" stroke="black" d="M874.002,-400.602C897.243,-375.206 938.178,-336.102 983,-319.109 1163.1,-250.83 1395.64,-267.957 1511.58,-282.869"/>
<polygon fill="black" stroke="black" points="1511.38,-286.373 1521.75,-284.211 1512.3,-279.433 1511.38,-286.373"/>
<text text-anchor="middle" x="1219" y="-328.109" font-family="Times New Roman,serif" font-size="30.00"> &#160;&#160;66 &#160;&#160;16% &#160;&#160;5.43e&#45;06 mol/s &#160;&#160;&#160;1.93E&#45;02</text>
</g>
<!-- CH2(S) -->
<g id="node15" class="node"><title>CH2(S)</title>
<g id="a_node15"><a xlink:href="56.svg" xlink:title="CH2(S)">
<polygon fill="dodgerblue" stroke="none" points="1648,-252.609 1522,-252.609 1522,-205.609 1648,-205.609 1648,-252.609"/>
<text text-anchor="middle" x="1585" y="-220.609" font-family="Times New Roman,serif" font-size="35.00">CH2(S)</text>
</a>
</g>
</g>
<!-- H(S)&#45;&gt;CH2(S) -->
<g id="edge14" class="edge"><title>H(S)&#45;&gt;CH2(S)</title>
<path fill="none" stroke="green" d="M861.533,-400.605C876.661,-357.856 915.222,-268.443 983,-232.109 1153.89,-140.495 1393.38,-180.308 1511.82,-209.014"/>
<polygon fill="green" stroke="green" points="1511.31,-212.495 1521.86,-211.492 1512.99,-205.698 1511.31,-212.495"/>
<text text-anchor="middle" x="1219" y="-241.109" font-family="Times New Roman,serif" font-size="30.00"> &#160;&#160;67 &#160;&#160;16% &#160;&#160;5.43e&#45;06 mol/s &#160;&#160;&#160;5.00E&#45;01</text>
</g>
<!-- CH3CH2OH(S) -->
<g id="node5" class="node"><title>CH3CH2OH(S)</title>
<g id="a_node5"><a xlink:href="14.svg" xlink:title="CH3CH2OH(S)">
<polygon fill="dodgerblue" stroke="none" points="242,-741.609 0,-741.609 0,-694.609 242,-694.609 242,-741.609"/>
<text text-anchor="middle" x="121" y="-709.609" font-family="Times New Roman,serif" font-size="35.00">CH3CH2OH(S)</text>
</a>
</g>
</g>
<!-- CH3CH2OH(S)&#45;&gt;H(S) -->
<g id="edge4" class="edge"><title>CH3CH2OH(S)&#45;&gt;H(S)</title>
<path fill="none" stroke="black" d="M183.322,-741.685C299.694,-782.133 555.848,-850.146 723,-738.109 818.727,-673.946 843.479,-524.605 849.831,-457.642"/>
<polygon fill="black" stroke="black" points="853.322,-457.894 850.7,-447.628 846.348,-457.288 853.322,-457.894"/>
<text text-anchor="middle" x="487" y="-808.109" font-family="Times New Roman,serif" font-size="30.00"> &#160;&#160;15 &#160;&#160;14% &#160;&#160;4.77e&#45;06 mol/s &#160;&#160;&#160;9.99E&#45;01</text>
</g>
<!-- CH3CH2OH(S)&#45;&gt;H(S) -->
<g id="edge15" class="edge"><title>CH3CH2OH(S)&#45;&gt;H(S)</title>
<path fill="none" stroke="black" d="M242.129,-701.94C245.114,-701.647 248.075,-701.369 251,-701.109 303.295,-696.452 678.927,-707.639 723,-679.109 801.416,-628.346 834.265,-514.317 846.157,-457.542"/>
<polygon fill="black" stroke="black" points="849.609,-458.128 848.14,-447.636 842.745,-456.754 849.609,-458.128"/>
<text text-anchor="middle" x="487" y="-710.109" font-family="Times New Roman,serif" font-size="30.00"> &#160;&#160;69 &#160;&#160;2% &#160;&#160;7.05e&#45;07 mol/s &#160;&#160;&#160;9.45E&#45;01</text>
</g>
<!-- CH3CHOH(S) -->
<g id="node6" class="node"><title>CH3CHOH(S)</title>
<g id="a_node6"><a xlink:href="15.svg" xlink:title="CH3CHOH(S)">
<polygon fill="dodgerblue" stroke="none" points="233,-657.609 9,-657.609 9,-610.609 233,-610.609 233,-657.609"/>
<text text-anchor="middle" x="121" y="-625.609" font-family="Times New Roman,serif" font-size="35.00">CH3CHOH(S)</text>
</a>
</g>
</g>
<!-- CH3CHOH(S)&#45;&gt;H(S) -->
<g id="edge5" class="edge"><title>CH3CHOH(S)&#45;&gt;H(S)</title>
<path fill="none" stroke="black" d="M233.222,-638.278C395.251,-643.501 681.514,-649.199 723,-626.109 788.374,-589.722 825.554,-504.798 841.894,-457.469"/>
<polygon fill="black" stroke="black" points="845.311,-458.286 845.157,-447.692 838.671,-456.069 845.311,-458.286"/>
<text text-anchor="middle" x="487" y="-651.109" font-family="Times New Roman,serif" font-size="30.00"> &#160;&#160;16 &#160;&#160;14% &#160;&#160;4.62e&#45;06 mol/s &#160;&#160;&#160;5.57E&#45;01</text>
</g>
<!-- CH3CHOH(S)&#45;&gt;H(S) -->
<g id="edge16" class="edge"><title>CH3CHOH(S)&#45;&gt;H(S)</title>
<path fill="none" stroke="black" d="M177.843,-610.585C200.187,-602.248 226.417,-593.784 251,-589.109 302.563,-579.302 675.595,-592.64 723,-570.109 773.618,-546.051 812.752,-491.973 834.064,-456.814"/>
<polygon fill="black" stroke="black" points="837.271,-458.266 839.346,-447.876 831.245,-454.705 837.271,-458.266"/>
<text text-anchor="middle" x="487" y="-598.109" font-family="Times New Roman,serif" font-size="30.00"> &#160;&#160;70 &#160;&#160;0% &#160;&#160;1.53e&#45;07 mol/s &#160;&#160;&#160;5.55E&#45;01</text>
</g>
<!-- CH3CH2O(S) -->
<g id="node7" class="node"><title>CH3CH2O(S)</title>
<g id="a_node7"><a xlink:href="26.svg" xlink:title="CH3CH2O(S)">
<polygon fill="purple" stroke="none" points="230,-563.609 12,-563.609 12,-516.609 230,-516.609 230,-563.609"/>
<text text-anchor="middle" x="121" y="-531.609" font-family="Times New Roman,serif" font-size="35.00">CH3CH2O(S)</text>
</a>
</g>
</g>
<!-- CH3CH2O(S)&#45;&gt;H(S) -->
<g id="edge6" class="edge"><title>CH3CH2O(S)&#45;&gt;H(S)</title>
<path fill="none" stroke="black" d="M230.102,-536.994C396.859,-531.966 700.138,-521.842 723,-514.109 759.646,-501.712 795.238,-475.474 819.72,-454.51"/>
<polygon fill="black" stroke="black" points="822.041,-457.13 827.266,-447.913 817.434,-451.86 822.041,-457.13"/>
<text text-anchor="middle" x="487" y="-544.109" font-family="Times New Roman,serif" font-size="30.00"> &#160;&#160;23 &#160;&#160;2% &#160;&#160;7.05e&#45;07 mol/s &#160;&#160;&#160;9.91E&#45;01</text>
</g>
<!-- CH3CHO(S) -->
<g id="node8" class="node"><title>CH3CHO(S)</title>
<g id="a_node8"><a xlink:href="27.svg" xlink:title="CH3CHO(S)">
<polygon fill="dodgerblue" stroke="none" points="221,-498.609 21,-498.609 21,-451.609 221,-451.609 221,-498.609"/>
<text text-anchor="middle" x="121" y="-466.609" font-family="Times New Roman,serif" font-size="35.00">CH3CHO(S)</text>
</a>
</g>
</g>
<!-- CH3CHO(S)&#45;&gt;H(S) -->
<g id="edge7" class="edge"><title>CH3CHO(S)&#45;&gt;H(S)</title>
<path fill="none" stroke="green" d="M221.18,-478.361C340.774,-480.814 547.593,-480.358 723,-456.109 748.9,-452.528 777.146,-445.848 800.586,-439.513"/>
<polygon fill="green" stroke="green" points="801.607,-442.862 810.317,-436.83 799.746,-436.114 801.607,-442.862"/>
<text text-anchor="middle" x="487" y="-488.109" font-family="Times New Roman,serif" font-size="30.00"> &#160;&#160;24 &#160;&#160;2% &#160;&#160;8.41e&#45;07 mol/s &#160;&#160;&#160;5.02E&#45;01</text>
</g>
<!-- CH3COH(S) -->
<g id="node9" class="node"><title>CH3COH(S)</title>
<g id="a_node9"><a xlink:href="16.svg" xlink:title="CH3COH(S)">
<polygon fill="springgreen" stroke="none" points="221,-423.609 21,-423.609 21,-376.609 221,-376.609 221,-423.609"/>
<text text-anchor="middle" x="121" y="-391.609" font-family="Times New Roman,serif" font-size="35.00">CH3COH(S)</text>
</a>
</g>
</g>
<!-- CH3COH(S)&#45;&gt;H(S) -->
<g id="edge8" class="edge"><title>CH3COH(S)&#45;&gt;H(S)</title>
<path fill="none" stroke="green" d="M221.211,-403.37C378.6,-408.545 679.996,-418.454 800.425,-422.413"/>
<polygon fill="green" stroke="green" points="800.376,-425.913 810.485,-422.744 800.606,-418.917 800.376,-425.913"/>
<text text-anchor="middle" x="487" y="-428.109" font-family="Times New Roman,serif" font-size="30.00"> &#160;&#160;39 &#160;&#160;12% &#160;&#160;3.95e&#45;06 mol/s &#160;&#160;&#160;5.43E&#45;01</text>
</g>
<!-- CH3COH(S)&#45;&gt;H(S) -->
<g id="edge17" class="edge"><title>CH3COH(S)&#45;&gt;H(S)</title>
<path fill="none" stroke="green" d="M201.223,-376.527C217.541,-372.61 234.715,-369.158 251,-367.109 355.068,-354.008 620.373,-345.445 723,-367.109 750.071,-372.823 778.378,-384.598 801.555,-395.971"/>
<polygon fill="green" stroke="green" points="799.991,-399.102 810.499,-400.463 803.133,-392.847 799.991,-399.102"/>
<text text-anchor="middle" x="487" y="-376.109" font-family="Times New Roman,serif" font-size="30.00"> &#160;&#160;71 &#160;&#160;2% &#160;&#160;6.48e&#45;07 mol/s &#160;&#160;&#160;5.00E&#45;01</text>
</g>
<!-- CH3CO(S) -->
<g id="node10" class="node"><title>CH3CO(S)</title>
<g id="a_node10"><a xlink:href="28.svg" xlink:title="CH3CO(S)">
<polygon fill="springgreen" stroke="none" points="208.5,-344.609 33.5,-344.609 33.5,-297.609 208.5,-297.609 208.5,-344.609"/>
<text text-anchor="middle" x="121" y="-312.609" font-family="Times New Roman,serif" font-size="35.00">CH3CO(S)</text>
</a>
</g>
</g>
<!-- CH3CO(S)&#45;&gt;H(S) -->
<g id="edge9" class="edge"><title>CH3CO(S)&#45;&gt;H(S)</title>
<path fill="none" stroke="green" d="M208.601,-313.026C351.768,-300.889 631.12,-282.725 723,-316.109 764.796,-331.295 802.505,-366.617 826.205,-392.754"/>
<polygon fill="green" stroke="green" points="823.849,-395.372 833.099,-400.537 829.089,-390.731 823.849,-395.372"/>
<text text-anchor="middle" x="487" y="-325.109" font-family="Times New Roman,serif" font-size="30.00"> &#160;&#160;48 &#160;&#160;4% &#160;&#160;1.47e&#45;06 mol/s &#160;&#160;&#160;5.43E&#45;01</text>
</g>
<!-- CH2CO(S) -->
<g id="node11" class="node"><title>CH2CO(S)</title>
<g id="a_node11"><a xlink:href="31.svg" xlink:title="CH2CO(S)">
<polygon fill="springgreen" stroke="none" points="208.5,-279.609 33.5,-279.609 33.5,-232.609 208.5,-232.609 208.5,-279.609"/>
<text text-anchor="middle" x="121" y="-247.609" font-family="Times New Roman,serif" font-size="35.00">CH2CO(S)</text>
</a>
</g>
</g>
<!-- CH2CO(S)&#45;&gt;H(S) -->
<g id="edge10" class="edge"><title>CH2CO(S)&#45;&gt;H(S)</title>
<path fill="none" stroke="green" d="M208.623,-247.435C352.85,-234.491 635.063,-215.965 723,-259.109 779.093,-286.629 818.004,-351.543 837.526,-391.253"/>
<polygon fill="green" stroke="green" points="834.489,-393.014 841.959,-400.527 840.804,-389.995 834.489,-393.014"/>
<text text-anchor="middle" x="487" y="-268.109" font-family="Times New Roman,serif" font-size="30.00"> &#160;&#160;51 &#160;&#160;16% &#160;&#160;5.42e&#45;06 mol/s &#160;&#160;&#160;5.18E&#45;01</text>
</g>
<!-- CH2COH(S) -->
<g id="node16" class="node"><title>CH2COH(S)</title>
<g id="a_node16"><a xlink:href="19.svg" xlink:title="CH2COH(S)">
<polygon fill="springgreen" stroke="none" points="221,-214.609 21,-214.609 21,-167.609 221,-167.609 221,-214.609"/>
<text text-anchor="middle" x="121" y="-182.609" font-family="Times New Roman,serif" font-size="35.00">CH2COH(S)</text>
</a>
</g>
</g>
<!-- CH2COH(S)&#45;&gt;H(S) -->
<g id="edge18" class="edge"><title>CH2COH(S)&#45;&gt;H(S)</title>
<path fill="none" stroke="green" d="M221.278,-180.02C369.712,-165.383 640.845,-146.727 723,-195.109 795.618,-237.874 830.598,-338.122 844.452,-390.654"/>
<polygon fill="green" stroke="green" points="841.096,-391.66 846.945,-400.493 847.881,-389.94 841.096,-391.66"/>
<text text-anchor="middle" x="487" y="-204.109" font-family="Times New Roman,serif" font-size="30.00"> &#160;&#160;74 &#160;&#160;12% &#160;&#160;3.95e&#45;06 mol/s &#160;&#160;&#160;5.00E&#45;01</text>
</g>
<!-- H2O(S) -->
<g id="node17" class="node"><title>H2O(S)</title>
<g id="a_node17"><a xlink:href="59.svg" xlink:title="H2O(S)">
<polygon fill="springgreen" stroke="none" points="185,-149.609 57,-149.609 57,-102.609 185,-102.609 185,-149.609"/>
<text text-anchor="middle" x="121" y="-117.609" font-family="Times New Roman,serif" font-size="35.00">H2O(S)</text>
</a>
</g>
</g>
<!-- H2O(S)&#45;&gt;H(S) -->
<g id="edge19" class="edge"><title>H2O(S)&#45;&gt;H(S)</title>
<path fill="none" stroke="green" d="M185.063,-122.247C330.225,-113.905 678.958,-97.1822 723,-126.109 814.281,-186.061 841.282,-325.915 849.017,-390.419"/>
<polygon fill="green" stroke="green" points="845.551,-390.914 850.138,-400.465 852.508,-390.138 845.551,-390.914"/>
<text text-anchor="middle" x="487" y="-135.109" font-family="Times New Roman,serif" font-size="30.00"> &#160;&#160;150 &#160;&#160;7% &#160;&#160;2.48e&#45;06 mol/s &#160;&#160;&#160;5.02E&#45;01</text>
</g>
<!-- COOH(S) -->
<g id="node18" class="node"><title>COOH(S)</title>
<g id="a_node18"><a xlink:href="64.svg" xlink:title="COOH(S)">
<polygon fill="dodgerblue" stroke="none" points="200.5,-84.6085 41.5,-84.6085 41.5,-37.6085 200.5,-37.6085 200.5,-84.6085"/>
<text text-anchor="middle" x="121" y="-52.6085" font-family="Times New Roman,serif" font-size="35.00">COOH(S)</text>
</a>
</g>
</g>
<!-- COOH(S)&#45;&gt;H(S) -->
<g id="edge20" class="edge"><title>COOH(S)&#45;&gt;H(S)</title>
<path fill="none" stroke="black" d="M197.761,-37.5997C320.595,-4.47627 565.324,40.1985 723,-72.1085 828.135,-146.992 847.795,-317.102 851.316,-389.956"/>
<polygon fill="black" stroke="black" points="847.837,-390.532 851.741,-400.381 854.831,-390.247 847.837,-390.532"/>
<text text-anchor="middle" x="487" y="-81.1085" font-family="Times New Roman,serif" font-size="30.00"> &#160;&#160;156 &#160;&#160;7% &#160;&#160;2.5e&#45;06 mol/s &#160;&#160;&#160;9.85E&#45;01</text>
</g>
</g>
</svg>
