<?xml version="1.0" encoding="UTF-8" standalone="no"?>
<!DOCTYPE svg PUBLIC "-//W3C//DTD SVG 1.1//EN"
 "http://www.w3.org/Graphics/SVG/1.1/DTD/svg11.dtd">
<!-- Generated by graphviz version 2.38.0 (20140413.2041)
 -->
<!-- Title: G Pages: 1 -->
<svg width="640pt" height="50pt"
 viewBox="0.00 0.00 720.00 56.76" xmlns="http://www.w3.org/2000/svg" xmlns:xlink="http://www.w3.org/1999/xlink">
<g id="graph0" class="graph" transform="scale(0.448493 0.448493) rotate(0) translate(4 108.5)">
<title>G</title>
<polygon fill="white" stroke="none" points="-4,4 -4,-108.5 1423,-108.5 1423,4 -4,4"/>
<text text-anchor="middle" x="709.5" y="-71.7" font-family="Arial" font-size="36.00" fill="blue">Reaction Path Analysis</text>
<!-- CO2(S) -->
<g id="node1" class="node"><title>CO2(S)</title>
<g id="a_node1"><a xlink:href="63.svg" xlink:title="CO2(S)">
<polygon fill="dodgerblue" stroke="none" points="792,-47 665,-47 665,3.55271e-015 792,3.55271e-015 792,-47"/>
<text text-anchor="middle" x="728.5" y="-15" font-family="Times New Roman,serif" font-size="35.00">CO2(S)</text>
</a>
</g>
</g>
<!-- CO2 -->
<g id="node2" class="node"><title>CO2</title>
<g id="a_node2"><a xlink:href="11.svg" xlink:title="CO2">
<polygon fill="none" stroke="none" points="1419,-47 1336,-47 1336,3.55271e-015 1419,3.55271e-015 1419,-47"/>
<text text-anchor="middle" x="1377.5" y="-15" font-family="Times New Roman,serif" font-size="35.00">CO2</text>
</a>
</g>
</g>
<!-- CO2(S)&#45;&gt;CO2 -->
<g id="edge1" class="edge"><title>CO2(S)&#45;&gt;CO2</title>
<path fill="none" stroke="green" stroke-width="6" d="M792.125,-23.5C916.409,-23.5 1192.81,-23.5 1315.64,-23.5"/>
<polygon fill="green" stroke="green" stroke-width="6" points="1315.69,-34.0001 1335.69,-23.5 1315.69,-13.0001 1315.69,-34.0001"/>
<text text-anchor="middle" x="1053" y="-32.5" font-family="Times New Roman,serif" font-size="30.00"> &#160;&#160;13 &#160;&#160;100% &#160;&#160;2.5e&#45;06 mol/s &#160;&#160;&#160;5.00E&#45;01</text>
</g>
<!-- COOH(S) -->
<g id="node3" class="node"><title>COOH(S)</title>
<g id="a_node3"><a xlink:href="64.svg" xlink:title="COOH(S)">
<polygon fill="dodgerblue" stroke="none" points="159,-47 0,-47 0,3.55271e-015 159,3.55271e-015 159,-47"/>
<text text-anchor="middle" x="79.5" y="-15" font-family="Times New Roman,serif" font-size="35.00">COOH(S)</text>
</a>
</g>
</g>
<!-- COOH(S)&#45;&gt;CO2(S) -->
<g id="edge2" class="edge"><title>COOH(S)&#45;&gt;CO2(S)</title>
<path fill="none" stroke="black" stroke-width="5" d="M159.188,-23.5C282.199,-23.5 518.942,-23.5 644.534,-23.5"/>
<polygon fill="black" stroke="black" stroke-width="5" points="644.804,-32.2501 664.804,-23.5 644.804,-14.7501 644.804,-32.2501"/>
<text text-anchor="middle" x="404" y="-32.5" font-family="Times New Roman,serif" font-size="30.00"> &#160;&#160;156 &#160;&#160;99% &#160;&#160;2.5e&#45;06 mol/s &#160;&#160;&#160;9.85E&#45;01</text>
</g>
</g>
</svg>
