<?xml version="1.0" encoding="UTF-8" standalone="no"?>
<!DOCTYPE svg PUBLIC "-//W3C//DTD SVG 1.1//EN"
 "http://www.w3.org/Graphics/SVG/1.1/DTD/svg11.dtd">
<!-- Generated by graphviz version 2.38.0 (20140413.2041)
 -->
<!-- Title: G Pages: 1 -->
<svg width="640pt" height="77pt"
 viewBox="0.00 0.00 720.00 86.88" xmlns="http://www.w3.org/2000/svg" xmlns:xlink="http://www.w3.org/1999/xlink">
<g id="graph0" class="graph" transform="scale(0.440014 0.440014) rotate(0) translate(4 171.5)">
<title>G</title>
<polygon fill="white" stroke="none" points="-4,4 -4,-171.5 1450.5,-171.5 1450.5,4 -4,4"/>
<text text-anchor="middle" x="723.25" y="-134.7" font-family="Arial" font-size="36.00" fill="blue">Reaction Path Analysis</text>
<!-- COOH(S) -->
<g id="node1" class="node"><title>COOH(S)</title>
<g id="a_node1"><a xlink:href="64.svg" xlink:title="COOH(S)">
<polygon fill="dodgerblue" stroke="none" points="798.5,-79 639.5,-79 639.5,-32 798.5,-32 798.5,-79"/>
<text text-anchor="middle" x="719" y="-47" font-family="Times New Roman,serif" font-size="35.00">COOH(S)</text>
</a>
</g>
</g>
<!-- CO2(S) -->
<g id="node4" class="node"><title>CO2(S)</title>
<g id="a_node4"><a xlink:href="63.svg" xlink:title="CO2(S)">
<polygon fill="dodgerblue" stroke="none" points="1446.5,-112 1319.5,-112 1319.5,-65 1446.5,-65 1446.5,-112"/>
<text text-anchor="middle" x="1383" y="-80" font-family="Times New Roman,serif" font-size="35.00">CO2(S)</text>
</a>
</g>
</g>
<!-- COOH(S)&#45;&gt;CO2(S) -->
<g id="edge3" class="edge"><title>COOH(S)&#45;&gt;CO2(S)</title>
<path fill="none" stroke="black" stroke-width="5" d="M798.751,-65.0883C804.245,-65.6126 809.703,-66.0911 815,-66.5 986.858,-79.7642 1188.67,-85.174 1299.2,-87.2697"/>
<polygon fill="black" stroke="black" stroke-width="5" points="1299.25,-96.0219 1319.4,-87.6348 1299.56,-78.5247 1299.25,-96.0219"/>
<text text-anchor="middle" x="1051" y="-95.5" font-family="Times New Roman,serif" font-size="30.00"> &#160;&#160;156 &#160;&#160;99% &#160;&#160;2.5e&#45;06 mol/s &#160;&#160;&#160;9.85E&#45;01</text>
</g>
<!-- H(S) -->
<g id="node5" class="node"><title>H(S)</title>
<g id="a_node5"><a xlink:href="62.svg" xlink:title="H(S)">
<polygon fill="orange" stroke="none" points="1425.5,-47 1340.5,-47 1340.5,3.55271e-015 1425.5,3.55271e-015 1425.5,-47"/>
<text text-anchor="middle" x="1383" y="-15" font-family="Times New Roman,serif" font-size="35.00">H(S)</text>
</a>
</g>
</g>
<!-- COOH(S)&#45;&gt;H(S) -->
<g id="edge4" class="edge"><title>COOH(S)&#45;&gt;H(S)</title>
<path fill="none" stroke="black" stroke-width="5" d="M798.568,-35.967C804.106,-35.0032 809.623,-34.1625 815,-33.5 997.413,-11.0233 1215.3,-16.0099 1319.92,-20.3585"/>
<polygon fill="black" stroke="black" stroke-width="5" points="1319.81,-29.1121 1340.18,-21.2528 1320.58,-11.6291 1319.81,-29.1121"/>
<text text-anchor="middle" x="1051" y="-42.5" font-family="Times New Roman,serif" font-size="30.00"> &#160;&#160;156 &#160;&#160;99% &#160;&#160;2.5e&#45;06 mol/s &#160;&#160;&#160;9.85E&#45;01</text>
</g>
<!-- CO(S) -->
<g id="node2" class="node"><title>CO(S)</title>
<g id="a_node2"><a xlink:href="54.svg" xlink:title="CO(S)">
<polygon fill="orange" stroke="none" points="109.5,-112 0.5,-112 0.5,-65 109.5,-65 109.5,-112"/>
<text text-anchor="middle" x="55" y="-80" font-family="Times New Roman,serif" font-size="35.00">CO(S)</text>
</a>
</g>
</g>
<!-- CO(S)&#45;&gt;COOH(S) -->
<g id="edge1" class="edge"><title>CO(S)&#45;&gt;COOH(S)</title>
<path fill="none" stroke="black" stroke-width="6" d="M109.555,-87.9988C207.873,-86.7465 424.248,-82.4522 619.313,-67.3153"/>
<polygon fill="black" stroke="black" stroke-width="6" points="620.228,-77.7757 639.329,-65.7171 618.557,-56.8423 620.228,-77.7757"/>
<text text-anchor="middle" x="387" y="-95.5" font-family="Times New Roman,serif" font-size="30.00"> &#160;&#160;154 &#160;&#160;100% &#160;&#160;2.5e&#45;06 mol/s &#160;&#160;&#160;7.20E&#45;01</text>
</g>
<!-- OH(S) -->
<g id="node3" class="node"><title>OH(S)</title>
<g id="a_node3"><a xlink:href="60.svg" xlink:title="OH(S)">
<polygon fill="purple" stroke="none" points="110,-47 0,-47 0,3.55271e-015 110,3.55271e-015 110,-47"/>
<text text-anchor="middle" x="55" y="-15" font-family="Times New Roman,serif" font-size="35.00">OH(S)</text>
</a>
</g>
</g>
<!-- OH(S)&#45;&gt;COOH(S) -->
<g id="edge2" class="edge"><title>OH(S)&#45;&gt;COOH(S)</title>
<path fill="none" stroke="black" stroke-width="6" d="M110.166,-20.3408C209.016,-15.4516 425.617,-8.7779 619.564,-32.3181"/>
<polygon fill="black" stroke="black" stroke-width="6" points="618.294,-42.7412 639.46,-34.8517 620.947,-21.9094 618.294,-42.7412"/>
<text text-anchor="middle" x="387" y="-42.5" font-family="Times New Roman,serif" font-size="30.00"> &#160;&#160;154 &#160;&#160;100% &#160;&#160;2.5e&#45;06 mol/s &#160;&#160;&#160;7.20E&#45;01</text>
</g>
</g>
</svg>
