<?xml version="1.0" encoding="UTF-8" standalone="no"?>
<!DOCTYPE svg PUBLIC "-//W3C//DTD SVG 1.1//EN"
 "http://www.w3.org/Graphics/SVG/1.1/DTD/svg11.dtd">
<!-- Generated by graphviz version 2.38.0 (20140413.2041)
 -->
<!-- Title: G Pages: 1 -->
<svg width="427pt" height="640pt"
 viewBox="0.00 0.00 480.77 720.00" xmlns="http://www.w3.org/2000/svg" xmlns:xlink="http://www.w3.org/1999/xlink">
<g id="graph0" class="graph" transform="scale(0.25094 0.25094) rotate(0) translate(4 2546.41)">
<title>G</title>
<polygon fill="white" stroke="none" points="-4,4 -4,-2546.41 1699,-2546.41 1699,4 -4,4"/>
<text text-anchor="middle" x="847.5" y="-2509.61" font-family="Arial" font-size="36.00" fill="blue">Reaction Path Analysis</text>
<!-- PT(S) -->
<g id="node1" class="node"><title>PT(S)</title>
<g id="a_node1"><a xlink:href="66.svg" xlink:title="PT(S)">
<polygon fill="darkorange" stroke="none" points="885.5,-1256.91 784.5,-1256.91 784.5,-1209.91 885.5,-1209.91 885.5,-1256.91"/>
<text text-anchor="middle" x="835" y="-1224.91" font-family="Times New Roman,serif" font-size="35.00">PT(S)</text>
</a>
</g>
</g>
<!-- CH3CH2OH(S) -->
<g id="node2" class="node"><title>CH3CH2OH(S)</title>
<g id="a_node2"><a xlink:href="14.svg" xlink:title="CH3CH2OH(S)">
<polygon fill="dodgerblue" stroke="none" points="1695,-2460.91 1453,-2460.91 1453,-2413.91 1695,-2413.91 1695,-2460.91"/>
<text text-anchor="middle" x="1574" y="-2428.91" font-family="Times New Roman,serif" font-size="35.00">CH3CH2OH(S)</text>
</a>
</g>
</g>
<!-- PT(S)&#45;&gt;CH3CH2OH(S) -->
<g id="edge1" class="edge"><title>PT(S)&#45;&gt;CH3CH2OH(S)</title>
<path fill="none" stroke="green" d="M836.767,-1257C842.179,-1416.32 876.986,-2331.31 965,-2413.41 1031.66,-2475.6 1284.77,-2464.84 1442.64,-2451.24"/>
<polygon fill="green" stroke="green" points="1443.25,-2454.7 1452.9,-2450.34 1442.63,-2447.72 1443.25,-2454.7"/>
<text text-anchor="middle" x="1204.5" y="-2470.41" font-family="Times New Roman,serif" font-size="30.00"> &#160;&#160;2 &#160;&#160;12% &#160;&#160;5.48e&#45;06 mol/s &#160;&#160;&#160;5.00E&#45;01</text>
</g>
<!-- CH3CHO(S) -->
<g id="node3" class="node"><title>CH3CHO(S)</title>
<g id="a_node3"><a xlink:href="27.svg" xlink:title="CH3CHO(S)">
<polygon fill="dodgerblue" stroke="none" points="1674,-2348.91 1474,-2348.91 1474,-2301.91 1674,-2301.91 1674,-2348.91"/>
<text text-anchor="middle" x="1574" y="-2316.91" font-family="Times New Roman,serif" font-size="35.00">CH3CHO(S)</text>
</a>
</g>
</g>
<!-- PT(S)&#45;&gt;CH3CHO(S) -->
<g id="edge15" class="edge"><title>PT(S)&#45;&gt;CH3CHO(S)</title>
<path fill="none" stroke="black" d="M836.865,-1257.2C842.769,-1412.94 879.467,-2283.12 965,-2359.41 1004.72,-2394.84 1391.22,-2366.25 1444,-2359.41 1458.09,-2357.59 1472.83,-2354.69 1487.11,-2351.33"/>
<polygon fill="black" stroke="black" points="1488.02,-2354.71 1496.91,-2348.94 1486.36,-2347.91 1488.02,-2354.71"/>
<text text-anchor="middle" x="1204.5" y="-2385.41" font-family="Times New Roman,serif" font-size="30.00"> &#160;&#160;23 &#160;&#160;3% &#160;&#160;7.05e&#45;07 mol/s &#160;&#160;&#160;9.91E&#45;01</text>
</g>
<!-- PT(S)&#45;&gt;CH3CHO(S) -->
<g id="edge33" class="edge"><title>PT(S)&#45;&gt;CH3CHO(S)</title>
<path fill="none" stroke="black" d="M837.038,-1256.95C843.899,-1407.33 884.943,-2229.8 965,-2303.41 969.529,-2307.58 1289.84,-2317.34 1463.65,-2322.34"/>
<polygon fill="black" stroke="black" points="1463.76,-2325.85 1473.86,-2322.64 1463.96,-2318.85 1463.76,-2325.85"/>
<text text-anchor="middle" x="1204.5" y="-2330.41" font-family="Times New Roman,serif" font-size="30.00"> &#160;&#160;70 &#160;&#160;0% &#160;&#160;1.53e&#45;07 mol/s &#160;&#160;&#160;5.55E&#45;01</text>
</g>
<!-- H(S) -->
<g id="node5" class="node"><title>H(S)</title>
<g id="a_node5"><a xlink:href="62.svg" xlink:title="H(S)">
<polygon fill="orange" stroke="none" points="1616.5,-1732.91 1531.5,-1732.91 1531.5,-1685.91 1616.5,-1685.91 1616.5,-1732.91"/>
<text text-anchor="middle" x="1574" y="-1700.91" font-family="Times New Roman,serif" font-size="35.00">H(S)</text>
</a>
</g>
</g>
<!-- PT(S)&#45;&gt;H(S) -->
<g id="edge12" class="edge"><title>PT(S)&#45;&gt;H(S)</title>
<path fill="none" stroke="black" d="M837.363,-1257.21C845.715,-1398.93 892.04,-2127.62 965,-2191.41 985.033,-2208.93 1422.89,-2207.62 1444,-2191.41 1516.6,-2135.69 1557.24,-1843.58 1569.21,-1743.27"/>
<polygon fill="black" stroke="black" points="1572.72,-1743.43 1570.41,-1733.09 1565.77,-1742.61 1572.72,-1743.43"/>
<text text-anchor="middle" x="1204.5" y="-2212.41" font-family="Times New Roman,serif" font-size="30.00"> &#160;&#160;15 &#160;&#160;10% &#160;&#160;4.77e&#45;06 mol/s &#160;&#160;&#160;9.99E&#45;01</text>
</g>
<!-- PT(S)&#45;&gt;H(S) -->
<g id="edge14" class="edge"><title>PT(S)&#45;&gt;H(S)</title>
<path fill="none" stroke="black" d="M837.565,-1257.15C846.806,-1393.74 896.205,-2075.76 965,-2135.41 985.105,-2152.85 1422.63,-2151.27 1444,-2135.41 1508.68,-2087.42 1553.56,-1835.1 1568,-1743.06"/>
<polygon fill="black" stroke="black" points="1571.46,-1743.57 1569.53,-1733.15 1564.54,-1742.5 1571.46,-1743.57"/>
<text text-anchor="middle" x="1204.5" y="-2156.41" font-family="Times New Roman,serif" font-size="30.00"> &#160;&#160;16 &#160;&#160;10% &#160;&#160;4.62e&#45;06 mol/s &#160;&#160;&#160;5.57E&#45;01</text>
</g>
<!-- PT(S)&#45;&gt;H(S) -->
<g id="edge16" class="edge"><title>PT(S)&#45;&gt;H(S)</title>
<path fill="none" stroke="black" d="M835.685,-1257.19C834.568,-1382.93 836.384,-1968.92 965,-2079.41 985.185,-2096.75 1422.31,-2094.83 1444,-2079.41 1555,-2000.56 1571.29,-1818.83 1573.11,-1743.29"/>
<polygon fill="black" stroke="black" points="1576.61,-1743 1573.28,-1732.95 1569.62,-1742.89 1576.61,-1743"/>
<text text-anchor="middle" x="1204.5" y="-2100.41" font-family="Times New Roman,serif" font-size="30.00"> &#160;&#160;23 &#160;&#160;3% &#160;&#160;7.05e&#45;07 mol/s &#160;&#160;&#160;9.91E&#45;01</text>
</g>
<!-- PT(S)&#45;&gt;H(S) -->
<g id="edge18" class="edge"><title>PT(S)&#45;&gt;H(S)</title>
<path fill="none" stroke="green" d="M835.963,-1257.2C836.324,-1377.92 844.684,-1921.15 965,-2023.41 985.277,-2040.65 1421.9,-2038.23 1444,-2023.41 1539.73,-1959.25 1564.48,-1809.91 1570.83,-1742.95"/>
<polygon fill="green" stroke="green" points="1574.32,-1743.2 1571.7,-1732.93 1567.35,-1742.59 1574.32,-1743.2"/>
<text text-anchor="middle" x="1204.5" y="-2044.41" font-family="Times New Roman,serif" font-size="30.00"> &#160;&#160;39 &#160;&#160;17% &#160;&#160;3.95e&#45;06 mol/s &#160;&#160;&#160;5.43E&#45;01</text>
</g>
<!-- PT(S)&#45;&gt;H(S) -->
<g id="edge20" class="edge"><title>PT(S)&#45;&gt;H(S)</title>
<path fill="none" stroke="green" d="M836.28,-1257.04C838.187,-1372.23 852.904,-1873.3 965,-1967.41 985.381,-1984.53 1421.36,-1981.4 1444,-1967.41 1524.41,-1917.72 1556.37,-1801.05 1567.62,-1743.18"/>
<polygon fill="green" stroke="green" points="1571.11,-1743.56 1569.48,-1733.09 1564.22,-1742.29 1571.11,-1743.56"/>
<text text-anchor="middle" x="1204.5" y="-1987.41" font-family="Times New Roman,serif" font-size="30.00"> &#160;&#160;48 &#160;&#160;6% &#160;&#160;1.47e&#45;06 mol/s &#160;&#160;&#160;5.43E&#45;01</text>
</g>
<!-- PT(S)&#45;&gt;H(S) -->
<g id="edge22" class="edge"><title>PT(S)&#45;&gt;H(S)</title>
<path fill="none" stroke="green" d="M836.649,-1257.05C840.201,-1366.86 861.157,-1825.47 965,-1911.41 985.5,-1928.38 1420.66,-1924.2 1444,-1911.41 1509.75,-1875.39 1546.85,-1790.01 1563.06,-1742.59"/>
<polygon fill="green" stroke="green" points="1566.39,-1743.68 1566.2,-1733.08 1559.74,-1741.48 1566.39,-1743.68"/>
<text text-anchor="middle" x="1204.5" y="-1931.41" font-family="Times New Roman,serif" font-size="30.00"> &#160;&#160;51 &#160;&#160;11% &#160;&#160;5.42e&#45;06 mol/s &#160;&#160;&#160;5.18E&#45;01</text>
</g>
<!-- PT(S)&#45;&gt;H(S) -->
<g id="edge32" class="edge"><title>PT(S)&#45;&gt;H(S)</title>
<path fill="none" stroke="black" d="M837.088,-1257.18C842.405,-1361.57 869.415,-1777.62 965,-1855.41 985.639,-1872.21 1419.74,-1866.35 1444,-1855.41 1495.23,-1832.32 1534.3,-1777.7 1555.42,-1742.21"/>
<polygon fill="black" stroke="black" points="1558.66,-1743.59 1560.64,-1733.19 1552.6,-1740.08 1558.66,-1743.59"/>
<text text-anchor="middle" x="1204.5" y="-1874.41" font-family="Times New Roman,serif" font-size="30.00"> &#160;&#160;69 &#160;&#160;1% &#160;&#160;7.05e&#45;07 mol/s &#160;&#160;&#160;9.45E&#45;01</text>
</g>
<!-- PT(S)&#45;&gt;H(S) -->
<g id="edge34" class="edge"><title>PT(S)&#45;&gt;H(S)</title>
<path fill="none" stroke="black" d="M837.594,-1257.02C844.761,-1355.24 877.547,-1729.65 965,-1799.41 1006.61,-1832.6 1393.23,-1815.38 1444,-1799.41 1481.14,-1787.74 1516.92,-1761.15 1541.34,-1739.89"/>
<polygon fill="black" stroke="black" points="1543.72,-1742.46 1548.86,-1733.19 1539.06,-1737.23 1543.72,-1742.46"/>
<text text-anchor="middle" x="1204.5" y="-1826.41" font-family="Times New Roman,serif" font-size="30.00"> &#160;&#160;70 &#160;&#160;0% &#160;&#160;1.53e&#45;07 mol/s &#160;&#160;&#160;5.55E&#45;01</text>
</g>
<!-- PT(S)&#45;&gt;H(S) -->
<g id="edge36" class="edge"><title>PT(S)&#45;&gt;H(S)</title>
<path fill="none" stroke="green" d="M838.233,-1257.17C847.435,-1349.41 885.729,-1681.7 965,-1743.41 1007,-1776.11 1391.22,-1750.25 1444,-1743.41 1470.03,-1740.04 1498.29,-1732.99 1521.7,-1726.18"/>
<polygon fill="green" stroke="green" points="1522.84,-1729.5 1531.42,-1723.29 1520.84,-1722.79 1522.84,-1729.5"/>
<text text-anchor="middle" x="1204.5" y="-1768.41" font-family="Times New Roman,serif" font-size="30.00"> &#160;&#160;71 &#160;&#160;1% &#160;&#160;6.48e&#45;07 mol/s &#160;&#160;&#160;5.00E&#45;01</text>
</g>
<!-- PT(S)&#45;&gt;H(S) -->
<g id="edge38" class="edge"><title>PT(S)&#45;&gt;H(S)</title>
<path fill="none" stroke="green" d="M839.078,-1257.1C850.692,-1342.5 894.801,-1632.36 965,-1687.41 970.447,-1691.69 1375,-1703.72 1521.1,-1707.94"/>
<polygon fill="green" stroke="green" points="1521.07,-1711.44 1531.16,-1708.23 1521.27,-1704.44 1521.07,-1711.44"/>
<text text-anchor="middle" x="1204.5" y="-1714.41" font-family="Times New Roman,serif" font-size="30.00"> &#160;&#160;74 &#160;&#160;8% &#160;&#160;3.95e&#45;06 mol/s &#160;&#160;&#160;5.00E&#45;01</text>
</g>
<!-- PT(S)&#45;&gt;H(S) -->
<g id="edge44" class="edge"><title>PT(S)&#45;&gt;H(S)</title>
<path fill="none" stroke="green" d="M835.237,-1257.15C834.403,-1328 842.707,-1538.74 965,-1631.41 1007.45,-1663.59 1392.19,-1638.05 1444,-1650.41 1471.39,-1656.95 1500.04,-1669.42 1523.36,-1681.21"/>
<polygon fill="green" stroke="green" points="1521.87,-1684.38 1532.36,-1685.86 1525.08,-1678.16 1521.87,-1684.38"/>
<text text-anchor="middle" x="1204.5" y="-1659.41" font-family="Times New Roman,serif" font-size="30.00"> &#160;&#160;150 &#160;&#160;5% &#160;&#160;2.48e&#45;06 mol/s &#160;&#160;&#160;5.02E&#45;01</text>
</g>
<!-- PT(S)&#45;&gt;H(S) -->
<g id="edge48" class="edge"><title>PT(S)&#45;&gt;H(S)</title>
<path fill="none" stroke="black" d="M836.637,-1257.29C839.784,-1321.54 858.206,-1498.38 965,-1575.41 1008.2,-1606.57 1394.61,-1574.47 1444,-1594.41 1487.04,-1611.8 1525.18,-1650.18 1548.62,-1677.82"/>
<polygon fill="black" stroke="black" points="1546.04,-1680.2 1555.12,-1685.67 1551.43,-1675.73 1546.04,-1680.2"/>
<text text-anchor="middle" x="1204.5" y="-1603.41" font-family="Times New Roman,serif" font-size="30.00"> &#160;&#160;156 &#160;&#160;5% &#160;&#160;2.5e&#45;06 mol/s &#160;&#160;&#160;9.85E&#45;01</text>
</g>
<!-- CH3(S) -->
<g id="node6" class="node"><title>CH3(S)</title>
<g id="a_node6"><a xlink:href="55.svg" xlink:title="CH3(S)">
<polygon fill="dodgerblue" stroke="none" points="1637,-1144.91 1511,-1144.91 1511,-1097.91 1637,-1097.91 1637,-1144.91"/>
<text text-anchor="middle" x="1574" y="-1112.91" font-family="Times New Roman,serif" font-size="35.00">CH3(S)</text>
</a>
</g>
</g>
<!-- PT(S)&#45;&gt;CH3(S) -->
<g id="edge39" class="edge"><title>PT(S)&#45;&gt;CH3(S)</title>
<path fill="none" stroke="black" d="M863.483,-1209.56C888.198,-1189.7 926.447,-1162.75 965,-1150.41 966.579,-1149.91 1339.9,-1132.35 1500.7,-1124.8"/>
<polygon fill="black" stroke="black" points="1501.16,-1128.29 1510.98,-1124.32 1500.83,-1121.29 1501.16,-1128.29"/>
<text text-anchor="middle" x="1204.5" y="-1159.41" font-family="Times New Roman,serif" font-size="30.00"> &#160;&#160;99 &#160;&#160;0% &#160;&#160;1.58e&#45;08 mol/s &#160;&#160;&#160;1.00E+00</text>
</g>
<!-- CO(S) -->
<g id="node7" class="node"><title>CO(S)</title>
<g id="a_node7"><a xlink:href="54.svg" xlink:title="CO(S)">
<polygon fill="orange" stroke="none" points="1628.5,-1004.91 1519.5,-1004.91 1519.5,-957.914 1628.5,-957.914 1628.5,-1004.91"/>
<text text-anchor="middle" x="1574" y="-972.914" font-family="Times New Roman,serif" font-size="35.00">CO(S)</text>
</a>
</g>
</g>
<!-- PT(S)&#45;&gt;CO(S) -->
<g id="edge40" class="edge"><title>PT(S)&#45;&gt;CO(S)</title>
<path fill="none" stroke="black" d="M843.365,-1209.91C858.329,-1166.64 896.782,-1075.24 965,-1036.41 1011.3,-1010.06 1391.33,-1023.42 1444,-1015.41 1465.65,-1012.13 1488.89,-1006.63 1509.61,-1001.01"/>
<polygon fill="black" stroke="black" points="1510.55,-1004.38 1519.25,-998.332 1508.68,-997.633 1510.55,-1004.38"/>
<text text-anchor="middle" x="1204.5" y="-1045.41" font-family="Times New Roman,serif" font-size="30.00"> &#160;&#160;99 &#160;&#160;0% &#160;&#160;1.58e&#45;08 mol/s &#160;&#160;&#160;1.00E+00</text>
</g>
<!-- CO2(S) -->
<g id="node8" class="node"><title>CO2(S)</title>
<g id="a_node8"><a xlink:href="63.svg" xlink:title="CO2(S)">
<polygon fill="dodgerblue" stroke="none" points="1637.5,-873.914 1510.5,-873.914 1510.5,-826.914 1637.5,-826.914 1637.5,-873.914"/>
<text text-anchor="middle" x="1574" y="-841.914" font-family="Times New Roman,serif" font-size="35.00">CO2(S)</text>
</a>
</g>
</g>
<!-- PT(S)&#45;&gt;CO2(S) -->
<g id="edge47" class="edge"><title>PT(S)&#45;&gt;CO2(S)</title>
<path fill="none" stroke="black" d="M836.3,-1209.65C838.557,-1143.96 854.858,-959.42 965,-878.414 1007.15,-847.413 1348.06,-847.622 1500.17,-849.304"/>
<polygon fill="black" stroke="black" points="1500.31,-852.806 1510.35,-849.422 1500.4,-845.807 1500.31,-852.806"/>
<text text-anchor="middle" x="1204.5" y="-887.414" font-family="Times New Roman,serif" font-size="30.00"> &#160;&#160;156 &#160;&#160;5% &#160;&#160;2.5e&#45;06 mol/s &#160;&#160;&#160;9.85E&#45;01</text>
</g>
<!-- H2O(S) -->
<g id="node9" class="node"><title>H2O(S)</title>
<g id="a_node9"><a xlink:href="59.svg" xlink:title="H2O(S)">
<polygon fill="springgreen" stroke="none" points="1638,-793.914 1510,-793.914 1510,-746.914 1638,-746.914 1638,-793.914"/>
<text text-anchor="middle" x="1574" y="-761.914" font-family="Times New Roman,serif" font-size="35.00">H2O(S)</text>
</a>
</g>
</g>
<!-- PT(S)&#45;&gt;H2O(S) -->
<g id="edge10" class="edge"><title>PT(S)&#45;&gt;H2O(S)</title>
<path fill="none" stroke="green" d="M838.753,-1209.67C849.451,-1121.99 891.36,-818.597 965,-762.414 1006.51,-730.746 1346.95,-752.8 1499.52,-764.457"/>
<polygon fill="green" stroke="green" points="1499.49,-767.966 1509.73,-765.244 1500.03,-760.986 1499.49,-767.966"/>
<text text-anchor="middle" x="1204.5" y="-771.414" font-family="Times New Roman,serif" font-size="30.00"> &#160;&#160;14 &#160;&#160;5% &#160;&#160;2.48e&#45;06 mol/s &#160;&#160;&#160;5.00E&#45;01</text>
</g>
<!-- CH3CHOH(S) -->
<g id="node10" class="node"><title>CH3CHOH(S)</title>
<g id="a_node10"><a xlink:href="15.svg" xlink:title="CH3CHOH(S)">
<polygon fill="dodgerblue" stroke="none" points="1686,-728.914 1462,-728.914 1462,-681.914 1686,-681.914 1686,-728.914"/>
<text text-anchor="middle" x="1574" y="-696.914" font-family="Times New Roman,serif" font-size="35.00">CH3CHOH(S)</text>
</a>
</g>
</g>
<!-- PT(S)&#45;&gt;CH3CHOH(S) -->
<g id="edge11" class="edge"><title>PT(S)&#45;&gt;CH3CHOH(S)</title>
<path fill="none" stroke="black" d="M838.076,-1209.67C846.807,-1115.91 883.91,-773.394 965,-709.414 1002.11,-680.134 1284.96,-689.871 1451.49,-698.359"/>
<polygon fill="black" stroke="black" points="1451.62,-701.87 1461.79,-698.89 1451.98,-694.879 1451.62,-701.87"/>
<text text-anchor="middle" x="1204.5" y="-718.414" font-family="Times New Roman,serif" font-size="30.00"> &#160;&#160;15 &#160;&#160;10% &#160;&#160;4.77e&#45;06 mol/s &#160;&#160;&#160;9.99E&#45;01</text>
</g>
<!-- CH3COH(S) -->
<g id="node11" class="node"><title>CH3COH(S)</title>
<g id="a_node11"><a xlink:href="16.svg" xlink:title="CH3COH(S)">
<polygon fill="springgreen" stroke="none" points="1674,-663.914 1474,-663.914 1474,-616.914 1674,-616.914 1674,-663.914"/>
<text text-anchor="middle" x="1574" y="-631.914" font-family="Times New Roman,serif" font-size="35.00">CH3COH(S)</text>
</a>
</g>
</g>
<!-- PT(S)&#45;&gt;CH3COH(S) -->
<g id="edge13" class="edge"><title>PT(S)&#45;&gt;CH3COH(S)</title>
<path fill="none" stroke="black" d="M837.513,-1209.62C844.397,-1109.73 876.348,-726.085 965,-653.414 1002.49,-622.683 1299.11,-629.354 1463.76,-635.579"/>
<polygon fill="black" stroke="black" points="1463.8,-639.083 1473.92,-635.969 1464.06,-632.088 1463.8,-639.083"/>
<text text-anchor="middle" x="1204.5" y="-662.414" font-family="Times New Roman,serif" font-size="30.00"> &#160;&#160;16 &#160;&#160;10% &#160;&#160;4.62e&#45;06 mol/s &#160;&#160;&#160;5.57E&#45;01</text>
</g>
<!-- CH2COH(S) -->
<g id="node12" class="node"><title>CH2COH(S)</title>
<g id="a_node12"><a xlink:href="19.svg" xlink:title="CH2COH(S)">
<polygon fill="springgreen" stroke="none" points="1674,-598.914 1474,-598.914 1474,-551.914 1674,-551.914 1674,-598.914"/>
<text text-anchor="middle" x="1574" y="-566.914" font-family="Times New Roman,serif" font-size="35.00">CH2COH(S)</text>
</a>
</g>
</g>
<!-- PT(S)&#45;&gt;CH2COH(S) -->
<g id="edge17" class="edge"><title>PT(S)&#45;&gt;CH2COH(S)</title>
<path fill="none" stroke="green" d="M836.995,-1209.75C841.976,-1103.88 867.967,-675.268 965,-593.414 1002.06,-562.151 1298.86,-566.48 1463.65,-571.424"/>
<polygon fill="green" stroke="green" points="1463.73,-574.928 1473.83,-571.735 1463.94,-567.931 1463.73,-574.928"/>
<text text-anchor="middle" x="1204.5" y="-602.414" font-family="Times New Roman,serif" font-size="30.00"> &#160;&#160;39 &#160;&#160;17% &#160;&#160;3.95e&#45;06 mol/s &#160;&#160;&#160;5.43E&#45;01</text>
</g>
<!-- CH2CO(S) -->
<g id="node13" class="node"><title>CH2CO(S)</title>
<g id="a_node13"><a xlink:href="31.svg" xlink:title="CH2CO(S)">
<polygon fill="springgreen" stroke="none" points="1661.5,-523.914 1486.5,-523.914 1486.5,-476.914 1661.5,-476.914 1661.5,-523.914"/>
<text text-anchor="middle" x="1574" y="-491.914" font-family="Times New Roman,serif" font-size="35.00">CH2CO(S)</text>
</a>
</g>
</g>
<!-- PT(S)&#45;&gt;CH2CO(S) -->
<g id="edge19" class="edge"><title>PT(S)&#45;&gt;CH2CO(S)</title>
<path fill="none" stroke="green" d="M836.566,-1209.8C839.778,-1097.94 859.539,-623.055 965,-531.414 985.104,-513.944 1417.42,-513.102 1444,-511.414 1454.48,-510.749 1465.42,-509.961 1476.32,-509.116"/>
<polygon fill="green" stroke="green" points="1476.61,-512.604 1486.3,-508.326 1476.06,-505.626 1476.61,-512.604"/>
<text text-anchor="middle" x="1204.5" y="-540.414" font-family="Times New Roman,serif" font-size="30.00"> &#160;&#160;48 &#160;&#160;6% &#160;&#160;1.47e&#45;06 mol/s &#160;&#160;&#160;5.43E&#45;01</text>
</g>
<!-- PT(S)&#45;&gt;CH2CO(S) -->
<g id="edge37" class="edge"><title>PT(S)&#45;&gt;CH2CO(S)</title>
<path fill="none" stroke="green" d="M836.133,-1209.78C837.336,-1092.22 849.217,-572.179 965,-474.414 1005.66,-440.078 1391.04,-469.13 1444,-474.414 1454.53,-475.465 1465.47,-476.986 1476.33,-478.774"/>
<polygon fill="green" stroke="green" points="1475.82,-482.238 1486.27,-480.485 1477.01,-475.339 1475.82,-482.238"/>
<text text-anchor="middle" x="1204.5" y="-483.414" font-family="Times New Roman,serif" font-size="30.00"> &#160;&#160;74 &#160;&#160;8% &#160;&#160;3.95e&#45;06 mol/s &#160;&#160;&#160;5.00E&#45;01</text>
</g>
<!-- CHCO(S) -->
<g id="node14" class="node"><title>CHCO(S)</title>
<g id="a_node14"><a xlink:href="34.svg" xlink:title="CHCO(S)">
<polygon fill="springgreen" stroke="none" points="1652.5,-444.914 1495.5,-444.914 1495.5,-397.914 1652.5,-397.914 1652.5,-444.914"/>
<text text-anchor="middle" x="1574" y="-412.914" font-family="Times New Roman,serif" font-size="35.00">CHCO(S)</text>
</a>
</g>
</g>
<!-- PT(S)&#45;&gt;CHCO(S) -->
<g id="edge21" class="edge"><title>PT(S)&#45;&gt;CHCO(S)</title>
<path fill="none" stroke="green" d="M835.85,-1209.79C835.615,-1087.38 841.375,-526.95 965,-421.414 1003.52,-388.533 1325.97,-404.951 1485.01,-415.232"/>
<polygon fill="green" stroke="green" points="1485.03,-418.741 1495.24,-415.9 1485.49,-411.756 1485.03,-418.741"/>
<text text-anchor="middle" x="1204.5" y="-430.414" font-family="Times New Roman,serif" font-size="30.00"> &#160;&#160;51 &#160;&#160;11% &#160;&#160;5.42e&#45;06 mol/s &#160;&#160;&#160;5.18E&#45;01</text>
</g>
<!-- CH3C(S) -->
<g id="node16" class="node"><title>CH3C(S)</title>
<g id="a_node16"><a xlink:href="40.svg" xlink:title="CH3C(S)">
<polygon fill="springgreen" stroke="none" points="1648.5,-360.914 1499.5,-360.914 1499.5,-313.914 1648.5,-313.914 1648.5,-360.914"/>
<text text-anchor="middle" x="1574" y="-328.914" font-family="Times New Roman,serif" font-size="35.00">CH3C(S)</text>
</a>
</g>
</g>
<!-- PT(S)&#45;&gt;CH3C(S) -->
<g id="edge41" class="edge"><title>PT(S)&#45;&gt;CH3C(S)</title>
<path fill="none" stroke="black" d="M835.674,-1209.56C834.474,-1082.01 835.828,-482.082 965,-365.414 984.769,-347.559 1417.39,-344.644 1444,-343.414 1458.56,-342.741 1474.04,-342.023 1489.04,-341.327"/>
<polygon fill="black" stroke="black" points="1489.5,-344.809 1499.33,-340.848 1489.17,-337.816 1489.5,-344.809"/>
<text text-anchor="middle" x="1204.5" y="-374.414" font-family="Times New Roman,serif" font-size="30.00"> &#160;&#160;120 &#160;&#160;0% &#160;&#160;1.82e&#45;08 mol/s &#160;&#160;&#160;1.00E+00</text>
</g>
<!-- CH3CH2O(S) -->
<g id="node19" class="node"><title>CH3CH2O(S)</title>
<g id="a_node19"><a xlink:href="26.svg" xlink:title="CH3CH2O(S)">
<polygon fill="purple" stroke="none" points="1683,-280.914 1465,-280.914 1465,-233.914 1683,-233.914 1683,-280.914"/>
<text text-anchor="middle" x="1574" y="-248.914" font-family="Times New Roman,serif" font-size="35.00">CH3CH2O(S)</text>
</a>
</g>
</g>
<!-- PT(S)&#45;&gt;CH3CH2O(S) -->
<g id="edge31" class="edge"><title>PT(S)&#45;&gt;CH3CH2O(S)</title>
<path fill="none" stroke="black" d="M837.3,-1209.64C845.37,-1066.41 890.693,-322.546 965,-257.414 1000.79,-226.044 1287.91,-238.873 1454.47,-249.196"/>
<polygon fill="black" stroke="black" points="1454.57,-252.709 1464.77,-249.84 1455.01,-245.722 1454.57,-252.709"/>
<text text-anchor="middle" x="1204.5" y="-266.414" font-family="Times New Roman,serif" font-size="30.00"> &#160;&#160;69 &#160;&#160;1% &#160;&#160;7.05e&#45;07 mol/s &#160;&#160;&#160;9.45E&#45;01</text>
</g>
<!-- CH3CO(S) -->
<g id="node20" class="node"><title>CH3CO(S)</title>
<g id="a_node20"><a xlink:href="28.svg" xlink:title="CH3CO(S)">
<polygon fill="springgreen" stroke="none" points="1661.5,-215.914 1486.5,-215.914 1486.5,-168.914 1661.5,-168.914 1661.5,-215.914"/>
<text text-anchor="middle" x="1574" y="-183.914" font-family="Times New Roman,serif" font-size="35.00">CH3CO(S)</text>
</a>
</g>
</g>
<!-- PT(S)&#45;&gt;CH3CO(S) -->
<g id="edge35" class="edge"><title>PT(S)&#45;&gt;CH3CO(S)</title>
<path fill="none" stroke="green" d="M837.132,-1209.75C844.43,-1062.09 887.005,-271.301 965,-201.414 1002.02,-168.239 1313.73,-179.012 1475.86,-187.02"/>
<polygon fill="green" stroke="green" points="1476.15,-190.539 1486.32,-187.543 1476.5,-183.548 1476.15,-190.539"/>
<text text-anchor="middle" x="1204.5" y="-210.414" font-family="Times New Roman,serif" font-size="30.00"> &#160;&#160;71 &#160;&#160;1% &#160;&#160;6.48e&#45;07 mol/s &#160;&#160;&#160;5.00E&#45;01</text>
</g>
<!-- OH(S) -->
<g id="node21" class="node"><title>OH(S)</title>
<g id="a_node21"><a xlink:href="60.svg" xlink:title="OH(S)">
<polygon fill="purple" stroke="none" points="1629,-108.914 1519,-108.914 1519,-61.9142 1629,-61.9142 1629,-108.914"/>
<text text-anchor="middle" x="1574" y="-76.9142" font-family="Times New Roman,serif" font-size="35.00">OH(S)</text>
</a>
</g>
</g>
<!-- PT(S)&#45;&gt;OH(S) -->
<g id="edge42" class="edge"><title>PT(S)&#45;&gt;OH(S)</title>
<path fill="none" stroke="black" d="M837.012,-1209.43C843.712,-1056.19 883.925,-218.025 965,-142.414 1003.97,-106.073 1391.34,-127.526 1444,-119.414 1465.44,-116.111 1488.46,-110.673 1509.04,-105.105"/>
<polygon fill="black" stroke="black" points="1510.22,-108.409 1518.93,-102.37 1508.35,-101.663 1510.22,-108.409"/>
<text text-anchor="middle" x="1204.5" y="-151.414" font-family="Times New Roman,serif" font-size="30.00"> &#160;&#160;120 &#160;&#160;0% &#160;&#160;1.82e&#45;08 mol/s &#160;&#160;&#160;1.00E+00</text>
</g>
<!-- PT(S)&#45;&gt;OH(S) -->
<g id="edge43" class="edge"><title>PT(S)&#45;&gt;OH(S)</title>
<path fill="none" stroke="green" d="M836.795,-1209.86C842.336,-1052.78 877.547,-160.613 965,-82.4142 984.987,-64.542 1356.33,-76.933 1508.64,-82.8037"/>
<polygon fill="green" stroke="green" points="1508.66,-86.3069 1518.79,-83.1976 1508.93,-79.3122 1508.66,-86.3069"/>
<text text-anchor="middle" x="1204.5" y="-91.4142" font-family="Times New Roman,serif" font-size="30.00"> &#160;&#160;150 &#160;&#160;5% &#160;&#160;2.48e&#45;06 mol/s &#160;&#160;&#160;5.02E&#45;01</text>
</g>
<!-- CH3CHO(S)&#45;&gt;PT(S) -->
<g id="edge2" class="edge"><title>CH3CHO(S)&#45;&gt;PT(S)</title>
<path fill="none" stroke="green" d="M1528.32,-2301.9C1504.06,-2290.29 1473.14,-2277.32 1444,-2270.41 1392.11,-2258.11 1003.91,-2276.88 965,-2240.41 892.089,-2172.09 847.126,-1434.63 837.81,-1267.13"/>
<polygon fill="green" stroke="green" points="841.293,-1266.72 837.247,-1256.93 834.303,-1267.11 841.293,-1266.72"/>
<text text-anchor="middle" x="1204.5" y="-2279.41" font-family="Times New Roman,serif" font-size="30.00"> &#160;&#160;3 &#160;&#160;0% &#160;&#160;1.67e&#45;08 mol/s &#160;&#160;&#160;5.00E&#45;01</text>
</g>
<!-- CH3CH2(S) -->
<g id="node4" class="node"><title>CH3CH2(S)</title>
<g id="a_node4"><a xlink:href="38.svg" xlink:title="CH3CH2(S)">
<polygon fill="dodgerblue" stroke="none" points="192,-1354.91 0,-1354.91 0,-1307.91 192,-1307.91 192,-1354.91"/>
<text text-anchor="middle" x="96" y="-1322.91" font-family="Times New Roman,serif" font-size="35.00">CH3CH2(S)</text>
</a>
</g>
</g>
<!-- CH3CH2(S)&#45;&gt;PT(S) -->
<g id="edge3" class="edge"><title>CH3CH2(S)&#45;&gt;PT(S)</title>
<path fill="none" stroke="green" d="M192.029,-1338.16C312.667,-1344.06 526.189,-1345.58 701.5,-1299.41 731.934,-1291.4 763.571,-1275.95 788.296,-1262.01"/>
<polygon fill="green" stroke="green" points="790.153,-1264.98 797.077,-1256.96 786.664,-1258.91 790.153,-1264.98"/>
<text text-anchor="middle" x="465.5" y="-1349.41" font-family="Times New Roman,serif" font-size="30.00"> &#160;&#160;4 &#160;&#160;0% &#160;&#160;1.84e&#45;08 mol/s &#160;&#160;&#160;4.54E&#45;01</text>
</g>
<!-- H(S)&#45;&gt;PT(S) -->
<g id="edge4" class="edge"><title>H(S)&#45;&gt;PT(S)</title>
<path fill="none" stroke="green" d="M1562.89,-1685.85C1545.14,-1647.8 1504.43,-1573.91 1444,-1542.41 1349.5,-1493.15 1053.1,-1579.37 965,-1519.41 878.584,-1460.61 849.238,-1329.26 839.959,-1267.17"/>
<polygon fill="green" stroke="green" points="843.404,-1266.53 838.543,-1257.11 836.472,-1267.51 843.404,-1266.53"/>
<text text-anchor="middle" x="1204.5" y="-1551.41" font-family="Times New Roman,serif" font-size="30.00"> &#160;&#160;4 &#160;&#160;0% &#160;&#160;1.84e&#45;08 mol/s &#160;&#160;&#160;4.54E&#45;01</text>
</g>
<!-- H(S)&#45;&gt;PT(S) -->
<g id="edge6" class="edge"><title>H(S)&#45;&gt;PT(S)</title>
<path fill="none" stroke="black" stroke-width="2" d="M1567.66,-1685.83C1555.37,-1637.69 1520.08,-1528.73 1444,-1482.41 1353.01,-1427.02 1055.84,-1519.06 965,-1463.41 892.9,-1419.24 857.69,-1319.1 843.669,-1266.73"/>
<polygon fill="black" stroke="black" stroke-width="2" points="847.027,-1265.74 841.143,-1256.93 840.248,-1267.48 847.027,-1265.74"/>
<text text-anchor="middle" x="1204.5" y="-1491.41" font-family="Times New Roman,serif" font-size="30.00"> &#160;&#160;9 &#160;&#160;23% &#160;&#160;5.44e&#45;06 mol/s &#160;&#160;&#160;3.20E&#45;01</text>
</g>
<!-- H(S)&#45;&gt;PT(S) -->
<g id="edge7" class="edge"><title>H(S)&#45;&gt;PT(S)</title>
<path fill="none" stroke="green" stroke-width="2" d="M1570.4,-1685.9C1562.79,-1629.67 1535,-1487.52 1444,-1426.41 1399.78,-1396.72 1012.09,-1432.3 965,-1407.41 907.29,-1376.91 868.532,-1307.77 849.558,-1266.42"/>
<polygon fill="green" stroke="green" stroke-width="2" points="852.646,-1264.75 845.376,-1257.04 846.253,-1267.6 852.646,-1264.75"/>
<text text-anchor="middle" x="1204.5" y="-1435.41" font-family="Times New Roman,serif" font-size="30.00"> &#160;&#160;10 &#160;&#160;34% &#160;&#160;7.94e&#45;06 mol/s &#160;&#160;&#160;5.00E&#45;01</text>
</g>
<!-- H(S)&#45;&gt;PT(S) -->
<g id="edge24" class="edge"><title>H(S)&#45;&gt;PT(S)</title>
<path fill="none" stroke="black" d="M1572.29,-1685.74C1568.95,-1622.04 1550.09,-1446.7 1444,-1370.41 1400.76,-1339.32 1014.26,-1371.68 965,-1351.41 921.313,-1333.44 883.066,-1293.71 859.791,-1265.32"/>
<polygon fill="black" stroke="black" points="862.33,-1262.89 853.346,-1257.27 856.867,-1267.26 862.33,-1262.89"/>
<text text-anchor="middle" x="1204.5" y="-1379.41" font-family="Times New Roman,serif" font-size="30.00"> &#160;&#160;55 &#160;&#160;0% &#160;&#160;1.7e&#45;08 mol/s &#160;&#160;&#160;2.33E&#45;01</text>
</g>
<!-- H(S)&#45;&gt;PT(S) -->
<g id="edge26" class="edge"><title>H(S)&#45;&gt;PT(S)</title>
<path fill="none" stroke="green" d="M1573.7,-1685.6C1574.32,-1615.03 1565.42,-1406.22 1444,-1314.41 1401.51,-1282.29 1016.69,-1308.27 965,-1295.41 936.456,-1288.31 906.726,-1274.52 883.012,-1261.75"/>
<polygon fill="green" stroke="green" points="884.681,-1258.67 874.232,-1256.92 881.306,-1264.8 884.681,-1258.67"/>
<text text-anchor="middle" x="1204.5" y="-1323.41" font-family="Times New Roman,serif" font-size="30.00"> &#160;&#160;56 &#160;&#160;0% &#160;&#160;1.78e&#45;08 mol/s &#160;&#160;&#160;5.00E&#45;01</text>
</g>
<!-- H(S)&#45;&gt;PT(S) -->
<g id="edge28" class="edge"><title>H(S)&#45;&gt;PT(S)</title>
<path fill="none" stroke="black" d="M1569.89,-1685.89C1558.17,-1601.08 1513.72,-1313.19 1444,-1258.41 1423.06,-1241.96 991.607,-1240.56 965,-1239.41 942.376,-1238.44 917.523,-1237.3 895.722,-1236.28"/>
<polygon fill="black" stroke="black" points="895.769,-1232.78 885.615,-1235.8 895.439,-1239.77 895.769,-1232.78"/>
<text text-anchor="middle" x="1204.5" y="-1267.41" font-family="Times New Roman,serif" font-size="30.00"> &#160;&#160;66 &#160;&#160;11% &#160;&#160;5.43e&#45;06 mol/s &#160;&#160;&#160;1.93E&#45;02</text>
</g>
<!-- H(S)&#45;&gt;PT(S) -->
<g id="edge30" class="edge"><title>H(S)&#45;&gt;PT(S)</title>
<path fill="none" stroke="green" d="M1570.74,-1685.79C1561.45,-1594.09 1522.88,-1263.73 1444,-1202.41 1401.98,-1169.75 1017.85,-1196.15 965,-1202.41 941.991,-1205.14 917.146,-1210.51 895.461,-1216.03"/>
<polygon fill="green" stroke="green" points="894.531,-1212.65 885.738,-1218.56 896.297,-1219.42 894.531,-1212.65"/>
<text text-anchor="middle" x="1204.5" y="-1211.41" font-family="Times New Roman,serif" font-size="30.00"> &#160;&#160;67 &#160;&#160;11% &#160;&#160;5.43e&#45;06 mol/s &#160;&#160;&#160;5.00E&#45;01</text>
</g>
<!-- CH3(S)&#45;&gt;PT(S) -->
<g id="edge5" class="edge"><title>CH3(S)&#45;&gt;PT(S)</title>
<path fill="none" stroke="black" stroke-width="2" d="M1510.75,-1105.68C1489.7,-1101.08 1465.96,-1096.69 1444,-1094.41 1338.12,-1083.45 1062.57,-1051.85 965,-1094.41 915.415,-1116.04 876.337,-1167.17 854.707,-1201.02"/>
<polygon fill="black" stroke="black" stroke-width="2" points="851.649,-1199.31 849.331,-1209.65 857.59,-1203.01 851.649,-1199.31"/>
<text text-anchor="middle" x="1204.5" y="-1103.41" font-family="Times New Roman,serif" font-size="30.00"> &#160;&#160;9 &#160;&#160;23% &#160;&#160;5.44e&#45;06 mol/s &#160;&#160;&#160;3.20E&#45;01</text>
</g>
<!-- CO(S)&#45;&gt;PT(S) -->
<g id="edge8" class="edge"><title>CO(S)&#45;&gt;PT(S)</title>
<path fill="none" stroke="green" d="M1519.32,-978.351C1379.47,-970.81 1011.55,-953.95 965,-982.414 886.498,-1030.42 853.749,-1143.08 841.873,-1199.69"/>
<polygon fill="green" stroke="green" points="838.424,-1199.09 839.892,-1209.58 845.288,-1200.47 838.424,-1199.09"/>
<text text-anchor="middle" x="1204.5" y="-991.414" font-family="Times New Roman,serif" font-size="30.00"> &#160;&#160;12 &#160;&#160;6% &#160;&#160;2.95e&#45;06 mol/s &#160;&#160;&#160;5.00E&#45;01</text>
</g>
<!-- CO(S)&#45;&gt;PT(S) -->
<g id="edge45" class="edge"><title>CO(S)&#45;&gt;PT(S)</title>
<path fill="none" stroke="black" d="M1525.9,-957.837C1502.01,-947.174 1472.15,-935.777 1444,-930.414 1391.72,-920.454 1009.4,-901.063 965,-930.414 872.386,-991.643 846.05,-1134.33 838.732,-1199.66"/>
<polygon fill="black" stroke="black" points="835.228,-1199.52 837.678,-1209.83 842.191,-1200.24 835.228,-1199.52"/>
<text text-anchor="middle" x="1204.5" y="-939.414" font-family="Times New Roman,serif" font-size="30.00"> &#160;&#160;154 &#160;&#160;5% &#160;&#160;2.5e&#45;06 mol/s &#160;&#160;&#160;7.20E&#45;01</text>
</g>
<!-- CO2(S)&#45;&gt;PT(S) -->
<g id="edge9" class="edge"><title>CO2(S)&#45;&gt;PT(S)</title>
<path fill="none" stroke="green" d="M1510.41,-829.258C1489.54,-823.201 1466,-817.426 1444,-814.414 1391.27,-807.194 1007.81,-782.798 965,-814.414 901.319,-861.439 855.955,-1108.69 841.186,-1199.72"/>
<polygon fill="green" stroke="green" points="837.701,-1199.35 839.576,-1209.78 844.613,-1200.46 837.701,-1199.35"/>
<text text-anchor="middle" x="1204.5" y="-823.414" font-family="Times New Roman,serif" font-size="30.00"> &#160;&#160;13 &#160;&#160;5% &#160;&#160;2.5e&#45;06 mol/s &#160;&#160;&#160;5.00E&#45;01</text>
</g>
<!-- CH3CH(S) -->
<g id="node15" class="node"><title>CH3CH(S)</title>
<g id="a_node15"><a xlink:href="39.svg" xlink:title="CH3CH(S)">
<polygon fill="dodgerblue" stroke="none" points="183,-1289.91 9,-1289.91 9,-1242.91 183,-1242.91 183,-1289.91"/>
<text text-anchor="middle" x="96" y="-1257.91" font-family="Times New Roman,serif" font-size="35.00">CH3CH(S)</text>
</a>
</g>
</g>
<!-- CH3CH(S)&#45;&gt;PT(S) -->
<g id="edge23" class="edge"><title>CH3CH(S)&#45;&gt;PT(S)</title>
<path fill="none" stroke="black" d="M183.15,-1264.54C300.465,-1261.69 516.998,-1255.42 701.5,-1244.41 725.278,-1243 751.416,-1240.93 774.148,-1238.98"/>
<polygon fill="black" stroke="black" points="774.675,-1242.44 784.332,-1238.09 774.066,-1235.47 774.675,-1242.44"/>
<text text-anchor="middle" x="465.5" y="-1271.41" font-family="Times New Roman,serif" font-size="30.00"> &#160;&#160;55 &#160;&#160;0% &#160;&#160;1.7e&#45;08 mol/s &#160;&#160;&#160;2.33E&#45;01</text>
</g>
<!-- CH3C(S)&#45;&gt;PT(S) -->
<g id="edge25" class="edge"><title>CH3C(S)&#45;&gt;PT(S)</title>
<path fill="none" stroke="green" d="M1499.4,-319.28C1481.39,-315.601 1462.09,-312.287 1444,-310.414 1391.06,-304.933 1005.15,-275.482 965,-310.414 896.236,-370.236 848.584,-1039.79 838.151,-1199.41"/>
<polygon fill="green" stroke="green" points="834.645,-1199.38 837.491,-1209.59 841.631,-1199.83 834.645,-1199.38"/>
<text text-anchor="middle" x="1204.5" y="-319.414" font-family="Times New Roman,serif" font-size="30.00"> &#160;&#160;56 &#160;&#160;0% &#160;&#160;1.78e&#45;08 mol/s &#160;&#160;&#160;5.00E&#45;01</text>
</g>
<!-- CH2(S) -->
<g id="node17" class="node"><title>CH2(S)</title>
<g id="a_node17"><a xlink:href="56.svg" xlink:title="CH2(S)">
<polygon fill="dodgerblue" stroke="none" points="159,-1224.91 33,-1224.91 33,-1177.91 159,-1177.91 159,-1224.91"/>
<text text-anchor="middle" x="96" y="-1192.91" font-family="Times New Roman,serif" font-size="35.00">CH2(S)</text>
</a>
</g>
</g>
<!-- CH2(S)&#45;&gt;PT(S) -->
<g id="edge27" class="edge"><title>CH2(S)&#45;&gt;PT(S)</title>
<path fill="none" stroke="black" d="M159.383,-1199.41C269.221,-1196.57 504.195,-1193.5 701.5,-1211.41 725.364,-1213.58 751.42,-1217.55 774.062,-1221.53"/>
<polygon fill="black" stroke="black" points="773.743,-1225.03 784.205,-1223.35 774.981,-1218.14 773.743,-1225.03"/>
<text text-anchor="middle" x="465.5" y="-1220.41" font-family="Times New Roman,serif" font-size="30.00"> &#160;&#160;66 &#160;&#160;11% &#160;&#160;5.43e&#45;06 mol/s &#160;&#160;&#160;1.93E&#45;02</text>
</g>
<!-- CH(S) -->
<g id="node18" class="node"><title>CH(S)</title>
<g id="a_node18"><a xlink:href="57.svg" xlink:title="CH(S)">
<polygon fill="springgreen" stroke="none" points="150,-1159.91 42,-1159.91 42,-1112.91 150,-1112.91 150,-1159.91"/>
<text text-anchor="middle" x="96" y="-1127.91" font-family="Times New Roman,serif" font-size="35.00">CH(S)</text>
</a>
</g>
</g>
<!-- CH(S)&#45;&gt;PT(S) -->
<g id="edge29" class="edge"><title>CH(S)&#45;&gt;PT(S)</title>
<path fill="none" stroke="green" d="M150.025,-1130.28C256.794,-1119.69 504.326,-1104.06 701.5,-1159.41 734.517,-1168.68 768.21,-1187.65 793.358,-1204.07"/>
<polygon fill="green" stroke="green" points="791.619,-1207.11 801.882,-1209.75 795.5,-1201.29 791.619,-1207.11"/>
<text text-anchor="middle" x="465.5" y="-1168.41" font-family="Times New Roman,serif" font-size="30.00"> &#160;&#160;67 &#160;&#160;11% &#160;&#160;5.43e&#45;06 mol/s &#160;&#160;&#160;5.00E&#45;01</text>
</g>
<!-- OH(S)&#45;&gt;PT(S) -->
<g id="edge46" class="edge"><title>OH(S)&#45;&gt;PT(S)</title>
<path fill="none" stroke="black" d="M1523.68,-61.8502C1500.13,-51.871 1471.22,-41.409 1444,-36.4142 1339.3,-17.1998 1044.2,34.7068 965,-36.4142 875.853,-116.47 842.91,-1013.44 837.008,-1199.68"/>
<polygon fill="black" stroke="black" points="833.509,-1199.6 836.695,-1209.71 840.505,-1199.82 833.509,-1199.6"/>
<text text-anchor="middle" x="1204.5" y="-45.4142" font-family="Times New Roman,serif" font-size="30.00"> &#160;&#160;154 &#160;&#160;5% &#160;&#160;2.5e&#45;06 mol/s &#160;&#160;&#160;7.20E&#45;01</text>
</g>
</g>
</svg>
