<?xml version="1.0" encoding="UTF-8" standalone="no"?>
<!DOCTYPE svg PUBLIC "-//W3C//DTD SVG 1.1//EN"
 "http://www.w3.org/Graphics/SVG/1.1/DTD/svg11.dtd">
<!-- Generated by graphviz version 2.38.0 (20140413.2041)
 -->
<!-- Title: G Pages: 1 -->
<svg width="640pt" height="383pt"
 viewBox="0.00 0.00 720.00 430.49" xmlns="http://www.w3.org/2000/svg" xmlns:xlink="http://www.w3.org/1999/xlink">
<g id="graph0" class="graph" transform="scale(0.375807 0.375807) rotate(0) translate(4 1014.24)">
<title>G</title>
<polygon fill="white" stroke="none" points="-4,4 -4,-1014.24 1699,-1014.24 1699,4 -4,4"/>
<text text-anchor="middle" x="847.5" y="-977.438" font-family="Arial" font-size="36.00" fill="blue">Reaction Path Analysis</text>
<!-- PT(B) -->
<g id="node1" class="node"><title>PT(B)</title>
<g id="a_node1"><a xlink:href="67.svg" xlink:title="PT(B)">
<polygon fill="purple" stroke="none" points="912.5,-499.738 807.5,-499.738 807.5,-452.738 912.5,-452.738 912.5,-499.738"/>
<text text-anchor="middle" x="860" y="-467.738" font-family="Times New Roman,serif" font-size="35.00">PT(B)</text>
</a>
</g>
</g>
<!-- CH3CHO -->
<g id="node3" class="node"><title>CH3CHO</title>
<g id="a_node3"><a xlink:href="1.svg" xlink:title="CH3CHO">
<polygon fill="none" stroke="none" points="1677,-857.738 1521,-857.738 1521,-810.738 1677,-810.738 1677,-857.738"/>
<text text-anchor="middle" x="1599" y="-825.738" font-family="Times New Roman,serif" font-size="35.00">CH3CHO</text>
</a>
</g>
</g>
<!-- PT(B)&#45;&gt;CH3CHO -->
<g id="edge2" class="edge"><title>PT(B)&#45;&gt;CH3CHO</title>
<path fill="none" stroke="green" d="M862.254,-499.745C866.985,-562.144 889.314,-732.23 993.5,-806.238 1147.78,-915.826 1384.22,-885.063 1510.82,-857.199"/>
<polygon fill="green" stroke="green" points="1511.87,-860.55 1520.86,-854.944 1510.34,-853.72 1511.87,-860.55"/>
<text text-anchor="middle" x="1229.5" y="-892.238" font-family="Times New Roman,serif" font-size="30.00"> &#160;&#160;3 &#160;&#160;0% &#160;&#160;1.67e&#45;08 mol/s &#160;&#160;&#160;5.00E&#45;01</text>
</g>
<!-- CH3CH3 -->
<g id="node4" class="node"><title>CH3CH3</title>
<g id="a_node4"><a xlink:href="2.svg" xlink:title="CH3CH3">
<polygon fill="none" stroke="none" points="1673.5,-792.738 1524.5,-792.738 1524.5,-745.738 1673.5,-745.738 1673.5,-792.738"/>
<text text-anchor="middle" x="1599" y="-760.738" font-family="Times New Roman,serif" font-size="35.00">CH3CH3</text>
</a>
</g>
</g>
<!-- PT(B)&#45;&gt;CH3CH3 -->
<g id="edge3" class="edge"><title>PT(B)&#45;&gt;CH3CH3</title>
<path fill="none" stroke="green" d="M864.719,-499.871C874.578,-553.649 906.833,-684.862 993.5,-741.238 1036.02,-768.898 1358.45,-770.759 1514.24,-770.005"/>
<polygon fill="green" stroke="green" points="1514.27,-773.505 1524.25,-769.952 1514.23,-766.505 1514.27,-773.505"/>
<text text-anchor="middle" x="1229.5" y="-778.238" font-family="Times New Roman,serif" font-size="30.00"> &#160;&#160;4 &#160;&#160;0% &#160;&#160;1.84e&#45;08 mol/s &#160;&#160;&#160;4.54E&#45;01</text>
</g>
<!-- CH4 -->
<g id="node5" class="node"><title>CH4</title>
<g id="a_node5"><a xlink:href="7.svg" xlink:title="CH4">
<polygon fill="none" stroke="none" points="1640.5,-727.738 1557.5,-727.738 1557.5,-680.738 1640.5,-680.738 1640.5,-727.738"/>
<text text-anchor="middle" x="1599" y="-695.738" font-family="Times New Roman,serif" font-size="35.00">CH4</text>
</a>
</g>
</g>
<!-- PT(B)&#45;&gt;CH4 -->
<g id="edge4" class="edge"><title>PT(B)&#45;&gt;CH4</title>
<path fill="none" stroke="black" stroke-width="2" d="M868.54,-499.747C883.983,-543.526 923.761,-636.678 993.5,-676.238 1040.98,-703.171 1409.8,-704.827 1546.9,-704.497"/>
<polygon fill="black" stroke="black" stroke-width="2" points="1547.14,-707.997 1557.13,-704.468 1547.12,-700.997 1547.14,-707.997"/>
<text text-anchor="middle" x="1229.5" y="-713.238" font-family="Times New Roman,serif" font-size="30.00"> &#160;&#160;9 &#160;&#160;23% &#160;&#160;5.44e&#45;06 mol/s &#160;&#160;&#160;3.20E&#45;01</text>
</g>
<!-- H2 -->
<g id="node6" class="node"><title>H2</title>
<g id="a_node6"><a xlink:href="8.svg" xlink:title="H2">
<polygon fill="none" stroke="none" points="1628.5,-662.738 1569.5,-662.738 1569.5,-615.738 1628.5,-615.738 1628.5,-662.738"/>
<text text-anchor="middle" x="1599" y="-630.738" font-family="Times New Roman,serif" font-size="35.00">H2</text>
</a>
</g>
</g>
<!-- PT(B)&#45;&gt;H2 -->
<g id="edge5" class="edge"><title>PT(B)&#45;&gt;H2</title>
<path fill="none" stroke="green" stroke-width="2" d="M874.718,-499.804C895.548,-533.011 938.603,-592.298 993.5,-617.238 1044.71,-640.504 1433.63,-640.236 1559.11,-639.529"/>
<polygon fill="green" stroke="green" stroke-width="2" points="1559.41,-643.028 1569.39,-639.467 1559.37,-636.028 1559.41,-643.028"/>
<text text-anchor="middle" x="1229.5" y="-648.238" font-family="Times New Roman,serif" font-size="30.00"> &#160;&#160;10 &#160;&#160;34% &#160;&#160;7.94e&#45;06 mol/s &#160;&#160;&#160;5.00E&#45;01</text>
</g>
<!-- CO -->
<g id="node7" class="node"><title>CO</title>
<g id="a_node7"><a xlink:href="10.svg" xlink:title="CO">
<polygon fill="none" stroke="none" points="1631.5,-597.738 1566.5,-597.738 1566.5,-550.738 1631.5,-550.738 1631.5,-597.738"/>
<text text-anchor="middle" x="1599" y="-565.738" font-family="Times New Roman,serif" font-size="35.00">CO</text>
</a>
</g>
</g>
<!-- PT(B)&#45;&gt;CO -->
<g id="edge6" class="edge"><title>PT(B)&#45;&gt;CO</title>
<path fill="none" stroke="green" d="M897.923,-499.786C923.64,-514.866 959.329,-533.238 993.5,-542.238 1198.93,-596.339 1456.82,-584.955 1556.26,-577.769"/>
<polygon fill="green" stroke="green" points="1556.78,-581.24 1566.49,-577.004 1556.25,-574.26 1556.78,-581.24"/>
<text text-anchor="middle" x="1229.5" y="-592.238" font-family="Times New Roman,serif" font-size="30.00"> &#160;&#160;12 &#160;&#160;6% &#160;&#160;2.95e&#45;06 mol/s &#160;&#160;&#160;5.00E&#45;01</text>
</g>
<!-- CO2 -->
<g id="node8" class="node"><title>CO2</title>
<g id="a_node8"><a xlink:href="11.svg" xlink:title="CO2">
<polygon fill="none" stroke="none" points="1640.5,-532.738 1557.5,-532.738 1557.5,-485.738 1640.5,-485.738 1640.5,-532.738"/>
<text text-anchor="middle" x="1599" y="-500.738" font-family="Times New Roman,serif" font-size="35.00">CO2</text>
</a>
</g>
</g>
<!-- PT(B)&#45;&gt;CO2 -->
<g id="edge7" class="edge"><title>PT(B)&#45;&gt;CO2</title>
<path fill="none" stroke="green" d="M912.558,-481.078C937.061,-483.234 966.772,-485.643 993.5,-487.238 1198.48,-499.47 1443,-505.851 1547.07,-508.183"/>
<polygon fill="green" stroke="green" points="1547.21,-511.686 1557.28,-508.409 1547.36,-504.688 1547.21,-511.686"/>
<text text-anchor="middle" x="1229.5" y="-514.238" font-family="Times New Roman,serif" font-size="30.00"> &#160;&#160;13 &#160;&#160;5% &#160;&#160;2.5e&#45;06 mol/s &#160;&#160;&#160;5.00E&#45;01</text>
</g>
<!-- CH3CH2(S) -->
<g id="node16" class="node"><title>CH3CH2(S)</title>
<g id="a_node16"><a xlink:href="38.svg" xlink:title="CH3CH2(S)">
<polygon fill="dodgerblue" stroke="none" points="1695,-467.738 1503,-467.738 1503,-420.738 1695,-420.738 1695,-467.738"/>
<text text-anchor="middle" x="1599" y="-435.738" font-family="Times New Roman,serif" font-size="35.00">CH3CH2(S)</text>
</a>
</g>
</g>
<!-- PT(B)&#45;&gt;CH3CH2(S) -->
<g id="edge15" class="edge"><title>PT(B)&#45;&gt;CH3CH2(S)</title>
<path fill="none" stroke="black" d="M912.686,-465.832C937.087,-461.389 966.678,-456.673 993.5,-454.238 1167.82,-438.411 1371.55,-438.961 1492.4,-441.267"/>
<polygon fill="black" stroke="black" points="1492.68,-444.773 1502.75,-441.472 1492.82,-437.774 1492.68,-444.773"/>
<text text-anchor="middle" x="1229.5" y="-463.238" font-family="Times New Roman,serif" font-size="30.00"> &#160;&#160;55 &#160;&#160;0% &#160;&#160;1.7e&#45;08 mol/s &#160;&#160;&#160;2.33E&#45;01</text>
</g>
<!-- CH3CH(S) -->
<g id="node17" class="node"><title>CH3CH(S)</title>
<g id="a_node17"><a xlink:href="39.svg" xlink:title="CH3CH(S)">
<polygon fill="dodgerblue" stroke="none" points="1686,-402.738 1512,-402.738 1512,-355.738 1686,-355.738 1686,-402.738"/>
<text text-anchor="middle" x="1599" y="-370.738" font-family="Times New Roman,serif" font-size="35.00">CH3CH(S)</text>
</a>
</g>
</g>
<!-- PT(B)&#45;&gt;CH3CH(S) -->
<g id="edge16" class="edge"><title>PT(B)&#45;&gt;CH3CH(S)</title>
<path fill="none" stroke="green" d="M893.118,-452.57C918.835,-435.087 956.591,-412.599 993.5,-402.238 1167.58,-353.368 1380.91,-359.826 1501.97,-369.298"/>
<polygon fill="green" stroke="green" points="1501.71,-372.788 1511.96,-370.103 1502.27,-365.811 1501.71,-372.788"/>
<text text-anchor="middle" x="1229.5" y="-411.238" font-family="Times New Roman,serif" font-size="30.00"> &#160;&#160;56 &#160;&#160;0% &#160;&#160;1.78e&#45;08 mol/s &#160;&#160;&#160;5.00E&#45;01</text>
</g>
<!-- CH3(S) -->
<g id="node18" class="node"><title>CH3(S)</title>
<g id="a_node18"><a xlink:href="55.svg" xlink:title="CH3(S)">
<polygon fill="dodgerblue" stroke="none" points="1662,-337.738 1536,-337.738 1536,-290.738 1662,-290.738 1662,-337.738"/>
<text text-anchor="middle" x="1599" y="-305.738" font-family="Times New Roman,serif" font-size="35.00">CH3(S)</text>
</a>
</g>
</g>
<!-- PT(B)&#45;&gt;CH3(S) -->
<g id="edge17" class="edge"><title>PT(B)&#45;&gt;CH3(S)</title>
<path fill="none" stroke="black" d="M873.216,-452.668C893.007,-417.359 935.761,-352.025 993.5,-325.238 1040.59,-303.39 1375.89,-308.74 1525.84,-312.299"/>
<polygon fill="black" stroke="black" points="1525.8,-315.799 1535.88,-312.541 1525.97,-308.801 1525.8,-315.799"/>
<text text-anchor="middle" x="1229.5" y="-334.238" font-family="Times New Roman,serif" font-size="30.00"> &#160;&#160;66 &#160;&#160;11% &#160;&#160;5.43e&#45;06 mol/s &#160;&#160;&#160;1.93E&#45;02</text>
</g>
<!-- CH2(S) -->
<g id="node19" class="node"><title>CH2(S)</title>
<g id="a_node19"><a xlink:href="56.svg" xlink:title="CH2(S)">
<polygon fill="dodgerblue" stroke="none" points="1662,-272.738 1536,-272.738 1536,-225.738 1662,-225.738 1662,-272.738"/>
<text text-anchor="middle" x="1599" y="-240.738" font-family="Times New Roman,serif" font-size="35.00">CH2(S)</text>
</a>
</g>
</g>
<!-- PT(B)&#45;&gt;CH2(S) -->
<g id="edge18" class="edge"><title>PT(B)&#45;&gt;CH2(S)</title>
<path fill="none" stroke="green" d="M868.204,-452.443C883.19,-407.64 922.389,-311.641 993.5,-271.238 1038.69,-245.564 1375.43,-246.44 1525.82,-248.158"/>
<polygon fill="green" stroke="green" points="1525.85,-251.658 1535.89,-248.277 1525.93,-244.659 1525.85,-251.658"/>
<text text-anchor="middle" x="1229.5" y="-280.238" font-family="Times New Roman,serif" font-size="30.00"> &#160;&#160;67 &#160;&#160;11% &#160;&#160;5.43e&#45;06 mol/s &#160;&#160;&#160;5.00E&#45;01</text>
</g>
<!-- COOH(S) -->
<g id="node22" class="node"><title>COOH(S)</title>
<g id="a_node22"><a xlink:href="64.svg" xlink:title="COOH(S)">
<polygon fill="dodgerblue" stroke="none" points="1678.5,-191.738 1519.5,-191.738 1519.5,-144.738 1678.5,-144.738 1678.5,-191.738"/>
<text text-anchor="middle" x="1599" y="-159.738" font-family="Times New Roman,serif" font-size="35.00">COOH(S)</text>
</a>
</g>
</g>
<!-- PT(B)&#45;&gt;COOH(S) -->
<g id="edge26" class="edge"><title>PT(B)&#45;&gt;COOH(S)</title>
<path fill="none" stroke="black" d="M864.714,-452.558C874.565,-398.667 906.802,-267.136 993.5,-210.238 1037.41,-181.422 1413.2,-189.971 1465.5,-185.238 1479.67,-183.955 1494.66,-182.311 1509.25,-180.553"/>
<polygon fill="black" stroke="black" points="1509.79,-184.014 1519.28,-179.32 1508.93,-177.066 1509.79,-184.014"/>
<text text-anchor="middle" x="1229.5" y="-219.238" font-family="Times New Roman,serif" font-size="30.00"> &#160;&#160;154 &#160;&#160;5% &#160;&#160;2.5e&#45;06 mol/s &#160;&#160;&#160;7.20E&#45;01</text>
</g>
<!-- CH3CH2OH -->
<g id="node2" class="node"><title>CH3CH2OH</title>
<g id="a_node2"><a xlink:href="0.svg" xlink:title="CH3CH2OH">
<polygon fill="none" stroke="none" points="220.5,-900.738 21.5,-900.738 21.5,-853.738 220.5,-853.738 220.5,-900.738"/>
<text text-anchor="middle" x="121" y="-868.738" font-family="Times New Roman,serif" font-size="35.00">CH3CH2OH</text>
</a>
</g>
</g>
<!-- CH3CH2OH&#45;&gt;PT(B) -->
<g id="edge1" class="edge"><title>CH3CH2OH&#45;&gt;PT(B)</title>
<path fill="none" stroke="green" d="M206.942,-900.742C334.292,-930.507 576.143,-965.154 730,-850.238 840.144,-767.97 856.912,-585.718 858.986,-510.119"/>
<polygon fill="green" stroke="green" points="862.493,-509.833 859.195,-499.764 855.494,-509.691 862.493,-509.833"/>
<text text-anchor="middle" x="490.5" y="-938.238" font-family="Times New Roman,serif" font-size="30.00"> &#160;&#160;2 &#160;&#160;12% &#160;&#160;5.48e&#45;06 mol/s &#160;&#160;&#160;5.00E&#45;01</text>
</g>
<!-- H2O -->
<g id="node9" class="node"><title>H2O</title>
<g id="a_node9"><a xlink:href="12.svg" xlink:title="H2O">
<polygon fill="none" stroke="none" points="163.5,-835.738 78.5,-835.738 78.5,-788.738 163.5,-788.738 163.5,-835.738"/>
<text text-anchor="middle" x="121" y="-803.738" font-family="Times New Roman,serif" font-size="35.00">H2O</text>
</a>
</g>
</g>
<!-- H2O&#45;&gt;PT(B) -->
<g id="edge8" class="edge"><title>H2O&#45;&gt;PT(B)</title>
<path fill="none" stroke="green" d="M163.795,-812.862C293.604,-814.451 683.883,-816.476 730,-784.238 822.268,-719.737 848.782,-575.867 856.207,-510.153"/>
<polygon fill="green" stroke="green" points="859.717,-510.242 857.278,-499.932 852.755,-509.513 859.717,-510.242"/>
<text text-anchor="middle" x="490.5" y="-822.238" font-family="Times New Roman,serif" font-size="30.00"> &#160;&#160;14 &#160;&#160;5% &#160;&#160;2.48e&#45;06 mol/s &#160;&#160;&#160;5.00E&#45;01</text>
</g>
<!-- CH3CH2OH(S) -->
<g id="node10" class="node"><title>CH3CH2OH(S)</title>
<g id="a_node10"><a xlink:href="14.svg" xlink:title="CH3CH2OH(S)">
<polygon fill="dodgerblue" stroke="none" points="242,-737.738 0,-737.738 0,-690.738 242,-690.738 242,-737.738"/>
<text text-anchor="middle" x="121" y="-705.738" font-family="Times New Roman,serif" font-size="35.00">CH3CH2OH(S)</text>
</a>
</g>
</g>
<!-- CH3CH2OH(S)&#45;&gt;PT(B) -->
<g id="edge9" class="edge"><title>CH3CH2OH(S)&#45;&gt;PT(B)</title>
<path fill="none" stroke="black" d="M242.096,-733.476C245.091,-733.756 248.062,-734.011 251,-734.238 304.065,-738.327 684.726,-762.218 730,-734.238 810.407,-684.543 842.372,-567.873 853.617,-510.006"/>
<polygon fill="black" stroke="black" points="857.107,-510.385 855.483,-499.915 850.223,-509.112 857.107,-510.385"/>
<text text-anchor="middle" x="490.5" y="-756.238" font-family="Times New Roman,serif" font-size="30.00"> &#160;&#160;15 &#160;&#160;10% &#160;&#160;4.77e&#45;06 mol/s &#160;&#160;&#160;9.99E&#45;01</text>
</g>
<!-- CH3CH2OH(S)&#45;&gt;PT(B) -->
<g id="edge19" class="edge"><title>CH3CH2OH(S)&#45;&gt;PT(B)</title>
<path fill="none" stroke="black" d="M242.13,-698.082C245.115,-697.785 248.075,-697.503 251,-697.238 304.071,-692.419 683.769,-699.741 730,-673.238 793.276,-636.962 831.01,-555.568 848.071,-509.561"/>
<polygon fill="black" stroke="black" points="851.405,-510.632 851.494,-500.037 844.818,-508.264 851.405,-510.632"/>
<text text-anchor="middle" x="490.5" y="-706.238" font-family="Times New Roman,serif" font-size="30.00"> &#160;&#160;69 &#160;&#160;1% &#160;&#160;7.05e&#45;07 mol/s &#160;&#160;&#160;9.45E&#45;01</text>
</g>
<!-- CH3CHOH(S) -->
<g id="node11" class="node"><title>CH3CHOH(S)</title>
<g id="a_node11"><a xlink:href="15.svg" xlink:title="CH3CHOH(S)">
<polygon fill="dodgerblue" stroke="none" points="233,-653.738 9,-653.738 9,-606.738 233,-606.738 233,-653.738"/>
<text text-anchor="middle" x="121" y="-621.738" font-family="Times New Roman,serif" font-size="35.00">CH3CHOH(S)</text>
</a>
</g>
</g>
<!-- CH3CHOH(S)&#45;&gt;PT(B) -->
<g id="edge10" class="edge"><title>CH3CHOH(S)&#45;&gt;PT(B)</title>
<path fill="none" stroke="black" d="M233.086,-633.613C396.267,-637.842 686.254,-642.308 730,-622.238 781.08,-598.802 820.195,-544.286 841.359,-508.906"/>
<polygon fill="black" stroke="black" points="844.588,-510.317 846.599,-499.915 838.54,-506.793 844.588,-510.317"/>
<text text-anchor="middle" x="490.5" y="-645.238" font-family="Times New Roman,serif" font-size="30.00"> &#160;&#160;16 &#160;&#160;10% &#160;&#160;4.62e&#45;06 mol/s &#160;&#160;&#160;5.57E&#45;01</text>
</g>
<!-- CH3CHOH(S)&#45;&gt;PT(B) -->
<g id="edge20" class="edge"><title>CH3CHOH(S)&#45;&gt;PT(B)</title>
<path fill="none" stroke="black" d="M177.841,-606.706C200.185,-598.369 226.415,-589.906 251,-585.238 355.658,-565.365 629.028,-600.193 730,-566.238 766.669,-553.906 802.258,-527.662 826.734,-506.679"/>
<polygon fill="black" stroke="black" points="829.058,-509.295 834.277,-500.075 824.447,-504.028 829.058,-509.295"/>
<text text-anchor="middle" x="490.5" y="-594.238" font-family="Times New Roman,serif" font-size="30.00"> &#160;&#160;70 &#160;&#160;0% &#160;&#160;1.53e&#45;07 mol/s &#160;&#160;&#160;5.55E&#45;01</text>
</g>
<!-- CH3CH2O(S) -->
<g id="node12" class="node"><title>CH3CH2O(S)</title>
<g id="a_node12"><a xlink:href="26.svg" xlink:title="CH3CH2O(S)">
<polygon fill="purple" stroke="none" points="230,-555.738 12,-555.738 12,-508.738 230,-508.738 230,-555.738"/>
<text text-anchor="middle" x="121" y="-523.738" font-family="Times New Roman,serif" font-size="35.00">CH3CH2O(S)</text>
</a>
</g>
</g>
<!-- CH3CH2O(S)&#45;&gt;PT(B) -->
<g id="edge11" class="edge"><title>CH3CH2O(S)&#45;&gt;PT(B)</title>
<path fill="none" stroke="black" d="M230.1,-531.2C378.303,-529.283 636.811,-524.03 730,-510.238 752.35,-506.93 776.398,-501.206 797.605,-495.388"/>
<polygon fill="black" stroke="black" points="798.766,-498.697 807.449,-492.625 796.875,-491.957 798.766,-498.697"/>
<text text-anchor="middle" x="490.5" y="-539.238" font-family="Times New Roman,serif" font-size="30.00"> &#160;&#160;23 &#160;&#160;3% &#160;&#160;7.05e&#45;07 mol/s &#160;&#160;&#160;9.91E&#45;01</text>
</g>
<!-- CH3COH(S) -->
<g id="node13" class="node"><title>CH3COH(S)</title>
<g id="a_node13"><a xlink:href="16.svg" xlink:title="CH3COH(S)">
<polygon fill="springgreen" stroke="none" points="221,-443.738 21,-443.738 21,-396.738 221,-396.738 221,-443.738"/>
<text text-anchor="middle" x="121" y="-411.738" font-family="Times New Roman,serif" font-size="35.00">CH3COH(S)</text>
</a>
</g>
</g>
<!-- CH3COH(S)&#45;&gt;PT(B) -->
<g id="edge12" class="edge"><title>CH3COH(S)&#45;&gt;PT(B)</title>
<path fill="none" stroke="green" d="M200.218,-443.812C216.841,-447.986 234.389,-451.779 251,-454.238 303.868,-462.062 653.167,-471.265 797.138,-474.777"/>
<polygon fill="green" stroke="green" points="797.06,-478.276 807.142,-475.02 797.23,-471.278 797.06,-478.276"/>
<text text-anchor="middle" x="490.5" y="-481.238" font-family="Times New Roman,serif" font-size="30.00"> &#160;&#160;39 &#160;&#160;17% &#160;&#160;3.95e&#45;06 mol/s &#160;&#160;&#160;5.43E&#45;01</text>
</g>
<!-- CH3COH(S)&#45;&gt;PT(B) -->
<g id="edge21" class="edge"><title>CH3COH(S)&#45;&gt;PT(B)</title>
<path fill="none" stroke="green" d="M221.208,-414.521C368.069,-406.948 636.08,-396.779 730,-417.238 757.828,-423.299 786.84,-435.925 810.286,-447.947"/>
<polygon fill="green" stroke="green" points="808.833,-451.137 819.314,-452.686 812.086,-444.939 808.833,-451.137"/>
<text text-anchor="middle" x="490.5" y="-426.238" font-family="Times New Roman,serif" font-size="30.00"> &#160;&#160;71 &#160;&#160;1% &#160;&#160;6.48e&#45;07 mol/s &#160;&#160;&#160;5.00E&#45;01</text>
</g>
<!-- CH3COH(S)&#45;&gt;PT(B) -->
<g id="edge24" class="edge"><title>CH3COH(S)&#45;&gt;PT(B)</title>
<path fill="none" stroke="black" d="M166.915,-396.717C191.113,-385.365 221.901,-372.982 251,-367.238 355.429,-346.621 630.038,-330.66 730,-367.238 771.922,-382.577 809.607,-418.224 833.267,-444.599"/>
<polygon fill="black" stroke="black" points="830.926,-447.238 840.148,-452.453 836.191,-442.625 830.926,-447.238"/>
<text text-anchor="middle" x="490.5" y="-376.238" font-family="Times New Roman,serif" font-size="30.00"> &#160;&#160;120 &#160;&#160;0% &#160;&#160;1.82e&#45;08 mol/s &#160;&#160;&#160;1.00E+00</text>
</g>
<!-- CH3CO(S) -->
<g id="node14" class="node"><title>CH3CO(S)</title>
<g id="a_node14"><a xlink:href="28.svg" xlink:title="CH3CO(S)">
<polygon fill="springgreen" stroke="none" points="208.5,-312.738 33.5,-312.738 33.5,-265.738 208.5,-265.738 208.5,-312.738"/>
<text text-anchor="middle" x="121" y="-280.738" font-family="Times New Roman,serif" font-size="35.00">CH3CO(S)</text>
</a>
</g>
</g>
<!-- CH3CO(S)&#45;&gt;PT(B) -->
<g id="edge13" class="edge"><title>CH3CO(S)&#45;&gt;PT(B)</title>
<path fill="none" stroke="green" d="M208.542,-287.871C365.444,-285.99 684.888,-285.117 730,-308.238 786.503,-337.196 825.469,-403.512 844.851,-443.622"/>
<polygon fill="green" stroke="green" points="841.712,-445.17 849.134,-452.73 848.046,-442.191 841.712,-445.17"/>
<text text-anchor="middle" x="490.5" y="-317.238" font-family="Times New Roman,serif" font-size="30.00"> &#160;&#160;48 &#160;&#160;6% &#160;&#160;1.47e&#45;06 mol/s &#160;&#160;&#160;5.43E&#45;01</text>
</g>
<!-- CH3CO(S)&#45;&gt;PT(B) -->
<g id="edge23" class="edge"><title>CH3CO(S)&#45;&gt;PT(B)</title>
<path fill="none" stroke="black" d="M184.758,-265.633C205.533,-258.942 228.976,-252.574 251,-249.238 303.622,-241.266 683.999,-222.469 730,-249.238 802.174,-291.236 837.275,-390.338 851.284,-442.611"/>
<polygon fill="black" stroke="black" points="847.925,-443.6 853.81,-452.41 854.703,-441.853 847.925,-443.6"/>
<text text-anchor="middle" x="490.5" y="-258.238" font-family="Times New Roman,serif" font-size="30.00"> &#160;&#160;99 &#160;&#160;0% &#160;&#160;1.58e&#45;08 mol/s &#160;&#160;&#160;1.00E+00</text>
</g>
<!-- CH2CO(S) -->
<g id="node15" class="node"><title>CH2CO(S)</title>
<g id="a_node15"><a xlink:href="31.svg" xlink:title="CH2CO(S)">
<polygon fill="springgreen" stroke="none" points="208.5,-224.738 33.5,-224.738 33.5,-177.738 208.5,-177.738 208.5,-224.738"/>
<text text-anchor="middle" x="121" y="-192.738" font-family="Times New Roman,serif" font-size="35.00">CH2CO(S)</text>
</a>
</g>
</g>
<!-- CH2CO(S)&#45;&gt;PT(B) -->
<g id="edge14" class="edge"><title>CH2CO(S)&#45;&gt;PT(B)</title>
<path fill="none" stroke="green" d="M208.685,-195.675C366.229,-186.313 687.265,-170.956 730,-198.238 815.85,-253.043 845.439,-381.327 854.904,-442.558"/>
<polygon fill="green" stroke="green" points="851.445,-443.094 856.352,-452.484 858.372,-442.084 851.445,-443.094"/>
<text text-anchor="middle" x="490.5" y="-207.238" font-family="Times New Roman,serif" font-size="30.00"> &#160;&#160;51 &#160;&#160;11% &#160;&#160;5.42e&#45;06 mol/s &#160;&#160;&#160;5.18E&#45;01</text>
</g>
<!-- CH2COH(S) -->
<g id="node20" class="node"><title>CH2COH(S)</title>
<g id="a_node20"><a xlink:href="19.svg" xlink:title="CH2COH(S)">
<polygon fill="springgreen" stroke="none" points="221,-159.738 21,-159.738 21,-112.738 221,-112.738 221,-159.738"/>
<text text-anchor="middle" x="121" y="-127.738" font-family="Times New Roman,serif" font-size="35.00">CH2COH(S)</text>
</a>
</g>
</g>
<!-- CH2COH(S)&#45;&gt;PT(B) -->
<g id="edge22" class="edge"><title>CH2COH(S)&#45;&gt;PT(B)</title>
<path fill="none" stroke="green" d="M221.221,-124.732C372.171,-109.347 650.39,-89.9525 730,-145.238 829.537,-214.361 852.273,-372.369 857.465,-442.098"/>
<polygon fill="green" stroke="green" points="854.001,-442.758 858.156,-452.504 860.985,-442.293 854.001,-442.758"/>
<text text-anchor="middle" x="490.5" y="-154.238" font-family="Times New Roman,serif" font-size="30.00"> &#160;&#160;74 &#160;&#160;8% &#160;&#160;3.95e&#45;06 mol/s &#160;&#160;&#160;5.00E&#45;01</text>
</g>
<!-- H2O(S) -->
<g id="node21" class="node"><title>H2O(S)</title>
<g id="a_node21"><a xlink:href="59.svg" xlink:title="H2O(S)">
<polygon fill="springgreen" stroke="none" points="185,-94.7375 57,-94.7375 57,-47.7375 185,-47.7375 185,-94.7375"/>
<text text-anchor="middle" x="121" y="-62.7375" font-family="Times New Roman,serif" font-size="35.00">H2O(S)</text>
</a>
</g>
</g>
<!-- H2O(S)&#45;&gt;PT(B) -->
<g id="edge25" class="edge"><title>H2O(S)&#45;&gt;PT(B)</title>
<path fill="none" stroke="green" d="M185.389,-49.1041C304.837,-11.7504 565.959,48.6735 730,-71.2375 791.683,-116.327 837.984,-353.478 853.426,-442.464"/>
<polygon fill="green" stroke="green" points="850.017,-443.293 855.155,-452.559 856.917,-442.111 850.017,-443.293"/>
<text text-anchor="middle" x="490.5" y="-80.2375" font-family="Times New Roman,serif" font-size="30.00"> &#160;&#160;150 &#160;&#160;5% &#160;&#160;2.48e&#45;06 mol/s &#160;&#160;&#160;5.02E&#45;01</text>
</g>
<!-- COOH(S)&#45;&gt;PT(B) -->
<g id="edge27" class="edge"><title>COOH(S)&#45;&gt;PT(B)</title>
<path fill="none" stroke="black" d="M1536.71,-144.609C1419.77,-103.825 1161.51,-34.9068 993.5,-148.238 893.459,-215.72 868.931,-372.839 862.933,-442.243"/>
<polygon fill="black" stroke="black" points="859.413,-442.358 862.121,-452.601 866.392,-442.905 859.413,-442.358"/>
<text text-anchor="middle" x="1229.5" y="-157.238" font-family="Times New Roman,serif" font-size="30.00"> &#160;&#160;156 &#160;&#160;5% &#160;&#160;2.5e&#45;06 mol/s &#160;&#160;&#160;9.85E&#45;01</text>
</g>
</g>
</svg>
