<?xml version="1.0" encoding="UTF-8" standalone="no"?>
<!DOCTYPE svg PUBLIC "-//W3C//DTD SVG 1.1//EN"
 "http://www.w3.org/Graphics/SVG/1.1/DTD/svg11.dtd">
<!-- Generated by graphviz version 2.38.0 (20140413.2041)
 -->
<!-- Title: G Pages: 1 -->
<svg width="640pt" height="155pt"
 viewBox="0.00 0.00 720.00 174.44" xmlns="http://www.w3.org/2000/svg" xmlns:xlink="http://www.w3.org/1999/xlink">
<g id="graph0" class="graph" transform="scale(0.878518 0.878518) rotate(0) translate(4 172.5)">
<title>G</title>
<polygon fill="white" stroke="none" points="-4,4 -4,-172.5 724.5,-172.5 724.5,4 -4,4"/>
<text text-anchor="middle" x="360.25" y="-135.7" font-family="Arial" font-size="36.00" fill="blue">Reaction Path Analysis</text>
<!-- CH4 -->
<g id="node1" class="node"><title>CH4</title>
<g id="a_node1"><a xlink:href="7.svg" xlink:title="CH4">
<polygon fill="none" stroke="none" points="720.5,-79 637.5,-79 637.5,-32 720.5,-32 720.5,-79"/>
<text text-anchor="middle" x="679" y="-47" font-family="Times New Roman,serif" font-size="35.00">CH4</text>
</a>
</g>
</g>
<!-- CH3(S) -->
<g id="node2" class="node"><title>CH3(S)</title>
<g id="a_node2"><a xlink:href="55.svg" xlink:title="CH3(S)">
<polygon fill="dodgerblue" stroke="none" points="126,-112 0,-112 0,-65 126,-65 126,-112"/>
<text text-anchor="middle" x="63" y="-80" font-family="Times New Roman,serif" font-size="35.00">CH3(S)</text>
</a>
</g>
</g>
<!-- CH3(S)&#45;&gt;CH4 -->
<g id="edge1" class="edge"><title>CH3(S)&#45;&gt;CH4</title>
<path fill="none" stroke="black" stroke-width="6" d="M126.046,-88.2668C227.067,-87.3754 433.278,-83.4217 607,-66.5 610.371,-66.1716 613.826,-65.7891 617.309,-65.3677"/>
<polygon fill="black" stroke="black" stroke-width="6" points="618.794,-75.7624 637.176,-62.6339 615.932,-54.9584 618.794,-75.7624"/>
<text text-anchor="middle" x="371" y="-96.5" font-family="Times New Roman,serif" font-size="30.00"> &#160;&#160;9 &#160;&#160;100% &#160;&#160;5.44e&#45;06 mol/s &#160;&#160;&#160;3.20E&#45;01</text>
</g>
<!-- H(S) -->
<g id="node3" class="node"><title>H(S)</title>
<g id="a_node3"><a xlink:href="62.svg" xlink:title="H(S)">
<polygon fill="orange" stroke="none" points="105.5,-47 20.5,-47 20.5,3.55271e-015 105.5,3.55271e-015 105.5,-47"/>
<text text-anchor="middle" x="63" y="-15" font-family="Times New Roman,serif" font-size="35.00">H(S)</text>
</a>
</g>
</g>
<!-- H(S)&#45;&gt;CH4 -->
<g id="edge2" class="edge"><title>H(S)&#45;&gt;CH4</title>
<path fill="none" stroke="black" stroke-width="6" d="M105.564,-20.3127C196.957,-14.1651 421.982,-3.74712 607,-33.5 610.416,-34.0494 613.896,-34.725 617.388,-35.4944"/>
<polygon fill="black" stroke="black" stroke-width="6" points="615.157,-45.7649 637.171,-40.7004 620.502,-25.4563 615.157,-45.7649"/>
<text text-anchor="middle" x="371" y="-42.5" font-family="Times New Roman,serif" font-size="30.00"> &#160;&#160;9 &#160;&#160;100% &#160;&#160;5.44e&#45;06 mol/s &#160;&#160;&#160;3.20E&#45;01</text>
</g>
</g>
</svg>
