<?xml version="1.0" encoding="UTF-8" standalone="no"?>
<!DOCTYPE svg PUBLIC "-//W3C//DTD SVG 1.1//EN"
 "http://www.w3.org/Graphics/SVG/1.1/DTD/svg11.dtd">
<!-- Generated by graphviz version 2.38.0 (20140413.2041)
 -->
<!-- Title: G Pages: 1 -->
<svg width="596pt" height="100pt"
 viewBox="0.00 0.00 670.00 112.50" xmlns="http://www.w3.org/2000/svg" xmlns:xlink="http://www.w3.org/1999/xlink">
<g id="graph0" class="graph" transform="scale(0.888889 0.888889) rotate(0) translate(4 108.5)">
<title>G</title>
<polygon fill="white" stroke="none" points="-4,4 -4,-108.5 666,-108.5 666,4 -4,4"/>
<text text-anchor="middle" x="331" y="-71.7" font-family="Arial" font-size="36.00" fill="blue">Reaction Path Analysis</text>
<!-- H2 -->
<g id="node1" class="node"><title>H2</title>
<g id="a_node1"><a xlink:href="8.svg" xlink:title="H2">
<polygon fill="none" stroke="none" points="662,-47 603,-47 603,3.55271e-015 662,3.55271e-015 662,-47"/>
<text text-anchor="middle" x="632.5" y="-15" font-family="Times New Roman,serif" font-size="35.00">H2</text>
</a>
</g>
</g>
<!-- H(S) -->
<g id="node2" class="node"><title>H(S)</title>
<g id="a_node2"><a xlink:href="62.svg" xlink:title="H(S)">
<polygon fill="orange" stroke="none" points="85,-47 0,-47 0,3.55271e-015 85,3.55271e-015 85,-47"/>
<text text-anchor="middle" x="42.5" y="-15" font-family="Times New Roman,serif" font-size="35.00">H(S)</text>
</a>
</g>
</g>
<!-- H(S)&#45;&gt;H2 -->
<g id="edge1" class="edge"><title>H(S)&#45;&gt;H2</title>
<path fill="none" stroke="green" stroke-width="6" d="M85.3161,-23.5C191.207,-23.5 469.538,-23.5 582.654,-23.5"/>
<polygon fill="green" stroke="green" stroke-width="6" points="582.974,-34.0001 602.974,-23.5 582.974,-13.0001 582.974,-34.0001"/>
<text text-anchor="middle" x="337.5" y="-32.5" font-family="Times New Roman,serif" font-size="30.00"> &#160;&#160;10 &#160;&#160;100% &#160;&#160;7.94e&#45;06 mol/s &#160;&#160;&#160;5.00E&#45;01</text>
</g>
</g>
</svg>
