<?xml version="1.0" encoding="UTF-8" standalone="no"?>
<!DOCTYPE svg PUBLIC "-//W3C//DTD SVG 1.1//EN"
 "http://www.w3.org/Graphics/SVG/1.1/DTD/svg11.dtd">
<!-- Generated by graphviz version 2.38.0 (20140413.2041)
 -->
<!-- Title: test Pages: 1 -->
<svg width="152pt" height="95pt"
 viewBox="0.00 0.00 152.00 95.00" xmlns="http://www.w3.org/2000/svg" xmlns:xlink="http://www.w3.org/1999/xlink">
<g id="graph0" class="graph" transform="scale(1 1) rotate(0) translate(4 91)">
<title>test</title>
<polygon fill="white" stroke="none" points="-4,4 -4,-91 148,-91 148,4 -4,4"/>
<!-- legend -->
<g id="node1" class="node"><title>legend</title>
<polygon fill="none" stroke="black" points="18,-56.5 18,-79.5 126,-79.5 126,-56.5 18,-56.5"/>
<text text-anchor="start" x="48" y="-65.5" font-family="Times New Roman,serif" font-weight="bold" font-size="15.00">Legend</text>
<polygon fill="cornsilk" stroke="none" points="18,-31.5 18,-54.5 24,-54.5 24,-31.5 18,-31.5"/>
<polygon fill="none" stroke="black" points="18,-31.5 18,-54.5 24,-54.5 24,-31.5 18,-31.5"/>
<polygon fill="none" stroke="black" points="26,-31.5 26,-54.5 126,-54.5 126,-31.5 26,-31.5"/>
<text text-anchor="start" x="40" y="-39.5" font-family="Times New Roman,serif" font-size="15.00">Gas species</text>
<polygon fill="azure" stroke="none" points="18,-6.5 18,-29.5 24,-29.5 24,-6.5 18,-6.5"/>
<polygon fill="none" stroke="black" points="18,-6.5 18,-29.5 24,-29.5 24,-6.5 18,-6.5"/>
<polygon fill="none" stroke="black" points="26,-6.5 26,-29.5 126,-29.5 126,-6.5 26,-6.5"/>
<text text-anchor="start" x="29" y="-14.5" font-family="Times New Roman,serif" font-size="15.00">Surface species</text>
<polygon fill="none" stroke="black" points="15,-4 15,-83 129,-83 129,-4 15,-4"/>
</g>
</g>
</svg>
