<?xml version="1.0" encoding="UTF-8" standalone="no"?>
<!DOCTYPE svg PUBLIC "-//W3C//DTD SVG 1.1//EN"
 "http://www.w3.org/Graphics/SVG/1.1/DTD/svg11.dtd">
<!-- Generated by graphviz version 2.38.0 (20140413.2041)
 -->
<!-- Title: test Pages: 1 -->
<svg width="165pt" height="295pt"
 viewBox="0.00 0.00 165.00 295.00" xmlns="http://www.w3.org/2000/svg" xmlns:xlink="http://www.w3.org/1999/xlink">
<g id="graph0" class="graph" transform="scale(1 1) rotate(0) translate(4 291)">
<title>test</title>
<polygon fill="white" stroke="none" points="-4,4 -4,-291 161,-291 161,4 -4,4"/>
<!-- legend -->
<g id="node1" class="node"><title>legend</title>
<polygon fill="none" stroke="black" points="11.5,-256.5 11.5,-279.5 146.5,-279.5 146.5,-256.5 11.5,-256.5"/>
<text text-anchor="start" x="55" y="-265.5" font-family="Times New Roman,serif" font-weight="bold" font-size="15.00">Legend</text>
<polygon fill="coral" stroke="none" points="11.5,-231.5 11.5,-254.5 66.5,-254.5 66.5,-231.5 11.5,-231.5"/>
<polygon fill="none" stroke="black" points="11.5,-231.5 11.5,-254.5 66.5,-254.5 66.5,-231.5 11.5,-231.5"/>
<text text-anchor="start" x="14.5" y="-239.5" font-family="Times New Roman,serif" font-size="15.00"> &#160;&#160;&#160;&#160;&#160;&#160;&#160;&#160;&#160;&#160;&#160;&#160;</text>
<polygon fill="none" stroke="black" points="68.5,-231.5 68.5,-254.5 146.5,-254.5 146.5,-231.5 68.5,-231.5"/>
<text text-anchor="start" x="90" y="-239.5" font-family="Times New Roman,serif" font-size="15.00">0.85+</text>
<polygon fill="orangered" stroke="none" points="11.5,-206.5 11.5,-229.5 66.5,-229.5 66.5,-206.5 11.5,-206.5"/>
<polygon fill="none" stroke="black" points="11.5,-206.5 11.5,-229.5 66.5,-229.5 66.5,-206.5 11.5,-206.5"/>
<polygon fill="none" stroke="black" points="68.5,-206.5 68.5,-229.5 146.5,-229.5 146.5,-206.5 68.5,-206.5"/>
<text text-anchor="start" x="82" y="-214.5" font-family="Times New Roman,serif" font-size="15.00">0.7&#45;0.85</text>
<polygon fill="red" stroke="none" points="11.5,-181.5 11.5,-204.5 66.5,-204.5 66.5,-181.5 11.5,-181.5"/>
<polygon fill="none" stroke="black" points="11.5,-181.5 11.5,-204.5 66.5,-204.5 66.5,-181.5 11.5,-181.5"/>
<polygon fill="none" stroke="black" points="68.5,-181.5 68.5,-204.5 146.5,-204.5 146.5,-181.5 68.5,-181.5"/>
<text text-anchor="start" x="82" y="-189.5" font-family="Times New Roman,serif" font-size="15.00">0.55&#45;0.7</text>
<polygon fill="darkorange" stroke="none" points="11.5,-156.5 11.5,-179.5 66.5,-179.5 66.5,-156.5 11.5,-156.5"/>
<polygon fill="none" stroke="black" points="11.5,-156.5 11.5,-179.5 66.5,-179.5 66.5,-156.5 11.5,-156.5"/>
<polygon fill="none" stroke="black" points="68.5,-156.5 68.5,-179.5 146.5,-179.5 146.5,-156.5 68.5,-156.5"/>
<text text-anchor="start" x="82" y="-164.5" font-family="Times New Roman,serif" font-size="15.00">0.4&#45;0.55</text>
<polygon fill="orange" stroke="none" points="11.5,-131.5 11.5,-154.5 66.5,-154.5 66.5,-131.5 11.5,-131.5"/>
<polygon fill="none" stroke="black" points="11.5,-131.5 11.5,-154.5 66.5,-154.5 66.5,-131.5 11.5,-131.5"/>
<polygon fill="none" stroke="black" points="68.5,-131.5 68.5,-154.5 146.5,-154.5 146.5,-131.5 68.5,-131.5"/>
<text text-anchor="start" x="86" y="-139.5" font-family="Times New Roman,serif" font-size="15.00">0.2&#45;0.4</text>
<polygon fill="gold" stroke="none" points="11.5,-106.5 11.5,-129.5 66.5,-129.5 66.5,-106.5 11.5,-106.5"/>
<polygon fill="none" stroke="black" points="11.5,-106.5 11.5,-129.5 66.5,-129.5 66.5,-106.5 11.5,-106.5"/>
<polygon fill="none" stroke="black" points="68.5,-106.5 68.5,-129.5 146.5,-129.5 146.5,-106.5 68.5,-106.5"/>
<text text-anchor="start" x="86" y="-114.5" font-family="Times New Roman,serif" font-size="15.00">0.1&#45;0.2</text>
<polygon fill="lawngreen" stroke="none" points="11.5,-81.5 11.5,-104.5 66.5,-104.5 66.5,-81.5 11.5,-81.5"/>
<polygon fill="none" stroke="black" points="11.5,-81.5 11.5,-104.5 66.5,-104.5 66.5,-81.5 11.5,-81.5"/>
<polygon fill="none" stroke="black" points="68.5,-81.5 68.5,-104.5 146.5,-104.5 146.5,-81.5 68.5,-81.5"/>
<text text-anchor="start" x="82" y="-89.5" font-family="Times New Roman,serif" font-size="15.00">0.05&#45;0.1</text>
<polygon fill="green" stroke="none" points="11.5,-56.5 11.5,-79.5 66.5,-79.5 66.5,-56.5 11.5,-56.5"/>
<polygon fill="none" stroke="black" points="11.5,-56.5 11.5,-79.5 66.5,-79.5 66.5,-56.5 11.5,-56.5"/>
<polygon fill="none" stroke="black" points="68.5,-56.5 68.5,-79.5 146.5,-79.5 146.5,-56.5 68.5,-56.5"/>
<text text-anchor="start" x="77" y="-64.5" font-family="Times New Roman,serif" font-size="15.00">1E&#45;5&#45;0.05</text>
<polygon fill="dodgerblue" stroke="none" points="11.5,-31.5 11.5,-54.5 66.5,-54.5 66.5,-31.5 11.5,-31.5"/>
<polygon fill="none" stroke="black" points="11.5,-31.5 11.5,-54.5 66.5,-54.5 66.5,-31.5 11.5,-31.5"/>
<polygon fill="none" stroke="black" points="68.5,-31.5 68.5,-54.5 146.5,-54.5 146.5,-31.5 68.5,-31.5"/>
<text text-anchor="start" x="71.5" y="-39.5" font-family="Times New Roman,serif" font-size="15.00">1E&#45;10&#45;1E&#45;5</text>
<polygon fill="purple" stroke="none" points="11.5,-6.5 11.5,-29.5 66.5,-29.5 66.5,-6.5 11.5,-6.5"/>
<polygon fill="none" stroke="black" points="11.5,-6.5 11.5,-29.5 66.5,-29.5 66.5,-6.5 11.5,-6.5"/>
<polygon fill="none" stroke="black" points="68.5,-6.5 68.5,-29.5 146.5,-29.5 146.5,-6.5 68.5,-6.5"/>
<text text-anchor="start" x="77" y="-14.5" font-family="Times New Roman,serif" font-size="15.00">0.0&#45;1E&#45;10</text>
<polygon fill="none" stroke="black" points="8,-4 8,-283 149,-283 149,-4 8,-4"/>
</g>
</g>
</svg>
