<?xml version="1.0" encoding="UTF-8" standalone="no"?>
<!DOCTYPE svg PUBLIC "-//W3C//DTD SVG 1.1//EN"
 "http://www.w3.org/Graphics/SVG/1.1/DTD/svg11.dtd">
<!-- Generated by graphviz version 2.38.0 (20140413.2041)
 -->
<!-- Title: G Pages: 1 -->
<svg width="392pt" height="614pt"
 viewBox="0.00 0.00 441.00 691.00" xmlns="http://www.w3.org/2000/svg" xmlns:xlink="http://www.w3.org/1999/xlink">
<g id="graph0" class="graph" transform="scale(0.888889 0.888889) rotate(0) translate(4 687)">
<title>G</title>
<polygon fill="white" stroke="none" points="-4,4 -4,-687 437,-687 437,4 -4,4"/>
<text text-anchor="middle" x="216.5" y="-650.2" font-family="Arial" font-size="36.00" fill="blue">Reaction Path Analysis</text>
<!-- H(S1) -->
<g id="node1" class="node"><title>H(S1)</title>
<g id="a_node1"><a xlink:href="Species\7.svg" xlink:title="H(S1)">
<polygon fill="azure" stroke="none" points="216.5,-243 113.5,-243 113.5,-196 216.5,-196 216.5,-243"/>
<text text-anchor="middle" x="165" y="-211" font-family="Times New Roman,serif" font-size="35.00">H(S1)</text>
</a>
</g>
</g>
<!-- H2 -->
<g id="node2" class="node"><title>H2</title>
<g id="a_node2"><a xlink:href="Species\0.svg" xlink:title="H2">
<polygon fill="cornsilk" stroke="none" points="194.5,-145 135.5,-145 135.5,-98 194.5,-98 194.5,-145"/>
<text text-anchor="middle" x="165" y="-113" font-family="Times New Roman,serif" font-size="35.00">H2</text>
</a>
</g>
</g>
<!-- H(S1)&#45;&gt;H2 -->
<g id="edge1" class="edge"><title>H(S1)&#45;&gt;H2</title>
<path fill="none" stroke="green" stroke-width="8" d="M165,-195.749C165,-186.663 165,-175.889 165,-165.439"/>
<polygon fill="green" stroke="green" stroke-width="8" points="179,-165.087 165,-145.087 151,-165.087 179,-165.087"/>
<text text-anchor="middle" x="211.5" y="-163" font-family="Times New Roman,serif" font-size="30.00"> &#160;&#160;150%</text>
</g>
<!-- N2(S1) -->
<g id="node3" class="node"><title>N2(S1)</title>
<g id="a_node3"><a xlink:href="Species\5.svg" xlink:title="N2(S1)">
<polygon fill="azure" stroke="none" points="401,-145 279,-145 279,-98 401,-98 401,-145"/>
<text text-anchor="middle" x="340" y="-113" font-family="Times New Roman,serif" font-size="35.00">N2(S1)</text>
</a>
</g>
</g>
<!-- N2 -->
<g id="node4" class="node"><title>N2</title>
<g id="a_node4"><a xlink:href="Species\1.svg" xlink:title="N2">
<polygon fill="cornsilk" stroke="none" points="370,-47 310,-47 310,3.55271e-015 370,3.55271e-015 370,-47"/>
<text text-anchor="middle" x="340" y="-15" font-family="Times New Roman,serif" font-size="35.00">N2</text>
</a>
</g>
</g>
<!-- N2(S1)&#45;&gt;N2 -->
<g id="edge2" class="edge"><title>N2(S1)&#45;&gt;N2</title>
<path fill="none" stroke="green" stroke-width="3" d="M340,-97.7493C340,-85.6742 340,-70.6187 340,-57.3031"/>
<polygon fill="green" stroke="green" stroke-width="3" points="343.5,-57.0873 340,-47.0874 336.5,-57.0874 343.5,-57.0873"/>
<text text-anchor="middle" x="379" y="-65" font-family="Times New Roman,serif" font-size="30.00"> &#160;&#160;50%</text>
</g>
<!-- NH3 -->
<g id="node5" class="node"><title>NH3</title>
<g id="a_node5"><a xlink:href="Species\2.svg" xlink:title="NH3">
<polygon fill="cornsilk" stroke="none" points="115.5,-635 30.5,-635 30.5,-588 115.5,-588 115.5,-635"/>
<text text-anchor="middle" x="73" y="-603" font-family="Times New Roman,serif" font-size="35.00">NH3</text>
</a>
</g>
</g>
<!-- NH3(S1) -->
<g id="node6" class="node"><title>NH3(S1)</title>
<g id="a_node6"><a xlink:href="Species\8.svg" xlink:title="NH3(S1)">
<polygon fill="azure" stroke="none" points="146,-537 0,-537 0,-490 146,-490 146,-537"/>
<text text-anchor="middle" x="73" y="-505" font-family="Times New Roman,serif" font-size="35.00">NH3(S1)</text>
</a>
</g>
</g>
<!-- NH3&#45;&gt;NH3(S1) -->
<g id="edge3" class="edge"><title>NH3&#45;&gt;NH3(S1)</title>
<path fill="none" stroke="green" stroke-width="6" d="M73,-587.749C73,-575.674 73,-560.619 73,-547.303"/>
<polygon fill="green" stroke="green" stroke-width="6" points="78.2501,-547.087 73,-537.087 67.7501,-547.087 78.2501,-547.087"/>
<text text-anchor="middle" x="119.5" y="-555" font-family="Times New Roman,serif" font-size="30.00"> &#160;&#160;100%</text>
</g>
<!-- NH3(S1)&#45;&gt;H(S1) -->
<g id="edge5" class="edge"><title>NH3(S1)&#45;&gt;H(S1)</title>
<path fill="none" stroke="black" stroke-width="6" d="M67.5263,-489.981C60.7934,-457.946 52.0826,-397.801 68,-350 80.8929,-311.281 110.391,-274.803 133.496,-250.491"/>
<polygon fill="black" stroke="black" stroke-width="6" points="137.536,-253.867 140.743,-243.038 130.008,-246.547 137.536,-253.867"/>
<text text-anchor="middle" x="114.5" y="-359" font-family="Times New Roman,serif" font-size="30.00"> &#160;&#160;100%</text>
</g>
<!-- NH2(S1) -->
<g id="node8" class="node"><title>NH2(S1)</title>
<g id="a_node8"><a xlink:href="Species\9.svg" xlink:title="NH2(S1)">
<polygon fill="azure" stroke="none" points="238,-439 92,-439 92,-392 238,-392 238,-439"/>
<text text-anchor="middle" x="165" y="-407" font-family="Times New Roman,serif" font-size="35.00">NH2(S1)</text>
</a>
</g>
</g>
<!-- NH3(S1)&#45;&gt;NH2(S1) -->
<g id="edge6" class="edge"><title>NH3(S1)&#45;&gt;NH2(S1)</title>
<path fill="none" stroke="black" stroke-width="6" d="M94.8027,-489.749C107.177,-476.837 122.817,-460.518 136.191,-446.561"/>
<polygon fill="black" stroke="black" stroke-width="6" points="140.225,-449.94 143.354,-439.087 132.644,-442.675 140.225,-449.94"/>
<text text-anchor="middle" x="179.5" y="-457" font-family="Times New Roman,serif" font-size="30.00"> &#160;&#160;100%</text>
</g>
<!-- N(S1) -->
<g id="node7" class="node"><title>N(S1)</title>
<g id="a_node7"><a xlink:href="Species\6.svg" xlink:title="N(S1)">
<polygon fill="azure" stroke="none" points="392,-243 288,-243 288,-196 392,-196 392,-243"/>
<text text-anchor="middle" x="340" y="-211" font-family="Times New Roman,serif" font-size="35.00">N(S1)</text>
</a>
</g>
</g>
<!-- N(S1)&#45;&gt;N2(S1) -->
<g id="edge4" class="edge"><title>N(S1)&#45;&gt;N2(S1)</title>
<path fill="none" stroke="black" stroke-width="3" d="M340,-195.749C340,-183.674 340,-168.619 340,-155.303"/>
<polygon fill="black" stroke="black" stroke-width="3" points="343.5,-155.087 340,-145.087 336.5,-155.087 343.5,-155.087"/>
<text text-anchor="middle" x="379" y="-163" font-family="Times New Roman,serif" font-size="30.00"> &#160;&#160;50%</text>
</g>
<!-- NH2(S1)&#45;&gt;H(S1) -->
<g id="edge7" class="edge"><title>NH2(S1)&#45;&gt;H(S1)</title>
<path fill="none" stroke="green" stroke-width="6" d="M165,-391.866C165,-357.715 165,-292.83 165,-253.438"/>
<polygon fill="green" stroke="green" stroke-width="6" points="170.25,-253.29 165,-243.29 159.75,-253.29 170.25,-253.29"/>
<text text-anchor="middle" x="211.5" y="-310" font-family="Times New Roman,serif" font-size="30.00"> &#160;&#160;100%</text>
</g>
<!-- NH(S1) -->
<g id="node9" class="node"><title>NH(S1)</title>
<g id="a_node9"><a xlink:href="Species\10.svg" xlink:title="NH(S1)">
<polygon fill="azure" stroke="none" points="404,-341 276,-341 276,-294 404,-294 404,-341"/>
<text text-anchor="middle" x="340" y="-309" font-family="Times New Roman,serif" font-size="35.00">NH(S1)</text>
</a>
</g>
</g>
<!-- NH2(S1)&#45;&gt;NH(S1) -->
<g id="edge8" class="edge"><title>NH2(S1)&#45;&gt;NH(S1)</title>
<path fill="none" stroke="green" stroke-width="6" d="M206.03,-391.992C231.172,-378.2 263.524,-360.452 290.138,-345.853"/>
<polygon fill="green" stroke="green" stroke-width="6" points="292.682,-350.445 298.925,-341.033 287.632,-341.24 292.682,-350.445"/>
<text text-anchor="middle" x="324.5" y="-359" font-family="Times New Roman,serif" font-size="30.00"> &#160;&#160;100%</text>
</g>
<!-- NH(S1)&#45;&gt;H(S1) -->
<g id="edge9" class="edge"><title>NH(S1)&#45;&gt;H(S1)</title>
<path fill="none" stroke="green" stroke-width="6" d="M275.8,-297.635C261.9,-293.094 249.44,-288.539 243,-285 225.878,-275.591 208.917,-262.19 195.205,-250.037"/>
<polygon fill="green" stroke="green" stroke-width="6" points="198.463,-245.904 187.531,-243.067 191.403,-253.677 198.463,-245.904"/>
<text text-anchor="middle" x="289.5" y="-261" font-family="Times New Roman,serif" font-size="30.00"> &#160;&#160;100%</text>
</g>
<!-- NH(S1)&#45;&gt;N(S1) -->
<g id="edge10" class="edge"><title>NH(S1)&#45;&gt;N(S1)</title>
<path fill="none" stroke="green" stroke-width="6" d="M340,-293.749C340,-281.674 340,-266.619 340,-253.303"/>
<polygon fill="green" stroke="green" stroke-width="6" points="345.25,-253.087 340,-243.087 334.75,-253.087 345.25,-253.087"/>
<text text-anchor="middle" x="386.5" y="-261" font-family="Times New Roman,serif" font-size="30.00"> &#160;&#160;100%</text>
</g>
</g>
</svg>
