<?xml version="1.0" encoding="UTF-8" standalone="no"?>
<!DOCTYPE svg PUBLIC "-//W3C//DTD SVG 1.1//EN"
 "http://www.w3.org/Graphics/SVG/1.1/DTD/svg11.dtd">
<!-- Generated by graphviz version 2.38.0 (20140413.2041)
 -->
<!-- Title: G Pages: 1 -->
<svg width="606pt" height="100pt"
 viewBox="0.00 0.00 682.00 112.50" xmlns="http://www.w3.org/2000/svg" xmlns:xlink="http://www.w3.org/1999/xlink">
<g id="graph0" class="graph" transform="scale(0.888889 0.888889) rotate(0) translate(4 108.5)">
<title>G</title>
<polygon fill="white" stroke="none" points="-4,4 -4,-108.5 678,-108.5 678,4 -4,4"/>
<text text-anchor="middle" x="337" y="-71.7" font-family="Arial" font-size="36.00" fill="blue">Reaction Path Analysis</text>
<!-- H2 -->
<g id="node1" class="node"><title>H2</title>
<g id="a_node1"><a xlink:href="0.svg" xlink:title="H2">
<polygon fill="cornsilk" stroke="none" points="674,-47 615,-47 615,3.55271e-015 674,3.55271e-015 674,-47"/>
<text text-anchor="middle" x="644.5" y="-15" font-family="Times New Roman,serif" font-size="35.00">H2</text>
</a>
</g>
</g>
<!-- H(S1) -->
<g id="node2" class="node"><title>H(S1)</title>
<g id="a_node2"><a xlink:href="7.svg" xlink:title="H(S1)">
<polygon fill="azure" stroke="none" points="103,-47 0,-47 0,3.55271e-015 103,3.55271e-015 103,-47"/>
<text text-anchor="middle" x="51.5" y="-15" font-family="Times New Roman,serif" font-size="35.00">H(S1)</text>
</a>
</g>
</g>
<!-- H(S1)&#45;&gt;H2 -->
<g id="edge1" class="edge"><title>H(S1)&#45;&gt;H2</title>
<path fill="none" stroke="green" stroke-width="6" d="M103.144,-23.5C215.465,-23.5 484.238,-23.5 594.764,-23.5"/>
<polygon fill="green" stroke="green" stroke-width="6" points="594.959,-34.0001 614.959,-23.5 594.959,-13.0001 594.959,-34.0001"/>
<text text-anchor="middle" x="348" y="-32.5" font-family="Times New Roman,serif" font-size="30.00"> &#160;&#160;0 &#160;&#160;100% &#160;&#160;3.51e&#45;08 mol/s &#160;&#160;&#160;5.00E&#45;01</text>
</g>
</g>
</svg>
