<?xml version="1.0" encoding="UTF-8" standalone="no"?>
<!DOCTYPE svg PUBLIC "-//W3C//DTD SVG 1.1//EN"
 "http://www.w3.org/Graphics/SVG/1.1/DTD/svg11.dtd">
<!-- Generated by graphviz version 2.38.0 (20140413.2041)
 -->
<!-- Title: G Pages: 1 -->
<svg width="632pt" height="100pt"
 viewBox="0.00 0.00 711.00 112.50" xmlns="http://www.w3.org/2000/svg" xmlns:xlink="http://www.w3.org/1999/xlink">
<g id="graph0" class="graph" transform="scale(0.888889 0.888889) rotate(0) translate(4 108.5)">
<title>G</title>
<polygon fill="white" stroke="none" points="-4,4 -4,-108.5 707,-108.5 707,4 -4,4"/>
<text text-anchor="middle" x="351.5" y="-71.7" font-family="Arial" font-size="36.00" fill="blue">Reaction Path Analysis</text>
<!-- N2 -->
<g id="node1" class="node"><title>N2</title>
<g id="a_node1"><a xlink:href="1.svg" xlink:title="N2">
<polygon fill="cornsilk" stroke="none" points="703,-47 643,-47 643,3.55271e-015 703,3.55271e-015 703,-47"/>
<text text-anchor="middle" x="673" y="-15" font-family="Times New Roman,serif" font-size="35.00">N2</text>
</a>
</g>
</g>
<!-- N2(S1) -->
<g id="node2" class="node"><title>N2(S1)</title>
<g id="a_node2"><a xlink:href="5.svg" xlink:title="N2(S1)">
<polygon fill="azure" stroke="none" points="122,-47 7.10543e-015,-47 7.10543e-015,3.55271e-015 122,3.55271e-015 122,-47"/>
<text text-anchor="middle" x="61" y="-15" font-family="Times New Roman,serif" font-size="35.00">N2(S1)</text>
</a>
</g>
</g>
<!-- N2(S1)&#45;&gt;N2 -->
<g id="edge1" class="edge"><title>N2(S1)&#45;&gt;N2</title>
<path fill="none" stroke="green" stroke-width="6" d="M122.159,-23.5C242.638,-23.5 511.471,-23.5 622.532,-23.5"/>
<polygon fill="green" stroke="green" stroke-width="6" points="622.845,-34.0001 642.845,-23.5 622.845,-13.0001 622.845,-34.0001"/>
<text text-anchor="middle" x="367" y="-32.5" font-family="Times New Roman,serif" font-size="30.00"> &#160;&#160;1 &#160;&#160;100% &#160;&#160;1.17e&#45;08 mol/s &#160;&#160;&#160;5.00E&#45;01</text>
</g>
</g>
</svg>
