<?xml version="1.0" encoding="UTF-8" standalone="no"?>
<!DOCTYPE svg PUBLIC "-//W3C//DTD SVG 1.1//EN"
 "http://www.w3.org/Graphics/SVG/1.1/DTD/svg11.dtd">
<!-- Generated by graphviz version 2.38.0 (20140413.2041)
 -->
<!-- Title: G Pages: 1 -->
<svg width="640pt" height="95pt"
 viewBox="0.00 0.00 720.00 106.65" xmlns="http://www.w3.org/2000/svg" xmlns:xlink="http://www.w3.org/1999/xlink">
<g id="graph0" class="graph" transform="scale(0.84266 0.84266) rotate(0) translate(4 108.5)">
<title>G</title>
<polygon fill="white" stroke="none" points="-4,4 -4,-108.5 755.5,-108.5 755.5,4 -4,4"/>
<text text-anchor="middle" x="375.75" y="-71.7" font-family="Arial" font-size="36.00" fill="blue">Reaction Path Analysis</text>
<!-- NH3 -->
<g id="node1" class="node"><title>NH3</title>
<g id="a_node1"><a xlink:href="2.svg" xlink:title="NH3">
<polygon fill="cornsilk" stroke="none" points="85,-47 0,-47 0,3.55271e-015 85,3.55271e-015 85,-47"/>
<text text-anchor="middle" x="42.5" y="-15" font-family="Times New Roman,serif" font-size="35.00">NH3</text>
</a>
</g>
</g>
<!-- NH3(S1) -->
<g id="node2" class="node"><title>NH3(S1)</title>
<g id="a_node2"><a xlink:href="8.svg" xlink:title="NH3(S1)">
<polygon fill="azure" stroke="none" points="751.5,-47 605.5,-47 605.5,3.55271e-015 751.5,3.55271e-015 751.5,-47"/>
<text text-anchor="middle" x="678.5" y="-15" font-family="Times New Roman,serif" font-size="35.00">NH3(S1)</text>
</a>
</g>
</g>
<!-- NH3&#45;&gt;NH3(S1) -->
<g id="edge1" class="edge"><title>NH3&#45;&gt;NH3(S1)</title>
<path fill="none" stroke="green" stroke-width="6" d="M85.0985,-23.5C185.954,-23.5 445.463,-23.5 585.172,-23.5"/>
<polygon fill="green" stroke="green" stroke-width="6" points="585.293,-34.0001 605.293,-23.5 585.293,-13.0001 585.293,-34.0001"/>
<text text-anchor="middle" x="360.5" y="-32.5" font-family="Times New Roman,serif" font-size="30.00"> &#160;&#160;2 &#160;&#160;100% &#160;&#160;2.34e&#45;08 mol/s &#160;&#160;&#160;5.00E&#45;01</text>
</g>
</g>
</svg>
