<?xml version="1.0" encoding="UTF-8" standalone="no"?>
<!DOCTYPE svg PUBLIC "-//W3C//DTD SVG 1.1//EN"
 "http://www.w3.org/Graphics/SVG/1.1/DTD/svg11.dtd">
<!-- Generated by graphviz version 2.38.0 (20140413.2041)
 -->
<!-- Title: G Pages: 1 -->
<svg width="640pt" height="153pt"
 viewBox="0.00 0.00 720.00 171.82" xmlns="http://www.w3.org/2000/svg" xmlns:xlink="http://www.w3.org/1999/xlink">
<g id="graph0" class="graph" transform="scale(0.462428 0.462428) rotate(0) translate(4 326.271)">
<title>G</title>
<polygon fill="white" stroke="none" points="-4,4 -4,-326.271 1380,-326.271 1380,4 -4,4"/>
<text text-anchor="middle" x="688" y="-289.471" font-family="Arial" font-size="36.00" fill="blue">Reaction Path Analysis</text>
<!-- RU(B) -->
<g id="node1" class="node"><title>RU(B)</title>
<g id="a_node1"><a xlink:href="3.svg" xlink:title="RU(B)">
<polygon fill="azure" stroke="none" points="750,-148.771 638,-148.771 638,-101.771 750,-101.771 750,-148.771"/>
<text text-anchor="middle" x="694" y="-116.771" font-family="Times New Roman,serif" font-size="35.00">RU(B)</text>
</a>
</g>
</g>
<!-- H2 -->
<g id="node2" class="node"><title>H2</title>
<g id="a_node2"><a xlink:href="0.svg" xlink:title="H2">
<polygon fill="cornsilk" stroke="none" points="1344.5,-213.771 1285.5,-213.771 1285.5,-166.771 1344.5,-166.771 1344.5,-213.771"/>
<text text-anchor="middle" x="1315" y="-181.771" font-family="Times New Roman,serif" font-size="35.00">H2</text>
</a>
</g>
</g>
<!-- RU(B)&#45;&gt;H2 -->
<g id="edge1" class="edge"><title>RU(B)&#45;&gt;H2</title>
<path fill="none" stroke="green" stroke-width="4" d="M738.902,-148.942C750.64,-154.255 763.537,-159.218 776,-162.271 952.142,-205.421 1170.09,-199.27 1265.47,-193.746"/>
<polygon fill="green" stroke="green" stroke-width="4" points="1265.93,-200.731 1285.45,-192.49 1265.06,-186.758 1265.93,-200.731"/>
<text text-anchor="middle" x="1004.5" y="-206.271" font-family="Times New Roman,serif" font-size="30.00"> &#160;&#160;0 &#160;&#160;74% &#160;&#160;3.51e&#45;08 mol/s &#160;&#160;&#160;5.00E&#45;01</text>
</g>
<!-- N2 -->
<g id="node3" class="node"><title>N2</title>
<g id="a_node3"><a xlink:href="1.svg" xlink:title="N2">
<polygon fill="cornsilk" stroke="none" points="1345,-148.771 1285,-148.771 1285,-101.771 1345,-101.771 1345,-148.771"/>
<text text-anchor="middle" x="1315" y="-116.771" font-family="Times New Roman,serif" font-size="35.00">N2</text>
</a>
</g>
</g>
<!-- RU(B)&#45;&gt;N2 -->
<g id="edge2" class="edge"><title>RU(B)&#45;&gt;N2</title>
<path fill="none" stroke="green" d="M750.204,-125.271C873.371,-125.271 1168.14,-125.271 1274.71,-125.271"/>
<polygon fill="green" stroke="green" points="1274.72,-128.771 1284.72,-125.271 1274.72,-121.771 1274.72,-128.771"/>
<text text-anchor="middle" x="1004.5" y="-134.271" font-family="Times New Roman,serif" font-size="30.00"> &#160;&#160;1 &#160;&#160;12% &#160;&#160;1.17e&#45;08 mol/s &#160;&#160;&#160;5.00E&#45;01</text>
</g>
<!-- N2(S1) -->
<g id="node8" class="node"><title>N2(S1)</title>
<g id="a_node8"><a xlink:href="5.svg" xlink:title="N2(S1)">
<polygon fill="azure" stroke="none" points="1376,-83.7713 1254,-83.7713 1254,-36.7713 1376,-36.7713 1376,-83.7713"/>
<text text-anchor="middle" x="1315" y="-51.7713" font-family="Times New Roman,serif" font-size="35.00">N2(S1)</text>
</a>
</g>
</g>
<!-- RU(B)&#45;&gt;N2(S1) -->
<g id="edge7" class="edge"><title>RU(B)&#45;&gt;N2(S1)</title>
<path fill="none" stroke="black" d="M738.902,-101.6C750.64,-96.2873 763.537,-91.3245 776,-88.2713 939.743,-48.1588 1139.62,-50.6512 1243.57,-55.6386"/>
<polygon fill="black" stroke="black" points="1243.47,-59.1378 1253.63,-56.1437 1243.82,-52.1466 1243.47,-59.1378"/>
<text text-anchor="middle" x="1004.5" y="-97.2713" font-family="Times New Roman,serif" font-size="30.00"> &#160;&#160;6 &#160;&#160;12% &#160;&#160;1.17e&#45;08 mol/s &#160;&#160;&#160;5.92E&#45;06</text>
</g>
<!-- NH3 -->
<g id="node4" class="node"><title>NH3</title>
<g id="a_node4"><a xlink:href="2.svg" xlink:title="NH3">
<polygon fill="cornsilk" stroke="none" points="115.5,-246.771 30.5,-246.771 30.5,-199.771 115.5,-199.771 115.5,-246.771"/>
<text text-anchor="middle" x="73" y="-214.771" font-family="Times New Roman,serif" font-size="35.00">NH3</text>
</a>
</g>
</g>
<!-- NH3&#45;&gt;RU(B) -->
<g id="edge3" class="edge"><title>NH3&#45;&gt;RU(B)</title>
<path fill="none" stroke="green" stroke-width="2" d="M115.694,-229.573C208.678,-241.82 438.481,-261.982 612,-193.271 632.207,-185.27 651.044,-170.13 665.459,-156.164"/>
<polygon fill="green" stroke="green" stroke-width="2" points="668.004,-158.568 672.577,-149.011 663.042,-153.63 668.004,-158.568"/>
<text text-anchor="middle" x="383.5" y="-250.271" font-family="Times New Roman,serif" font-size="30.00"> &#160;&#160;2 &#160;&#160;25% &#160;&#160;2.34e&#45;08 mol/s &#160;&#160;&#160;5.00E&#45;01</text>
</g>
<!-- NH3(S1) -->
<g id="node5" class="node"><title>NH3(S1)</title>
<g id="a_node5"><a xlink:href="8.svg" xlink:title="NH3(S1)">
<polygon fill="azure" stroke="none" points="146,-181.771 0,-181.771 0,-134.771 146,-134.771 146,-181.771"/>
<text text-anchor="middle" x="73" y="-149.771" font-family="Times New Roman,serif" font-size="35.00">NH3(S1)</text>
</a>
</g>
</g>
<!-- NH3(S1)&#45;&gt;RU(B) -->
<g id="edge4" class="edge"><title>NH3(S1)&#45;&gt;RU(B)</title>
<path fill="none" stroke="black" stroke-width="2" d="M146.365,-157.472C249.795,-155.839 445.781,-150.924 612,-136.271 617.083,-135.823 622.335,-135.284 627.61,-134.688"/>
<polygon fill="black" stroke="black" stroke-width="2" points="628.226,-138.14 637.742,-133.482 627.398,-131.189 628.226,-138.14"/>
<text text-anchor="middle" x="383.5" y="-165.271" font-family="Times New Roman,serif" font-size="30.00"> &#160;&#160;3 &#160;&#160;25% &#160;&#160;2.34e&#45;08 mol/s &#160;&#160;&#160;9.41E&#45;01</text>
</g>
<!-- NH2(S1) -->
<g id="node6" class="node"><title>NH2(S1)</title>
<g id="a_node6"><a xlink:href="9.svg" xlink:title="NH2(S1)">
<polygon fill="azure" stroke="none" points="146,-116.771 0,-116.771 0,-69.7713 146,-69.7713 146,-116.771"/>
<text text-anchor="middle" x="73" y="-84.7713" font-family="Times New Roman,serif" font-size="35.00">NH2(S1)</text>
</a>
</g>
</g>
<!-- NH2(S1)&#45;&gt;RU(B) -->
<g id="edge5" class="edge"><title>NH2(S1)&#45;&gt;RU(B)</title>
<path fill="none" stroke="green" stroke-width="2" d="M146.244,-89.0024C249.936,-84.1437 446.692,-79.656 612,-103.271 617.099,-104 622.333,-104.946 627.569,-106.037"/>
<polygon fill="green" stroke="green" stroke-width="2" points="627.08,-109.514 637.605,-108.292 628.615,-102.685 627.08,-109.514"/>
<text text-anchor="middle" x="383.5" y="-112.271" font-family="Times New Roman,serif" font-size="30.00"> &#160;&#160;4 &#160;&#160;25% &#160;&#160;2.34e&#45;08 mol/s &#160;&#160;&#160;5.01E&#45;01</text>
</g>
<!-- NH(S1) -->
<g id="node7" class="node"><title>NH(S1)</title>
<g id="a_node7"><a xlink:href="10.svg" xlink:title="NH(S1)">
<polygon fill="azure" stroke="none" points="137,-51.7713 9,-51.7713 9,-4.77132 137,-4.77132 137,-51.7713"/>
<text text-anchor="middle" x="73" y="-19.7713" font-family="Times New Roman,serif" font-size="35.00">NH(S1)</text>
</a>
</g>
</g>
<!-- NH(S1)&#45;&gt;RU(B) -->
<g id="edge6" class="edge"><title>NH(S1)&#45;&gt;RU(B)</title>
<path fill="none" stroke="green" stroke-width="2" d="M137.196,-16.4728C241.033,-0.0845931 452.162,20.4798 612,-47.2713 635.016,-57.0271 655.272,-76.5378 669.771,-93.6042"/>
<polygon fill="green" stroke="green" stroke-width="2" points="667.376,-96.2038 676.414,-101.732 672.796,-91.7744 667.376,-96.2038"/>
<text text-anchor="middle" x="383.5" y="-56.2713" font-family="Times New Roman,serif" font-size="30.00"> &#160;&#160;5 &#160;&#160;25% &#160;&#160;2.34e&#45;08 mol/s &#160;&#160;&#160;5.00E&#45;01</text>
</g>
</g>
</svg>
