<?xml version="1.0" encoding="UTF-8" standalone="no"?>
<!DOCTYPE svg PUBLIC "-//W3C//DTD SVG 1.1//EN"
 "http://www.w3.org/Graphics/SVG/1.1/DTD/svg11.dtd">
<!-- Generated by graphviz version 2.38.0 (20140413.2041)
 -->
<!-- Title: G Pages: 1 -->
<svg width="640pt" height="269pt"
 viewBox="0.00 0.00 720.00 302.40" xmlns="http://www.w3.org/2000/svg" xmlns:xlink="http://www.w3.org/1999/xlink">
<g id="graph0" class="graph" transform="scale(0.462428 0.462428) rotate(0) translate(4 577.275)">
<title>G</title>
<polygon fill="white" stroke="none" points="-4,4 -4,-577.275 1380,-577.275 1380,4 -4,4"/>
<text text-anchor="middle" x="688" y="-540.475" font-family="Arial" font-size="36.00" fill="blue">Reaction Path Analysis</text>
<!-- RU(S1) -->
<g id="node1" class="node"><title>RU(S1)</title>
<g id="a_node1"><a xlink:href="4.svg" xlink:title="RU(S1)">
<polygon fill="azure" stroke="none" points="745,-279.775 619,-279.775 619,-232.775 745,-232.775 745,-279.775"/>
<text text-anchor="middle" x="682" y="-247.775" font-family="Times New Roman,serif" font-size="35.00">RU(S1)</text>
</a>
</g>
</g>
<!-- H(S1) -->
<g id="node2" class="node"><title>H(S1)</title>
<g id="a_node2"><a xlink:href="7.svg" xlink:title="H(S1)">
<polygon fill="azure" stroke="none" points="1354.5,-419.775 1251.5,-419.775 1251.5,-372.775 1354.5,-372.775 1354.5,-419.775"/>
<text text-anchor="middle" x="1303" y="-387.775" font-family="Times New Roman,serif" font-size="35.00">H(S1)</text>
</a>
</g>
</g>
<!-- RU(S1)&#45;&gt;H(S1) -->
<g id="edge4" class="edge"><title>RU(S1)&#45;&gt;H(S1)</title>
<path fill="none" stroke="black" stroke-width="2" d="M684.358,-279.872C688.312,-323.841 703.754,-417.524 764,-458.275 848.119,-515.174 1124.81,-490.861 1221,-458.275 1239.96,-451.85 1257.98,-439.007 1272.18,-426.668"/>
<polygon fill="black" stroke="black" stroke-width="2" points="1274.59,-429.21 1279.66,-419.908 1269.89,-424.016 1274.59,-429.21"/>
<text text-anchor="middle" x="992.5" y="-501.275" font-family="Times New Roman,serif" font-size="30.00"> &#160;&#160;3 &#160;&#160;25% &#160;&#160;2.34e&#45;08 mol/s &#160;&#160;&#160;9.41E&#45;01</text>
</g>
<!-- RU(S1)&#45;&gt;H(S1) -->
<g id="edge6" class="edge"><title>RU(S1)&#45;&gt;H(S1)</title>
<path fill="none" stroke="green" stroke-width="2" d="M688.216,-279.954C697.138,-314.034 718.914,-375.728 764,-402.275 807.756,-428.038 1170.26,-404.151 1221,-402.275 1227.63,-402.029 1234.55,-401.672 1241.44,-401.251"/>
<polygon fill="green" stroke="green" stroke-width="2" points="1241.73,-404.741 1251.48,-400.596 1241.27,-397.755 1241.73,-404.741"/>
<text text-anchor="middle" x="992.5" y="-422.275" font-family="Times New Roman,serif" font-size="30.00"> &#160;&#160;4 &#160;&#160;25% &#160;&#160;2.34e&#45;08 mol/s &#160;&#160;&#160;5.01E&#45;01</text>
</g>
<!-- RU(S1)&#45;&gt;H(S1) -->
<g id="edge8" class="edge"><title>RU(S1)&#45;&gt;H(S1)</title>
<path fill="none" stroke="green" stroke-width="2" d="M696.574,-279.939C710.437,-301.557 734.137,-332.224 764,-346.275 809.986,-367.911 1171.23,-355.002 1221,-365.275 1227.74,-366.665 1234.65,-368.547 1241.46,-370.7"/>
<polygon fill="green" stroke="green" stroke-width="2" points="1240.74,-374.15 1251.33,-374.023 1242.97,-367.516 1240.74,-374.15"/>
<text text-anchor="middle" x="992.5" y="-374.275" font-family="Times New Roman,serif" font-size="30.00"> &#160;&#160;5 &#160;&#160;25% &#160;&#160;2.34e&#45;08 mol/s &#160;&#160;&#160;5.00E&#45;01</text>
</g>
<!-- NH3(S1) -->
<g id="node4" class="node"><title>NH3(S1)</title>
<g id="a_node4"><a xlink:href="8.svg" xlink:title="NH3(S1)">
<polygon fill="azure" stroke="none" points="1376,-288.775 1230,-288.775 1230,-241.775 1376,-241.775 1376,-288.775"/>
<text text-anchor="middle" x="1303" y="-256.775" font-family="Times New Roman,serif" font-size="35.00">NH3(S1)</text>
</a>
</g>
</g>
<!-- RU(S1)&#45;&gt;NH3(S1) -->
<g id="edge3" class="edge"><title>RU(S1)&#45;&gt;NH3(S1)</title>
<path fill="none" stroke="green" stroke-width="2" d="M745.182,-254.443C843.555,-251.976 1041.37,-248.757 1219.52,-257.279"/>
<polygon fill="green" stroke="green" stroke-width="2" points="1219.44,-260.779 1229.6,-257.775 1219.79,-253.787 1219.44,-260.779"/>
<text text-anchor="middle" x="992.5" y="-266.275" font-family="Times New Roman,serif" font-size="30.00"> &#160;&#160;2 &#160;&#160;25% &#160;&#160;2.34e&#45;08 mol/s &#160;&#160;&#160;5.00E&#45;01</text>
</g>
<!-- NH2(S1) -->
<g id="node5" class="node"><title>NH2(S1)</title>
<g id="a_node5"><a xlink:href="9.svg" xlink:title="NH2(S1)">
<polygon fill="azure" stroke="none" points="1376,-223.775 1230,-223.775 1230,-176.775 1376,-176.775 1376,-223.775"/>
<text text-anchor="middle" x="1303" y="-191.775" font-family="Times New Roman,serif" font-size="35.00">NH2(S1)</text>
</a>
</g>
</g>
<!-- RU(S1)&#45;&gt;NH2(S1) -->
<g id="edge5" class="edge"><title>RU(S1)&#45;&gt;NH2(S1)</title>
<path fill="none" stroke="black" stroke-width="2" d="M721.183,-232.604C734.275,-225.687 749.333,-218.992 764,-215.275 921.282,-175.411 1112.73,-182.726 1219.63,-191.557"/>
<polygon fill="black" stroke="black" stroke-width="2" points="1219.44,-195.054 1229.7,-192.415 1220.04,-188.079 1219.44,-195.054"/>
<text text-anchor="middle" x="992.5" y="-224.275" font-family="Times New Roman,serif" font-size="30.00"> &#160;&#160;3 &#160;&#160;25% &#160;&#160;2.34e&#45;08 mol/s &#160;&#160;&#160;9.41E&#45;01</text>
</g>
<!-- NH(S1) -->
<g id="node6" class="node"><title>NH(S1)</title>
<g id="a_node6"><a xlink:href="10.svg" xlink:title="NH(S1)">
<polygon fill="azure" stroke="none" points="1367,-158.775 1239,-158.775 1239,-111.775 1367,-111.775 1367,-158.775"/>
<text text-anchor="middle" x="1303" y="-126.775" font-family="Times New Roman,serif" font-size="35.00">NH(S1)</text>
</a>
</g>
</g>
<!-- RU(S1)&#45;&gt;NH(S1) -->
<g id="edge7" class="edge"><title>RU(S1)&#45;&gt;NH(S1)</title>
<path fill="none" stroke="green" stroke-width="2" d="M692.947,-232.69C705.337,-206.698 729.206,-166.2 764,-148.275 804.185,-127.572 1091.08,-130.741 1228.71,-133.521"/>
<polygon fill="green" stroke="green" stroke-width="2" points="1228.68,-137.021 1238.75,-133.728 1228.83,-130.022 1228.68,-137.021"/>
<text text-anchor="middle" x="992.5" y="-157.275" font-family="Times New Roman,serif" font-size="30.00"> &#160;&#160;4 &#160;&#160;25% &#160;&#160;2.34e&#45;08 mol/s &#160;&#160;&#160;5.01E&#45;01</text>
</g>
<!-- N(S1) -->
<g id="node7" class="node"><title>N(S1)</title>
<g id="a_node7"><a xlink:href="6.svg" xlink:title="N(S1)">
<polygon fill="azure" stroke="none" points="1355,-74.7746 1251,-74.7746 1251,-27.7746 1355,-27.7746 1355,-74.7746"/>
<text text-anchor="middle" x="1303" y="-42.7746" font-family="Times New Roman,serif" font-size="35.00">N(S1)</text>
</a>
</g>
</g>
<!-- RU(S1)&#45;&gt;N(S1) -->
<g id="edge9" class="edge"><title>RU(S1)&#45;&gt;N(S1)</title>
<path fill="none" stroke="green" stroke-width="2" d="M687.22,-232.765C695.138,-196.304 715.97,-127.019 764,-95.2746 806.447,-67.2203 1170.51,-72.5292 1221,-66.2746 1227.33,-65.49 1233.92,-64.5232 1240.48,-63.4615"/>
<polygon fill="green" stroke="green" stroke-width="2" points="1241.45,-66.8474 1250.72,-61.7275 1240.28,-59.9455 1241.45,-66.8474"/>
<text text-anchor="middle" x="992.5" y="-104.275" font-family="Times New Roman,serif" font-size="30.00"> &#160;&#160;5 &#160;&#160;25% &#160;&#160;2.34e&#45;08 mol/s &#160;&#160;&#160;5.00E&#45;01</text>
</g>
<!-- H(S1)&#45;&gt;RU(S1) -->
<g id="edge1" class="edge"><title>H(S1)&#45;&gt;RU(S1)</title>
<path fill="none" stroke="green" stroke-width="4" d="M1286.57,-372.543C1272.22,-352.764 1248.9,-325.864 1221,-313.275 1128.32,-271.446 863.147,-312.847 764,-290.275 759.65,-289.284 755.237,-288.076 750.832,-286.714"/>
<polygon fill="green" stroke="green" stroke-width="4" points="752.978,-280.048 731.789,-279.941 748.287,-293.238 752.978,-280.048"/>
<text text-anchor="middle" x="992.5" y="-322.275" font-family="Times New Roman,serif" font-size="30.00"> &#160;&#160;0 &#160;&#160;74% &#160;&#160;3.51e&#45;08 mol/s &#160;&#160;&#160;5.00E&#45;01</text>
</g>
<!-- N2(S1) -->
<g id="node3" class="node"><title>N2(S1)</title>
<g id="a_node3"><a xlink:href="5.svg" xlink:title="N2(S1)">
<polygon fill="azure" stroke="none" points="122,-279.775 7.10543e-015,-279.775 7.10543e-015,-232.775 122,-232.775 122,-279.775"/>
<text text-anchor="middle" x="61" y="-247.775" font-family="Times New Roman,serif" font-size="35.00">N2(S1)</text>
</a>
</g>
</g>
<!-- N2(S1)&#45;&gt;RU(S1) -->
<g id="edge2" class="edge"><title>N2(S1)&#45;&gt;RU(S1)</title>
<path fill="none" stroke="green" d="M122.197,-256.275C236.704,-256.275 485.442,-256.275 608.733,-256.275"/>
<polygon fill="green" stroke="green" points="608.828,-259.775 618.828,-256.275 608.828,-252.775 608.828,-259.775"/>
<text text-anchor="middle" x="371.5" y="-265.275" font-family="Times New Roman,serif" font-size="30.00"> &#160;&#160;1 &#160;&#160;12% &#160;&#160;1.17e&#45;08 mol/s &#160;&#160;&#160;5.00E&#45;01</text>
</g>
<!-- N(S1)&#45;&gt;RU(S1) -->
<g id="edge10" class="edge"><title>N(S1)&#45;&gt;RU(S1)</title>
<path fill="none" stroke="black" d="M1250.56,-35.1173C1240.84,-32.6875 1230.68,-30.5654 1221,-29.2746 1120.34,-15.8474 847.005,29.2379 764,-29.2746 701.288,-73.4819 686.857,-170.823 683.717,-222.5"/>
<polygon fill="black" stroke="black" points="680.22,-222.336 683.216,-232.498 687.212,-222.686 680.22,-222.336"/>
<text text-anchor="middle" x="992.5" y="-38.2746" font-family="Times New Roman,serif" font-size="30.00"> &#160;&#160;6 &#160;&#160;12% &#160;&#160;1.17e&#45;08 mol/s &#160;&#160;&#160;5.92E&#45;06</text>
</g>
</g>
</svg>
