<?xml version="1.0" encoding="UTF-8" standalone="no"?>
<!DOCTYPE svg PUBLIC "-//W3C//DTD SVG 1.1//EN"
 "http://www.w3.org/Graphics/SVG/1.1/DTD/svg11.dtd">
<!-- Generated by graphviz version 2.38.0 (20140413.2041)
 -->
<!-- Title: G Pages: 1 -->
<svg width="640pt" height="55pt"
 viewBox="0.00 0.00 720.00 61.64" xmlns="http://www.w3.org/2000/svg" xmlns:xlink="http://www.w3.org/1999/xlink">
<g id="graph0" class="graph" transform="scale(0.487062 0.487062) rotate(0) translate(4 108.5)">
<title>G</title>
<polygon fill="white" stroke="none" points="-4,4 -4,-108.5 1310,-108.5 1310,4 -4,4"/>
<text text-anchor="middle" x="653" y="-71.7" font-family="Arial" font-size="36.00" fill="blue">Reaction Path Analysis</text>
<!-- N2(S1) -->
<g id="node1" class="node"><title>N2(S1)</title>
<g id="a_node1"><a xlink:href="5.svg" xlink:title="N2(S1)">
<polygon fill="azure" stroke="none" points="725,-47 603,-47 603,3.55271e-015 725,3.55271e-015 725,-47"/>
<text text-anchor="middle" x="664" y="-15" font-family="Times New Roman,serif" font-size="35.00">N2(S1)</text>
</a>
</g>
</g>
<!-- N2 -->
<g id="node2" class="node"><title>N2</title>
<g id="a_node2"><a xlink:href="1.svg" xlink:title="N2">
<polygon fill="cornsilk" stroke="none" points="1306,-47 1246,-47 1246,3.55271e-015 1306,3.55271e-015 1306,-47"/>
<text text-anchor="middle" x="1276" y="-15" font-family="Times New Roman,serif" font-size="35.00">N2</text>
</a>
</g>
</g>
<!-- N2(S1)&#45;&gt;N2 -->
<g id="edge1" class="edge"><title>N2(S1)&#45;&gt;N2</title>
<path fill="none" stroke="green" stroke-width="6" d="M725.159,-23.5C845.638,-23.5 1114.47,-23.5 1225.53,-23.5"/>
<polygon fill="green" stroke="green" stroke-width="6" points="1225.84,-34.0001 1245.84,-23.5 1225.84,-13.0001 1225.84,-34.0001"/>
<text text-anchor="middle" x="970" y="-32.5" font-family="Times New Roman,serif" font-size="30.00"> &#160;&#160;1 &#160;&#160;100% &#160;&#160;1.17e&#45;08 mol/s &#160;&#160;&#160;5.00E&#45;01</text>
</g>
<!-- N(S1) -->
<g id="node3" class="node"><title>N(S1)</title>
<g id="a_node3"><a xlink:href="6.svg" xlink:title="N(S1)">
<polygon fill="azure" stroke="none" points="104,-47 0,-47 0,3.55271e-015 104,3.55271e-015 104,-47"/>
<text text-anchor="middle" x="52" y="-15" font-family="Times New Roman,serif" font-size="35.00">N(S1)</text>
</a>
</g>
</g>
<!-- N(S1)&#45;&gt;N2(S1) -->
<g id="edge2" class="edge"><title>N(S1)&#45;&gt;N2(S1)</title>
<path fill="none" stroke="black" stroke-width="6" d="M104.221,-23.5C210.441,-23.5 455.395,-23.5 582.777,-23.5"/>
<polygon fill="black" stroke="black" stroke-width="6" points="582.914,-34.0001 602.914,-23.5 582.914,-13.0001 582.914,-34.0001"/>
<text text-anchor="middle" x="358" y="-32.5" font-family="Times New Roman,serif" font-size="30.00"> &#160;&#160;6 &#160;&#160;100% &#160;&#160;1.17e&#45;08 mol/s &#160;&#160;&#160;5.92E&#45;06</text>
</g>
</g>
</svg>
