<?xml version="1.0" encoding="UTF-8" standalone="no"?>
<!DOCTYPE svg PUBLIC "-//W3C//DTD SVG 1.1//EN"
 "http://www.w3.org/Graphics/SVG/1.1/DTD/svg11.dtd">
<!-- Generated by graphviz version 2.38.0 (20140413.2041)
 -->
<!-- Title: G Pages: 1 -->
<svg width="640pt" height="118pt"
 viewBox="0.00 0.00 720.00 132.82" xmlns="http://www.w3.org/2000/svg" xmlns:xlink="http://www.w3.org/1999/xlink">
<g id="graph0" class="graph" transform="scale(0.473198 0.473198) rotate(0) translate(4 245.5)">
<title>G</title>
<polygon fill="white" stroke="none" points="-4,4 -4,-245.5 1348.5,-245.5 1348.5,4 -4,4"/>
<text text-anchor="middle" x="672.25" y="-208.7" font-family="Arial" font-size="36.00" fill="blue">Reaction Path Analysis</text>
<!-- H(S1) -->
<g id="node1" class="node"><title>H(S1)</title>
<g id="a_node1"><a xlink:href="7.svg" xlink:title="H(S1)">
<polygon fill="azure" stroke="none" points="745.5,-112 642.5,-112 642.5,-65 745.5,-65 745.5,-112"/>
<text text-anchor="middle" x="694" y="-80" font-family="Times New Roman,serif" font-size="35.00">H(S1)</text>
</a>
</g>
</g>
<!-- H2 -->
<g id="node2" class="node"><title>H2</title>
<g id="a_node2"><a xlink:href="0.svg" xlink:title="H2">
<polygon fill="cornsilk" stroke="none" points="1344.5,-112 1285.5,-112 1285.5,-65 1344.5,-65 1344.5,-112"/>
<text text-anchor="middle" x="1315" y="-80" font-family="Times New Roman,serif" font-size="35.00">H2</text>
</a>
</g>
</g>
<!-- H(S1)&#45;&gt;H2 -->
<g id="edge1" class="edge"><title>H(S1)&#45;&gt;H2</title>
<path fill="none" stroke="green" stroke-width="6" d="M745.655,-88.5C862.568,-88.5 1150.01,-88.5 1265.15,-88.5"/>
<polygon fill="green" stroke="green" stroke-width="6" points="1265.17,-99.0001 1285.17,-88.5 1265.17,-78.0001 1265.17,-99.0001"/>
<text text-anchor="middle" x="1004.5" y="-97.5" font-family="Times New Roman,serif" font-size="30.00"> &#160;&#160;0 &#160;&#160;100% &#160;&#160;3.51e&#45;08 mol/s &#160;&#160;&#160;5.00E&#45;01</text>
</g>
<!-- NH3(S1) -->
<g id="node3" class="node"><title>NH3(S1)</title>
<g id="a_node3"><a xlink:href="8.svg" xlink:title="NH3(S1)">
<polygon fill="azure" stroke="none" points="146,-177 0,-177 0,-130 146,-130 146,-177"/>
<text text-anchor="middle" x="73" y="-145" font-family="Times New Roman,serif" font-size="35.00">NH3(S1)</text>
</a>
</g>
</g>
<!-- NH3(S1)&#45;&gt;H(S1) -->
<g id="edge2" class="edge"><title>NH3(S1)&#45;&gt;H(S1)</title>
<path fill="none" stroke="black" stroke-width="2" d="M146.167,-158.215C250.595,-163.146 449.164,-165.391 612,-125.5 621.25,-123.234 630.739,-119.916 639.815,-116.184"/>
<polygon fill="black" stroke="black" stroke-width="2" points="641.308,-119.352 649.098,-112.171 638.53,-112.926 641.308,-119.352"/>
<text text-anchor="middle" x="383.5" y="-169.5" font-family="Times New Roman,serif" font-size="30.00"> &#160;&#160;3 &#160;&#160;33% &#160;&#160;2.34e&#45;08 mol/s &#160;&#160;&#160;9.41E&#45;01</text>
</g>
<!-- NH2(S1) -->
<g id="node4" class="node"><title>NH2(S1)</title>
<g id="a_node4"><a xlink:href="9.svg" xlink:title="NH2(S1)">
<polygon fill="azure" stroke="none" points="146,-112 0,-112 0,-65 146,-65 146,-112"/>
<text text-anchor="middle" x="73" y="-80" font-family="Times New Roman,serif" font-size="35.00">NH2(S1)</text>
</a>
</g>
</g>
<!-- NH2(S1)&#45;&gt;H(S1) -->
<g id="edge3" class="edge"><title>NH2(S1)&#45;&gt;H(S1)</title>
<path fill="none" stroke="green" stroke-width="2" d="M146.219,-88.5C269.274,-88.5 517.397,-88.5 632.192,-88.5"/>
<polygon fill="green" stroke="green" stroke-width="2" points="632.214,-92.0001 642.214,-88.5 632.214,-85.0001 632.214,-92.0001"/>
<text text-anchor="middle" x="383.5" y="-97.5" font-family="Times New Roman,serif" font-size="30.00"> &#160;&#160;4 &#160;&#160;33% &#160;&#160;2.34e&#45;08 mol/s &#160;&#160;&#160;5.01E&#45;01</text>
</g>
<!-- NH(S1) -->
<g id="node5" class="node"><title>NH(S1)</title>
<g id="a_node5"><a xlink:href="10.svg" xlink:title="NH(S1)">
<polygon fill="azure" stroke="none" points="137,-47 9,-47 9,3.55271e-015 137,3.55271e-015 137,-47"/>
<text text-anchor="middle" x="73" y="-15" font-family="Times New Roman,serif" font-size="35.00">NH(S1)</text>
</a>
</g>
</g>
<!-- NH(S1)&#45;&gt;H(S1) -->
<g id="edge4" class="edge"><title>NH(S1)&#45;&gt;H(S1)</title>
<path fill="none" stroke="green" stroke-width="2" d="M137.237,-19.2239C238.932,-14.0212 444.395,-10.4412 612,-51.5 621.25,-53.766 630.739,-57.084 639.815,-60.8163"/>
<polygon fill="green" stroke="green" stroke-width="2" points="638.53,-64.0736 649.098,-64.8291 641.308,-57.6483 638.53,-64.0736"/>
<text text-anchor="middle" x="383.5" y="-60.5" font-family="Times New Roman,serif" font-size="30.00"> &#160;&#160;5 &#160;&#160;33% &#160;&#160;2.34e&#45;08 mol/s &#160;&#160;&#160;5.00E&#45;01</text>
</g>
</g>
</svg>
