<?xml version="1.0" encoding="UTF-8" standalone="no"?>
<!DOCTYPE svg PUBLIC "-//W3C//DTD SVG 1.1//EN"
 "http://www.w3.org/Graphics/SVG/1.1/DTD/svg11.dtd">
<!-- Generated by graphviz version 2.38.0 (20140413.2041)
 -->
<!-- Title: G Pages: 1 -->
<svg width="640pt" height="81pt"
 viewBox="0.00 0.00 720.00 91.06" xmlns="http://www.w3.org/2000/svg" xmlns:xlink="http://www.w3.org/1999/xlink">
<g id="graph0" class="graph" transform="scale(0.458617 0.458617) rotate(0) translate(4 172.5)">
<title>G</title>
<polygon fill="white" stroke="none" points="-4,4 -4,-172.5 1391.5,-172.5 1391.5,4 -4,4"/>
<text text-anchor="middle" x="693.75" y="-135.7" font-family="Arial" font-size="36.00" fill="blue">Reaction Path Analysis</text>
<!-- NH3(S1) -->
<g id="node1" class="node"><title>NH3(S1)</title>
<g id="a_node1"><a xlink:href="8.svg" xlink:title="NH3(S1)">
<polygon fill="azure" stroke="none" points="751.5,-79 605.5,-79 605.5,-32 751.5,-32 751.5,-79"/>
<text text-anchor="middle" x="678.5" y="-47" font-family="Times New Roman,serif" font-size="35.00">NH3(S1)</text>
</a>
</g>
</g>
<!-- H(S1) -->
<g id="node3" class="node"><title>H(S1)</title>
<g id="a_node3"><a xlink:href="7.svg" xlink:title="H(S1)">
<polygon fill="azure" stroke="none" points="1366,-112 1263,-112 1263,-65 1366,-65 1366,-112"/>
<text text-anchor="middle" x="1314.5" y="-80" font-family="Times New Roman,serif" font-size="35.00">H(S1)</text>
</a>
</g>
</g>
<!-- NH3(S1)&#45;&gt;H(S1) -->
<g id="edge2" class="edge"><title>NH3(S1)&#45;&gt;H(S1)</title>
<path fill="none" stroke="black" stroke-width="6" d="M751.885,-65.6776C754.792,-65.9762 757.673,-66.2523 760.5,-66.5 933.282,-81.6344 1137.36,-86.364 1242.68,-87.8372"/>
<polygon fill="black" stroke="black" stroke-width="6" points="1242.56,-98.3365 1262.7,-88.0942 1242.83,-77.3382 1242.56,-98.3365"/>
<text text-anchor="middle" x="996.5" y="-96.5" font-family="Times New Roman,serif" font-size="30.00"> &#160;&#160;3 &#160;&#160;100% &#160;&#160;2.34e&#45;08 mol/s &#160;&#160;&#160;9.41E&#45;01</text>
</g>
<!-- NH2(S1) -->
<g id="node4" class="node"><title>NH2(S1)</title>
<g id="a_node4"><a xlink:href="9.svg" xlink:title="NH2(S1)">
<polygon fill="azure" stroke="none" points="1387.5,-47 1241.5,-47 1241.5,3.55271e-015 1387.5,3.55271e-015 1387.5,-47"/>
<text text-anchor="middle" x="1314.5" y="-15" font-family="Times New Roman,serif" font-size="35.00">NH2(S1)</text>
</a>
</g>
</g>
<!-- NH3(S1)&#45;&gt;NH2(S1) -->
<g id="edge3" class="edge"><title>NH3(S1)&#45;&gt;NH2(S1)</title>
<path fill="none" stroke="black" stroke-width="6" d="M751.738,-34.9308C754.686,-34.3928 757.615,-33.9114 760.5,-33.5 921.25,-10.5772 1110.92,-13.5746 1221.17,-18.2507"/>
<polygon fill="black" stroke="black" stroke-width="6" points="1221.01,-28.7542 1241.47,-19.1693 1221.96,-7.77571 1221.01,-28.7542"/>
<text text-anchor="middle" x="996.5" y="-42.5" font-family="Times New Roman,serif" font-size="30.00"> &#160;&#160;3 &#160;&#160;100% &#160;&#160;2.34e&#45;08 mol/s &#160;&#160;&#160;9.41E&#45;01</text>
</g>
<!-- NH3 -->
<g id="node2" class="node"><title>NH3</title>
<g id="a_node2"><a xlink:href="2.svg" xlink:title="NH3">
<polygon fill="cornsilk" stroke="none" points="85,-79 0,-79 0,-32 85,-32 85,-79"/>
<text text-anchor="middle" x="42.5" y="-47" font-family="Times New Roman,serif" font-size="35.00">NH3</text>
</a>
</g>
</g>
<!-- NH3&#45;&gt;NH3(S1) -->
<g id="edge1" class="edge"><title>NH3&#45;&gt;NH3(S1)</title>
<path fill="none" stroke="green" stroke-width="6" d="M85.0985,-55.5C185.954,-55.5 445.463,-55.5 585.172,-55.5"/>
<polygon fill="green" stroke="green" stroke-width="6" points="585.293,-66.0001 605.293,-55.5 585.293,-45.0001 585.293,-66.0001"/>
<text text-anchor="middle" x="360.5" y="-64.5" font-family="Times New Roman,serif" font-size="30.00"> &#160;&#160;2 &#160;&#160;100% &#160;&#160;2.34e&#45;08 mol/s &#160;&#160;&#160;5.00E&#45;01</text>
</g>
</g>
</svg>
