<?xml version="1.0" encoding="UTF-8" standalone="no"?>
<!DOCTYPE svg PUBLIC "-//W3C//DTD SVG 1.1//EN"
 "http://www.w3.org/Graphics/SVG/1.1/DTD/svg11.dtd">
<!-- Generated by graphviz version 2.38.0 (20140413.2041)
 -->
<!-- Title: G Pages: 1 -->
<svg width="640pt" height="80pt"
 viewBox="0.00 0.00 720.00 89.68" xmlns="http://www.w3.org/2000/svg" xmlns:xlink="http://www.w3.org/1999/xlink">
<g id="graph0" class="graph" transform="scale(0.451658 0.451658) rotate(0) translate(4 172.5)">
<title>G</title>
<polygon fill="white" stroke="none" points="-4,4 -4,-172.5 1413,-172.5 1413,4 -4,4"/>
<text text-anchor="middle" x="704.5" y="-135.7" font-family="Arial" font-size="36.00" fill="blue">Reaction Path Analysis</text>
<!-- NH2(S1) -->
<g id="node1" class="node"><title>NH2(S1)</title>
<g id="a_node1"><a xlink:href="9.svg" xlink:title="NH2(S1)">
<polygon fill="azure" stroke="none" points="782,-79 636,-79 636,-32 782,-32 782,-79"/>
<text text-anchor="middle" x="709" y="-47" font-family="Times New Roman,serif" font-size="35.00">NH2(S1)</text>
</a>
</g>
</g>
<!-- H(S1) -->
<g id="node3" class="node"><title>H(S1)</title>
<g id="a_node3"><a xlink:href="7.svg" xlink:title="H(S1)">
<polygon fill="azure" stroke="none" points="1396.5,-112 1293.5,-112 1293.5,-65 1396.5,-65 1396.5,-112"/>
<text text-anchor="middle" x="1345" y="-80" font-family="Times New Roman,serif" font-size="35.00">H(S1)</text>
</a>
</g>
</g>
<!-- NH2(S1)&#45;&gt;H(S1) -->
<g id="edge2" class="edge"><title>NH2(S1)&#45;&gt;H(S1)</title>
<path fill="none" stroke="green" stroke-width="6" d="M782.385,-65.6776C785.292,-65.9762 788.173,-66.2523 791,-66.5 963.782,-81.6344 1167.86,-86.364 1273.18,-87.8372"/>
<polygon fill="green" stroke="green" stroke-width="6" points="1273.06,-98.3365 1293.2,-88.0942 1273.33,-77.3382 1273.06,-98.3365"/>
<text text-anchor="middle" x="1027" y="-96.5" font-family="Times New Roman,serif" font-size="30.00"> &#160;&#160;4 &#160;&#160;100% &#160;&#160;2.34e&#45;08 mol/s &#160;&#160;&#160;5.01E&#45;01</text>
</g>
<!-- NH(S1) -->
<g id="node4" class="node"><title>NH(S1)</title>
<g id="a_node4"><a xlink:href="10.svg" xlink:title="NH(S1)">
<polygon fill="azure" stroke="none" points="1409,-47 1281,-47 1281,3.55271e-015 1409,3.55271e-015 1409,-47"/>
<text text-anchor="middle" x="1345" y="-15" font-family="Times New Roman,serif" font-size="35.00">NH(S1)</text>
</a>
</g>
</g>
<!-- NH2(S1)&#45;&gt;NH(S1) -->
<g id="edge3" class="edge"><title>NH2(S1)&#45;&gt;NH(S1)</title>
<path fill="none" stroke="green" stroke-width="6" d="M782.238,-34.9308C785.186,-34.3928 788.115,-33.9114 791,-33.5 956.266,-9.93319 1152.1,-13.7635 1260.77,-18.6483"/>
<polygon fill="green" stroke="green" stroke-width="6" points="1260.51,-29.1476 1280.98,-19.6152 1261.51,-8.17154 1260.51,-29.1476"/>
<text text-anchor="middle" x="1027" y="-42.5" font-family="Times New Roman,serif" font-size="30.00"> &#160;&#160;4 &#160;&#160;100% &#160;&#160;2.34e&#45;08 mol/s &#160;&#160;&#160;5.01E&#45;01</text>
</g>
<!-- NH3(S1) -->
<g id="node2" class="node"><title>NH3(S1)</title>
<g id="a_node2"><a xlink:href="8.svg" xlink:title="NH3(S1)">
<polygon fill="azure" stroke="none" points="146,-79 0,-79 0,-32 146,-32 146,-79"/>
<text text-anchor="middle" x="73" y="-47" font-family="Times New Roman,serif" font-size="35.00">NH3(S1)</text>
</a>
</g>
</g>
<!-- NH3(S1)&#45;&gt;NH2(S1) -->
<g id="edge1" class="edge"><title>NH3(S1)&#45;&gt;NH2(S1)</title>
<path fill="none" stroke="black" stroke-width="6" d="M146.111,-55.5C261.707,-55.5 488.388,-55.5 615.661,-55.5"/>
<polygon fill="black" stroke="black" stroke-width="6" points="615.957,-66.0001 635.957,-55.5 615.957,-45.0001 615.957,-66.0001"/>
<text text-anchor="middle" x="391" y="-64.5" font-family="Times New Roman,serif" font-size="30.00"> &#160;&#160;3 &#160;&#160;100% &#160;&#160;2.34e&#45;08 mol/s &#160;&#160;&#160;9.41E&#45;01</text>
</g>
</g>
</svg>
