<?xml version="1.0" encoding="UTF-8" standalone="no"?>
<!DOCTYPE svg PUBLIC "-//W3C//DTD SVG 1.1//EN"
 "http://www.w3.org/Graphics/SVG/1.1/DTD/svg11.dtd">
<!-- Generated by graphviz version 2.38.0 (20140413.2041)
 -->
<!-- Title: test Pages: 1 -->
<svg width="152pt" height="295pt"
 viewBox="0.00 0.00 152.00 295.00" xmlns="http://www.w3.org/2000/svg" xmlns:xlink="http://www.w3.org/1999/xlink">
<g id="graph0" class="graph" transform="scale(1 1) rotate(0) translate(4 291)">
<title>test</title>
<polygon fill="white" stroke="none" points="-4,4 -4,-291 148,-291 148,4 -4,4"/>
<!-- legend -->
<g id="node1" class="node"><title>legend</title>
<polygon fill="none" stroke="black" points="29,-256.5 29,-279.5 115,-279.5 115,-256.5 29,-256.5"/>
<text text-anchor="start" x="48" y="-265.5" font-family="Times New Roman,serif" font-weight="bold" font-size="15.00">Legend</text>
<polygon fill="coral" stroke="none" points="29,-231.5 29,-254.5 35,-254.5 35,-231.5 29,-231.5"/>
<polygon fill="none" stroke="black" points="29,-231.5 29,-254.5 35,-254.5 35,-231.5 29,-231.5"/>
<polygon fill="none" stroke="black" points="37,-231.5 37,-254.5 115,-254.5 115,-231.5 37,-231.5"/>
<text text-anchor="start" x="58.5" y="-239.5" font-family="Times New Roman,serif" font-size="15.00">0.85+</text>
<polygon fill="orangered" stroke="none" points="29,-206.5 29,-229.5 35,-229.5 35,-206.5 29,-206.5"/>
<polygon fill="none" stroke="black" points="29,-206.5 29,-229.5 35,-229.5 35,-206.5 29,-206.5"/>
<polygon fill="none" stroke="black" points="37,-206.5 37,-229.5 115,-229.5 115,-206.5 37,-206.5"/>
<text text-anchor="start" x="50.5" y="-214.5" font-family="Times New Roman,serif" font-size="15.00">0.7&#45;0.85</text>
<polygon fill="red" stroke="none" points="29,-181.5 29,-204.5 35,-204.5 35,-181.5 29,-181.5"/>
<polygon fill="none" stroke="black" points="29,-181.5 29,-204.5 35,-204.5 35,-181.5 29,-181.5"/>
<polygon fill="none" stroke="black" points="37,-181.5 37,-204.5 115,-204.5 115,-181.5 37,-181.5"/>
<text text-anchor="start" x="50.5" y="-189.5" font-family="Times New Roman,serif" font-size="15.00">0.55&#45;0.7</text>
<polygon fill="darkorange" stroke="none" points="29,-156.5 29,-179.5 35,-179.5 35,-156.5 29,-156.5"/>
<polygon fill="none" stroke="black" points="29,-156.5 29,-179.5 35,-179.5 35,-156.5 29,-156.5"/>
<polygon fill="none" stroke="black" points="37,-156.5 37,-179.5 115,-179.5 115,-156.5 37,-156.5"/>
<text text-anchor="start" x="50.5" y="-164.5" font-family="Times New Roman,serif" font-size="15.00">0.4&#45;0.55</text>
<polygon fill="orange" stroke="none" points="29,-131.5 29,-154.5 35,-154.5 35,-131.5 29,-131.5"/>
<polygon fill="none" stroke="black" points="29,-131.5 29,-154.5 35,-154.5 35,-131.5 29,-131.5"/>
<polygon fill="none" stroke="black" points="37,-131.5 37,-154.5 115,-154.5 115,-131.5 37,-131.5"/>
<text text-anchor="start" x="54.5" y="-139.5" font-family="Times New Roman,serif" font-size="15.00">0.2&#45;0.4</text>
<polygon fill="gold" stroke="none" points="29,-106.5 29,-129.5 35,-129.5 35,-106.5 29,-106.5"/>
<polygon fill="none" stroke="black" points="29,-106.5 29,-129.5 35,-129.5 35,-106.5 29,-106.5"/>
<polygon fill="none" stroke="black" points="37,-106.5 37,-129.5 115,-129.5 115,-106.5 37,-106.5"/>
<text text-anchor="start" x="54.5" y="-114.5" font-family="Times New Roman,serif" font-size="15.00">0.1&#45;0.2</text>
<polygon fill="lawngreen" stroke="none" points="29,-81.5 29,-104.5 35,-104.5 35,-81.5 29,-81.5"/>
<polygon fill="none" stroke="black" points="29,-81.5 29,-104.5 35,-104.5 35,-81.5 29,-81.5"/>
<polygon fill="none" stroke="black" points="37,-81.5 37,-104.5 115,-104.5 115,-81.5 37,-81.5"/>
<text text-anchor="start" x="50.5" y="-89.5" font-family="Times New Roman,serif" font-size="15.00">0.05&#45;0.1</text>
<polygon fill="green" stroke="none" points="29,-56.5 29,-79.5 35,-79.5 35,-56.5 29,-56.5"/>
<polygon fill="none" stroke="black" points="29,-56.5 29,-79.5 35,-79.5 35,-56.5 29,-56.5"/>
<polygon fill="none" stroke="black" points="37,-56.5 37,-79.5 115,-79.5 115,-56.5 37,-56.5"/>
<text text-anchor="start" x="45.5" y="-64.5" font-family="Times New Roman,serif" font-size="15.00">1E&#45;5&#45;0.05</text>
<polygon fill="dodgerblue" stroke="none" points="29,-31.5 29,-54.5 35,-54.5 35,-31.5 29,-31.5"/>
<polygon fill="none" stroke="black" points="29,-31.5 29,-54.5 35,-54.5 35,-31.5 29,-31.5"/>
<polygon fill="none" stroke="black" points="37,-31.5 37,-54.5 115,-54.5 115,-31.5 37,-31.5"/>
<text text-anchor="start" x="40" y="-39.5" font-family="Times New Roman,serif" font-size="15.00">1E&#45;10&#45;1E&#45;5</text>
<polygon fill="purple" stroke="none" points="29,-6.5 29,-29.5 35,-29.5 35,-6.5 29,-6.5"/>
<polygon fill="none" stroke="black" points="29,-6.5 29,-29.5 35,-29.5 35,-6.5 29,-6.5"/>
<polygon fill="none" stroke="black" points="37,-6.5 37,-29.5 115,-29.5 115,-6.5 37,-6.5"/>
<text text-anchor="start" x="45.5" y="-14.5" font-family="Times New Roman,serif" font-size="15.00">0.0&#45;1E&#45;10</text>
<polygon fill="none" stroke="black" points="26,-4 26,-283 118,-283 118,-4 26,-4"/>
</g>
</g>
</svg>
