<?xml version="1.0" encoding="UTF-8" standalone="no"?>
<!DOCTYPE svg PUBLIC "-//W3C//DTD SVG 1.1//EN"
 "http://www.w3.org/Graphics/SVG/1.1/DTD/svg11.dtd">
<!-- Generated by graphviz version 2.38.0 (20140413.2041)
 -->
<!-- Title: G Pages: 1 -->
<svg width="640pt" height="73pt"
 viewBox="0.00 0.00 720.00 81.90" xmlns="http://www.w3.org/2000/svg" xmlns:xlink="http://www.w3.org/1999/xlink">
<g id="graph0" class="graph" transform="scale(0.41721 0.41721) rotate(0) translate(4 170.5)">
<title>G</title>
<polygon fill="white" stroke="none" points="-4,4 -4,-170.5 1530,-170.5 1530,4 -4,4"/>
<text text-anchor="middle" x="763" y="-133.7" font-family="Arial" font-size="36.00" fill="blue">Reaction Path Analysis</text>
<!-- (0)(000000) -->
<g id="node1" class="node"><title>(0)(000000)</title>
<g id="a_node1"><a xlink:href="0.svg" xlink:title="(0)(000000)">
<polygon fill="springgreen" stroke="none" points="863,-79 672,-79 672,-32 863,-32 863,-79"/>
<text text-anchor="middle" x="767.5" y="-47" font-family="Times New Roman,serif" font-size="35.00">(0)(000000)</text>
</a>
</g>
</g>
<!-- (1)(000001) -->
<g id="node2" class="node"><title>(1)(000001)</title>
<g id="a_node2"><a xlink:href="1.svg" xlink:title="(1)(000001)">
<polygon fill="springgreen" stroke="none" points="1526,-112 1335,-112 1335,-65 1526,-65 1526,-112"/>
<text text-anchor="middle" x="1430.5" y="-80" font-family="Times New Roman,serif" font-size="35.00">(1)(000001)</text>
</a>
</g>
</g>
<!-- (0)(000000)&#45;&gt;(1)(000001) -->
<g id="edge1" class="edge"><title>(0)(000000)&#45;&gt;(1)(000001)</title>
<path fill="none" stroke="green" stroke-width="5" d="M863.299,-65.1611C869.286,-65.6499 875.224,-66.1021 881,-66.5 1030.7,-76.8122 1203.74,-82.7616 1314.78,-85.814"/>
<polygon fill="green" stroke="green" stroke-width="5" points="1314.55,-94.5607 1334.78,-86.3506 1315.02,-77.067 1314.55,-94.5607"/>
<text text-anchor="middle" x="1099" y="-94.5" font-family="Times New Roman,serif" font-size="30.00"> &#160;&#160;0 &#160;&#160;98% &#160;&#160;0.54613526 mol/s &#160;&#160;&#160;0.50</text>
</g>
<!-- (8)(001000) -->
<g id="node4" class="node"><title>(8)(001000)</title>
<g id="a_node4"><a xlink:href="8.svg" xlink:title="(8)(001000)">
<polygon fill="dodgerblue" stroke="none" points="1526,-47 1335,-47 1335,3.55271e-015 1526,3.55271e-015 1526,-47"/>
<text text-anchor="middle" x="1430.5" y="-15" font-family="Times New Roman,serif" font-size="35.00">(8)(001000)</text>
</a>
</g>
</g>
<!-- (0)(000000)&#45;&gt;(8)(001000) -->
<g id="edge3" class="edge"><title>(0)(000000)&#45;&gt;(8)(001000)</title>
<path fill="none" stroke="green" d="M863.152,-35.7633C869.175,-34.8879 875.162,-34.1192 881,-33.5 1034.61,-17.207 1213.74,-17.5448 1324.39,-19.9805"/>
<polygon fill="green" stroke="green" points="1324.48,-23.4832 1334.55,-20.2143 1324.64,-16.4851 1324.48,-23.4832"/>
<text text-anchor="middle" x="1099" y="-42.5" font-family="Times New Roman,serif" font-size="30.00"> &#160;&#160;2 &#160;&#160;1% &#160;&#160;0.00716466 mol/s &#160;&#160;&#160;0.50</text>
</g>
<!-- (4)(000100) -->
<g id="node3" class="node"><title>(4)(000100)</title>
<g id="a_node3"><a xlink:href="4.svg" xlink:title="(4)(000100)">
<polygon fill="springgreen" stroke="none" points="200,-112 9,-112 9,-65 200,-65 200,-112"/>
<text text-anchor="middle" x="104.5" y="-80" font-family="Times New Roman,serif" font-size="35.00">(4)(000100)</text>
</a>
</g>
</g>
<!-- (4)(000100)&#45;&gt;(0)(000000) -->
<g id="edge2" class="edge"><title>(4)(000100)&#45;&gt;(0)(000000)</title>
<path fill="none" stroke="green" stroke-width="4" d="M200.224,-86.3506C305.516,-83.593 481.153,-77.9031 651.736,-66.5213"/>
<polygon fill="green" stroke="green" stroke-width="4" points="652.223,-73.5045 671.701,-65.1611 651.271,-59.5368 652.223,-73.5045"/>
<text text-anchor="middle" x="436" y="-94.5" font-family="Times New Roman,serif" font-size="30.00"> &#160;&#160;1 &#160;&#160;71% &#160;&#160;0.39836839 mol/s &#160;&#160;&#160;0.50</text>
</g>
<!-- (32)(100000) -->
<g id="node5" class="node"><title>(32)(100000)</title>
<g id="a_node5"><a xlink:href="32.svg" xlink:title="(32)(100000)">
<polygon fill="dodgerblue" stroke="none" points="209,-47 0,-47 0,3.55271e-015 209,3.55271e-015 209,-47"/>
<text text-anchor="middle" x="104.5" y="-15" font-family="Times New Roman,serif" font-size="35.00">(32)(100000)</text>
</a>
</g>
</g>
<!-- (32)(100000)&#45;&gt;(0)(000000) -->
<g id="edge4" class="edge"><title>(32)(100000)&#45;&gt;(0)(000000)</title>
<path fill="none" stroke="green" stroke-width="2" d="M209.201,-20.0116C319.743,-17.548 499.741,-17.1379 654,-33.5 656.554,-33.7709 659.137,-34.0704 661.738,-34.395"/>
<polygon fill="green" stroke="green" stroke-width="2" points="661.469,-37.8903 671.848,-35.7633 662.408,-30.9536 661.469,-37.8903"/>
<text text-anchor="middle" x="436" y="-42.5" font-family="Times New Roman,serif" font-size="30.00"> &#160;&#160;3 &#160;&#160;28% &#160;&#160;0.15493153 mol/s &#160;&#160;&#160;0.50</text>
</g>
</g>
</svg>
