<?xml version="1.0" encoding="UTF-8" standalone="no"?>
<!DOCTYPE svg PUBLIC "-//W3C//DTD SVG 1.1//EN"
 "http://www.w3.org/Graphics/SVG/1.1/DTD/svg11.dtd">
<!-- Generated by graphviz version 2.38.0 (20140413.2041)
 -->
<!-- Title: G Pages: 1 -->
<svg width="640pt" height="102pt"
 viewBox="0.00 0.00 720.00 114.56" xmlns="http://www.w3.org/2000/svg" xmlns:xlink="http://www.w3.org/1999/xlink">
<g id="graph0" class="graph" transform="scale(0.414776 0.414776) rotate(0) translate(4 241.5)">
<title>G</title>
<polygon fill="white" stroke="none" points="-4,4 -4,-241.5 1539,-241.5 1539,4 -4,4"/>
<text text-anchor="middle" x="767.5" y="-204.7" font-family="Arial" font-size="36.00" fill="blue">Reaction Path Analysis</text>
<!-- (1)(000001) -->
<g id="node1" class="node"><title>(1)(000001)</title>
<g id="a_node1"><a xlink:href="1.svg" xlink:title="(1)(000001)">
<polygon fill="springgreen" stroke="none" points="863,-112 672,-112 672,-65 863,-65 863,-112"/>
<text text-anchor="middle" x="767.5" y="-80" font-family="Times New Roman,serif" font-size="35.00">(1)(000001)</text>
</a>
</g>
</g>
<!-- (9)(001001) -->
<g id="node4" class="node"><title>(9)(001001)</title>
<g id="a_node4"><a xlink:href="9.svg" xlink:title="(9)(001001)">
<polygon fill="springgreen" stroke="none" points="1526,-145 1335,-145 1335,-98 1526,-98 1526,-145"/>
<text text-anchor="middle" x="1430.5" y="-113" font-family="Times New Roman,serif" font-size="35.00">(9)(001001)</text>
</a>
</g>
</g>
<!-- (1)(000001)&#45;&gt;(9)(001001) -->
<g id="edge3" class="edge"><title>(1)(000001)&#45;&gt;(9)(001001)</title>
<path fill="none" stroke="green" stroke-width="2" d="M863.299,-98.1611C869.286,-98.6499 875.224,-99.1021 881,-99.5 1035.2,-110.122 1214.17,-116.116 1324.63,-119.082"/>
<polygon fill="green" stroke="green" stroke-width="2" points="1324.69,-122.584 1334.78,-119.351 1324.87,-115.587 1324.69,-122.584"/>
<text text-anchor="middle" x="1099" y="-127.5" font-family="Times New Roman,serif" font-size="30.00"> &#160;&#160;5 &#160;&#160;22% &#160;&#160;0.15863216 mol/s &#160;&#160;&#160;0.50</text>
</g>
<!-- (34)(100010) -->
<g id="node6" class="node"><title>(34)(100010)</title>
<g id="a_node6"><a xlink:href="34.svg" xlink:title="(34)(100010)">
<polygon fill="lawngreen" stroke="none" points="1535,-80 1326,-80 1326,-33 1535,-33 1535,-80"/>
<text text-anchor="middle" x="1430.5" y="-48" font-family="Times New Roman,serif" font-size="35.00">(34)(100010)</text>
</a>
</g>
</g>
<!-- (1)(000001)&#45;&gt;(34)(100010) -->
<g id="edge5" class="edge"><title>(1)(000001)&#45;&gt;(34)(100010)</title>
<path fill="none" stroke="green" stroke-width="4" d="M863.152,-68.7633C869.175,-67.8879 875.162,-67.1192 881,-66.5 1026.22,-51.0966 1194.25,-50.5575 1305.67,-52.6026"/>
<polygon fill="green" stroke="green" stroke-width="4" points="1305.66,-59.6038 1325.8,-53.0116 1305.95,-45.6067 1305.66,-59.6038"/>
<text text-anchor="middle" x="1099" y="-75.5" font-family="Times New Roman,serif" font-size="30.00"> &#160;&#160;7 &#160;&#160;77% &#160;&#160;0.55548109 mol/s &#160;&#160;&#160;0.50</text>
</g>
<!-- (0)(000000) -->
<g id="node2" class="node"><title>(0)(000000)</title>
<g id="a_node2"><a xlink:href="0.svg" xlink:title="(0)(000000)">
<polygon fill="springgreen" stroke="none" points="200,-177 9,-177 9,-130 200,-130 200,-177"/>
<text text-anchor="middle" x="104.5" y="-145" font-family="Times New Roman,serif" font-size="35.00">(0)(000000)</text>
</a>
</g>
</g>
<!-- (0)(000000)&#45;&gt;(1)(000001) -->
<g id="edge1" class="edge"><title>(0)(000000)&#45;&gt;(1)(000001)</title>
<path fill="none" stroke="green" stroke-width="4" d="M200.049,-156.266C310.075,-157.74 496.762,-154.824 654,-125.5 664.354,-123.569 675.069,-120.929 685.586,-117.942"/>
<polygon fill="green" stroke="green" stroke-width="4" points="687.714,-124.611 704.793,-112.068 683.62,-111.223 687.714,-124.611"/>
<text text-anchor="middle" x="436" y="-165.5" font-family="Times New Roman,serif" font-size="30.00"> &#160;&#160;0 &#160;&#160;76% &#160;&#160;0.54613526 mol/s &#160;&#160;&#160;0.50</text>
</g>
<!-- (5)(000101) -->
<g id="node3" class="node"><title>(5)(000101)</title>
<g id="a_node3"><a xlink:href="5.svg" xlink:title="(5)(000101)">
<polygon fill="dodgerblue" stroke="none" points="200,-112 9,-112 9,-65 200,-65 200,-112"/>
<text text-anchor="middle" x="104.5" y="-80" font-family="Times New Roman,serif" font-size="35.00">(5)(000101)</text>
</a>
</g>
</g>
<!-- (5)(000101)&#45;&gt;(1)(000001) -->
<g id="edge2" class="edge"><title>(5)(000101)&#45;&gt;(1)(000001)</title>
<path fill="none" stroke="green" d="M200.205,-88.5C322.548,-88.5 534.839,-88.5 661.843,-88.5"/>
<polygon fill="green" stroke="green" points="661.971,-92.0001 671.97,-88.5 661.97,-85.0001 661.971,-92.0001"/>
<text text-anchor="middle" x="436" y="-97.5" font-family="Times New Roman,serif" font-size="30.00"> &#160;&#160;4 &#160;&#160;11% &#160;&#160;0.08563241 mol/s &#160;&#160;&#160;0.50</text>
</g>
<!-- (33)(100001) -->
<g id="node5" class="node"><title>(33)(100001)</title>
<g id="a_node5"><a xlink:href="33.svg" xlink:title="(33)(100001)">
<polygon fill="dodgerblue" stroke="none" points="209,-47 0,-47 0,3.55271e-015 209,3.55271e-015 209,-47"/>
<text text-anchor="middle" x="104.5" y="-15" font-family="Times New Roman,serif" font-size="35.00">(33)(100001)</text>
</a>
</g>
</g>
<!-- (33)(100001)&#45;&gt;(1)(000001) -->
<g id="edge4" class="edge"><title>(33)(100001)&#45;&gt;(1)(000001)</title>
<path fill="none" stroke="green" d="M209.067,-20.6252C320.07,-19.4354 500.98,-22.9629 654,-51.5 667.499,-54.0175 681.612,-57.7399 695.1,-61.8671"/>
<polygon fill="green" stroke="green" points="694.203,-65.2541 704.793,-64.9324 696.314,-58.5799 694.203,-65.2541"/>
<text text-anchor="middle" x="436" y="-60.5" font-family="Times New Roman,serif" font-size="30.00"> &#160;&#160;6 &#160;&#160;11% &#160;&#160;0.08234558 mol/s &#160;&#160;&#160;0.50</text>
</g>
</g>
</svg>
