<?xml version="1.0" encoding="UTF-8" standalone="no"?>
<!DOCTYPE svg PUBLIC "-//W3C//DTD SVG 1.1//EN"
 "http://www.w3.org/Graphics/SVG/1.1/DTD/svg11.dtd">
<!-- Generated by graphviz version 2.38.0 (20140413.2041)
 -->
<!-- Title: G Pages: 1 -->
<svg width="640pt" height="100pt"
 viewBox="0.00 0.00 720.00 112.37" xmlns="http://www.w3.org/2000/svg" xmlns:xlink="http://www.w3.org/1999/xlink">
<g id="graph0" class="graph" transform="scale(0.406866 0.406866) rotate(0) translate(4 241.5)">
<title>G</title>
<polygon fill="white" stroke="none" points="-4,4 -4,-241.5 1569,-241.5 1569,4 -4,4"/>
<text text-anchor="middle" x="782.5" y="-204.7" font-family="Arial" font-size="36.00" fill="blue">Reaction Path Analysis</text>
<!-- (12)(001100) -->
<g id="node1" class="node"><title>(12)(001100)</title>
<g id="a_node1"><a xlink:href="12.svg" xlink:title="(12)(001100)">
<polygon fill="dodgerblue" stroke="none" points="887,-112 678,-112 678,-65 887,-65 887,-112"/>
<text text-anchor="middle" x="782.5" y="-80" font-family="Times New Roman,serif" font-size="35.00">(12)(001100)</text>
</a>
</g>
</g>
<!-- (8)(001000) -->
<g id="node3" class="node"><title>(8)(001000)</title>
<g id="a_node3"><a xlink:href="8.svg" xlink:title="(8)(001000)">
<polygon fill="dodgerblue" stroke="none" points="1556,-145 1365,-145 1365,-98 1556,-98 1556,-145"/>
<text text-anchor="middle" x="1460.5" y="-113" font-family="Times New Roman,serif" font-size="35.00">(8)(001000)</text>
</a>
</g>
</g>
<!-- (12)(001100)&#45;&gt;(8)(001000) -->
<g id="edge2" class="edge"><title>(12)(001100)&#45;&gt;(8)(001000)</title>
<path fill="none" stroke="green" stroke-width="5" d="M887.078,-98.8574C890.084,-99.0843 893.063,-99.2993 896,-99.5 1051.1,-110.101 1230.6,-116.016 1344.55,-118.978"/>
<polygon fill="green" stroke="green" stroke-width="5" points="1344.48,-127.729 1364.69,-119.489 1344.92,-110.235 1344.48,-127.729"/>
<text text-anchor="middle" x="1121.5" y="-127.5" font-family="Times New Roman,serif" font-size="30.00"> &#160;&#160;23 &#160;&#160;99% &#160;&#160;0.00587585 mol/s &#160;&#160;&#160;0.50</text>
</g>
<!-- (20)(010100) -->
<g id="node5" class="node"><title>(20)(010100)</title>
<g id="a_node5"><a xlink:href="20.svg" xlink:title="(20)(010100)">
<polygon fill="springgreen" stroke="none" points="1565,-80 1356,-80 1356,-33 1565,-33 1565,-80"/>
<text text-anchor="middle" x="1460.5" y="-48" font-family="Times New Roman,serif" font-size="35.00">(20)(010100)</text>
</a>
</g>
</g>
<!-- (12)(001100)&#45;&gt;(20)(010100) -->
<g id="edge4" class="edge"><title>(12)(001100)&#45;&gt;(20)(010100)</title>
<path fill="none" stroke="green" d="M887.297,-67.5145C890.225,-67.1435 893.13,-66.8037 896,-66.5 1051.14,-50.0829 1231.61,-50.2362 1345.68,-52.6877"/>
<polygon fill="green" stroke="green" points="1345.75,-56.19 1355.82,-52.9155 1345.91,-49.1918 1345.75,-56.19"/>
<text text-anchor="middle" x="1121.5" y="-75.5" font-family="Times New Roman,serif" font-size="30.00"> &#160;&#160;33 &#160;&#160;0% &#160;&#160;2.09e&#45;06 mol/s &#160;&#160;&#160;0.50</text>
</g>
<!-- (4)(000100) -->
<g id="node2" class="node"><title>(4)(000100)</title>
<g id="a_node2"><a xlink:href="4.svg" xlink:title="(4)(000100)">
<polygon fill="springgreen" stroke="none" points="200,-177 9,-177 9,-130 200,-130 200,-177"/>
<text text-anchor="middle" x="104.5" y="-145" font-family="Times New Roman,serif" font-size="35.00">(4)(000100)</text>
</a>
</g>
</g>
<!-- (4)(000100)&#45;&gt;(12)(001100) -->
<g id="edge1" class="edge"><title>(4)(000100)&#45;&gt;(12)(001100)</title>
<path fill="none" stroke="green" stroke-width="5" d="M200.117,-156.473C312.803,-158.255 506.249,-155.738 669,-125.5 679.355,-123.576 690.071,-120.941 700.588,-117.955"/>
<polygon fill="green" stroke="green" stroke-width="5" points="703.228,-126.298 719.796,-112.083 698.111,-109.563 703.228,-126.298"/>
<text text-anchor="middle" x="443.5" y="-165.5" font-family="Times New Roman,serif" font-size="30.00"> &#160;&#160;13 &#160;&#160;93% &#160;&#160;0.00550754 mol/s &#160;&#160;&#160;0.50</text>
</g>
<!-- (13)(001101) -->
<g id="node4" class="node"><title>(13)(001101)</title>
<g id="a_node4"><a xlink:href="13.svg" xlink:title="(13)(001101)">
<polygon fill="purple" stroke="none" points="209,-112 0,-112 0,-65 209,-65 209,-112"/>
<text text-anchor="middle" x="104.5" y="-80" font-family="Times New Roman,serif" font-size="35.00">(13)(001101)</text>
</a>
</g>
</g>
<!-- (13)(001101)&#45;&gt;(12)(001100) -->
<g id="edge3" class="edge"><title>(13)(001101)&#45;&gt;(12)(001100)</title>
<path fill="none" stroke="green" d="M209.274,-88.5C333.145,-88.5 539.585,-88.5 667.715,-88.5"/>
<polygon fill="green" stroke="green" points="667.949,-92.0001 677.949,-88.5 667.949,-85.0001 667.949,-92.0001"/>
<text text-anchor="middle" x="443.5" y="-97.5" font-family="Times New Roman,serif" font-size="30.00"> &#160;&#160;32 &#160;&#160;6% &#160;&#160;0.0003697 mol/s &#160;&#160;&#160;0.50</text>
</g>
<!-- (44)(101100) -->
<g id="node6" class="node"><title>(44)(101100)</title>
<g id="a_node6"><a xlink:href="44.svg" xlink:title="(44)(101100)">
<polygon fill="purple" stroke="none" points="209,-47 0,-47 0,3.55271e-015 209,3.55271e-015 209,-47"/>
<text text-anchor="middle" x="104.5" y="-15" font-family="Times New Roman,serif" font-size="35.00">(44)(101100)</text>
</a>
</g>
</g>
<!-- (44)(101100)&#45;&gt;(12)(001100) -->
<g id="edge5" class="edge"><title>(44)(101100)&#45;&gt;(12)(001100)</title>
<path fill="none" stroke="green" d="M209.029,-20.3973C322.798,-18.8941 510.462,-22.045 669,-51.5 682.501,-54.0084 696.615,-57.7264 710.103,-61.8521"/>
<polygon fill="green" stroke="green" points="709.206,-65.2392 719.796,-64.9168 711.316,-58.5648 709.206,-65.2392"/>
<text text-anchor="middle" x="443.5" y="-60.5" font-family="Times New Roman,serif" font-size="30.00"> &#160;&#160;34 &#160;&#160;0% &#160;&#160;7e&#45;07 mol/s &#160;&#160;&#160;0.50</text>
</g>
</g>
</svg>
