<?xml version="1.0" encoding="UTF-8" standalone="no"?>
<!DOCTYPE svg PUBLIC "-//W3C//DTD SVG 1.1//EN"
 "http://www.w3.org/Graphics/SVG/1.1/DTD/svg11.dtd">
<!-- Generated by graphviz version 2.38.0 (20140413.2041)
 -->
<!-- Title: G Pages: 1 -->
<svg width="640pt" height="100pt"
 viewBox="0.00 0.00 720.00 112.37" xmlns="http://www.w3.org/2000/svg" xmlns:xlink="http://www.w3.org/1999/xlink">
<g id="graph0" class="graph" transform="scale(0.406866 0.406866) rotate(0) translate(4 241.5)">
<title>G</title>
<polygon fill="white" stroke="none" points="-4,4 -4,-241.5 1569,-241.5 1569,4 -4,4"/>
<text text-anchor="middle" x="782.5" y="-204.7" font-family="Arial" font-size="36.00" fill="blue">Reaction Path Analysis</text>
<!-- (13)(001101) -->
<g id="node1" class="node"><title>(13)(001101)</title>
<g id="a_node1"><a xlink:href="13.svg" xlink:title="(13)(001101)">
<polygon fill="purple" stroke="none" points="887,-112 678,-112 678,-65 887,-65 887,-112"/>
<text text-anchor="middle" x="782.5" y="-80" font-family="Times New Roman,serif" font-size="35.00">(13)(001101)</text>
</a>
</g>
</g>
<!-- (12)(001100) -->
<g id="node4" class="node"><title>(12)(001100)</title>
<g id="a_node4"><a xlink:href="12.svg" xlink:title="(12)(001100)">
<polygon fill="dodgerblue" stroke="none" points="1565,-177 1356,-177 1356,-130 1565,-130 1565,-177"/>
<text text-anchor="middle" x="1460.5" y="-145" font-family="Times New Roman,serif" font-size="35.00">(12)(001100)</text>
</a>
</g>
</g>
<!-- (13)(001101)&#45;&gt;(12)(001100) -->
<g id="edge3" class="edge"><title>(13)(001101)&#45;&gt;(12)(001100)</title>
<path fill="none" stroke="green" stroke-width="2" d="M845.204,-112.083C861.498,-117.398 879.222,-122.383 896,-125.5 1049.89,-154.092 1231.23,-157.899 1345.78,-156.722"/>
<polygon fill="green" stroke="green" stroke-width="2" points="1346.01,-160.22 1355.97,-156.603 1345.93,-153.22 1346.01,-160.22"/>
<text text-anchor="middle" x="1121.5" y="-165.5" font-family="Times New Roman,serif" font-size="30.00"> &#160;&#160;32 &#160;&#160;26% &#160;&#160;0.0003697 mol/s &#160;&#160;&#160;0.50</text>
</g>
<!-- (21)(010101) -->
<g id="node5" class="node"><title>(21)(010101)</title>
<g id="a_node5"><a xlink:href="21.svg" xlink:title="(21)(010101)">
<polygon fill="dodgerblue" stroke="none" points="1565,-112 1356,-112 1356,-65 1565,-65 1565,-112"/>
<text text-anchor="middle" x="1460.5" y="-80" font-family="Times New Roman,serif" font-size="35.00">(21)(010101)</text>
</a>
</g>
</g>
<!-- (13)(001101)&#45;&gt;(21)(010101) -->
<g id="edge4" class="edge"><title>(13)(001101)&#45;&gt;(21)(010101)</title>
<path fill="none" stroke="green" d="M887.274,-88.5C1011.14,-88.5 1217.58,-88.5 1345.72,-88.5"/>
<polygon fill="green" stroke="green" points="1345.95,-92.0001 1355.95,-88.5 1345.95,-85.0001 1345.95,-92.0001"/>
<text text-anchor="middle" x="1121.5" y="-97.5" font-family="Times New Roman,serif" font-size="30.00"> &#160;&#160;35 &#160;&#160;0% &#160;&#160;3e&#45;08 mol/s &#160;&#160;&#160;0.50</text>
</g>
<!-- (46)(101110) -->
<g id="node7" class="node"><title>(46)(101110)</title>
<g id="a_node7"><a xlink:href="46.svg" xlink:title="(46)(101110)">
<polygon fill="purple" stroke="none" points="1565,-47 1356,-47 1356,3.55271e-015 1565,3.55271e-015 1565,-47"/>
<text text-anchor="middle" x="1460.5" y="-15" font-family="Times New Roman,serif" font-size="35.00">(46)(101110)</text>
</a>
</g>
</g>
<!-- (13)(001101)&#45;&gt;(46)(101110) -->
<g id="edge6" class="edge"><title>(13)(001101)&#45;&gt;(46)(101110)</title>
<path fill="none" stroke="green" stroke-width="4" d="M845.204,-64.9168C861.498,-59.6025 879.222,-54.6172 896,-51.5 1045.56,-23.7133 1221.04,-19.3354 1335.95,-20.1906"/>
<polygon fill="green" stroke="green" stroke-width="4" points="1335.9,-27.1904 1355.97,-20.3973 1336.04,-13.1912 1335.9,-27.1904"/>
<text text-anchor="middle" x="1121.5" y="-60.5" font-family="Times New Roman,serif" font-size="30.00"> &#160;&#160;37 &#160;&#160;73% &#160;&#160;0.00105218 mol/s &#160;&#160;&#160;0.50</text>
</g>
<!-- (5)(000101) -->
<g id="node2" class="node"><title>(5)(000101)</title>
<g id="a_node2"><a xlink:href="5.svg" xlink:title="(5)(000101)">
<polygon fill="dodgerblue" stroke="none" points="200,-177 9,-177 9,-130 200,-130 200,-177"/>
<text text-anchor="middle" x="104.5" y="-145" font-family="Times New Roman,serif" font-size="35.00">(5)(000101)</text>
</a>
</g>
</g>
<!-- (5)(000101)&#45;&gt;(13)(001101) -->
<g id="edge1" class="edge"><title>(5)(000101)&#45;&gt;(13)(001101)</title>
<path fill="none" stroke="green" stroke-width="5" d="M200.117,-156.473C312.803,-158.255 506.249,-155.738 669,-125.5 679.355,-123.576 690.071,-120.941 700.588,-117.955"/>
<polygon fill="green" stroke="green" stroke-width="5" points="703.228,-126.298 719.796,-112.083 698.111,-109.563 703.228,-126.298"/>
<text text-anchor="middle" x="443.5" y="-165.5" font-family="Times New Roman,serif" font-size="30.00"> &#160;&#160;15 &#160;&#160;90% &#160;&#160;0.00128465 mol/s &#160;&#160;&#160;0.50</text>
</g>
<!-- (9)(001001) -->
<g id="node3" class="node"><title>(9)(001001)</title>
<g id="a_node3"><a xlink:href="9.svg" xlink:title="(9)(001001)">
<polygon fill="springgreen" stroke="none" points="200,-112 9,-112 9,-65 200,-65 200,-112"/>
<text text-anchor="middle" x="104.5" y="-80" font-family="Times New Roman,serif" font-size="35.00">(9)(001001)</text>
</a>
</g>
</g>
<!-- (9)(001001)&#45;&gt;(13)(001101) -->
<g id="edge2" class="edge"><title>(9)(001001)&#45;&gt;(13)(001101)</title>
<path fill="none" stroke="green" d="M200.207,-88.5C322.829,-88.5 536.331,-88.5 667.647,-88.5"/>
<polygon fill="green" stroke="green" points="667.74,-92.0001 677.74,-88.5 667.74,-85.0001 667.74,-92.0001"/>
<text text-anchor="middle" x="443.5" y="-97.5" font-family="Times New Roman,serif" font-size="30.00"> &#160;&#160;26 &#160;&#160;9% &#160;&#160;0.00013719 mol/s &#160;&#160;&#160;0.50</text>
</g>
<!-- (45)(101101) -->
<g id="node6" class="node"><title>(45)(101101)</title>
<g id="a_node6"><a xlink:href="45.svg" xlink:title="(45)(101101)">
<polygon fill="purple" stroke="none" points="209,-47 0,-47 0,3.55271e-015 209,3.55271e-015 209,-47"/>
<text text-anchor="middle" x="104.5" y="-15" font-family="Times New Roman,serif" font-size="35.00">(45)(101101)</text>
</a>
</g>
</g>
<!-- (45)(101101)&#45;&gt;(13)(001101) -->
<g id="edge5" class="edge"><title>(45)(101101)&#45;&gt;(13)(001101)</title>
<path fill="none" stroke="green" d="M209.029,-20.3973C322.798,-18.8941 510.462,-22.045 669,-51.5 682.501,-54.0084 696.615,-57.7264 710.103,-61.8521"/>
<polygon fill="green" stroke="green" points="709.206,-65.2392 719.796,-64.9168 711.316,-58.5648 709.206,-65.2392"/>
<text text-anchor="middle" x="443.5" y="-60.5" font-family="Times New Roman,serif" font-size="30.00"> &#160;&#160;36 &#160;&#160;0% &#160;&#160;9e&#45;08 mol/s &#160;&#160;&#160;0.50</text>
</g>
</g>
</svg>
