<?xml version="1.0" encoding="UTF-8" standalone="no"?>
<!DOCTYPE svg PUBLIC "-//W3C//DTD SVG 1.1//EN"
 "http://www.w3.org/Graphics/SVG/1.1/DTD/svg11.dtd">
<!-- Generated by graphviz version 2.38.0 (20140413.2041)
 -->
<!-- Title: G Pages: 1 -->
<svg width="640pt" height="98pt"
 viewBox="0.00 0.00 720.00 110.27" xmlns="http://www.w3.org/2000/svg" xmlns:xlink="http://www.w3.org/1999/xlink">
<g id="graph0" class="graph" transform="scale(0.399251 0.399251) rotate(0) translate(4 241.5)">
<title>G</title>
<polygon fill="white" stroke="none" points="-4,4 -4,-241.5 1599,-241.5 1599,4 -4,4"/>
<text text-anchor="middle" x="797.5" y="-204.7" font-family="Arial" font-size="36.00" fill="blue">Reaction Path Analysis</text>
<!-- (16)(010000) -->
<g id="node1" class="node"><title>(16)(010000)</title>
<g id="a_node1"><a xlink:href="16.svg" xlink:title="(16)(010000)">
<polygon fill="gold" stroke="none" points="902,-112 693,-112 693,-65 902,-65 902,-112"/>
<text text-anchor="middle" x="797.5" y="-80" font-family="Times New Roman,serif" font-size="35.00">(16)(010000)</text>
</a>
</g>
</g>
<!-- (24)(011000) -->
<g id="node5" class="node"><title>(24)(011000)</title>
<g id="a_node5"><a xlink:href="24.svg" xlink:title="(24)(011000)">
<polygon fill="darkorange" stroke="none" points="1595,-145 1386,-145 1386,-98 1595,-98 1595,-145"/>
<text text-anchor="middle" x="1490.5" y="-113" font-family="Times New Roman,serif" font-size="35.00">(24)(011000)</text>
</a>
</g>
</g>
<!-- (16)(010000)&#45;&gt;(24)(011000) -->
<g id="edge4" class="edge"><title>(16)(010000)&#45;&gt;(24)(011000)</title>
<path fill="none" stroke="green" stroke-width="5" d="M902.078,-98.8614C905.084,-99.0871 908.063,-99.3008 911,-99.5 1067.72,-110.132 1248.7,-115.982 1365.9,-118.926"/>
<polygon fill="green" stroke="green" stroke-width="5" points="1365.74,-127.675 1385.95,-119.417 1366.17,-110.18 1365.74,-127.675"/>
<text text-anchor="middle" x="1144" y="-127.5" font-family="Times New Roman,serif" font-size="30.00"> &#160;&#160;42 &#160;&#160;99% &#160;&#160;47.16625408 mol/s &#160;&#160;&#160;0.50</text>
</g>
<!-- (48)(110000) -->
<g id="node6" class="node"><title>(48)(110000)</title>
<g id="a_node6"><a xlink:href="48.svg" xlink:title="(48)(110000)">
<polygon fill="springgreen" stroke="none" points="1595,-80 1386,-80 1386,-33 1595,-33 1595,-80"/>
<text text-anchor="middle" x="1490.5" y="-48" font-family="Times New Roman,serif" font-size="35.00">(48)(110000)</text>
</a>
</g>
</g>
<!-- (16)(010000)&#45;&gt;(48)(110000) -->
<g id="edge5" class="edge"><title>(16)(010000)&#45;&gt;(48)(110000)</title>
<path fill="none" stroke="green" d="M902.297,-67.5127C905.225,-67.1423 908.13,-66.803 911,-66.5 1071.76,-49.5248 1259.02,-49.9405 1375.93,-52.5902"/>
<polygon fill="green" stroke="green" points="1375.89,-56.0901 1385.97,-52.8272 1376.06,-49.0921 1375.89,-56.0901"/>
<text text-anchor="middle" x="1144" y="-75.5" font-family="Times New Roman,serif" font-size="30.00"> &#160;&#160;43 &#160;&#160;0% &#160;&#160;0.29563089 mol/s &#160;&#160;&#160;0.50</text>
</g>
<!-- (8)(001000) -->
<g id="node2" class="node"><title>(8)(001000)</title>
<g id="a_node2"><a xlink:href="8.svg" xlink:title="(8)(001000)">
<polygon fill="dodgerblue" stroke="none" points="200,-177 9,-177 9,-130 200,-130 200,-177"/>
<text text-anchor="middle" x="104.5" y="-145" font-family="Times New Roman,serif" font-size="35.00">(8)(001000)</text>
</a>
</g>
</g>
<!-- (8)(001000)&#45;&gt;(16)(010000) -->
<g id="edge1" class="edge"><title>(8)(001000)&#45;&gt;(16)(010000)</title>
<path fill="none" stroke="green" d="M200.08,-156.669C315.376,-158.76 515.671,-156.662 684,-125.5 697.584,-122.985 711.787,-119.242 725.349,-115.088"/>
<polygon fill="green" stroke="green" points="726.616,-118.358 735.093,-112.002 724.503,-111.684 726.616,-118.358"/>
<text text-anchor="middle" x="451" y="-165.5" font-family="Times New Roman,serif" font-size="30.00"> &#160;&#160;24 &#160;&#160;0% &#160;&#160;1.382e&#45;05 mol/s &#160;&#160;&#160;0.50</text>
</g>
<!-- (17)(010001) -->
<g id="node3" class="node"><title>(17)(010001)</title>
<g id="a_node3"><a xlink:href="17.svg" xlink:title="(17)(010001)">
<polygon fill="springgreen" stroke="none" points="209,-112 0,-112 0,-65 209,-65 209,-112"/>
<text text-anchor="middle" x="104.5" y="-80" font-family="Times New Roman,serif" font-size="35.00">(17)(010001)</text>
</a>
</g>
</g>
<!-- (17)(010001)&#45;&gt;(16)(010000) -->
<g id="edge2" class="edge"><title>(17)(010001)&#45;&gt;(16)(010000)</title>
<path fill="none" stroke="green" stroke-width="5" d="M209.324,-88.5C333.28,-88.5 540.387,-88.5 672.598,-88.5"/>
<polygon fill="green" stroke="green" stroke-width="5" points="672.747,-97.2501 692.747,-88.5 672.747,-79.7501 672.747,-97.2501"/>
<text text-anchor="middle" x="451" y="-97.5" font-family="Times New Roman,serif" font-size="30.00"> &#160;&#160;40 &#160;&#160;95% &#160;&#160;45.15329479 mol/s &#160;&#160;&#160;0.50</text>
</g>
<!-- (20)(010100) -->
<g id="node4" class="node"><title>(20)(010100)</title>
<g id="a_node4"><a xlink:href="20.svg" xlink:title="(20)(010100)">
<polygon fill="springgreen" stroke="none" points="209,-47 0,-47 0,3.55271e-015 209,3.55271e-015 209,-47"/>
<text text-anchor="middle" x="104.5" y="-15" font-family="Times New Roman,serif" font-size="35.00">(20)(010100)</text>
</a>
</g>
</g>
<!-- (20)(010100)&#45;&gt;(16)(010000) -->
<g id="edge3" class="edge"><title>(20)(010100)&#45;&gt;(16)(010000)</title>
<path fill="none" stroke="green" d="M209.134,-20.1785C325.649,-18.367 519.997,-21.1386 684,-51.5 697.584,-54.0148 711.787,-57.7583 725.349,-61.9124"/>
<polygon fill="green" stroke="green" points="724.503,-65.3156 735.093,-64.9981 726.616,-58.6422 724.503,-65.3156"/>
<text text-anchor="middle" x="451" y="-60.5" font-family="Times New Roman,serif" font-size="30.00"> &#160;&#160;41 &#160;&#160;4% &#160;&#160;2.30857636 mol/s &#160;&#160;&#160;0.50</text>
</g>
</g>
</svg>
