<?xml version="1.0" encoding="UTF-8" standalone="no"?>
<!DOCTYPE svg PUBLIC "-//W3C//DTD SVG 1.1//EN"
 "http://www.w3.org/Graphics/SVG/1.1/DTD/svg11.dtd">
<!-- Generated by graphviz version 2.38.0 (20140413.2041)
 -->
<!-- Title: G Pages: 1 -->
<svg width="640pt" height="98pt"
 viewBox="0.00 0.00 720.00 110.27" xmlns="http://www.w3.org/2000/svg" xmlns:xlink="http://www.w3.org/1999/xlink">
<g id="graph0" class="graph" transform="scale(0.399251 0.399251) rotate(0) translate(4 241.5)">
<title>G</title>
<polygon fill="white" stroke="none" points="-4,4 -4,-241.5 1599,-241.5 1599,4 -4,4"/>
<text text-anchor="middle" x="797.5" y="-204.7" font-family="Arial" font-size="36.00" fill="blue">Reaction Path Analysis</text>
<!-- (17)(010001) -->
<g id="node1" class="node"><title>(17)(010001)</title>
<g id="a_node1"><a xlink:href="17.svg" xlink:title="(17)(010001)">
<polygon fill="springgreen" stroke="none" points="902,-112 693,-112 693,-65 902,-65 902,-112"/>
<text text-anchor="middle" x="797.5" y="-80" font-family="Times New Roman,serif" font-size="35.00">(17)(010001)</text>
</a>
</g>
</g>
<!-- (16)(010000) -->
<g id="node3" class="node"><title>(16)(010000)</title>
<g id="a_node3"><a xlink:href="16.svg" xlink:title="(16)(010000)">
<polygon fill="gold" stroke="none" points="1595,-177 1386,-177 1386,-130 1595,-130 1595,-177"/>
<text text-anchor="middle" x="1490.5" y="-145" font-family="Times New Roman,serif" font-size="35.00">(16)(010000)</text>
</a>
</g>
</g>
<!-- (17)(010001)&#45;&gt;(16)(010000) -->
<g id="edge2" class="edge"><title>(17)(010001)&#45;&gt;(16)(010000)</title>
<path fill="none" stroke="green" stroke-width="5" d="M859.907,-112.002C876.281,-117.352 894.119,-122.375 911,-125.5 1065.87,-154.171 1247.81,-158.239 1365.7,-157.077"/>
<polygon fill="green" stroke="green" stroke-width="5" points="1365.98,-165.825 1385.87,-156.821 1365.76,-148.326 1365.98,-165.825"/>
<text text-anchor="middle" x="1144" y="-165.5" font-family="Times New Roman,serif" font-size="30.00"> &#160;&#160;40 &#160;&#160;99% &#160;&#160;45.15329479 mol/s &#160;&#160;&#160;0.50</text>
</g>
<!-- (25)(011001) -->
<g id="node5" class="node"><title>(25)(011001)</title>
<g id="a_node5"><a xlink:href="25.svg" xlink:title="(25)(011001)">
<polygon fill="springgreen" stroke="none" points="1595,-112 1386,-112 1386,-65 1595,-65 1595,-112"/>
<text text-anchor="middle" x="1490.5" y="-80" font-family="Times New Roman,serif" font-size="35.00">(25)(011001)</text>
</a>
</g>
</g>
<!-- (17)(010001)&#45;&gt;(25)(011001) -->
<g id="edge4" class="edge"><title>(17)(010001)&#45;&gt;(25)(011001)</title>
<path fill="none" stroke="green" d="M902.324,-88.5C1029.46,-88.5 1244.08,-88.5 1375.64,-88.5"/>
<polygon fill="green" stroke="green" points="1375.75,-92.0001 1385.75,-88.5 1375.75,-85.0001 1375.75,-92.0001"/>
<text text-anchor="middle" x="1144" y="-97.5" font-family="Times New Roman,serif" font-size="30.00"> &#160;&#160;45 &#160;&#160;0% &#160;&#160;0.19163567 mol/s &#160;&#160;&#160;0.50</text>
</g>
<!-- (49)(110001) -->
<g id="node6" class="node"><title>(49)(110001)</title>
<g id="a_node6"><a xlink:href="49.svg" xlink:title="(49)(110001)">
<polygon fill="dodgerblue" stroke="none" points="1595,-47 1386,-47 1386,3.55271e-015 1595,3.55271e-015 1595,-47"/>
<text text-anchor="middle" x="1490.5" y="-15" font-family="Times New Roman,serif" font-size="35.00">(49)(110001)</text>
</a>
</g>
</g>
<!-- (17)(010001)&#45;&gt;(49)(110001) -->
<g id="edge5" class="edge"><title>(17)(010001)&#45;&gt;(49)(110001)</title>
<path fill="none" stroke="green" d="M859.907,-64.9981C876.281,-59.648 894.119,-54.6252 911,-51.5 1070.36,-21.9985 1258.37,-18.5461 1375.78,-20.0362"/>
<polygon fill="green" stroke="green" points="1375.82,-23.5369 1385.87,-20.1785 1375.92,-16.5376 1375.82,-23.5369"/>
<text text-anchor="middle" x="1144" y="-60.5" font-family="Times New Roman,serif" font-size="30.00"> &#160;&#160;46 &#160;&#160;0% &#160;&#160;0.00316476 mol/s &#160;&#160;&#160;0.50</text>
</g>
<!-- (9)(001001) -->
<g id="node2" class="node"><title>(9)(001001)</title>
<g id="a_node2"><a xlink:href="9.svg" xlink:title="(9)(001001)">
<polygon fill="springgreen" stroke="none" points="200,-177 9,-177 9,-130 200,-130 200,-177"/>
<text text-anchor="middle" x="104.5" y="-145" font-family="Times New Roman,serif" font-size="35.00">(9)(001001)</text>
</a>
</g>
</g>
<!-- (9)(001001)&#45;&gt;(17)(010001) -->
<g id="edge1" class="edge"><title>(9)(001001)&#45;&gt;(17)(010001)</title>
<path fill="none" stroke="green" d="M200.08,-156.669C315.376,-158.76 515.671,-156.662 684,-125.5 697.584,-122.985 711.787,-119.242 725.349,-115.088"/>
<polygon fill="green" stroke="green" points="726.616,-118.358 735.093,-112.002 724.503,-111.684 726.616,-118.358"/>
<text text-anchor="middle" x="451" y="-165.5" font-family="Times New Roman,serif" font-size="30.00"> &#160;&#160;27 &#160;&#160;0% &#160;&#160;0.000312 mol/s &#160;&#160;&#160;0.50</text>
</g>
<!-- (21)(010101) -->
<g id="node4" class="node"><title>(21)(010101)</title>
<g id="a_node4"><a xlink:href="21.svg" xlink:title="(21)(010101)">
<polygon fill="dodgerblue" stroke="none" points="209,-112 0,-112 0,-65 209,-65 209,-112"/>
<text text-anchor="middle" x="104.5" y="-80" font-family="Times New Roman,serif" font-size="35.00">(21)(010101)</text>
</a>
</g>
</g>
<!-- (21)(010101)&#45;&gt;(17)(010001) -->
<g id="edge3" class="edge"><title>(21)(010101)&#45;&gt;(17)(010001)</title>
<path fill="none" stroke="green" d="M209.324,-88.5C336.465,-88.5 551.085,-88.5 682.638,-88.5"/>
<polygon fill="green" stroke="green" points="682.747,-92.0001 692.747,-88.5 682.747,-85.0001 682.747,-92.0001"/>
<text text-anchor="middle" x="451" y="-97.5" font-family="Times New Roman,serif" font-size="30.00"> &#160;&#160;44 &#160;&#160;0% &#160;&#160;0.06598486 mol/s &#160;&#160;&#160;0.50</text>
</g>
<!-- (50)(110010) -->
<g id="node7" class="node"><title>(50)(110010)</title>
<g id="a_node7"><a xlink:href="50.svg" xlink:title="(50)(110010)">
<polygon fill="orange" stroke="none" points="209,-47 0,-47 0,3.55271e-015 209,3.55271e-015 209,-47"/>
<text text-anchor="middle" x="104.5" y="-15" font-family="Times New Roman,serif" font-size="35.00">(50)(110010)</text>
</a>
</g>
</g>
<!-- (50)(110010)&#45;&gt;(17)(010001) -->
<g id="edge6" class="edge"><title>(50)(110010)&#45;&gt;(17)(010001)</title>
<path fill="none" stroke="green" stroke-width="5" d="M209.134,-20.1785C325.649,-18.367 519.997,-21.1386 684,-51.5 694.419,-53.4288 705.202,-56.0805 715.78,-59.0858"/>
<polygon fill="green" stroke="green" stroke-width="5" points="713.407,-67.5101 735.093,-64.9981 718.53,-50.7767 713.407,-67.5101"/>
<text text-anchor="middle" x="451" y="-60.5" font-family="Times New Roman,serif" font-size="30.00"> &#160;&#160;47 &#160;&#160;99% &#160;&#160;45.28179837 mol/s &#160;&#160;&#160;0.50</text>
</g>
</g>
</svg>
