<?xml version="1.0" encoding="UTF-8" standalone="no"?>
<!DOCTYPE svg PUBLIC "-//W3C//DTD SVG 1.1//EN"
 "http://www.w3.org/Graphics/SVG/1.1/DTD/svg11.dtd">
<!-- Generated by graphviz version 2.38.0 (20140413.2041)
 -->
<!-- Title: G Pages: 1 -->
<svg width="640pt" height="130pt"
 viewBox="0.00 0.00 720.00 146.24" xmlns="http://www.w3.org/2000/svg" xmlns:xlink="http://www.w3.org/1999/xlink">
<g id="graph0" class="graph" transform="scale(0.406866 0.406866) rotate(0) translate(4 315.5)">
<title>G</title>
<polygon fill="white" stroke="none" points="-4,4 -4,-315.5 1569,-315.5 1569,4 -4,4"/>
<text text-anchor="middle" x="782.5" y="-278.7" font-family="Arial" font-size="36.00" fill="blue">Reaction Path Analysis</text>
<!-- (21)(010101) -->
<g id="node1" class="node"><title>(21)(010101)</title>
<g id="a_node1"><a xlink:href="21.svg" xlink:title="(21)(010101)">
<polygon fill="dodgerblue" stroke="none" points="887,-144 678,-144 678,-97 887,-97 887,-144"/>
<text text-anchor="middle" x="782.5" y="-112" font-family="Times New Roman,serif" font-size="35.00">(21)(010101)</text>
</a>
</g>
</g>
<!-- (17)(010001) -->
<g id="node3" class="node"><title>(17)(010001)</title>
<g id="a_node3"><a xlink:href="17.svg" xlink:title="(17)(010001)">
<polygon fill="springgreen" stroke="none" points="1565,-242 1356,-242 1356,-195 1565,-195 1565,-242"/>
<text text-anchor="middle" x="1460.5" y="-210" font-family="Times New Roman,serif" font-size="35.00">(17)(010001)</text>
</a>
</g>
</g>
<!-- (21)(010101)&#45;&gt;(17)(010001) -->
<g id="edge2" class="edge"><title>(21)(010101)&#45;&gt;(17)(010001)</title>
<path fill="none" stroke="green" stroke-width="2" d="M814.046,-144.249C835.647,-159.593 865.994,-178.348 896,-187.5 1046.44,-233.387 1229.79,-233.915 1345.61,-227.927"/>
<polygon fill="green" stroke="green" stroke-width="2" points="1346.12,-231.405 1355.91,-227.368 1345.74,-224.415 1346.12,-231.405"/>
<text text-anchor="middle" x="1121.5" y="-239.5" font-family="Times New Roman,serif" font-size="30.00"> &#160;&#160;44 &#160;&#160;30% &#160;&#160;0.06598486 mol/s &#160;&#160;&#160;0.50</text>
</g>
<!-- (20)(010100) -->
<g id="node4" class="node"><title>(20)(010100)</title>
<g id="a_node4"><a xlink:href="20.svg" xlink:title="(20)(010100)">
<polygon fill="springgreen" stroke="none" points="1565,-177 1356,-177 1356,-130 1565,-130 1565,-177"/>
<text text-anchor="middle" x="1460.5" y="-145" font-family="Times New Roman,serif" font-size="35.00">(20)(010100)</text>
</a>
</g>
</g>
<!-- (21)(010101)&#45;&gt;(20)(010100) -->
<g id="edge3" class="edge"><title>(21)(010101)&#45;&gt;(20)(010100)</title>
<path fill="none" stroke="green" stroke-width="4" d="M887.078,-130.857C890.084,-131.084 893.063,-131.299 896,-131.5 1047.07,-141.826 1221.29,-147.705 1335.54,-150.742"/>
<polygon fill="green" stroke="green" stroke-width="4" points="1335.63,-157.746 1355.8,-151.267 1335.99,-143.751 1335.63,-157.746"/>
<text text-anchor="middle" x="1121.5" y="-159.5" font-family="Times New Roman,serif" font-size="30.00"> &#160;&#160;52 &#160;&#160;67% &#160;&#160;0.14552501 mol/s &#160;&#160;&#160;0.50</text>
</g>
<!-- (29)(011101) -->
<g id="node5" class="node"><title>(29)(011101)</title>
<g id="a_node5"><a xlink:href="29.svg" xlink:title="(29)(011101)">
<polygon fill="dodgerblue" stroke="none" points="1565,-112 1356,-112 1356,-65 1565,-65 1565,-112"/>
<text text-anchor="middle" x="1460.5" y="-80" font-family="Times New Roman,serif" font-size="35.00">(29)(011101)</text>
</a>
</g>
</g>
<!-- (21)(010101)&#45;&gt;(29)(011101) -->
<g id="edge4" class="edge"><title>(21)(010101)&#45;&gt;(29)(011101)</title>
<path fill="none" stroke="green" d="M887.297,-99.5145C890.225,-99.1435 893.13,-98.8037 896,-98.5 1051.14,-82.0829 1231.61,-82.2362 1345.68,-84.6877"/>
<polygon fill="green" stroke="green" points="1345.75,-88.19 1355.82,-84.9155 1345.91,-81.1918 1345.75,-88.19"/>
<text text-anchor="middle" x="1121.5" y="-107.5" font-family="Times New Roman,serif" font-size="30.00"> &#160;&#160;56 &#160;&#160;1% &#160;&#160;0.00244509 mol/s &#160;&#160;&#160;0.50</text>
</g>
<!-- (53)(110101) -->
<g id="node7" class="node"><title>(53)(110101)</title>
<g id="a_node7"><a xlink:href="53.svg" xlink:title="(53)(110101)">
<polygon fill="dodgerblue" stroke="none" points="1565,-47 1356,-47 1356,3.55271e-015 1565,3.55271e-015 1565,-47"/>
<text text-anchor="middle" x="1460.5" y="-15" font-family="Times New Roman,serif" font-size="35.00">(53)(110101)</text>
</a>
</g>
</g>
<!-- (21)(010101)&#45;&gt;(53)(110101) -->
<g id="edge6" class="edge"><title>(21)(010101)&#45;&gt;(53)(110101)</title>
<path fill="none" stroke="green" d="M809.905,-96.7123C831.392,-78.9773 863.399,-56.0694 896,-45.5 1045.77,3.05566 1229.73,-0.710348 1345.84,-10.2239"/>
<polygon fill="green" stroke="green" points="1345.55,-13.7123 1355.81,-11.0693 1346.14,-6.73732 1345.55,-13.7123"/>
<text text-anchor="middle" x="1121.5" y="-54.5" font-family="Times New Roman,serif" font-size="30.00"> &#160;&#160;58 &#160;&#160;0% &#160;&#160;0.00014129 mol/s &#160;&#160;&#160;0.50</text>
</g>
<!-- (13)(001101) -->
<g id="node2" class="node"><title>(13)(001101)</title>
<g id="a_node2"><a xlink:href="13.svg" xlink:title="(13)(001101)">
<polygon fill="purple" stroke="none" points="209,-209 0,-209 0,-162 209,-162 209,-209"/>
<text text-anchor="middle" x="104.5" y="-177" font-family="Times New Roman,serif" font-size="35.00">(13)(001101)</text>
</a>
</g>
</g>
<!-- (13)(001101)&#45;&gt;(21)(010101) -->
<g id="edge1" class="edge"><title>(13)(001101)&#45;&gt;(21)(010101)</title>
<path fill="none" stroke="green" d="M209.029,-188.603C322.798,-190.106 510.462,-186.955 669,-157.5 682.501,-154.992 696.615,-151.274 710.103,-147.148"/>
<polygon fill="green" stroke="green" points="711.316,-150.435 719.796,-144.083 709.206,-143.761 711.316,-150.435"/>
<text text-anchor="middle" x="443.5" y="-197.5" font-family="Times New Roman,serif" font-size="30.00"> &#160;&#160;35 &#160;&#160;0% &#160;&#160;3e&#45;08 mol/s &#160;&#160;&#160;0.50</text>
</g>
<!-- (51)(110011) -->
<g id="node6" class="node"><title>(51)(110011)</title>
<g id="a_node6"><a xlink:href="51.svg" xlink:title="(51)(110011)">
<polygon fill="lawngreen" stroke="none" points="209,-144 0,-144 0,-97 209,-97 209,-144"/>
<text text-anchor="middle" x="104.5" y="-112" font-family="Times New Roman,serif" font-size="35.00">(51)(110011)</text>
</a>
</g>
</g>
<!-- (51)(110011)&#45;&gt;(21)(010101) -->
<g id="edge5" class="edge"><title>(51)(110011)&#45;&gt;(21)(010101)</title>
<path fill="none" stroke="green" stroke-width="4" d="M209.274,-120.5C330.039,-120.5 529.284,-120.5 657.931,-120.5"/>
<polygon fill="green" stroke="green" stroke-width="4" points="657.949,-127.5 677.949,-120.5 657.949,-113.5 657.949,-127.5"/>
<text text-anchor="middle" x="443.5" y="-129.5" font-family="Times New Roman,serif" font-size="30.00"> &#160;&#160;57 &#160;&#160;76% &#160;&#160;0.16289546 mol/s &#160;&#160;&#160;0.50</text>
</g>
<!-- (54)(110110) -->
<g id="node8" class="node"><title>(54)(110110)</title>
<g id="a_node8"><a xlink:href="54.svg" xlink:title="(54)(110110)">
<polygon fill="springgreen" stroke="none" points="209,-79 0,-79 0,-32 209,-32 209,-79"/>
<text text-anchor="middle" x="104.5" y="-47" font-family="Times New Roman,serif" font-size="35.00">(54)(110110)</text>
</a>
</g>
</g>
<!-- (54)(110110)&#45;&gt;(21)(010101) -->
<g id="edge7" class="edge"><title>(54)(110110)&#45;&gt;(21)(010101)</title>
<path fill="none" stroke="green" stroke-width="2" d="M209.029,-52.3973C322.798,-50.8941 510.462,-54.045 669,-83.5 682.501,-86.0084 696.615,-89.7264 710.103,-93.8521"/>
<polygon fill="green" stroke="green" stroke-width="2" points="709.206,-97.2392 719.796,-96.9168 711.316,-90.5648 709.206,-97.2392"/>
<text text-anchor="middle" x="443.5" y="-92.5" font-family="Times New Roman,serif" font-size="30.00"> &#160;&#160;59 &#160;&#160;23% &#160;&#160;0.05120075 mol/s &#160;&#160;&#160;0.50</text>
</g>
</g>
</svg>
