<?xml version="1.0" encoding="UTF-8" standalone="no"?>
<!DOCTYPE svg PUBLIC "-//W3C//DTD SVG 1.1//EN"
 "http://www.w3.org/Graphics/SVG/1.1/DTD/svg11.dtd">
<!-- Generated by graphviz version 2.38.0 (20140413.2041)
 -->
<!-- Title: G Pages: 1 -->
<svg width="640pt" height="70pt"
 viewBox="0.00 0.00 720.00 78.38" xmlns="http://www.w3.org/2000/svg" xmlns:xlink="http://www.w3.org/1999/xlink">
<g id="graph0" class="graph" transform="scale(0.399251 0.399251) rotate(0) translate(4 170.5)">
<title>G</title>
<polygon fill="white" stroke="none" points="-4,4 -4,-170.5 1599,-170.5 1599,4 -4,4"/>
<text text-anchor="middle" x="797.5" y="-133.7" font-family="Arial" font-size="36.00" fill="blue">Reaction Path Analysis</text>
<!-- (24)(011000) -->
<g id="node1" class="node"><title>(24)(011000)</title>
<g id="a_node1"><a xlink:href="24.svg" xlink:title="(24)(011000)">
<polygon fill="darkorange" stroke="none" points="902,-79 693,-79 693,-32 902,-32 902,-79"/>
<text text-anchor="middle" x="797.5" y="-47" font-family="Times New Roman,serif" font-size="35.00">(24)(011000)</text>
</a>
</g>
</g>
<!-- (25)(011001) -->
<g id="node3" class="node"><title>(25)(011001)</title>
<g id="a_node3"><a xlink:href="25.svg" xlink:title="(25)(011001)">
<polygon fill="springgreen" stroke="none" points="1595,-112 1386,-112 1386,-65 1595,-65 1595,-112"/>
<text text-anchor="middle" x="1490.5" y="-80" font-family="Times New Roman,serif" font-size="35.00">(25)(011001)</text>
</a>
</g>
</g>
<!-- (24)(011000)&#45;&gt;(25)(011001) -->
<g id="edge2" class="edge"><title>(24)(011000)&#45;&gt;(25)(011001)</title>
<path fill="none" stroke="green" stroke-width="5" d="M902.078,-65.8614C905.084,-66.0871 908.063,-66.3008 911,-66.5 1067.72,-77.1323 1248.7,-82.9822 1365.9,-85.9262"/>
<polygon fill="green" stroke="green" stroke-width="5" points="1365.74,-94.6747 1385.95,-86.4169 1366.17,-77.18 1365.74,-94.6747"/>
<text text-anchor="middle" x="1144" y="-94.5" font-family="Times New Roman,serif" font-size="30.00"> &#160;&#160;64 &#160;&#160;98% &#160;&#160;46.52893392 mol/s &#160;&#160;&#160;0.50</text>
</g>
<!-- (56)(111000) -->
<g id="node5" class="node"><title>(56)(111000)</title>
<g id="a_node5"><a xlink:href="56.svg" xlink:title="(56)(111000)">
<polygon fill="springgreen" stroke="none" points="1595,-47 1386,-47 1386,3.55271e-015 1595,3.55271e-015 1595,-47"/>
<text text-anchor="middle" x="1490.5" y="-15" font-family="Times New Roman,serif" font-size="35.00">(56)(111000)</text>
</a>
</g>
</g>
<!-- (24)(011000)&#45;&gt;(56)(111000) -->
<g id="edge4" class="edge"><title>(24)(011000)&#45;&gt;(56)(111000)</title>
<path fill="none" stroke="green" d="M902.297,-34.5127C905.225,-34.1423 908.13,-33.803 911,-33.5 1071.76,-16.5248 1259.02,-16.9405 1375.93,-19.5902"/>
<polygon fill="green" stroke="green" points="1375.89,-23.0901 1385.97,-19.8272 1376.06,-16.0921 1375.89,-23.0901"/>
<text text-anchor="middle" x="1144" y="-42.5" font-family="Times New Roman,serif" font-size="30.00"> &#160;&#160;66 &#160;&#160;1% &#160;&#160;0.64579661 mol/s &#160;&#160;&#160;0.50</text>
</g>
<!-- (16)(010000) -->
<g id="node2" class="node"><title>(16)(010000)</title>
<g id="a_node2"><a xlink:href="16.svg" xlink:title="(16)(010000)">
<polygon fill="gold" stroke="none" points="209,-112 0,-112 0,-65 209,-65 209,-112"/>
<text text-anchor="middle" x="104.5" y="-80" font-family="Times New Roman,serif" font-size="35.00">(16)(010000)</text>
</a>
</g>
</g>
<!-- (16)(010000)&#45;&gt;(24)(011000) -->
<g id="edge1" class="edge"><title>(16)(010000)&#45;&gt;(24)(011000)</title>
<path fill="none" stroke="green" stroke-width="5" d="M209.054,-86.4169C320.472,-83.7604 503.442,-78.2036 672.866,-67.1948"/>
<polygon fill="green" stroke="green" stroke-width="5" points="673.547,-75.919 692.922,-65.8614 672.385,-58.4576 673.547,-75.919"/>
<text text-anchor="middle" x="451" y="-94.5" font-family="Times New Roman,serif" font-size="30.00"> &#160;&#160;42 &#160;&#160;99% &#160;&#160;47.16625408 mol/s &#160;&#160;&#160;0.50</text>
</g>
<!-- (28)(011100) -->
<g id="node4" class="node"><title>(28)(011100)</title>
<g id="a_node4"><a xlink:href="28.svg" xlink:title="(28)(011100)">
<polygon fill="springgreen" stroke="none" points="209,-47 0,-47 0,3.55271e-015 209,3.55271e-015 209,-47"/>
<text text-anchor="middle" x="104.5" y="-15" font-family="Times New Roman,serif" font-size="35.00">(28)(011100)</text>
</a>
</g>
</g>
<!-- (28)(011100)&#45;&gt;(24)(011000) -->
<g id="edge3" class="edge"><title>(28)(011100)&#45;&gt;(24)(011000)</title>
<path fill="none" stroke="green" d="M209.029,-19.8272C322.83,-17.0337 511.209,-16.0669 682.734,-33.4779"/>
<polygon fill="green" stroke="green" points="682.395,-36.9614 692.703,-34.5127 683.118,-29.9989 682.395,-36.9614"/>
<text text-anchor="middle" x="451" y="-42.5" font-family="Times New Roman,serif" font-size="30.00"> &#160;&#160;65 &#160;&#160;0% &#160;&#160;0.00847645 mol/s &#160;&#160;&#160;0.50</text>
</g>
</g>
</svg>
