<?xml version="1.0" encoding="UTF-8" standalone="no"?>
<!DOCTYPE svg PUBLIC "-//W3C//DTD SVG 1.1//EN"
 "http://www.w3.org/Graphics/SVG/1.1/DTD/svg11.dtd">
<!-- Generated by graphviz version 2.38.0 (20140413.2041)
 -->
<!-- Title: G Pages: 1 -->
<svg width="640pt" height="98pt"
 viewBox="0.00 0.00 720.00 110.27" xmlns="http://www.w3.org/2000/svg" xmlns:xlink="http://www.w3.org/1999/xlink">
<g id="graph0" class="graph" transform="scale(0.399251 0.399251) rotate(0) translate(4 241.5)">
<title>G</title>
<polygon fill="white" stroke="none" points="-4,4 -4,-241.5 1599,-241.5 1599,4 -4,4"/>
<text text-anchor="middle" x="797.5" y="-204.7" font-family="Arial" font-size="36.00" fill="blue">Reaction Path Analysis</text>
<!-- (25)(011001) -->
<g id="node1" class="node"><title>(25)(011001)</title>
<g id="a_node1"><a xlink:href="25.svg" xlink:title="(25)(011001)">
<polygon fill="springgreen" stroke="none" points="902,-112 693,-112 693,-65 902,-65 902,-112"/>
<text text-anchor="middle" x="797.5" y="-80" font-family="Times New Roman,serif" font-size="35.00">(25)(011001)</text>
</a>
</g>
</g>
<!-- (29)(011101) -->
<g id="node4" class="node"><title>(29)(011101)</title>
<g id="a_node4"><a xlink:href="29.svg" xlink:title="(29)(011101)">
<polygon fill="dodgerblue" stroke="none" points="1595,-177 1386,-177 1386,-130 1595,-130 1595,-177"/>
<text text-anchor="middle" x="1490.5" y="-145" font-family="Times New Roman,serif" font-size="35.00">(29)(011101)</text>
</a>
</g>
</g>
<!-- (25)(011001)&#45;&gt;(29)(011101) -->
<g id="edge3" class="edge"><title>(25)(011001)&#45;&gt;(29)(011101)</title>
<path fill="none" stroke="green" d="M859.907,-112.002C876.281,-117.352 894.119,-122.375 911,-125.5 1070.36,-155.002 1258.37,-158.454 1375.78,-156.964"/>
<polygon fill="green" stroke="green" points="1375.92,-160.462 1385.87,-156.821 1375.82,-153.463 1375.92,-160.462"/>
<text text-anchor="middle" x="1144" y="-165.5" font-family="Times New Roman,serif" font-size="30.00"> &#160;&#160;67 &#160;&#160;0% &#160;&#160;0.00365926 mol/s &#160;&#160;&#160;0.50</text>
</g>
<!-- (57)(111001) -->
<g id="node5" class="node"><title>(57)(111001)</title>
<g id="a_node5"><a xlink:href="57.svg" xlink:title="(57)(111001)">
<polygon fill="dodgerblue" stroke="none" points="1595,-112 1386,-112 1386,-65 1595,-65 1595,-112"/>
<text text-anchor="middle" x="1490.5" y="-80" font-family="Times New Roman,serif" font-size="35.00">(57)(111001)</text>
</a>
</g>
</g>
<!-- (25)(011001)&#45;&gt;(57)(111001) -->
<g id="edge4" class="edge"><title>(25)(011001)&#45;&gt;(57)(111001)</title>
<path fill="none" stroke="green" d="M902.324,-88.5C1029.46,-88.5 1244.08,-88.5 1375.64,-88.5"/>
<polygon fill="green" stroke="green" points="1375.75,-92.0001 1385.75,-88.5 1375.75,-85.0001 1375.75,-92.0001"/>
<text text-anchor="middle" x="1144" y="-97.5" font-family="Times New Roman,serif" font-size="30.00"> &#160;&#160;68 &#160;&#160;0% &#160;&#160;0.00019479 mol/s &#160;&#160;&#160;0.50</text>
</g>
<!-- (58)(111010) -->
<g id="node6" class="node"><title>(58)(111010)</title>
<g id="a_node6"><a xlink:href="58.svg" xlink:title="(58)(111010)">
<polygon fill="springgreen" stroke="none" points="1595,-47 1386,-47 1386,3.55271e-015 1595,3.55271e-015 1595,-47"/>
<text text-anchor="middle" x="1490.5" y="-15" font-family="Times New Roman,serif" font-size="35.00">(58)(111010)</text>
</a>
</g>
</g>
<!-- (25)(011001)&#45;&gt;(58)(111010) -->
<g id="edge5" class="edge"><title>(25)(011001)&#45;&gt;(58)(111010)</title>
<path fill="none" stroke="green" stroke-width="5" d="M859.907,-64.9981C876.281,-59.648 894.119,-54.6252 911,-51.5 1065.87,-22.8287 1247.81,-18.7611 1365.7,-19.9226"/>
<polygon fill="green" stroke="green" stroke-width="5" points="1365.76,-28.6739 1385.87,-20.1785 1365.98,-11.1753 1365.76,-28.6739"/>
<text text-anchor="middle" x="1144" y="-60.5" font-family="Times New Roman,serif" font-size="30.00"> &#160;&#160;69 &#160;&#160;99% &#160;&#160;46.71671555 mol/s &#160;&#160;&#160;0.50</text>
</g>
<!-- (17)(010001) -->
<g id="node2" class="node"><title>(17)(010001)</title>
<g id="a_node2"><a xlink:href="17.svg" xlink:title="(17)(010001)">
<polygon fill="springgreen" stroke="none" points="209,-145 0,-145 0,-98 209,-98 209,-145"/>
<text text-anchor="middle" x="104.5" y="-113" font-family="Times New Roman,serif" font-size="35.00">(17)(010001)</text>
</a>
</g>
</g>
<!-- (17)(010001)&#45;&gt;(25)(011001) -->
<g id="edge1" class="edge"><title>(17)(010001)&#45;&gt;(25)(011001)</title>
<path fill="none" stroke="green" d="M209.054,-119.417C322.678,-116.708 510.714,-110.982 682.912,-99.5346"/>
<polygon fill="green" stroke="green" points="683.179,-103.025 692.922,-98.8614 682.71,-96.0404 683.179,-103.025"/>
<text text-anchor="middle" x="451" y="-127.5" font-family="Times New Roman,serif" font-size="30.00"> &#160;&#160;45 &#160;&#160;0% &#160;&#160;0.19163567 mol/s &#160;&#160;&#160;0.50</text>
</g>
<!-- (24)(011000) -->
<g id="node3" class="node"><title>(24)(011000)</title>
<g id="a_node3"><a xlink:href="24.svg" xlink:title="(24)(011000)">
<polygon fill="darkorange" stroke="none" points="209,-80 0,-80 0,-33 209,-33 209,-80"/>
<text text-anchor="middle" x="104.5" y="-48" font-family="Times New Roman,serif" font-size="35.00">(24)(011000)</text>
</a>
</g>
</g>
<!-- (24)(011000)&#45;&gt;(25)(011001) -->
<g id="edge2" class="edge"><title>(24)(011000)&#45;&gt;(25)(011001)</title>
<path fill="none" stroke="green" stroke-width="5" d="M209.029,-52.8272C320.621,-50.088 503.923,-49.1051 672.726,-65.4845"/>
<polygon fill="green" stroke="green" stroke-width="5" points="671.922,-74.1978 692.703,-67.5127 673.69,-56.7873 671.922,-74.1978"/>
<text text-anchor="middle" x="451" y="-75.5" font-family="Times New Roman,serif" font-size="30.00"> &#160;&#160;64 &#160;&#160;99% &#160;&#160;46.52893392 mol/s &#160;&#160;&#160;0.50</text>
</g>
</g>
</svg>
