<?xml version="1.0" encoding="UTF-8" standalone="no"?>
<!DOCTYPE svg PUBLIC "-//W3C//DTD SVG 1.1//EN"
 "http://www.w3.org/Graphics/SVG/1.1/DTD/svg11.dtd">
<!-- Generated by graphviz version 2.38.0 (20140413.2041)
 -->
<!-- Title: G Pages: 1 -->
<svg width="640pt" height="100pt"
 viewBox="0.00 0.00 720.00 112.37" xmlns="http://www.w3.org/2000/svg" xmlns:xlink="http://www.w3.org/1999/xlink">
<g id="graph0" class="graph" transform="scale(0.406866 0.406866) rotate(0) translate(4 241.5)">
<title>G</title>
<polygon fill="white" stroke="none" points="-4,4 -4,-241.5 1569,-241.5 1569,4 -4,4"/>
<text text-anchor="middle" x="782.5" y="-204.7" font-family="Arial" font-size="36.00" fill="blue">Reaction Path Analysis</text>
<!-- (28)(011100) -->
<g id="node1" class="node"><title>(28)(011100)</title>
<g id="a_node1"><a xlink:href="28.svg" xlink:title="(28)(011100)">
<polygon fill="springgreen" stroke="none" points="887,-112 678,-112 678,-65 887,-65 887,-112"/>
<text text-anchor="middle" x="782.5" y="-80" font-family="Times New Roman,serif" font-size="35.00">(28)(011100)</text>
</a>
</g>
</g>
<!-- (24)(011000) -->
<g id="node3" class="node"><title>(24)(011000)</title>
<g id="a_node3"><a xlink:href="24.svg" xlink:title="(24)(011000)">
<polygon fill="darkorange" stroke="none" points="1565,-145 1356,-145 1356,-98 1565,-98 1565,-145"/>
<text text-anchor="middle" x="1460.5" y="-113" font-family="Times New Roman,serif" font-size="35.00">(24)(011000)</text>
</a>
</g>
</g>
<!-- (28)(011100)&#45;&gt;(24)(011000) -->
<g id="edge2" class="edge"><title>(28)(011100)&#45;&gt;(24)(011000)</title>
<path fill="none" stroke="green" stroke-width="5" d="M887.078,-98.8574C890.084,-99.0843 893.063,-99.2993 896,-99.5 1047.07,-109.826 1221.29,-115.705 1335.54,-118.742"/>
<polygon fill="green" stroke="green" stroke-width="5" points="1335.58,-127.496 1355.8,-119.267 1336.04,-110.001 1335.58,-127.496"/>
<text text-anchor="middle" x="1121.5" y="-127.5" font-family="Times New Roman,serif" font-size="30.00"> &#160;&#160;65 &#160;&#160;99% &#160;&#160;0.00847645 mol/s &#160;&#160;&#160;0.50</text>
</g>
<!-- (60)(111100) -->
<g id="node6" class="node"><title>(60)(111100)</title>
<g id="a_node6"><a xlink:href="60.svg" xlink:title="(60)(111100)">
<polygon fill="dodgerblue" stroke="none" points="1565,-80 1356,-80 1356,-33 1565,-33 1565,-80"/>
<text text-anchor="middle" x="1460.5" y="-48" font-family="Times New Roman,serif" font-size="35.00">(60)(111100)</text>
</a>
</g>
</g>
<!-- (28)(011100)&#45;&gt;(60)(111100) -->
<g id="edge5" class="edge"><title>(28)(011100)&#45;&gt;(60)(111100)</title>
<path fill="none" stroke="green" d="M887.297,-67.5145C890.225,-67.1435 893.13,-66.8037 896,-66.5 1051.14,-50.0829 1231.61,-50.2362 1345.68,-52.6877"/>
<polygon fill="green" stroke="green" points="1345.75,-56.19 1355.82,-52.9155 1345.91,-49.1918 1345.75,-56.19"/>
<text text-anchor="middle" x="1121.5" y="-75.5" font-family="Times New Roman,serif" font-size="30.00"> &#160;&#160;74 &#160;&#160;0% &#160;&#160;1.238e&#45;05 mol/s &#160;&#160;&#160;0.50</text>
</g>
<!-- (20)(010100) -->
<g id="node2" class="node"><title>(20)(010100)</title>
<g id="a_node2"><a xlink:href="20.svg" xlink:title="(20)(010100)">
<polygon fill="springgreen" stroke="none" points="209,-177 0,-177 0,-130 209,-130 209,-177"/>
<text text-anchor="middle" x="104.5" y="-145" font-family="Times New Roman,serif" font-size="35.00">(20)(010100)</text>
</a>
</g>
</g>
<!-- (20)(010100)&#45;&gt;(28)(011100) -->
<g id="edge1" class="edge"><title>(20)(010100)&#45;&gt;(28)(011100)</title>
<path fill="none" stroke="green" stroke-width="3" d="M209.029,-156.603C322.798,-158.106 510.462,-154.955 669,-125.5 682.501,-122.992 696.615,-119.274 710.103,-115.148"/>
<polygon fill="green" stroke="green" stroke-width="3" points="711.316,-118.435 719.796,-112.083 709.206,-111.761 711.316,-118.435"/>
<text text-anchor="middle" x="443.5" y="-165.5" font-family="Times New Roman,serif" font-size="30.00"> &#160;&#160;53 &#160;&#160;40% &#160;&#160;0.00340743 mol/s &#160;&#160;&#160;0.50</text>
</g>
<!-- (29)(011101) -->
<g id="node4" class="node"><title>(29)(011101)</title>
<g id="a_node4"><a xlink:href="29.svg" xlink:title="(29)(011101)">
<polygon fill="dodgerblue" stroke="none" points="209,-112 0,-112 0,-65 209,-65 209,-112"/>
<text text-anchor="middle" x="104.5" y="-80" font-family="Times New Roman,serif" font-size="35.00">(29)(011101)</text>
</a>
</g>
</g>
<!-- (29)(011101)&#45;&gt;(28)(011100) -->
<g id="edge3" class="edge"><title>(29)(011101)&#45;&gt;(28)(011100)</title>
<path fill="none" stroke="green" stroke-width="3" d="M209.274,-88.5C333.145,-88.5 539.585,-88.5 667.715,-88.5"/>
<polygon fill="green" stroke="green" stroke-width="3" points="667.949,-92.0001 677.949,-88.5 667.949,-85.0001 667.949,-92.0001"/>
<text text-anchor="middle" x="443.5" y="-97.5" font-family="Times New Roman,serif" font-size="30.00"> &#160;&#160;72 &#160;&#160;58% &#160;&#160;0.00498713 mol/s &#160;&#160;&#160;0.50</text>
</g>
<!-- (58)(111010) -->
<g id="node5" class="node"><title>(58)(111010)</title>
<g id="a_node5"><a xlink:href="58.svg" xlink:title="(58)(111010)">
<polygon fill="springgreen" stroke="none" points="209,-47 0,-47 0,3.55271e-015 209,3.55271e-015 209,-47"/>
<text text-anchor="middle" x="104.5" y="-15" font-family="Times New Roman,serif" font-size="35.00">(58)(111010)</text>
</a>
</g>
</g>
<!-- (58)(111010)&#45;&gt;(28)(011100) -->
<g id="edge4" class="edge"><title>(58)(111010)&#45;&gt;(28)(011100)</title>
<path fill="none" stroke="green" d="M209.029,-20.3973C322.798,-18.8941 510.462,-22.045 669,-51.5 682.501,-54.0084 696.615,-57.7264 710.103,-61.8521"/>
<polygon fill="green" stroke="green" points="709.206,-65.2392 719.796,-64.9168 711.316,-58.5648 709.206,-65.2392"/>
<text text-anchor="middle" x="443.5" y="-60.5" font-family="Times New Roman,serif" font-size="30.00"> &#160;&#160;73 &#160;&#160;1% &#160;&#160;9.427e&#45;05 mol/s &#160;&#160;&#160;0.50</text>
</g>
</g>
</svg>
