<?xml version="1.0" encoding="UTF-8" standalone="no"?>
<!DOCTYPE svg PUBLIC "-//W3C//DTD SVG 1.1//EN"
 "http://www.w3.org/Graphics/SVG/1.1/DTD/svg11.dtd">
<!-- Generated by graphviz version 2.38.0 (20140413.2041)
 -->
<!-- Title: G Pages: 1 -->
<svg width="640pt" height="100pt"
 viewBox="0.00 0.00 720.00 112.37" xmlns="http://www.w3.org/2000/svg" xmlns:xlink="http://www.w3.org/1999/xlink">
<g id="graph0" class="graph" transform="scale(0.406866 0.406866) rotate(0) translate(4 241.5)">
<title>G</title>
<polygon fill="white" stroke="none" points="-4,4 -4,-241.5 1569,-241.5 1569,4 -4,4"/>
<text text-anchor="middle" x="782.5" y="-204.7" font-family="Arial" font-size="36.00" fill="blue">Reaction Path Analysis</text>
<!-- (29)(011101) -->
<g id="node1" class="node"><title>(29)(011101)</title>
<g id="a_node1"><a xlink:href="29.svg" xlink:title="(29)(011101)">
<polygon fill="dodgerblue" stroke="none" points="887,-112 678,-112 678,-65 887,-65 887,-112"/>
<text text-anchor="middle" x="782.5" y="-80" font-family="Times New Roman,serif" font-size="35.00">(29)(011101)</text>
</a>
</g>
</g>
<!-- (28)(011100) -->
<g id="node4" class="node"><title>(28)(011100)</title>
<g id="a_node4"><a xlink:href="28.svg" xlink:title="(28)(011100)">
<polygon fill="springgreen" stroke="none" points="1565,-177 1356,-177 1356,-130 1565,-130 1565,-177"/>
<text text-anchor="middle" x="1460.5" y="-145" font-family="Times New Roman,serif" font-size="35.00">(28)(011100)</text>
</a>
</g>
</g>
<!-- (29)(011101)&#45;&gt;(28)(011100) -->
<g id="edge3" class="edge"><title>(29)(011101)&#45;&gt;(28)(011100)</title>
<path fill="none" stroke="green" stroke-width="5" d="M845.204,-112.083C861.498,-117.398 879.222,-122.383 896,-125.5 1045.56,-153.287 1221.04,-157.665 1335.95,-156.809"/>
<polygon fill="green" stroke="green" stroke-width="5" points="1336.06,-165.559 1355.97,-156.603 1335.88,-148.06 1336.06,-165.559"/>
<text text-anchor="middle" x="1121.5" y="-165.5" font-family="Times New Roman,serif" font-size="30.00"> &#160;&#160;72 &#160;&#160;80% &#160;&#160;0.00498713 mol/s &#160;&#160;&#160;0.50</text>
</g>
<!-- (61)(111101) -->
<g id="node6" class="node"><title>(61)(111101)</title>
<g id="a_node6"><a xlink:href="61.svg" xlink:title="(61)(111101)">
<polygon fill="purple" stroke="none" points="1565,-112 1356,-112 1356,-65 1565,-65 1565,-112"/>
<text text-anchor="middle" x="1460.5" y="-80" font-family="Times New Roman,serif" font-size="35.00">(61)(111101)</text>
</a>
</g>
</g>
<!-- (29)(011101)&#45;&gt;(61)(111101) -->
<g id="edge5" class="edge"><title>(29)(011101)&#45;&gt;(61)(111101)</title>
<path fill="none" stroke="green" d="M887.274,-88.5C1011.14,-88.5 1217.58,-88.5 1345.72,-88.5"/>
<polygon fill="green" stroke="green" points="1345.95,-92.0001 1355.95,-88.5 1345.95,-85.0001 1345.95,-92.0001"/>
<text text-anchor="middle" x="1121.5" y="-97.5" font-family="Times New Roman,serif" font-size="30.00"> &#160;&#160;76 &#160;&#160;0% &#160;&#160;1.8e&#45;07 mol/s &#160;&#160;&#160;0.50</text>
</g>
<!-- (62)(111110) -->
<g id="node7" class="node"><title>(62)(111110)</title>
<g id="a_node7"><a xlink:href="62.svg" xlink:title="(62)(111110)">
<polygon fill="dodgerblue" stroke="none" points="1565,-47 1356,-47 1356,3.55271e-015 1565,3.55271e-015 1565,-47"/>
<text text-anchor="middle" x="1460.5" y="-15" font-family="Times New Roman,serif" font-size="35.00">(62)(111110)</text>
</a>
</g>
</g>
<!-- (29)(011101)&#45;&gt;(62)(111110) -->
<g id="edge6" class="edge"><title>(29)(011101)&#45;&gt;(62)(111110)</title>
<path fill="none" stroke="green" d="M845.204,-64.9168C861.498,-59.6025 879.222,-54.6172 896,-51.5 1049.89,-22.9079 1231.23,-19.1013 1345.78,-20.2777"/>
<polygon fill="green" stroke="green" points="1345.93,-23.7796 1355.97,-20.3973 1346.01,-16.7801 1345.93,-23.7796"/>
<text text-anchor="middle" x="1121.5" y="-60.5" font-family="Times New Roman,serif" font-size="30.00"> &#160;&#160;77 &#160;&#160;19% &#160;&#160;0.0012159 mol/s &#160;&#160;&#160;0.50</text>
</g>
<!-- (21)(010101) -->
<g id="node2" class="node"><title>(21)(010101)</title>
<g id="a_node2"><a xlink:href="21.svg" xlink:title="(21)(010101)">
<polygon fill="dodgerblue" stroke="none" points="209,-177 0,-177 0,-130 209,-130 209,-177"/>
<text text-anchor="middle" x="104.5" y="-145" font-family="Times New Roman,serif" font-size="35.00">(21)(010101)</text>
</a>
</g>
</g>
<!-- (21)(010101)&#45;&gt;(29)(011101) -->
<g id="edge1" class="edge"><title>(21)(010101)&#45;&gt;(29)(011101)</title>
<path fill="none" stroke="green" stroke-width="2" d="M209.029,-156.603C322.798,-158.106 510.462,-154.955 669,-125.5 682.501,-122.992 696.615,-119.274 710.103,-115.148"/>
<polygon fill="green" stroke="green" stroke-width="2" points="711.316,-118.435 719.796,-112.083 709.206,-111.761 711.316,-118.435"/>
<text text-anchor="middle" x="443.5" y="-165.5" font-family="Times New Roman,serif" font-size="30.00"> &#160;&#160;56 &#160;&#160;39% &#160;&#160;0.00244509 mol/s &#160;&#160;&#160;0.50</text>
</g>
<!-- (25)(011001) -->
<g id="node3" class="node"><title>(25)(011001)</title>
<g id="a_node3"><a xlink:href="25.svg" xlink:title="(25)(011001)">
<polygon fill="springgreen" stroke="none" points="209,-112 0,-112 0,-65 209,-65 209,-112"/>
<text text-anchor="middle" x="104.5" y="-80" font-family="Times New Roman,serif" font-size="35.00">(25)(011001)</text>
</a>
</g>
</g>
<!-- (25)(011001)&#45;&gt;(29)(011101) -->
<g id="edge2" class="edge"><title>(25)(011001)&#45;&gt;(29)(011101)</title>
<path fill="none" stroke="green" stroke-width="3" d="M209.274,-88.5C333.145,-88.5 539.585,-88.5 667.715,-88.5"/>
<polygon fill="green" stroke="green" stroke-width="3" points="667.949,-92.0001 677.949,-88.5 667.949,-85.0001 667.949,-92.0001"/>
<text text-anchor="middle" x="443.5" y="-97.5" font-family="Times New Roman,serif" font-size="30.00"> &#160;&#160;67 &#160;&#160;58% &#160;&#160;0.00365926 mol/s &#160;&#160;&#160;0.50</text>
</g>
<!-- (59)(111011) -->
<g id="node5" class="node"><title>(59)(111011)</title>
<g id="a_node5"><a xlink:href="59.svg" xlink:title="(59)(111011)">
<polygon fill="springgreen" stroke="none" points="209,-47 0,-47 0,3.55271e-015 209,3.55271e-015 209,-47"/>
<text text-anchor="middle" x="104.5" y="-15" font-family="Times New Roman,serif" font-size="35.00">(59)(111011)</text>
</a>
</g>
</g>
<!-- (59)(111011)&#45;&gt;(29)(011101) -->
<g id="edge4" class="edge"><title>(59)(111011)&#45;&gt;(29)(011101)</title>
<path fill="none" stroke="green" d="M209.029,-20.3973C322.798,-18.8941 510.462,-22.045 669,-51.5 682.501,-54.0084 696.615,-57.7264 710.103,-61.8521"/>
<polygon fill="green" stroke="green" points="709.206,-65.2392 719.796,-64.9168 711.316,-58.5648 709.206,-65.2392"/>
<text text-anchor="middle" x="443.5" y="-60.5" font-family="Times New Roman,serif" font-size="30.00"> &#160;&#160;75 &#160;&#160;1% &#160;&#160;9.885e&#45;05 mol/s &#160;&#160;&#160;0.50</text>
</g>
</g>
</svg>
