<?xml version="1.0" encoding="UTF-8" standalone="no"?>
<!DOCTYPE svg PUBLIC "-//W3C//DTD SVG 1.1//EN"
 "http://www.w3.org/Graphics/SVG/1.1/DTD/svg11.dtd">
<!-- Generated by graphviz version 2.38.0 (20140413.2041)
 -->
<!-- Title: G Pages: 1 -->
<svg width="640pt" height="127pt"
 viewBox="0.00 0.00 720.00 143.06" xmlns="http://www.w3.org/2000/svg" xmlns:xlink="http://www.w3.org/1999/xlink">
<g id="graph0" class="graph" transform="scale(0.399251 0.399251) rotate(0) translate(4 314.5)">
<title>G</title>
<polygon fill="white" stroke="none" points="-4,4 -4,-314.5 1599,-314.5 1599,4 -4,4"/>
<text text-anchor="middle" x="797.5" y="-277.7" font-family="Arial" font-size="36.00" fill="blue">Reaction Path Analysis</text>
<!-- (32)(100000) -->
<g id="node1" class="node"><title>(32)(100000)</title>
<g id="a_node1"><a xlink:href="32.svg" xlink:title="(32)(100000)">
<polygon fill="dodgerblue" stroke="none" points="902,-144 693,-144 693,-97 902,-97 902,-144"/>
<text text-anchor="middle" x="797.5" y="-112" font-family="Times New Roman,serif" font-size="35.00">(32)(100000)</text>
</a>
</g>
</g>
<!-- (0)(000000) -->
<g id="node2" class="node"><title>(0)(000000)</title>
<g id="a_node2"><a xlink:href="0.svg" xlink:title="(0)(000000)">
<polygon fill="springgreen" stroke="none" points="1586,-242 1395,-242 1395,-195 1586,-195 1586,-242"/>
<text text-anchor="middle" x="1490.5" y="-210" font-family="Times New Roman,serif" font-size="35.00">(0)(000000)</text>
</a>
</g>
</g>
<!-- (32)(100000)&#45;&gt;(0)(000000) -->
<g id="edge1" class="edge"><title>(32)(100000)&#45;&gt;(0)(000000)</title>
<path fill="none" stroke="green" stroke-width="4" d="M831.071,-144.081C854.236,-159.455 886.756,-178.312 918.5,-187.5 1071.82,-231.875 1257.77,-232.74 1374.9,-227.243"/>
<polygon fill="green" stroke="green" stroke-width="4" points="1375.26,-234.234 1394.87,-226.212 1374.54,-220.252 1375.26,-234.234"/>
<text text-anchor="middle" x="1144" y="-238.5" font-family="Times New Roman,serif" font-size="30.00"> &#160;&#160;3 &#160;&#160;65% &#160;&#160;0.15493153 mol/s &#160;&#160;&#160;0.50</text>
</g>
<!-- (33)(100001) -->
<g id="node3" class="node"><title>(33)(100001)</title>
<g id="a_node3"><a xlink:href="33.svg" xlink:title="(33)(100001)">
<polygon fill="dodgerblue" stroke="none" points="1595,-177 1386,-177 1386,-130 1595,-130 1595,-177"/>
<text text-anchor="middle" x="1490.5" y="-145" font-family="Times New Roman,serif" font-size="35.00">(33)(100001)</text>
</a>
</g>
</g>
<!-- (32)(100000)&#45;&gt;(33)(100001) -->
<g id="edge2" class="edge"><title>(32)(100000)&#45;&gt;(33)(100001)</title>
<path fill="none" stroke="green" stroke-width="2" d="M902.218,-130.352C907.723,-130.767 913.176,-131.154 918.5,-131.5 1076.82,-141.799 1260.17,-147.816 1375.49,-150.882"/>
<polygon fill="green" stroke="green" stroke-width="2" points="1375.65,-154.387 1385.74,-151.151 1375.84,-147.389 1375.65,-154.387"/>
<text text-anchor="middle" x="1144" y="-159.5" font-family="Times New Roman,serif" font-size="30.00"> &#160;&#160;80 &#160;&#160;34% &#160;&#160;0.08148719 mol/s &#160;&#160;&#160;0.50</text>
</g>
<!-- (36)(100100) -->
<g id="node4" class="node"><title>(36)(100100)</title>
<g id="a_node4"><a xlink:href="36.svg" xlink:title="(36)(100100)">
<polygon fill="purple" stroke="none" points="1595,-112 1386,-112 1386,-65 1595,-65 1595,-112"/>
<text text-anchor="middle" x="1490.5" y="-80" font-family="Times New Roman,serif" font-size="35.00">(36)(100100)</text>
</a>
</g>
</g>
<!-- (32)(100000)&#45;&gt;(36)(100100) -->
<g id="edge3" class="edge"><title>(32)(100000)&#45;&gt;(36)(100100)</title>
<path fill="none" stroke="green" d="M902.094,-100.415C907.631,-99.6836 913.126,-99.0361 918.5,-98.5 1076.4,-82.7507 1260.04,-82.7851 1375.52,-85.0236"/>
<polygon fill="green" stroke="green" points="1375.72,-88.5282 1385.79,-85.2319 1375.86,-81.5297 1375.72,-88.5282"/>
<text text-anchor="middle" x="1144" y="-107.5" font-family="Times New Roman,serif" font-size="30.00"> &#160;&#160;81 &#160;&#160;0% &#160;&#160;5e&#45;08 mol/s &#160;&#160;&#160;0.50</text>
</g>
<!-- (40)(101000) -->
<g id="node5" class="node"><title>(40)(101000)</title>
<g id="a_node5"><a xlink:href="40.svg" xlink:title="(40)(101000)">
<polygon fill="dodgerblue" stroke="none" points="1595,-47 1386,-47 1386,3.55271e-015 1595,3.55271e-015 1595,-47"/>
<text text-anchor="middle" x="1490.5" y="-15" font-family="Times New Roman,serif" font-size="35.00">(40)(101000)</text>
</a>
</g>
</g>
<!-- (32)(100000)&#45;&gt;(40)(101000) -->
<g id="edge4" class="edge"><title>(32)(100000)&#45;&gt;(40)(101000)</title>
<path fill="none" stroke="green" d="M828.012,-96.6563C851.126,-79.5092 884.894,-57.6847 918.5,-47.5 1071.66,-1.08251 1258.5,-3.63006 1375.77,-11.8669"/>
<polygon fill="green" stroke="green" points="1375.62,-15.3649 1385.85,-12.6005 1376.13,-8.38338 1375.62,-15.3649"/>
<text text-anchor="middle" x="1144" y="-56.5" font-family="Times New Roman,serif" font-size="30.00"> &#160;&#160;82 &#160;&#160;0% &#160;&#160;8.85e&#45;06 mol/s &#160;&#160;&#160;0.50</text>
</g>
<!-- (48)(110000) -->
<g id="node6" class="node"><title>(48)(110000)</title>
<g id="a_node6"><a xlink:href="48.svg" xlink:title="(48)(110000)">
<polygon fill="springgreen" stroke="none" points="209,-144 0,-144 0,-97 209,-97 209,-144"/>
<text text-anchor="middle" x="104.5" y="-112" font-family="Times New Roman,serif" font-size="35.00">(48)(110000)</text>
</a>
</g>
</g>
<!-- (48)(110000)&#45;&gt;(32)(100000) -->
<g id="edge5" class="edge"><title>(48)(110000)&#45;&gt;(32)(100000)</title>
<path fill="none" stroke="green" stroke-width="6" d="M209.324,-120.5C333.28,-120.5 540.387,-120.5 672.598,-120.5"/>
<polygon fill="green" stroke="green" stroke-width="6" points="672.747,-131 692.747,-120.5 672.747,-110 672.747,-131"/>
<text text-anchor="middle" x="451" y="-129.5" font-family="Times New Roman,serif" font-size="30.00"> &#160;&#160;83 &#160;&#160;100% &#160;&#160;0.23642762 mol/s &#160;&#160;&#160;0.50</text>
</g>
</g>
</svg>
