<?xml version="1.0" encoding="UTF-8" standalone="no"?>
<!DOCTYPE svg PUBLIC "-//W3C//DTD SVG 1.1//EN"
 "http://www.w3.org/Graphics/SVG/1.1/DTD/svg11.dtd">
<!-- Generated by graphviz version 2.38.0 (20140413.2041)
 -->
<!-- Title: G Pages: 1 -->
<svg width="640pt" height="100pt"
 viewBox="0.00 0.00 720.00 112.37" xmlns="http://www.w3.org/2000/svg" xmlns:xlink="http://www.w3.org/1999/xlink">
<g id="graph0" class="graph" transform="scale(0.406866 0.406866) rotate(0) translate(4 241.5)">
<title>G</title>
<polygon fill="white" stroke="none" points="-4,4 -4,-241.5 1569,-241.5 1569,4 -4,4"/>
<text text-anchor="middle" x="782.5" y="-204.7" font-family="Arial" font-size="36.00" fill="blue">Reaction Path Analysis</text>
<!-- (33)(100001) -->
<g id="node1" class="node"><title>(33)(100001)</title>
<g id="a_node1"><a xlink:href="33.svg" xlink:title="(33)(100001)">
<polygon fill="dodgerblue" stroke="none" points="887,-112 678,-112 678,-65 887,-65 887,-112"/>
<text text-anchor="middle" x="782.5" y="-80" font-family="Times New Roman,serif" font-size="35.00">(33)(100001)</text>
</a>
</g>
</g>
<!-- (1)(000001) -->
<g id="node2" class="node"><title>(1)(000001)</title>
<g id="a_node2"><a xlink:href="1.svg" xlink:title="(1)(000001)">
<polygon fill="springgreen" stroke="none" points="1556,-145 1365,-145 1365,-98 1556,-98 1556,-145"/>
<text text-anchor="middle" x="1460.5" y="-113" font-family="Times New Roman,serif" font-size="35.00">(1)(000001)</text>
</a>
</g>
</g>
<!-- (33)(100001)&#45;&gt;(1)(000001) -->
<g id="edge1" class="edge"><title>(33)(100001)&#45;&gt;(1)(000001)</title>
<path fill="none" stroke="green" stroke-width="5" d="M887.218,-98.3453C892.723,-98.7623 898.177,-99.1509 903.5,-99.5 1055.96,-109.497 1232.25,-115.539 1344.74,-118.696"/>
<polygon fill="green" stroke="green" stroke-width="5" points="1344.75,-127.45 1364.98,-119.253 1345.23,-109.957 1344.75,-127.45"/>
<text text-anchor="middle" x="1121.5" y="-126.5" font-family="Times New Roman,serif" font-size="30.00"> &#160;&#160;6 &#160;&#160;99% &#160;&#160;0.08234558 mol/s &#160;&#160;&#160;0.50</text>
</g>
<!-- (41)(101001) -->
<g id="node5" class="node"><title>(41)(101001)</title>
<g id="a_node5"><a xlink:href="41.svg" xlink:title="(41)(101001)">
<polygon fill="dodgerblue" stroke="none" points="1565,-80 1356,-80 1356,-33 1565,-33 1565,-80"/>
<text text-anchor="middle" x="1460.5" y="-48" font-family="Times New Roman,serif" font-size="35.00">(41)(101001)</text>
</a>
</g>
</g>
<!-- (33)(100001)&#45;&gt;(41)(101001) -->
<g id="edge4" class="edge"><title>(33)(100001)&#45;&gt;(41)(101001)</title>
<path fill="none" stroke="green" d="M887.095,-68.4182C892.632,-67.6859 898.126,-67.0373 903.5,-66.5 1056.08,-51.2446 1233.35,-51.0697 1345.95,-53.1349"/>
<polygon fill="green" stroke="green" points="1345.9,-56.6345 1355.96,-53.3276 1346.03,-49.6358 1345.9,-56.6345"/>
<text text-anchor="middle" x="1121.5" y="-75.5" font-family="Times New Roman,serif" font-size="30.00"> &#160;&#160;85 &#160;&#160;0% &#160;&#160;4.78e&#45;06 mol/s &#160;&#160;&#160;0.50</text>
</g>
<!-- (32)(100000) -->
<g id="node3" class="node"><title>(32)(100000)</title>
<g id="a_node3"><a xlink:href="32.svg" xlink:title="(32)(100000)">
<polygon fill="dodgerblue" stroke="none" points="209,-177 0,-177 0,-130 209,-130 209,-177"/>
<text text-anchor="middle" x="104.5" y="-145" font-family="Times New Roman,serif" font-size="35.00">(32)(100000)</text>
</a>
</g>
</g>
<!-- (32)(100000)&#45;&gt;(33)(100001) -->
<g id="edge2" class="edge"><title>(32)(100000)&#45;&gt;(33)(100001)</title>
<path fill="none" stroke="green" stroke-width="5" d="M209.029,-156.603C322.798,-158.106 510.462,-154.955 669,-125.5 679.355,-123.576 690.071,-120.941 700.588,-117.955"/>
<polygon fill="green" stroke="green" stroke-width="5" points="703.228,-126.298 719.796,-112.083 698.111,-109.563 703.228,-126.298"/>
<text text-anchor="middle" x="443.5" y="-165.5" font-family="Times New Roman,serif" font-size="30.00"> &#160;&#160;80 &#160;&#160;98% &#160;&#160;0.08148719 mol/s &#160;&#160;&#160;0.50</text>
</g>
<!-- (37)(100101) -->
<g id="node4" class="node"><title>(37)(100101)</title>
<g id="a_node4"><a xlink:href="37.svg" xlink:title="(37)(100101)">
<polygon fill="purple" stroke="none" points="209,-112 0,-112 0,-65 209,-65 209,-112"/>
<text text-anchor="middle" x="104.5" y="-80" font-family="Times New Roman,serif" font-size="35.00">(37)(100101)</text>
</a>
</g>
</g>
<!-- (37)(100101)&#45;&gt;(33)(100001) -->
<g id="edge3" class="edge"><title>(37)(100101)&#45;&gt;(33)(100001)</title>
<path fill="none" stroke="green" d="M209.274,-88.5C333.145,-88.5 539.585,-88.5 667.715,-88.5"/>
<polygon fill="green" stroke="green" points="667.949,-92.0001 677.949,-88.5 667.949,-85.0001 667.949,-92.0001"/>
<text text-anchor="middle" x="443.5" y="-97.5" font-family="Times New Roman,serif" font-size="30.00"> &#160;&#160;84 &#160;&#160;0% &#160;&#160;1e&#45;08 mol/s &#160;&#160;&#160;0.50</text>
</g>
<!-- (49)(110001) -->
<g id="node6" class="node"><title>(49)(110001)</title>
<g id="a_node6"><a xlink:href="49.svg" xlink:title="(49)(110001)">
<polygon fill="dodgerblue" stroke="none" points="209,-47 0,-47 0,3.55271e-015 209,3.55271e-015 209,-47"/>
<text text-anchor="middle" x="104.5" y="-15" font-family="Times New Roman,serif" font-size="35.00">(49)(110001)</text>
</a>
</g>
</g>
<!-- (49)(110001)&#45;&gt;(33)(100001) -->
<g id="edge5" class="edge"><title>(49)(110001)&#45;&gt;(33)(100001)</title>
<path fill="none" stroke="green" d="M209.029,-20.3973C322.798,-18.8941 510.462,-22.045 669,-51.5 682.501,-54.0084 696.615,-57.7264 710.103,-61.8521"/>
<polygon fill="green" stroke="green" points="709.206,-65.2392 719.796,-64.9168 711.316,-58.5648 709.206,-65.2392"/>
<text text-anchor="middle" x="443.5" y="-60.5" font-family="Times New Roman,serif" font-size="30.00"> &#160;&#160;86 &#160;&#160;1% &#160;&#160;0.00086316 mol/s &#160;&#160;&#160;0.50</text>
</g>
</g>
</svg>
