<?xml version="1.0" encoding="UTF-8" standalone="no"?>
<!DOCTYPE svg PUBLIC "-//W3C//DTD SVG 1.1//EN"
 "http://www.w3.org/Graphics/SVG/1.1/DTD/svg11.dtd">
<!-- Generated by graphviz version 2.38.0 (20140413.2041)
 -->
<!-- Title: G Pages: 1 -->
<svg width="640pt" height="100pt"
 viewBox="0.00 0.00 720.00 112.37" xmlns="http://www.w3.org/2000/svg" xmlns:xlink="http://www.w3.org/1999/xlink">
<g id="graph0" class="graph" transform="scale(0.406866 0.406866) rotate(0) translate(4 241.5)">
<title>G</title>
<polygon fill="white" stroke="none" points="-4,4 -4,-241.5 1569,-241.5 1569,4 -4,4"/>
<text text-anchor="middle" x="782.5" y="-204.7" font-family="Arial" font-size="36.00" fill="blue">Reaction Path Analysis</text>
<!-- (34)(100010) -->
<g id="node1" class="node"><title>(34)(100010)</title>
<g id="a_node1"><a xlink:href="34.svg" xlink:title="(34)(100010)">
<polygon fill="lawngreen" stroke="none" points="887,-112 678,-112 678,-65 887,-65 887,-112"/>
<text text-anchor="middle" x="782.5" y="-80" font-family="Times New Roman,serif" font-size="35.00">(34)(100010)</text>
</a>
</g>
</g>
<!-- (38)(100110) -->
<g id="node4" class="node"><title>(38)(100110)</title>
<g id="a_node4"><a xlink:href="38.svg" xlink:title="(38)(100110)">
<polygon fill="dodgerblue" stroke="none" points="1565,-145 1356,-145 1356,-98 1565,-98 1565,-145"/>
<text text-anchor="middle" x="1460.5" y="-113" font-family="Times New Roman,serif" font-size="35.00">(38)(100110)</text>
</a>
</g>
</g>
<!-- (34)(100010)&#45;&gt;(38)(100110) -->
<g id="edge3" class="edge"><title>(34)(100010)&#45;&gt;(38)(100110)</title>
<path fill="none" stroke="green" d="M887.078,-98.8574C890.084,-99.0843 893.063,-99.2993 896,-99.5 1051.61,-110.136 1231.78,-116.055 1345.67,-119.008"/>
<polygon fill="green" stroke="green" points="1345.72,-122.51 1355.8,-119.267 1345.9,-115.512 1345.72,-122.51"/>
<text text-anchor="middle" x="1121.5" y="-127.5" font-family="Times New Roman,serif" font-size="30.00"> &#160;&#160;88 &#160;&#160;19% &#160;&#160;0.48790091 mol/s &#160;&#160;&#160;0.50</text>
</g>
<!-- (50)(110010) -->
<g id="node6" class="node"><title>(50)(110010)</title>
<g id="a_node6"><a xlink:href="50.svg" xlink:title="(50)(110010)">
<polygon fill="orange" stroke="none" points="1565,-80 1356,-80 1356,-33 1565,-33 1565,-80"/>
<text text-anchor="middle" x="1460.5" y="-48" font-family="Times New Roman,serif" font-size="35.00">(50)(110010)</text>
</a>
</g>
</g>
<!-- (34)(100010)&#45;&gt;(50)(110010) -->
<g id="edge5" class="edge"><title>(34)(100010)&#45;&gt;(50)(110010)</title>
<path fill="none" stroke="green" stroke-width="5" d="M887.297,-67.5145C890.225,-67.1435 893.13,-66.8037 896,-66.5 1046.61,-50.5619 1221.1,-50.2414 1335.53,-52.4793"/>
<polygon fill="green" stroke="green" stroke-width="5" points="1335.64,-61.2337 1355.82,-52.9155 1336.02,-43.7377 1335.64,-61.2337"/>
<text text-anchor="middle" x="1121.5" y="-75.5" font-family="Times New Roman,serif" font-size="30.00"> &#160;&#160;90 &#160;&#160;80% &#160;&#160;1.99188418 mol/s &#160;&#160;&#160;0.50</text>
</g>
<!-- (1)(000001) -->
<g id="node2" class="node"><title>(1)(000001)</title>
<g id="a_node2"><a xlink:href="1.svg" xlink:title="(1)(000001)">
<polygon fill="springgreen" stroke="none" points="200,-177 9,-177 9,-130 200,-130 200,-177"/>
<text text-anchor="middle" x="104.5" y="-145" font-family="Times New Roman,serif" font-size="35.00">(1)(000001)</text>
</a>
</g>
</g>
<!-- (1)(000001)&#45;&gt;(34)(100010) -->
<g id="edge1" class="edge"><title>(1)(000001)&#45;&gt;(34)(100010)</title>
<path fill="none" stroke="green" stroke-width="2" d="M200.117,-156.473C312.803,-158.255 506.249,-155.738 669,-125.5 682.501,-122.992 696.615,-119.274 710.103,-115.148"/>
<polygon fill="green" stroke="green" stroke-width="2" points="711.316,-118.435 719.796,-112.083 709.206,-111.761 711.316,-118.435"/>
<text text-anchor="middle" x="443.5" y="-165.5" font-family="Times New Roman,serif" font-size="30.00"> &#160;&#160;7 &#160;&#160;22% &#160;&#160;0.55548109 mol/s &#160;&#160;&#160;0.50</text>
</g>
<!-- (35)(100011) -->
<g id="node3" class="node"><title>(35)(100011)</title>
<g id="a_node3"><a xlink:href="35.svg" xlink:title="(35)(100011)">
<polygon fill="springgreen" stroke="none" points="209,-112 0,-112 0,-65 209,-65 209,-112"/>
<text text-anchor="middle" x="104.5" y="-80" font-family="Times New Roman,serif" font-size="35.00">(35)(100011)</text>
</a>
</g>
</g>
<!-- (35)(100011)&#45;&gt;(34)(100010) -->
<g id="edge2" class="edge"><title>(35)(100011)&#45;&gt;(34)(100010)</title>
<path fill="none" stroke="green" d="M209.274,-88.5C333.145,-88.5 539.585,-88.5 667.715,-88.5"/>
<polygon fill="green" stroke="green" points="667.949,-92.0001 677.949,-88.5 667.949,-85.0001 667.949,-92.0001"/>
<text text-anchor="middle" x="443.5" y="-97.5" font-family="Times New Roman,serif" font-size="30.00"> &#160;&#160;87 &#160;&#160;1% &#160;&#160;0.03147619 mol/s &#160;&#160;&#160;0.50</text>
</g>
<!-- (42)(101010) -->
<g id="node5" class="node"><title>(42)(101010)</title>
<g id="a_node5"><a xlink:href="42.svg" xlink:title="(42)(101010)">
<polygon fill="springgreen" stroke="none" points="209,-47 0,-47 0,3.55271e-015 209,3.55271e-015 209,-47"/>
<text text-anchor="middle" x="104.5" y="-15" font-family="Times New Roman,serif" font-size="35.00">(42)(101010)</text>
</a>
</g>
</g>
<!-- (42)(101010)&#45;&gt;(34)(100010) -->
<g id="edge4" class="edge"><title>(42)(101010)&#45;&gt;(34)(100010)</title>
<path fill="none" stroke="green" stroke-width="4" d="M209.029,-20.3973C322.798,-18.8941 510.462,-22.045 669,-51.5 679.355,-53.4239 690.071,-56.0594 700.588,-59.0446"/>
<polygon fill="green" stroke="green" stroke-width="4" points="698.623,-65.7636 719.796,-64.9168 702.716,-52.3753 698.623,-65.7636"/>
<text text-anchor="middle" x="443.5" y="-60.5" font-family="Times New Roman,serif" font-size="30.00"> &#160;&#160;89 &#160;&#160;76% &#160;&#160;1.89282781 mol/s &#160;&#160;&#160;0.50</text>
</g>
</g>
</svg>
