<?xml version="1.0" encoding="UTF-8" standalone="no"?>
<!DOCTYPE svg PUBLIC "-//W3C//DTD SVG 1.1//EN"
 "http://www.w3.org/Graphics/SVG/1.1/DTD/svg11.dtd">
<!-- Generated by graphviz version 2.38.0 (20140413.2041)
 -->
<!-- Title: G Pages: 1 -->
<svg width="640pt" height="75pt"
 viewBox="0.00 0.00 720.00 83.84" xmlns="http://www.w3.org/2000/svg" xmlns:xlink="http://www.w3.org/1999/xlink">
<g id="graph0" class="graph" transform="scale(0.42953 0.42953) rotate(0) translate(4 169.5)">
<title>G</title>
<polygon fill="white" stroke="none" points="-4,4 -4,-169.5 1486,-169.5 1486,4 -4,4"/>
<text text-anchor="middle" x="741" y="-132.7" font-family="Arial" font-size="36.00" fill="blue">Reaction Path Analysis</text>
<!-- (36)(100100) -->
<g id="node1" class="node"><title>(36)(100100)</title>
<g id="a_node1"><a xlink:href="36.svg" xlink:title="(36)(100100)">
<polygon fill="purple" stroke="none" points="850,-79 641,-79 641,-32 850,-32 850,-79"/>
<text text-anchor="middle" x="745.5" y="-47" font-family="Times New Roman,serif" font-size="35.00">(36)(100100)</text>
</a>
</g>
</g>
<!-- (4)(000100) -->
<g id="node2" class="node"><title>(4)(000100)</title>
<g id="a_node2"><a xlink:href="4.svg" xlink:title="(4)(000100)">
<polygon fill="springgreen" stroke="none" points="1482,-79 1291,-79 1291,-32 1482,-32 1482,-79"/>
<text text-anchor="middle" x="1386.5" y="-47" font-family="Times New Roman,serif" font-size="35.00">(4)(000100)</text>
</a>
</g>
</g>
<!-- (36)(100100)&#45;&gt;(4)(000100) -->
<g id="edge1" class="edge"><title>(36)(100100)&#45;&gt;(4)(000100)</title>
<path fill="none" stroke="green" stroke-width="6" d="M850.232,-55.5C965.583,-55.5 1151.37,-55.5 1270.93,-55.5"/>
<polygon fill="green" stroke="green" stroke-width="6" points="1270.98,-66.0001 1290.98,-55.5 1270.98,-45.0001 1270.98,-66.0001"/>
<text text-anchor="middle" x="1066" y="-64.5" font-family="Times New Roman,serif" font-size="30.00"> &#160;&#160;14 &#160;&#160;100% &#160;&#160;2.3e&#45;07 mol/s &#160;&#160;&#160;0.50</text>
</g>
<!-- (32)(100000) -->
<g id="node3" class="node"><title>(32)(100000)</title>
<g id="a_node3"><a xlink:href="32.svg" xlink:title="(32)(100000)">
<polygon fill="dodgerblue" stroke="none" points="209,-112 0,-112 0,-65 209,-65 209,-112"/>
<text text-anchor="middle" x="104.5" y="-80" font-family="Times New Roman,serif" font-size="35.00">(32)(100000)</text>
</a>
</g>
</g>
<!-- (32)(100000)&#45;&gt;(36)(100100) -->
<g id="edge2" class="edge"><title>(32)(100000)&#45;&gt;(36)(100100)</title>
<path fill="none" stroke="green" stroke-width="2" d="M209.468,-85.5924C314.307,-82.3077 480.751,-76.1293 624.5,-66.5 626.579,-66.3607 628.678,-66.2156 630.793,-66.0654"/>
<polygon fill="green" stroke="green" stroke-width="2" points="631.066,-69.5548 640.78,-65.3271 630.55,-62.5739 631.066,-69.5548"/>
<text text-anchor="middle" x="425" y="-93.5" font-family="Times New Roman,serif" font-size="30.00"> &#160;&#160;81 &#160;&#160;21% &#160;&#160;5e&#45;08 mol/s &#160;&#160;&#160;0.50</text>
</g>
<!-- (37)(100101) -->
<g id="node4" class="node"><title>(37)(100101)</title>
<g id="a_node4"><a xlink:href="37.svg" xlink:title="(37)(100101)">
<polygon fill="purple" stroke="none" points="209,-47 0,-47 0,3.55271e-015 209,3.55271e-015 209,-47"/>
<text text-anchor="middle" x="104.5" y="-15" font-family="Times New Roman,serif" font-size="35.00">(37)(100101)</text>
</a>
</g>
</g>
<!-- (37)(100101)&#45;&gt;(36)(100100) -->
<g id="edge3" class="edge"><title>(37)(100101)&#45;&gt;(36)(100100)</title>
<path fill="none" stroke="green" stroke-width="4" d="M209.189,-20.5733C309.756,-18.8417 467.126,-19.0415 620.732,-33.4491"/>
<polygon fill="green" stroke="green" stroke-width="4" points="620.317,-40.4418 640.905,-35.4266 621.683,-26.5086 620.317,-40.4418"/>
<text text-anchor="middle" x="425" y="-42.5" font-family="Times New Roman,serif" font-size="30.00"> &#160;&#160;94 &#160;&#160;78% &#160;&#160;1.8e&#45;07 mol/s &#160;&#160;&#160;0.50</text>
</g>
</g>
</svg>
