<?xml version="1.0" encoding="UTF-8" standalone="no"?>
<!DOCTYPE svg PUBLIC "-//W3C//DTD SVG 1.1//EN"
 "http://www.w3.org/Graphics/SVG/1.1/DTD/svg11.dtd">
<!-- Generated by graphviz version 2.38.0 (20140413.2041)
 -->
<!-- Title: G Pages: 1 -->
<svg width="640pt" height="75pt"
 viewBox="0.00 0.00 720.00 83.84" xmlns="http://www.w3.org/2000/svg" xmlns:xlink="http://www.w3.org/1999/xlink">
<g id="graph0" class="graph" transform="scale(0.42953 0.42953) rotate(0) translate(4 169.5)">
<title>G</title>
<polygon fill="white" stroke="none" points="-4,4 -4,-169.5 1486,-169.5 1486,4 -4,4"/>
<text text-anchor="middle" x="741" y="-132.7" font-family="Arial" font-size="36.00" fill="blue">Reaction Path Analysis</text>
<!-- (37)(100101) -->
<g id="node1" class="node"><title>(37)(100101)</title>
<g id="a_node1"><a xlink:href="37.svg" xlink:title="(37)(100101)">
<polygon fill="purple" stroke="none" points="841,-79 632,-79 632,-32 841,-32 841,-79"/>
<text text-anchor="middle" x="736.5" y="-47" font-family="Times New Roman,serif" font-size="35.00">(37)(100101)</text>
</a>
</g>
</g>
<!-- (33)(100001) -->
<g id="node3" class="node"><title>(33)(100001)</title>
<g id="a_node3"><a xlink:href="33.svg" xlink:title="(33)(100001)">
<polygon fill="dodgerblue" stroke="none" points="1482,-112 1273,-112 1273,-65 1482,-65 1482,-112"/>
<text text-anchor="middle" x="1377.5" y="-80" font-family="Times New Roman,serif" font-size="35.00">(33)(100001)</text>
</a>
</g>
</g>
<!-- (37)(100101)&#45;&gt;(33)(100001) -->
<g id="edge2" class="edge"><title>(37)(100101)&#45;&gt;(33)(100001)</title>
<path fill="none" stroke="green" d="M841.22,-65.3271C846.724,-65.7488 852.177,-66.1434 857.5,-66.5 996.756,-75.8284 1157.31,-81.9182 1262.53,-85.276"/>
<polygon fill="green" stroke="green" points="1262.43,-88.7745 1272.53,-85.5924 1262.65,-81.778 1262.43,-88.7745"/>
<text text-anchor="middle" x="1057" y="-93.5" font-family="Times New Roman,serif" font-size="30.00"> &#160;&#160;84 &#160;&#160;5% &#160;&#160;1e&#45;08 mol/s &#160;&#160;&#160;0.50</text>
</g>
<!-- (36)(100100) -->
<g id="node4" class="node"><title>(36)(100100)</title>
<g id="a_node4"><a xlink:href="36.svg" xlink:title="(36)(100100)">
<polygon fill="purple" stroke="none" points="1482,-47 1273,-47 1273,3.55271e-015 1482,3.55271e-015 1482,-47"/>
<text text-anchor="middle" x="1377.5" y="-15" font-family="Times New Roman,serif" font-size="35.00">(36)(100100)</text>
</a>
</g>
</g>
<!-- (37)(100101)&#45;&gt;(36)(100100) -->
<g id="edge3" class="edge"><title>(37)(100101)&#45;&gt;(36)(100100)</title>
<path fill="none" stroke="green" stroke-width="5" d="M841.095,-35.4266C846.632,-34.6921 852.126,-34.0408 857.5,-33.5 992.142,-19.9509 1147.39,-18.8558 1252.75,-20.2664"/>
<polygon fill="green" stroke="green" stroke-width="5" points="1252.68,-29.0162 1272.81,-20.5733 1252.95,-11.5183 1252.68,-29.0162"/>
<text text-anchor="middle" x="1057" y="-42.5" font-family="Times New Roman,serif" font-size="30.00"> &#160;&#160;94 &#160;&#160;94% &#160;&#160;1.8e&#45;07 mol/s &#160;&#160;&#160;0.50</text>
</g>
<!-- (5)(000101) -->
<g id="node2" class="node"><title>(5)(000101)</title>
<g id="a_node2"><a xlink:href="5.svg" xlink:title="(5)(000101)">
<polygon fill="dodgerblue" stroke="none" points="191,-79 0,-79 0,-32 191,-32 191,-79"/>
<text text-anchor="middle" x="95.5" y="-47" font-family="Times New Roman,serif" font-size="35.00">(5)(000101)</text>
</a>
</g>
</g>
<!-- (5)(000101)&#45;&gt;(37)(100101) -->
<g id="edge1" class="edge"><title>(5)(000101)&#45;&gt;(37)(100101)</title>
<path fill="none" stroke="green" stroke-width="6" d="M191.13,-55.5C302.743,-55.5 488.618,-55.5 611.615,-55.5"/>
<polygon fill="green" stroke="green" stroke-width="6" points="611.927,-66.0001 631.926,-55.5 611.926,-45.0001 611.927,-66.0001"/>
<text text-anchor="middle" x="416" y="-64.5" font-family="Times New Roman,serif" font-size="30.00"> &#160;&#160;16 &#160;&#160;100% &#160;&#160;1.9e&#45;07 mol/s &#160;&#160;&#160;0.50</text>
</g>
</g>
</svg>
