<?xml version="1.0" encoding="UTF-8" standalone="no"?>
<!DOCTYPE svg PUBLIC "-//W3C//DTD SVG 1.1//EN"
 "http://www.w3.org/Graphics/SVG/1.1/DTD/svg11.dtd">
<!-- Generated by graphviz version 2.38.0 (20140413.2041)
 -->
<!-- Title: G Pages: 1 -->
<svg width="640pt" height="100pt"
 viewBox="0.00 0.00 720.00 112.37" xmlns="http://www.w3.org/2000/svg" xmlns:xlink="http://www.w3.org/1999/xlink">
<g id="graph0" class="graph" transform="scale(0.406866 0.406866) rotate(0) translate(4 241.5)">
<title>G</title>
<polygon fill="white" stroke="none" points="-4,4 -4,-241.5 1569,-241.5 1569,4 -4,4"/>
<text text-anchor="middle" x="782.5" y="-204.7" font-family="Arial" font-size="36.00" fill="blue">Reaction Path Analysis</text>
<!-- (38)(100110) -->
<g id="node1" class="node"><title>(38)(100110)</title>
<g id="a_node1"><a xlink:href="38.svg" xlink:title="(38)(100110)">
<polygon fill="dodgerblue" stroke="none" points="887,-112 678,-112 678,-65 887,-65 887,-112"/>
<text text-anchor="middle" x="782.5" y="-80" font-family="Times New Roman,serif" font-size="35.00">(38)(100110)</text>
</a>
</g>
</g>
<!-- (5)(000101) -->
<g id="node2" class="node"><title>(5)(000101)</title>
<g id="a_node2"><a xlink:href="5.svg" xlink:title="(5)(000101)">
<polygon fill="dodgerblue" stroke="none" points="1556,-177 1365,-177 1365,-130 1556,-130 1556,-177"/>
<text text-anchor="middle" x="1460.5" y="-145" font-family="Times New Roman,serif" font-size="35.00">(5)(000101)</text>
</a>
</g>
</g>
<!-- (38)(100110)&#45;&gt;(5)(000101) -->
<g id="edge1" class="edge"><title>(38)(100110)&#45;&gt;(5)(000101)</title>
<path fill="none" stroke="green" stroke-width="5" d="M845.204,-112.083C861.498,-117.398 879.222,-122.383 896,-125.5 1049.37,-153.996 1230.01,-157.873 1344.62,-156.734"/>
<polygon fill="green" stroke="green" stroke-width="5" points="1345,-165.48 1364.88,-156.473 1344.77,-147.981 1345,-165.48"/>
<text text-anchor="middle" x="1121.5" y="-165.5" font-family="Times New Roman,serif" font-size="30.00"> &#160;&#160;17 &#160;&#160;99% &#160;&#160;0.49079295 mol/s &#160;&#160;&#160;0.50</text>
</g>
<!-- (46)(101110) -->
<g id="node5" class="node"><title>(46)(101110)</title>
<g id="a_node5"><a xlink:href="46.svg" xlink:title="(46)(101110)">
<polygon fill="purple" stroke="none" points="1565,-112 1356,-112 1356,-65 1565,-65 1565,-112"/>
<text text-anchor="middle" x="1460.5" y="-80" font-family="Times New Roman,serif" font-size="35.00">(46)(101110)</text>
</a>
</g>
</g>
<!-- (38)(100110)&#45;&gt;(46)(101110) -->
<g id="edge4" class="edge"><title>(38)(100110)&#45;&gt;(46)(101110)</title>
<path fill="none" stroke="green" d="M887.274,-88.5C1011.14,-88.5 1217.58,-88.5 1345.72,-88.5"/>
<polygon fill="green" stroke="green" points="1345.95,-92.0001 1355.95,-88.5 1345.95,-85.0001 1345.95,-92.0001"/>
<text text-anchor="middle" x="1121.5" y="-97.5" font-family="Times New Roman,serif" font-size="30.00"> &#160;&#160;100 &#160;&#160;0% &#160;&#160;0.00036886 mol/s &#160;&#160;&#160;0.50</text>
</g>
<!-- (54)(110110) -->
<g id="node6" class="node"><title>(54)(110110)</title>
<g id="a_node6"><a xlink:href="54.svg" xlink:title="(54)(110110)">
<polygon fill="springgreen" stroke="none" points="1565,-47 1356,-47 1356,3.55271e-015 1565,3.55271e-015 1565,-47"/>
<text text-anchor="middle" x="1460.5" y="-15" font-family="Times New Roman,serif" font-size="35.00">(54)(110110)</text>
</a>
</g>
</g>
<!-- (38)(100110)&#45;&gt;(54)(110110) -->
<g id="edge5" class="edge"><title>(38)(100110)&#45;&gt;(54)(110110)</title>
<path fill="none" stroke="green" d="M845.204,-64.9168C861.498,-59.6025 879.222,-54.6172 896,-51.5 1049.89,-22.9079 1231.23,-19.1013 1345.78,-20.2777"/>
<polygon fill="green" stroke="green" points="1345.93,-23.7796 1355.97,-20.3973 1346.01,-16.7801 1345.93,-23.7796"/>
<text text-anchor="middle" x="1121.5" y="-60.5" font-family="Times New Roman,serif" font-size="30.00"> &#160;&#160;101 &#160;&#160;0% &#160;&#160;0.00115816 mol/s &#160;&#160;&#160;0.50</text>
</g>
<!-- (34)(100010) -->
<g id="node3" class="node"><title>(34)(100010)</title>
<g id="a_node3"><a xlink:href="34.svg" xlink:title="(34)(100010)">
<polygon fill="lawngreen" stroke="none" points="209,-145 0,-145 0,-98 209,-98 209,-145"/>
<text text-anchor="middle" x="104.5" y="-113" font-family="Times New Roman,serif" font-size="35.00">(34)(100010)</text>
</a>
</g>
</g>
<!-- (34)(100010)&#45;&gt;(38)(100110) -->
<g id="edge2" class="edge"><title>(34)(100010)&#45;&gt;(38)(100110)</title>
<path fill="none" stroke="green" stroke-width="5" d="M209.197,-119.267C317.79,-116.522 493.882,-110.929 657.517,-100.224"/>
<polygon fill="green" stroke="green" stroke-width="5" points="658.551,-108.924 677.922,-98.8574 657.382,-91.4634 658.551,-108.924"/>
<text text-anchor="middle" x="443.5" y="-127.5" font-family="Times New Roman,serif" font-size="30.00"> &#160;&#160;88 &#160;&#160;99% &#160;&#160;0.48790091 mol/s &#160;&#160;&#160;0.50</text>
</g>
<!-- (39)(100111) -->
<g id="node4" class="node"><title>(39)(100111)</title>
<g id="a_node4"><a xlink:href="39.svg" xlink:title="(39)(100111)">
<polygon fill="dodgerblue" stroke="none" points="209,-80 0,-80 0,-33 209,-33 209,-80"/>
<text text-anchor="middle" x="104.5" y="-48" font-family="Times New Roman,serif" font-size="35.00">(39)(100111)</text>
</a>
</g>
</g>
<!-- (39)(100111)&#45;&gt;(38)(100110) -->
<g id="edge3" class="edge"><title>(39)(100111)&#45;&gt;(38)(100110)</title>
<path fill="none" stroke="green" d="M209.175,-52.9155C320.153,-50.315 501.555,-49.6158 667.313,-66.4349"/>
<polygon fill="green" stroke="green" points="667.395,-69.9622 677.703,-67.5145 668.119,-62.9996 667.395,-69.9622"/>
<text text-anchor="middle" x="443.5" y="-75.5" font-family="Times New Roman,serif" font-size="30.00"> &#160;&#160;99 &#160;&#160;0% &#160;&#160;0.00441905 mol/s &#160;&#160;&#160;0.50</text>
</g>
</g>
</svg>
