<?xml version="1.0" encoding="UTF-8" standalone="no"?>
<!DOCTYPE svg PUBLIC "-//W3C//DTD SVG 1.1//EN"
 "http://www.w3.org/Graphics/SVG/1.1/DTD/svg11.dtd">
<!-- Generated by graphviz version 2.38.0 (20140413.2041)
 -->
<!-- Title: G Pages: 1 -->
<svg width="640pt" height="100pt"
 viewBox="0.00 0.00 720.00 112.37" xmlns="http://www.w3.org/2000/svg" xmlns:xlink="http://www.w3.org/1999/xlink">
<g id="graph0" class="graph" transform="scale(0.406866 0.406866) rotate(0) translate(4 241.5)">
<title>G</title>
<polygon fill="white" stroke="none" points="-4,4 -4,-241.5 1569,-241.5 1569,4 -4,4"/>
<text text-anchor="middle" x="782.5" y="-204.7" font-family="Arial" font-size="36.00" fill="blue">Reaction Path Analysis</text>
<!-- (39)(100111) -->
<g id="node1" class="node"><title>(39)(100111)</title>
<g id="a_node1"><a xlink:href="39.svg" xlink:title="(39)(100111)">
<polygon fill="dodgerblue" stroke="none" points="887,-112 678,-112 678,-65 887,-65 887,-112"/>
<text text-anchor="middle" x="782.5" y="-80" font-family="Times New Roman,serif" font-size="35.00">(39)(100111)</text>
</a>
</g>
</g>
<!-- (38)(100110) -->
<g id="node3" class="node"><title>(38)(100110)</title>
<g id="a_node3"><a xlink:href="38.svg" xlink:title="(38)(100110)">
<polygon fill="dodgerblue" stroke="none" points="1565,-177 1356,-177 1356,-130 1565,-130 1565,-177"/>
<text text-anchor="middle" x="1460.5" y="-145" font-family="Times New Roman,serif" font-size="35.00">(38)(100110)</text>
</a>
</g>
</g>
<!-- (39)(100111)&#45;&gt;(38)(100110) -->
<g id="edge2" class="edge"><title>(39)(100111)&#45;&gt;(38)(100110)</title>
<path fill="none" stroke="green" stroke-width="5" d="M845.204,-112.083C861.498,-117.398 879.222,-122.383 896,-125.5 1045.56,-153.287 1221.04,-157.665 1335.95,-156.809"/>
<polygon fill="green" stroke="green" stroke-width="5" points="1336.06,-165.559 1355.97,-156.603 1335.88,-148.06 1336.06,-165.559"/>
<text text-anchor="middle" x="1121.5" y="-165.5" font-family="Times New Roman,serif" font-size="30.00"> &#160;&#160;99 &#160;&#160;97% &#160;&#160;0.00441905 mol/s &#160;&#160;&#160;0.50</text>
</g>
<!-- (47)(101111) -->
<g id="node4" class="node"><title>(47)(101111)</title>
<g id="a_node4"><a xlink:href="47.svg" xlink:title="(47)(101111)">
<polygon fill="purple" stroke="none" points="1565,-112 1356,-112 1356,-65 1565,-65 1565,-112"/>
<text text-anchor="middle" x="1460.5" y="-80" font-family="Times New Roman,serif" font-size="35.00">(47)(101111)</text>
</a>
</g>
</g>
<!-- (39)(100111)&#45;&gt;(47)(101111) -->
<g id="edge3" class="edge"><title>(39)(100111)&#45;&gt;(47)(101111)</title>
<path fill="none" stroke="green" d="M887.274,-88.5C1011.14,-88.5 1217.58,-88.5 1345.72,-88.5"/>
<polygon fill="green" stroke="green" points="1345.95,-92.0001 1355.95,-88.5 1345.95,-85.0001 1345.95,-92.0001"/>
<text text-anchor="middle" x="1121.5" y="-97.5" font-family="Times New Roman,serif" font-size="30.00"> &#160;&#160;102 &#160;&#160;0% &#160;&#160;3.125e&#45;05 mol/s &#160;&#160;&#160;0.50</text>
</g>
<!-- (55)(110111) -->
<g id="node5" class="node"><title>(55)(110111)</title>
<g id="a_node5"><a xlink:href="55.svg" xlink:title="(55)(110111)">
<polygon fill="springgreen" stroke="none" points="1565,-47 1356,-47 1356,3.55271e-015 1565,3.55271e-015 1565,-47"/>
<text text-anchor="middle" x="1460.5" y="-15" font-family="Times New Roman,serif" font-size="35.00">(55)(110111)</text>
</a>
</g>
</g>
<!-- (39)(100111)&#45;&gt;(55)(110111) -->
<g id="edge4" class="edge"><title>(39)(100111)&#45;&gt;(55)(110111)</title>
<path fill="none" stroke="green" d="M845.204,-64.9168C861.498,-59.6025 879.222,-54.6172 896,-51.5 1049.89,-22.9079 1231.23,-19.1013 1345.78,-20.2777"/>
<polygon fill="green" stroke="green" points="1345.93,-23.7796 1355.97,-20.3973 1346.01,-16.7801 1345.93,-23.7796"/>
<text text-anchor="middle" x="1121.5" y="-60.5" font-family="Times New Roman,serif" font-size="30.00"> &#160;&#160;103 &#160;&#160;2% &#160;&#160;9.8e&#45;05 mol/s &#160;&#160;&#160;0.50</text>
</g>
<!-- (35)(100011) -->
<g id="node2" class="node"><title>(35)(100011)</title>
<g id="a_node2"><a xlink:href="35.svg" xlink:title="(35)(100011)">
<polygon fill="springgreen" stroke="none" points="209,-112 0,-112 0,-65 209,-65 209,-112"/>
<text text-anchor="middle" x="104.5" y="-80" font-family="Times New Roman,serif" font-size="35.00">(35)(100011)</text>
</a>
</g>
</g>
<!-- (35)(100011)&#45;&gt;(39)(100111) -->
<g id="edge1" class="edge"><title>(35)(100011)&#45;&gt;(39)(100111)</title>
<path fill="none" stroke="green" stroke-width="6" d="M209.274,-88.5C330.039,-88.5 529.284,-88.5 657.931,-88.5"/>
<polygon fill="green" stroke="green" stroke-width="6" points="657.949,-99.0001 677.949,-88.5 657.949,-78.0001 657.949,-99.0001"/>
<text text-anchor="middle" x="443.5" y="-97.5" font-family="Times New Roman,serif" font-size="30.00"> &#160;&#160;91 &#160;&#160;100% &#160;&#160;0.0045483 mol/s &#160;&#160;&#160;0.50</text>
</g>
</g>
</svg>
