<?xml version="1.0" encoding="UTF-8" standalone="no"?>
<!DOCTYPE svg PUBLIC "-//W3C//DTD SVG 1.1//EN"
 "http://www.w3.org/Graphics/SVG/1.1/DTD/svg11.dtd">
<!-- Generated by graphviz version 2.38.0 (20140413.2041)
 -->
<!-- Title: G Pages: 1 -->
<svg width="640pt" height="98pt"
 viewBox="0.00 0.00 720.00 110.27" xmlns="http://www.w3.org/2000/svg" xmlns:xlink="http://www.w3.org/1999/xlink">
<g id="graph0" class="graph" transform="scale(0.399251 0.399251) rotate(0) translate(4 241.5)">
<title>G</title>
<polygon fill="white" stroke="none" points="-4,4 -4,-241.5 1599,-241.5 1599,4 -4,4"/>
<text text-anchor="middle" x="797.5" y="-204.7" font-family="Arial" font-size="36.00" fill="blue">Reaction Path Analysis</text>
<!-- (40)(101000) -->
<g id="node1" class="node"><title>(40)(101000)</title>
<g id="a_node1"><a xlink:href="40.svg" xlink:title="(40)(101000)">
<polygon fill="dodgerblue" stroke="none" points="902,-112 693,-112 693,-65 902,-65 902,-112"/>
<text text-anchor="middle" x="797.5" y="-80" font-family="Times New Roman,serif" font-size="35.00">(40)(101000)</text>
</a>
</g>
</g>
<!-- (8)(001000) -->
<g id="node2" class="node"><title>(8)(001000)</title>
<g id="a_node2"><a xlink:href="8.svg" xlink:title="(8)(001000)">
<polygon fill="dodgerblue" stroke="none" points="1586,-177 1395,-177 1395,-130 1586,-130 1586,-177"/>
<text text-anchor="middle" x="1490.5" y="-145" font-family="Times New Roman,serif" font-size="35.00">(8)(001000)</text>
</a>
</g>
</g>
<!-- (40)(101000)&#45;&gt;(8)(001000) -->
<g id="edge1" class="edge"><title>(40)(101000)&#45;&gt;(8)(001000)</title>
<path fill="none" stroke="green" stroke-width="4" d="M859.907,-112.002C876.281,-117.352 894.119,-122.375 911,-125.5 1069.96,-154.928 1257.42,-158.436 1374.9,-156.975"/>
<polygon fill="green" stroke="green" stroke-width="4" points="1375.03,-163.974 1394.92,-156.669 1374.82,-149.975 1375.03,-163.974"/>
<text text-anchor="middle" x="1144" y="-165.5" font-family="Times New Roman,serif" font-size="30.00"> &#160;&#160;25 &#160;&#160;65% &#160;&#160;0.46223179 mol/s &#160;&#160;&#160;0.50</text>
</g>
<!-- (41)(101001) -->
<g id="node4" class="node"><title>(41)(101001)</title>
<g id="a_node4"><a xlink:href="41.svg" xlink:title="(41)(101001)">
<polygon fill="dodgerblue" stroke="none" points="1595,-112 1386,-112 1386,-65 1595,-65 1595,-112"/>
<text text-anchor="middle" x="1490.5" y="-80" font-family="Times New Roman,serif" font-size="35.00">(41)(101001)</text>
</a>
</g>
</g>
<!-- (40)(101000)&#45;&gt;(41)(101001) -->
<g id="edge3" class="edge"><title>(40)(101000)&#45;&gt;(41)(101001)</title>
<path fill="none" stroke="green" stroke-width="2" d="M902.324,-88.5C1029.46,-88.5 1244.08,-88.5 1375.64,-88.5"/>
<polygon fill="green" stroke="green" stroke-width="2" points="1375.75,-92.0001 1385.75,-88.5 1375.75,-85.0001 1375.75,-92.0001"/>
<text text-anchor="middle" x="1144" y="-97.5" font-family="Times New Roman,serif" font-size="30.00"> &#160;&#160;104 &#160;&#160;34% &#160;&#160;0.24311298 mol/s &#160;&#160;&#160;0.50</text>
</g>
<!-- (44)(101100) -->
<g id="node5" class="node"><title>(44)(101100)</title>
<g id="a_node5"><a xlink:href="44.svg" xlink:title="(44)(101100)">
<polygon fill="purple" stroke="none" points="1595,-47 1386,-47 1386,3.55271e-015 1595,3.55271e-015 1595,-47"/>
<text text-anchor="middle" x="1490.5" y="-15" font-family="Times New Roman,serif" font-size="35.00">(44)(101100)</text>
</a>
</g>
</g>
<!-- (40)(101000)&#45;&gt;(44)(101100) -->
<g id="edge4" class="edge"><title>(40)(101000)&#45;&gt;(44)(101100)</title>
<path fill="none" stroke="green" d="M859.907,-64.9981C876.281,-59.648 894.119,-54.6252 911,-51.5 1070.36,-21.9985 1258.37,-18.5461 1375.78,-20.0362"/>
<polygon fill="green" stroke="green" points="1375.82,-23.5369 1385.87,-20.1785 1375.92,-16.5376 1375.82,-23.5369"/>
<text text-anchor="middle" x="1144" y="-60.5" font-family="Times New Roman,serif" font-size="30.00"> &#160;&#160;105 &#160;&#160;0% &#160;&#160;6.9e&#45;07 mol/s &#160;&#160;&#160;0.50</text>
</g>
<!-- (32)(100000) -->
<g id="node3" class="node"><title>(32)(100000)</title>
<g id="a_node3"><a xlink:href="32.svg" xlink:title="(32)(100000)">
<polygon fill="dodgerblue" stroke="none" points="209,-145 0,-145 0,-98 209,-98 209,-145"/>
<text text-anchor="middle" x="104.5" y="-113" font-family="Times New Roman,serif" font-size="35.00">(32)(100000)</text>
</a>
</g>
</g>
<!-- (32)(100000)&#45;&gt;(40)(101000) -->
<g id="edge2" class="edge"><title>(32)(100000)&#45;&gt;(40)(101000)</title>
<path fill="none" stroke="green" d="M209.258,-119.151C323.743,-116.175 513.404,-110.11 676.5,-99.5 678.58,-99.3647 680.679,-99.2233 682.793,-99.0765"/>
<polygon fill="green" stroke="green" points="683.062,-102.566 692.782,-98.3521 682.555,-95.5847 683.062,-102.566"/>
<text text-anchor="middle" x="451" y="-127.5" font-family="Times New Roman,serif" font-size="30.00"> &#160;&#160;82 &#160;&#160;0% &#160;&#160;8.85e&#45;06 mol/s &#160;&#160;&#160;0.50</text>
</g>
<!-- (56)(111000) -->
<g id="node6" class="node"><title>(56)(111000)</title>
<g id="a_node6"><a xlink:href="56.svg" xlink:title="(56)(111000)">
<polygon fill="springgreen" stroke="none" points="209,-80 0,-80 0,-33 209,-33 209,-80"/>
<text text-anchor="middle" x="104.5" y="-48" font-family="Times New Roman,serif" font-size="35.00">(56)(111000)</text>
</a>
</g>
</g>
<!-- (56)(111000)&#45;&gt;(40)(101000) -->
<g id="edge5" class="edge"><title>(56)(111000)&#45;&gt;(40)(101000)</title>
<path fill="none" stroke="green" stroke-width="5" d="M209.21,-53.2319C319.599,-50.8918 499.842,-50.3171 672.93,-66.4719"/>
<polygon fill="green" stroke="green" stroke-width="5" points="672.153,-75.1875 692.906,-68.4151 673.847,-57.7697 672.153,-75.1875"/>
<text text-anchor="middle" x="451" y="-75.5" font-family="Times New Roman,serif" font-size="30.00"> &#160;&#160;106 &#160;&#160;99% &#160;&#160;0.7053366 mol/s &#160;&#160;&#160;0.50</text>
</g>
</g>
</svg>
