<?xml version="1.0" encoding="UTF-8" standalone="no"?>
<!DOCTYPE svg PUBLIC "-//W3C//DTD SVG 1.1//EN"
 "http://www.w3.org/Graphics/SVG/1.1/DTD/svg11.dtd">
<!-- Generated by graphviz version 2.38.0 (20140413.2041)
 -->
<!-- Title: G Pages: 1 -->
<svg width="640pt" height="100pt"
 viewBox="0.00 0.00 720.00 112.37" xmlns="http://www.w3.org/2000/svg" xmlns:xlink="http://www.w3.org/1999/xlink">
<g id="graph0" class="graph" transform="scale(0.406866 0.406866) rotate(0) translate(4 241.5)">
<title>G</title>
<polygon fill="white" stroke="none" points="-4,4 -4,-241.5 1569,-241.5 1569,4 -4,4"/>
<text text-anchor="middle" x="782.5" y="-204.7" font-family="Arial" font-size="36.00" fill="blue">Reaction Path Analysis</text>
<!-- (42)(101010) -->
<g id="node1" class="node"><title>(42)(101010)</title>
<g id="a_node1"><a xlink:href="42.svg" xlink:title="(42)(101010)">
<polygon fill="springgreen" stroke="none" points="887,-112 678,-112 678,-65 887,-65 887,-112"/>
<text text-anchor="middle" x="782.5" y="-80" font-family="Times New Roman,serif" font-size="35.00">(42)(101010)</text>
</a>
</g>
</g>
<!-- (34)(100010) -->
<g id="node3" class="node"><title>(34)(100010)</title>
<g id="a_node3"><a xlink:href="34.svg" xlink:title="(34)(100010)">
<polygon fill="lawngreen" stroke="none" points="1565,-177 1356,-177 1356,-130 1565,-130 1565,-177"/>
<text text-anchor="middle" x="1460.5" y="-145" font-family="Times New Roman,serif" font-size="35.00">(34)(100010)</text>
</a>
</g>
</g>
<!-- (42)(101010)&#45;&gt;(34)(100010) -->
<g id="edge2" class="edge"><title>(42)(101010)&#45;&gt;(34)(100010)</title>
<path fill="none" stroke="green" stroke-width="5" d="M845.204,-112.083C861.498,-117.398 879.222,-122.383 896,-125.5 1045.56,-153.287 1221.04,-157.665 1335.95,-156.809"/>
<polygon fill="green" stroke="green" stroke-width="5" points="1336.06,-165.559 1355.97,-156.603 1335.88,-148.06 1336.06,-165.559"/>
<text text-anchor="middle" x="1121.5" y="-165.5" font-family="Times New Roman,serif" font-size="30.00"> &#160;&#160;89 &#160;&#160;99% &#160;&#160;1.89282781 mol/s &#160;&#160;&#160;0.50</text>
</g>
<!-- (46)(101110) -->
<g id="node5" class="node"><title>(46)(101110)</title>
<g id="a_node5"><a xlink:href="46.svg" xlink:title="(46)(101110)">
<polygon fill="purple" stroke="none" points="1565,-112 1356,-112 1356,-65 1565,-65 1565,-112"/>
<text text-anchor="middle" x="1460.5" y="-80" font-family="Times New Roman,serif" font-size="35.00">(46)(101110)</text>
</a>
</g>
</g>
<!-- (42)(101010)&#45;&gt;(46)(101110) -->
<g id="edge4" class="edge"><title>(42)(101010)&#45;&gt;(46)(101110)</title>
<path fill="none" stroke="green" d="M887.274,-88.5C1011.14,-88.5 1217.58,-88.5 1345.72,-88.5"/>
<polygon fill="green" stroke="green" points="1345.95,-92.0001 1355.95,-88.5 1345.95,-85.0001 1345.95,-92.0001"/>
<text text-anchor="middle" x="1121.5" y="-97.5" font-family="Times New Roman,serif" font-size="30.00"> &#160;&#160;110 &#160;&#160;0% &#160;&#160;0.00097073 mol/s &#160;&#160;&#160;0.50</text>
</g>
<!-- (58)(111010) -->
<g id="node7" class="node"><title>(58)(111010)</title>
<g id="a_node7"><a xlink:href="58.svg" xlink:title="(58)(111010)">
<polygon fill="springgreen" stroke="none" points="1565,-47 1356,-47 1356,3.55271e-015 1565,3.55271e-015 1565,-47"/>
<text text-anchor="middle" x="1460.5" y="-15" font-family="Times New Roman,serif" font-size="35.00">(58)(111010)</text>
</a>
</g>
</g>
<!-- (42)(101010)&#45;&gt;(58)(111010) -->
<g id="edge6" class="edge"><title>(42)(101010)&#45;&gt;(58)(111010)</title>
<path fill="none" stroke="green" d="M845.204,-64.9168C861.498,-59.6025 879.222,-54.6172 896,-51.5 1049.89,-22.9079 1231.23,-19.1013 1345.78,-20.2777"/>
<polygon fill="green" stroke="green" points="1345.93,-23.7796 1355.97,-20.3973 1346.01,-16.7801 1345.93,-23.7796"/>
<text text-anchor="middle" x="1121.5" y="-60.5" font-family="Times New Roman,serif" font-size="30.00"> &#160;&#160;112 &#160;&#160;0% &#160;&#160;0.00328131 mol/s &#160;&#160;&#160;0.50</text>
</g>
<!-- (9)(001001) -->
<g id="node2" class="node"><title>(9)(001001)</title>
<g id="a_node2"><a xlink:href="9.svg" xlink:title="(9)(001001)">
<polygon fill="springgreen" stroke="none" points="200,-177 9,-177 9,-130 200,-130 200,-177"/>
<text text-anchor="middle" x="104.5" y="-145" font-family="Times New Roman,serif" font-size="35.00">(9)(001001)</text>
</a>
</g>
</g>
<!-- (9)(001001)&#45;&gt;(42)(101010) -->
<g id="edge1" class="edge"><title>(9)(001001)&#45;&gt;(42)(101010)</title>
<path fill="none" stroke="green" stroke-width="3" d="M200.117,-156.473C312.803,-158.255 506.249,-155.738 669,-125.5 682.501,-122.992 696.615,-119.274 710.103,-115.148"/>
<polygon fill="green" stroke="green" stroke-width="3" points="711.316,-118.435 719.796,-112.083 709.206,-111.761 711.316,-118.435"/>
<text text-anchor="middle" x="443.5" y="-165.5" font-family="Times New Roman,serif" font-size="30.00"> &#160;&#160;29 &#160;&#160;46% &#160;&#160;0.87912158 mol/s &#160;&#160;&#160;0.50</text>
</g>
<!-- (43)(101011) -->
<g id="node4" class="node"><title>(43)(101011)</title>
<g id="a_node4"><a xlink:href="43.svg" xlink:title="(43)(101011)">
<polygon fill="dodgerblue" stroke="none" points="209,-112 0,-112 0,-65 209,-65 209,-112"/>
<text text-anchor="middle" x="104.5" y="-80" font-family="Times New Roman,serif" font-size="35.00">(43)(101011)</text>
</a>
</g>
</g>
<!-- (43)(101011)&#45;&gt;(42)(101010) -->
<g id="edge3" class="edge"><title>(43)(101011)&#45;&gt;(42)(101010)</title>
<path fill="none" stroke="green" d="M209.274,-88.5C333.145,-88.5 539.585,-88.5 667.715,-88.5"/>
<polygon fill="green" stroke="green" points="667.949,-92.0001 677.949,-88.5 667.949,-85.0001 667.949,-92.0001"/>
<text text-anchor="middle" x="443.5" y="-97.5" font-family="Times New Roman,serif" font-size="30.00"> &#160;&#160;109 &#160;&#160;1% &#160;&#160;0.03240106 mol/s &#160;&#160;&#160;0.50</text>
</g>
<!-- (50)(110010) -->
<g id="node6" class="node"><title>(50)(110010)</title>
<g id="a_node6"><a xlink:href="50.svg" xlink:title="(50)(110010)">
<polygon fill="orange" stroke="none" points="209,-47 0,-47 0,3.55271e-015 209,3.55271e-015 209,-47"/>
<text text-anchor="middle" x="104.5" y="-15" font-family="Times New Roman,serif" font-size="35.00">(50)(110010)</text>
</a>
</g>
</g>
<!-- (50)(110010)&#45;&gt;(42)(101010) -->
<g id="edge5" class="edge"><title>(50)(110010)&#45;&gt;(42)(101010)</title>
<path fill="none" stroke="green" stroke-width="3" d="M209.029,-20.3973C322.798,-18.8941 510.462,-22.045 669,-51.5 682.501,-54.0084 696.615,-57.7264 710.103,-61.8521"/>
<polygon fill="green" stroke="green" stroke-width="3" points="709.206,-65.2392 719.796,-64.9168 711.316,-58.5648 709.206,-65.2392"/>
<text text-anchor="middle" x="443.5" y="-60.5" font-family="Times New Roman,serif" font-size="30.00"> &#160;&#160;111 &#160;&#160;51% &#160;&#160;0.9855572 mol/s &#160;&#160;&#160;0.50</text>
</g>
</g>
</svg>
