<?xml version="1.0" encoding="UTF-8" standalone="no"?>
<!DOCTYPE svg PUBLIC "-//W3C//DTD SVG 1.1//EN"
 "http://www.w3.org/Graphics/SVG/1.1/DTD/svg11.dtd">
<!-- Generated by graphviz version 2.38.0 (20140413.2041)
 -->
<!-- Title: G Pages: 1 -->
<svg width="640pt" height="125pt"
 viewBox="0.00 0.00 720.00 140.43" xmlns="http://www.w3.org/2000/svg" xmlns:xlink="http://www.w3.org/1999/xlink">
<g id="graph0" class="graph" transform="scale(0.391917 0.391917) rotate(0) translate(4 314.5)">
<title>G</title>
<polygon fill="white" stroke="none" points="-4,4 -4,-314.5 1629,-314.5 1629,4 -4,4"/>
<text text-anchor="middle" x="812.5" y="-277.7" font-family="Arial" font-size="36.00" fill="blue">Reaction Path Analysis</text>
<!-- (43)(101011) -->
<g id="node1" class="node"><title>(43)(101011)</title>
<g id="a_node1"><a xlink:href="43.svg" xlink:title="(43)(101011)">
<polygon fill="dodgerblue" stroke="none" points="917,-144 708,-144 708,-97 917,-97 917,-144"/>
<text text-anchor="middle" x="812.5" y="-112" font-family="Times New Roman,serif" font-size="35.00">(43)(101011)</text>
</a>
</g>
</g>
<!-- (35)(100011) -->
<g id="node2" class="node"><title>(35)(100011)</title>
<g id="a_node2"><a xlink:href="35.svg" xlink:title="(35)(100011)">
<polygon fill="springgreen" stroke="none" points="1625,-242 1416,-242 1416,-195 1625,-195 1625,-242"/>
<text text-anchor="middle" x="1520.5" y="-210" font-family="Times New Roman,serif" font-size="35.00">(35)(100011)</text>
</a>
</g>
</g>
<!-- (43)(101011)&#45;&gt;(35)(100011) -->
<g id="edge1" class="edge"><title>(43)(101011)&#45;&gt;(35)(100011)</title>
<path fill="none" stroke="green" stroke-width="3" d="M846.067,-144.095C869.23,-159.476 901.749,-178.334 933.5,-187.5 1092.45,-233.385 1285.55,-233.531 1405.5,-227.502"/>
<polygon fill="green" stroke="green" stroke-width="3" points="1406,-230.981 1415.8,-226.96 1405.63,-223.99 1406,-230.981"/>
<text text-anchor="middle" x="1166.5" y="-238.5" font-family="Times New Roman,serif" font-size="30.00"> &#160;&#160;92 &#160;&#160;55% &#160;&#160;0.04114438 mol/s &#160;&#160;&#160;0.50</text>
</g>
<!-- (42)(101010) -->
<g id="node3" class="node"><title>(42)(101010)</title>
<g id="a_node3"><a xlink:href="42.svg" xlink:title="(42)(101010)">
<polygon fill="springgreen" stroke="none" points="1625,-177 1416,-177 1416,-130 1625,-130 1625,-177"/>
<text text-anchor="middle" x="1520.5" y="-145" font-family="Times New Roman,serif" font-size="35.00">(42)(101010)</text>
</a>
</g>
</g>
<!-- (43)(101011)&#45;&gt;(42)(101010) -->
<g id="edge2" class="edge"><title>(43)(101011)&#45;&gt;(42)(101010)</title>
<path fill="none" stroke="green" stroke-width="3" d="M917.217,-130.358C922.723,-130.772 928.176,-131.156 933.5,-131.5 1097.5,-142.087 1287.67,-148.07 1405.8,-151.046"/>
<polygon fill="green" stroke="green" stroke-width="3" points="1405.86,-154.548 1415.94,-151.298 1406.03,-147.55 1405.86,-154.548"/>
<text text-anchor="middle" x="1166.5" y="-159.5" font-family="Times New Roman,serif" font-size="30.00"> &#160;&#160;109 &#160;&#160;43% &#160;&#160;0.03240106 mol/s &#160;&#160;&#160;0.50</text>
</g>
<!-- (47)(101111) -->
<g id="node4" class="node"><title>(47)(101111)</title>
<g id="a_node4"><a xlink:href="47.svg" xlink:title="(47)(101111)">
<polygon fill="purple" stroke="none" points="1625,-112 1416,-112 1416,-65 1625,-65 1625,-112"/>
<text text-anchor="middle" x="1520.5" y="-80" font-family="Times New Roman,serif" font-size="35.00">(47)(101111)</text>
</a>
</g>
</g>
<!-- (43)(101011)&#45;&gt;(47)(101111) -->
<g id="edge3" class="edge"><title>(43)(101011)&#45;&gt;(47)(101111)</title>
<path fill="none" stroke="green" d="M917.094,-100.412C922.631,-99.6814 928.126,-99.0349 933.5,-98.5 1097.06,-82.2226 1287.54,-82.5061 1405.84,-84.9314"/>
<polygon fill="green" stroke="green" points="1405.92,-88.4339 1415.99,-85.1486 1406.07,-81.4355 1405.92,-88.4339"/>
<text text-anchor="middle" x="1166.5" y="-107.5" font-family="Times New Roman,serif" font-size="30.00"> &#160;&#160;113 &#160;&#160;0% &#160;&#160;6.804e&#45;05 mol/s &#160;&#160;&#160;0.50</text>
</g>
<!-- (59)(111011) -->
<g id="node6" class="node"><title>(59)(111011)</title>
<g id="a_node6"><a xlink:href="59.svg" xlink:title="(59)(111011)">
<polygon fill="springgreen" stroke="none" points="1625,-47 1416,-47 1416,3.55271e-015 1625,3.55271e-015 1625,-47"/>
<text text-anchor="middle" x="1520.5" y="-15" font-family="Times New Roman,serif" font-size="35.00">(59)(111011)</text>
</a>
</g>
</g>
<!-- (43)(101011)&#45;&gt;(59)(111011) -->
<g id="edge5" class="edge"><title>(43)(101011)&#45;&gt;(59)(111011)</title>
<path fill="none" stroke="green" d="M843.008,-96.646C866.122,-79.4934 899.889,-57.6666 933.5,-47.5 1091.89,0.40839 1285.33,-2.83759 1405.5,-11.5973"/>
<polygon fill="green" stroke="green" points="1405.58,-15.1134 1415.82,-12.3761 1406.11,-8.13324 1405.58,-15.1134"/>
<text text-anchor="middle" x="1166.5" y="-56.5" font-family="Times New Roman,serif" font-size="30.00"> &#160;&#160;115 &#160;&#160;0% &#160;&#160;4.909e&#45;05 mol/s &#160;&#160;&#160;0.50</text>
</g>
<!-- (51)(110011) -->
<g id="node5" class="node"><title>(51)(110011)</title>
<g id="a_node5"><a xlink:href="51.svg" xlink:title="(51)(110011)">
<polygon fill="lawngreen" stroke="none" points="209,-144 0,-144 0,-97 209,-97 209,-144"/>
<text text-anchor="middle" x="104.5" y="-112" font-family="Times New Roman,serif" font-size="35.00">(51)(110011)</text>
</a>
</g>
</g>
<!-- (51)(110011)&#45;&gt;(43)(101011) -->
<g id="edge4" class="edge"><title>(51)(110011)&#45;&gt;(43)(101011)</title>
<path fill="none" stroke="green" stroke-width="6" d="M209.293,-120.5C336.529,-120.5 551.924,-120.5 687.675,-120.5"/>
<polygon fill="green" stroke="green" stroke-width="6" points="687.929,-131 707.929,-120.5 687.929,-110 687.929,-131"/>
<text text-anchor="middle" x="458.5" y="-129.5" font-family="Times New Roman,serif" font-size="30.00"> &#160;&#160;114 &#160;&#160;100% &#160;&#160;0.07366258 mol/s &#160;&#160;&#160;0.50</text>
</g>
</g>
</svg>
