<?xml version="1.0" encoding="UTF-8" standalone="no"?>
<!DOCTYPE svg PUBLIC "-//W3C//DTD SVG 1.1//EN"
 "http://www.w3.org/Graphics/SVG/1.1/DTD/svg11.dtd">
<!-- Generated by graphviz version 2.38.0 (20140413.2041)
 -->
<!-- Title: G Pages: 1 -->
<svg width="640pt" height="47pt"
 viewBox="0.00 0.00 720.00 52.98" xmlns="http://www.w3.org/2000/svg" xmlns:xlink="http://www.w3.org/1999/xlink">
<g id="graph0" class="graph" transform="scale(0.418574 0.418574) rotate(0) translate(4 108.5)">
<title>G</title>
<polygon fill="white" stroke="none" points="-4,4 -4,-108.5 1525,-108.5 1525,4 -4,4"/>
<text text-anchor="middle" x="760.5" y="-71.7" font-family="Arial" font-size="36.00" fill="blue">Reaction Path Analysis</text>
<!-- (44)(101100) -->
<g id="node1" class="node"><title>(44)(101100)</title>
<g id="a_node1"><a xlink:href="44.svg" xlink:title="(44)(101100)">
<polygon fill="purple" stroke="none" points="865,-47 656,-47 656,3.55271e-015 865,3.55271e-015 865,-47"/>
<text text-anchor="middle" x="760.5" y="-15" font-family="Times New Roman,serif" font-size="35.00">(44)(101100)</text>
</a>
</g>
</g>
<!-- (12)(001100) -->
<g id="node2" class="node"><title>(12)(001100)</title>
<g id="a_node2"><a xlink:href="12.svg" xlink:title="(12)(001100)">
<polygon fill="dodgerblue" stroke="none" points="1521,-47 1312,-47 1312,3.55271e-015 1521,3.55271e-015 1521,-47"/>
<text text-anchor="middle" x="1416.5" y="-15" font-family="Times New Roman,serif" font-size="35.00">(12)(001100)</text>
</a>
</g>
</g>
<!-- (44)(101100)&#45;&gt;(12)(001100) -->
<g id="edge1" class="edge"><title>(44)(101100)&#45;&gt;(12)(001100)</title>
<path fill="none" stroke="green" stroke-width="6" d="M865.128,-23.5C980.84,-23.5 1168.03,-23.5 1291.44,-23.5"/>
<polygon fill="green" stroke="green" stroke-width="6" points="1291.82,-34.0001 1311.82,-23.5 1291.82,-13.0001 1291.82,-34.0001"/>
<text text-anchor="middle" x="1088.5" y="-32.5" font-family="Times New Roman,serif" font-size="30.00"> &#160;&#160;34 &#160;&#160;100% &#160;&#160;7e&#45;07 mol/s &#160;&#160;&#160;0.50</text>
</g>
<!-- (40)(101000) -->
<g id="node3" class="node"><title>(40)(101000)</title>
<g id="a_node3"><a xlink:href="40.svg" xlink:title="(40)(101000)">
<polygon fill="dodgerblue" stroke="none" points="209,-47 0,-47 0,3.55271e-015 209,3.55271e-015 209,-47"/>
<text text-anchor="middle" x="104.5" y="-15" font-family="Times New Roman,serif" font-size="35.00">(40)(101000)</text>
</a>
</g>
</g>
<!-- (40)(101000)&#45;&gt;(44)(101100) -->
<g id="edge2" class="edge"><title>(40)(101000)&#45;&gt;(44)(101100)</title>
<path fill="none" stroke="green" stroke-width="6" d="M209.128,-23.5C324.84,-23.5 512.033,-23.5 635.444,-23.5"/>
<polygon fill="green" stroke="green" stroke-width="6" points="635.817,-34.0001 655.817,-23.5 635.817,-13.0001 635.817,-34.0001"/>
<text text-anchor="middle" x="432.5" y="-32.5" font-family="Times New Roman,serif" font-size="30.00"> &#160;&#160;105 &#160;&#160;100% &#160;&#160;6.9e&#45;07 mol/s &#160;&#160;&#160;0.50</text>
</g>
</g>
</svg>
