<?xml version="1.0" encoding="UTF-8" standalone="no"?>
<!DOCTYPE svg PUBLIC "-//W3C//DTD SVG 1.1//EN"
 "http://www.w3.org/Graphics/SVG/1.1/DTD/svg11.dtd">
<!-- Generated by graphviz version 2.38.0 (20140413.2041)
 -->
<!-- Title: G Pages: 1 -->
<svg width="640pt" height="49pt"
 viewBox="0.00 0.00 720.00 54.62" xmlns="http://www.w3.org/2000/svg" xmlns:xlink="http://www.w3.org/1999/xlink">
<g id="graph0" class="graph" transform="scale(0.431558 0.431558) rotate(0) translate(4 108.5)">
<title>G</title>
<polygon fill="white" stroke="none" points="-4,4 -4,-108.5 1479,-108.5 1479,4 -4,4"/>
<text text-anchor="middle" x="737.5" y="-71.7" font-family="Arial" font-size="36.00" fill="blue">Reaction Path Analysis</text>
<!-- (45)(101101) -->
<g id="node1" class="node"><title>(45)(101101)</title>
<g id="a_node1"><a xlink:href="45.svg" xlink:title="(45)(101101)">
<polygon fill="purple" stroke="none" points="842,-47 633,-47 633,3.55271e-015 842,3.55271e-015 842,-47"/>
<text text-anchor="middle" x="737.5" y="-15" font-family="Times New Roman,serif" font-size="35.00">(45)(101101)</text>
</a>
</g>
</g>
<!-- (13)(001101) -->
<g id="node2" class="node"><title>(13)(001101)</title>
<g id="a_node2"><a xlink:href="13.svg" xlink:title="(13)(001101)">
<polygon fill="purple" stroke="none" points="1475,-47 1266,-47 1266,3.55271e-015 1475,3.55271e-015 1475,-47"/>
<text text-anchor="middle" x="1370.5" y="-15" font-family="Times New Roman,serif" font-size="35.00">(13)(001101)</text>
</a>
</g>
</g>
<!-- (45)(101101)&#45;&gt;(13)(001101) -->
<g id="edge1" class="edge"><title>(45)(101101)&#45;&gt;(13)(001101)</title>
<path fill="none" stroke="green" stroke-width="6" d="M842.343,-23.5C952.933,-23.5 1127.92,-23.5 1245.62,-23.5"/>
<polygon fill="green" stroke="green" stroke-width="6" points="1245.81,-34.0001 1265.81,-23.5 1245.81,-13.0001 1245.81,-34.0001"/>
<text text-anchor="middle" x="1054" y="-32.5" font-family="Times New Roman,serif" font-size="30.00"> &#160;&#160;36 &#160;&#160;100% &#160;&#160;9e&#45;08 mol/s &#160;&#160;&#160;0.50</text>
</g>
<!-- (41)(101001) -->
<g id="node3" class="node"><title>(41)(101001)</title>
<g id="a_node3"><a xlink:href="41.svg" xlink:title="(41)(101001)">
<polygon fill="dodgerblue" stroke="none" points="209,-47 0,-47 0,3.55271e-015 209,3.55271e-015 209,-47"/>
<text text-anchor="middle" x="104.5" y="-15" font-family="Times New Roman,serif" font-size="35.00">(41)(101001)</text>
</a>
</g>
</g>
<!-- (41)(101001)&#45;&gt;(45)(101101) -->
<g id="edge2" class="edge"><title>(41)(101001)&#45;&gt;(45)(101101)</title>
<path fill="none" stroke="green" stroke-width="6" d="M209.343,-23.5C319.933,-23.5 494.916,-23.5 612.621,-23.5"/>
<polygon fill="green" stroke="green" stroke-width="6" points="612.813,-34.0001 632.813,-23.5 612.813,-13.0001 612.813,-34.0001"/>
<text text-anchor="middle" x="421" y="-32.5" font-family="Times New Roman,serif" font-size="30.00"> &#160;&#160;107 &#160;&#160;100% &#160;&#160;9e&#45;08 mol/s &#160;&#160;&#160;0.50</text>
</g>
</g>
</svg>
