<?xml version="1.0" encoding="UTF-8" standalone="no"?>
<!DOCTYPE svg PUBLIC "-//W3C//DTD SVG 1.1//EN"
 "http://www.w3.org/Graphics/SVG/1.1/DTD/svg11.dtd">
<!-- Generated by graphviz version 2.38.0 (20140413.2041)
 -->
<!-- Title: G Pages: 1 -->
<svg width="640pt" height="96pt"
 viewBox="0.00 0.00 720.00 108.24" xmlns="http://www.w3.org/2000/svg" xmlns:xlink="http://www.w3.org/1999/xlink">
<g id="graph0" class="graph" transform="scale(0.391917 0.391917) rotate(0) translate(4 241.5)">
<title>G</title>
<polygon fill="white" stroke="none" points="-4,4 -4,-241.5 1629,-241.5 1629,4 -4,4"/>
<text text-anchor="middle" x="812.5" y="-204.7" font-family="Arial" font-size="36.00" fill="blue">Reaction Path Analysis</text>
<!-- (46)(101110) -->
<g id="node1" class="node"><title>(46)(101110)</title>
<g id="a_node1"><a xlink:href="46.svg" xlink:title="(46)(101110)">
<polygon fill="purple" stroke="none" points="917,-112 708,-112 708,-65 917,-65 917,-112"/>
<text text-anchor="middle" x="812.5" y="-80" font-family="Times New Roman,serif" font-size="35.00">(46)(101110)</text>
</a>
</g>
</g>
<!-- (54)(110110) -->
<g id="node5" class="node"><title>(54)(110110)</title>
<g id="a_node5"><a xlink:href="54.svg" xlink:title="(54)(110110)">
<polygon fill="springgreen" stroke="none" points="1625,-112 1416,-112 1416,-65 1625,-65 1625,-112"/>
<text text-anchor="middle" x="1520.5" y="-80" font-family="Times New Roman,serif" font-size="35.00">(54)(110110)</text>
</a>
</g>
</g>
<!-- (46)(101110)&#45;&gt;(54)(110110) -->
<g id="edge4" class="edge"><title>(46)(101110)&#45;&gt;(54)(110110)</title>
<path fill="none" stroke="green" stroke-width="6" d="M917.293,-88.5C1044.53,-88.5 1259.92,-88.5 1395.68,-88.5"/>
<polygon fill="green" stroke="green" stroke-width="6" points="1395.93,-99.0001 1415.93,-88.5 1395.93,-78.0001 1395.93,-99.0001"/>
<text text-anchor="middle" x="1166.5" y="-97.5" font-family="Times New Roman,serif" font-size="30.00"> &#160;&#160;120 &#160;&#160;100% &#160;&#160;0.00239177 mol/s &#160;&#160;&#160;0.50</text>
</g>
<!-- (13)(001101) -->
<g id="node2" class="node"><title>(13)(001101)</title>
<g id="a_node2"><a xlink:href="13.svg" xlink:title="(13)(001101)">
<polygon fill="purple" stroke="none" points="209,-177 0,-177 0,-130 209,-130 209,-177"/>
<text text-anchor="middle" x="104.5" y="-145" font-family="Times New Roman,serif" font-size="35.00">(13)(001101)</text>
</a>
</g>
</g>
<!-- (13)(001101)&#45;&gt;(46)(101110) -->
<g id="edge1" class="edge"><title>(13)(001101)&#45;&gt;(46)(101110)</title>
<path fill="none" stroke="green" stroke-width="3" d="M209.043,-156.355C326.82,-157.804 524.46,-154.761 691.5,-125.5 705.982,-122.963 721.161,-119.195 735.665,-115.021"/>
<polygon fill="green" stroke="green" stroke-width="3" points="736.992,-118.278 745.582,-112.076 734.999,-111.568 736.992,-118.278"/>
<text text-anchor="middle" x="458.5" y="-165.5" font-family="Times New Roman,serif" font-size="30.00"> &#160;&#160;37 &#160;&#160;43% &#160;&#160;0.00105218 mol/s &#160;&#160;&#160;0.50</text>
</g>
<!-- (38)(100110) -->
<g id="node3" class="node"><title>(38)(100110)</title>
<g id="a_node3"><a xlink:href="38.svg" xlink:title="(38)(100110)">
<polygon fill="dodgerblue" stroke="none" points="209,-112 0,-112 0,-65 209,-65 209,-112"/>
<text text-anchor="middle" x="104.5" y="-80" font-family="Times New Roman,serif" font-size="35.00">(38)(100110)</text>
</a>
</g>
</g>
<!-- (38)(100110)&#45;&gt;(46)(101110) -->
<g id="edge2" class="edge"><title>(38)(100110)&#45;&gt;(46)(101110)</title>
<path fill="none" stroke="green" d="M209.293,-88.5C339.664,-88.5 562.593,-88.5 697.563,-88.5"/>
<polygon fill="green" stroke="green" points="697.929,-92.0001 707.929,-88.5 697.929,-85.0001 697.929,-92.0001"/>
<text text-anchor="middle" x="458.5" y="-97.5" font-family="Times New Roman,serif" font-size="30.00"> &#160;&#160;100 &#160;&#160;15% &#160;&#160;0.00036886 mol/s &#160;&#160;&#160;0.50</text>
</g>
<!-- (42)(101010) -->
<g id="node4" class="node"><title>(42)(101010)</title>
<g id="a_node4"><a xlink:href="42.svg" xlink:title="(42)(101010)">
<polygon fill="springgreen" stroke="none" points="209,-47 0,-47 0,3.55271e-015 209,3.55271e-015 209,-47"/>
<text text-anchor="middle" x="104.5" y="-15" font-family="Times New Roman,serif" font-size="35.00">(42)(101010)</text>
</a>
</g>
</g>
<!-- (42)(101010)&#45;&gt;(46)(101110) -->
<g id="edge3" class="edge"><title>(42)(101010)&#45;&gt;(46)(101110)</title>
<path fill="none" stroke="green" stroke-width="3" d="M209.043,-20.6446C326.82,-19.1958 524.46,-22.2388 691.5,-51.5 705.982,-54.0368 721.161,-57.8047 735.665,-61.979"/>
<polygon fill="green" stroke="green" stroke-width="3" points="734.999,-65.4322 745.582,-64.9237 736.992,-58.7218 734.999,-65.4322"/>
<text text-anchor="middle" x="458.5" y="-60.5" font-family="Times New Roman,serif" font-size="30.00"> &#160;&#160;110 &#160;&#160;40% &#160;&#160;0.00097073 mol/s &#160;&#160;&#160;0.50</text>
</g>
</g>
</svg>
