<?xml version="1.0" encoding="UTF-8" standalone="no"?>
<!DOCTYPE svg PUBLIC "-//W3C//DTD SVG 1.1//EN"
 "http://www.w3.org/Graphics/SVG/1.1/DTD/svg11.dtd">
<!-- Generated by graphviz version 2.38.0 (20140413.2041)
 -->
<!-- Title: G Pages: 1 -->
<svg width="640pt" height="70pt"
 viewBox="0.00 0.00 720.00 78.62" xmlns="http://www.w3.org/2000/svg" xmlns:xlink="http://www.w3.org/1999/xlink">
<g id="graph0" class="graph" transform="scale(0.402769 0.402769) rotate(0) translate(4 169.5)">
<title>G</title>
<polygon fill="white" stroke="none" points="-4,4 -4,-169.5 1585,-169.5 1585,4 -4,4"/>
<text text-anchor="middle" x="790.5" y="-132.7" font-family="Arial" font-size="36.00" fill="blue">Reaction Path Analysis</text>
<!-- (47)(101111) -->
<g id="node1" class="node"><title>(47)(101111)</title>
<g id="a_node1"><a xlink:href="47.svg" xlink:title="(47)(101111)">
<polygon fill="purple" stroke="none" points="895,-79 686,-79 686,-32 895,-32 895,-79"/>
<text text-anchor="middle" x="790.5" y="-47" font-family="Times New Roman,serif" font-size="35.00">(47)(101111)</text>
</a>
</g>
</g>
<!-- (55)(110111) -->
<g id="node4" class="node"><title>(55)(110111)</title>
<g id="a_node4"><a xlink:href="55.svg" xlink:title="(55)(110111)">
<polygon fill="springgreen" stroke="none" points="1581,-79 1372,-79 1372,-32 1581,-32 1581,-79"/>
<text text-anchor="middle" x="1476.5" y="-47" font-family="Times New Roman,serif" font-size="35.00">(55)(110111)</text>
</a>
</g>
</g>
<!-- (47)(101111)&#45;&gt;(55)(110111) -->
<g id="edge3" class="edge"><title>(47)(101111)&#45;&gt;(55)(110111)</title>
<path fill="none" stroke="green" stroke-width="6" d="M895.013,-55.5C1017.4,-55.5 1220.94,-55.5 1351.6,-55.5"/>
<polygon fill="green" stroke="green" stroke-width="6" points="1351.92,-66.0001 1371.92,-55.5 1351.92,-45.0001 1351.92,-66.0001"/>
<text text-anchor="middle" x="1133.5" y="-64.5" font-family="Times New Roman,serif" font-size="30.00"> &#160;&#160;122 &#160;&#160;100% &#160;&#160;9.929e&#45;05 mol/s &#160;&#160;&#160;0.50</text>
</g>
<!-- (39)(100111) -->
<g id="node2" class="node"><title>(39)(100111)</title>
<g id="a_node2"><a xlink:href="39.svg" xlink:title="(39)(100111)">
<polygon fill="dodgerblue" stroke="none" points="209,-112 0,-112 0,-65 209,-65 209,-112"/>
<text text-anchor="middle" x="104.5" y="-80" font-family="Times New Roman,serif" font-size="35.00">(39)(100111)</text>
</a>
</g>
</g>
<!-- (39)(100111)&#45;&gt;(47)(101111) -->
<g id="edge1" class="edge"><title>(39)(100111)&#45;&gt;(47)(101111)</title>
<path fill="none" stroke="green" stroke-width="2" d="M209.018,-86.0888C322.204,-83.073 508.892,-76.9864 669.5,-66.5 671.579,-66.3642 673.679,-66.2224 675.793,-66.0751"/>
<polygon fill="green" stroke="green" stroke-width="2" points="676.062,-69.5649 685.782,-65.349 675.554,-62.5833 676.062,-69.5649"/>
<text text-anchor="middle" x="447.5" y="-93.5" font-family="Times New Roman,serif" font-size="30.00"> &#160;&#160;102 &#160;&#160;31% &#160;&#160;3.125e&#45;05 mol/s &#160;&#160;&#160;0.50</text>
</g>
<!-- (43)(101011) -->
<g id="node3" class="node"><title>(43)(101011)</title>
<g id="a_node3"><a xlink:href="43.svg" xlink:title="(43)(101011)">
<polygon fill="dodgerblue" stroke="none" points="209,-47 0,-47 0,3.55271e-015 209,3.55271e-015 209,-47"/>
<text text-anchor="middle" x="104.5" y="-15" font-family="Times New Roman,serif" font-size="35.00">(43)(101011)</text>
</a>
</g>
</g>
<!-- (43)(101011)&#45;&gt;(47)(101111) -->
<g id="edge2" class="edge"><title>(43)(101011)&#45;&gt;(47)(101111)</title>
<path fill="none" stroke="green" stroke-width="4" d="M209.23,-20.274C318.337,-18.0156 495.497,-17.5512 665.962,-33.4745"/>
<polygon fill="green" stroke="green" stroke-width="4" points="665.321,-40.4451 685.906,-35.4166 666.678,-26.511 665.321,-40.4451"/>
<text text-anchor="middle" x="447.5" y="-42.5" font-family="Times New Roman,serif" font-size="30.00"> &#160;&#160;113 &#160;&#160;68% &#160;&#160;6.804e&#45;05 mol/s &#160;&#160;&#160;0.50</text>
</g>
</g>
</svg>
