<?xml version="1.0" encoding="UTF-8" standalone="no"?>
<!DOCTYPE svg PUBLIC "-//W3C//DTD SVG 1.1//EN"
 "http://www.w3.org/Graphics/SVG/1.1/DTD/svg11.dtd">
<!-- Generated by graphviz version 2.38.0 (20140413.2041)
 -->
<!-- Title: G Pages: 1 -->
<svg width="640pt" height="98pt"
 viewBox="0.00 0.00 720.00 109.82" xmlns="http://www.w3.org/2000/svg" xmlns:xlink="http://www.w3.org/1999/xlink">
<g id="graph0" class="graph" transform="scale(0.399251 0.399251) rotate(0) translate(4 240.5)">
<title>G</title>
<polygon fill="white" stroke="none" points="-4,4 -4,-240.5 1599,-240.5 1599,4 -4,4"/>
<text text-anchor="middle" x="797.5" y="-203.7" font-family="Arial" font-size="36.00" fill="blue">Reaction Path Analysis</text>
<!-- (48)(110000) -->
<g id="node1" class="node"><title>(48)(110000)</title>
<g id="a_node1"><a xlink:href="48.svg" xlink:title="(48)(110000)">
<polygon fill="springgreen" stroke="none" points="902,-112 693,-112 693,-65 902,-65 902,-112"/>
<text text-anchor="middle" x="797.5" y="-80" font-family="Times New Roman,serif" font-size="35.00">(48)(110000)</text>
</a>
</g>
</g>
<!-- (32)(100000) -->
<g id="node3" class="node"><title>(32)(100000)</title>
<g id="a_node3"><a xlink:href="32.svg" xlink:title="(32)(100000)">
<polygon fill="dodgerblue" stroke="none" points="1595,-145 1386,-145 1386,-98 1595,-98 1595,-145"/>
<text text-anchor="middle" x="1490.5" y="-113" font-family="Times New Roman,serif" font-size="35.00">(32)(100000)</text>
</a>
</g>
</g>
<!-- (48)(110000)&#45;&gt;(32)(100000) -->
<g id="edge2" class="edge"><title>(48)(110000)&#45;&gt;(32)(100000)</title>
<path fill="none" stroke="green" stroke-width="4" d="M902.078,-98.8614C905.084,-99.0871 908.063,-99.3008 911,-99.5 1067.72,-110.132 1248.7,-115.982 1365.9,-118.926"/>
<polygon fill="green" stroke="green" stroke-width="4" points="1365.78,-125.925 1385.95,-119.417 1366.12,-111.929 1365.78,-125.925"/>
<text text-anchor="middle" x="1144" y="-127.5" font-family="Times New Roman,serif" font-size="30.00"> &#160;&#160;83 &#160;&#160;79% &#160;&#160;0.23642762 mol/s &#160;&#160;&#160;0.50</text>
</g>
<!-- (56)(111000) -->
<g id="node6" class="node"><title>(56)(111000)</title>
<g id="a_node6"><a xlink:href="56.svg" xlink:title="(56)(111000)">
<polygon fill="springgreen" stroke="none" points="1595,-80 1386,-80 1386,-33 1595,-33 1595,-80"/>
<text text-anchor="middle" x="1490.5" y="-48" font-family="Times New Roman,serif" font-size="35.00">(56)(111000)</text>
</a>
</g>
</g>
<!-- (48)(110000)&#45;&gt;(56)(111000) -->
<g id="edge5" class="edge"><title>(48)(110000)&#45;&gt;(56)(111000)</title>
<path fill="none" stroke="green" stroke-width="2" d="M902.297,-67.5127C905.225,-67.1423 908.13,-66.803 911,-66.5 1071.76,-49.5248 1259.02,-49.9405 1375.93,-52.5902"/>
<polygon fill="green" stroke="green" stroke-width="2" points="1375.89,-56.0901 1385.97,-52.8272 1376.06,-49.0921 1375.89,-56.0901"/>
<text text-anchor="middle" x="1144" y="-75.5" font-family="Times New Roman,serif" font-size="30.00"> &#160;&#160;126 &#160;&#160;20% &#160;&#160;0.06166661 mol/s &#160;&#160;&#160;0.50</text>
</g>
<!-- (16)(010000) -->
<g id="node2" class="node"><title>(16)(010000)</title>
<g id="a_node2"><a xlink:href="16.svg" xlink:title="(16)(010000)">
<polygon fill="gold" stroke="none" points="209,-177 0,-177 0,-130 209,-130 209,-177"/>
<text text-anchor="middle" x="104.5" y="-145" font-family="Times New Roman,serif" font-size="35.00">(16)(010000)</text>
</a>
</g>
</g>
<!-- (16)(010000)&#45;&gt;(48)(110000) -->
<g id="edge1" class="edge"><title>(16)(010000)&#45;&gt;(48)(110000)</title>
<path fill="none" stroke="green" stroke-width="5" d="M209.254,-156.148C324.339,-157.298 515.088,-153.88 676.5,-125.5 687.778,-123.517 699.479,-120.79 710.956,-117.709"/>
<polygon fill="green" stroke="green" stroke-width="5" points="713.779,-126.001 730.579,-112.061 708.939,-109.184 713.779,-126.001"/>
<text text-anchor="middle" x="451" y="-164.5" font-family="Times New Roman,serif" font-size="30.00"> &#160;&#160;43 &#160;&#160;99% &#160;&#160;0.29563089 mol/s &#160;&#160;&#160;0.50</text>
</g>
<!-- (49)(110001) -->
<g id="node4" class="node"><title>(49)(110001)</title>
<g id="a_node4"><a xlink:href="49.svg" xlink:title="(49)(110001)">
<polygon fill="dodgerblue" stroke="none" points="209,-112 0,-112 0,-65 209,-65 209,-112"/>
<text text-anchor="middle" x="104.5" y="-80" font-family="Times New Roman,serif" font-size="35.00">(49)(110001)</text>
</a>
</g>
</g>
<!-- (49)(110001)&#45;&gt;(48)(110000) -->
<g id="edge3" class="edge"><title>(49)(110001)&#45;&gt;(48)(110000)</title>
<path fill="none" stroke="green" d="M209.324,-88.5C336.465,-88.5 551.085,-88.5 682.638,-88.5"/>
<polygon fill="green" stroke="green" points="682.747,-92.0001 692.747,-88.5 682.747,-85.0001 682.747,-92.0001"/>
<text text-anchor="middle" x="451" y="-97.5" font-family="Times New Roman,serif" font-size="30.00"> &#160;&#160;124 &#160;&#160;0% &#160;&#160;0.00211875 mol/s &#160;&#160;&#160;0.50</text>
</g>
<!-- (52)(110100) -->
<g id="node5" class="node"><title>(52)(110100)</title>
<g id="a_node5"><a xlink:href="52.svg" xlink:title="(52)(110100)">
<polygon fill="dodgerblue" stroke="none" points="209,-47 0,-47 0,3.55271e-015 209,3.55271e-015 209,-47"/>
<text text-anchor="middle" x="104.5" y="-15" font-family="Times New Roman,serif" font-size="35.00">(52)(110100)</text>
</a>
</g>
</g>
<!-- (52)(110100)&#45;&gt;(48)(110000) -->
<g id="edge4" class="edge"><title>(52)(110100)&#45;&gt;(48)(110000)</title>
<path fill="none" stroke="green" d="M209.254,-20.8516C324.339,-19.7023 515.088,-23.1205 676.5,-51.5 690.98,-54.0459 706.159,-57.818 720.663,-61.9937"/>
<polygon fill="green" stroke="green" points="719.997,-65.447 730.579,-64.9389 721.99,-58.7367 719.997,-65.447"/>
<text text-anchor="middle" x="451" y="-60.5" font-family="Times New Roman,serif" font-size="30.00"> &#160;&#160;125 &#160;&#160;0% &#160;&#160;0.0003446 mol/s &#160;&#160;&#160;0.50</text>
</g>
</g>
</svg>
