<?xml version="1.0" encoding="UTF-8" standalone="no"?>
<!DOCTYPE svg PUBLIC "-//W3C//DTD SVG 1.1//EN"
 "http://www.w3.org/Graphics/SVG/1.1/DTD/svg11.dtd">
<!-- Generated by graphviz version 2.38.0 (20140413.2041)
 -->
<!-- Title: G Pages: 1 -->
<svg width="640pt" height="98pt"
 viewBox="0.00 0.00 720.00 110.27" xmlns="http://www.w3.org/2000/svg" xmlns:xlink="http://www.w3.org/1999/xlink">
<g id="graph0" class="graph" transform="scale(0.399251 0.399251) rotate(0) translate(4 241.5)">
<title>G</title>
<polygon fill="white" stroke="none" points="-4,4 -4,-241.5 1599,-241.5 1599,4 -4,4"/>
<text text-anchor="middle" x="797.5" y="-204.7" font-family="Arial" font-size="36.00" fill="blue">Reaction Path Analysis</text>
<!-- (49)(110001) -->
<g id="node1" class="node"><title>(49)(110001)</title>
<g id="a_node1"><a xlink:href="49.svg" xlink:title="(49)(110001)">
<polygon fill="dodgerblue" stroke="none" points="902,-112 693,-112 693,-65 902,-65 902,-112"/>
<text text-anchor="middle" x="797.5" y="-80" font-family="Times New Roman,serif" font-size="35.00">(49)(110001)</text>
</a>
</g>
</g>
<!-- (33)(100001) -->
<g id="node3" class="node"><title>(33)(100001)</title>
<g id="a_node3"><a xlink:href="33.svg" xlink:title="(33)(100001)">
<polygon fill="dodgerblue" stroke="none" points="1595,-177 1386,-177 1386,-130 1595,-130 1595,-177"/>
<text text-anchor="middle" x="1490.5" y="-145" font-family="Times New Roman,serif" font-size="35.00">(33)(100001)</text>
</a>
</g>
</g>
<!-- (49)(110001)&#45;&gt;(33)(100001) -->
<g id="edge2" class="edge"><title>(49)(110001)&#45;&gt;(33)(100001)</title>
<path fill="none" stroke="green" stroke-width="2" d="M859.907,-112.002C876.281,-117.352 894.119,-122.375 911,-125.5 1070.36,-155.002 1258.37,-158.454 1375.78,-156.964"/>
<polygon fill="green" stroke="green" stroke-width="2" points="1375.92,-160.462 1385.87,-156.821 1375.82,-153.463 1375.92,-160.462"/>
<text text-anchor="middle" x="1144" y="-165.5" font-family="Times New Roman,serif" font-size="30.00"> &#160;&#160;86 &#160;&#160;26% &#160;&#160;0.00086316 mol/s &#160;&#160;&#160;0.50</text>
</g>
<!-- (48)(110000) -->
<g id="node4" class="node"><title>(48)(110000)</title>
<g id="a_node4"><a xlink:href="48.svg" xlink:title="(48)(110000)">
<polygon fill="springgreen" stroke="none" points="1595,-112 1386,-112 1386,-65 1595,-65 1595,-112"/>
<text text-anchor="middle" x="1490.5" y="-80" font-family="Times New Roman,serif" font-size="35.00">(48)(110000)</text>
</a>
</g>
</g>
<!-- (49)(110001)&#45;&gt;(48)(110000) -->
<g id="edge3" class="edge"><title>(49)(110001)&#45;&gt;(48)(110000)</title>
<path fill="none" stroke="green" stroke-width="4" d="M902.324,-88.5C1026.28,-88.5 1233.39,-88.5 1365.6,-88.5"/>
<polygon fill="green" stroke="green" stroke-width="4" points="1365.75,-95.5001 1385.75,-88.5 1365.75,-81.5001 1365.75,-95.5001"/>
<text text-anchor="middle" x="1144" y="-97.5" font-family="Times New Roman,serif" font-size="30.00"> &#160;&#160;124 &#160;&#160;66% &#160;&#160;0.00211875 mol/s &#160;&#160;&#160;0.50</text>
</g>
<!-- (57)(111001) -->
<g id="node6" class="node"><title>(57)(111001)</title>
<g id="a_node6"><a xlink:href="57.svg" xlink:title="(57)(111001)">
<polygon fill="dodgerblue" stroke="none" points="1595,-47 1386,-47 1386,3.55271e-015 1595,3.55271e-015 1595,-47"/>
<text text-anchor="middle" x="1490.5" y="-15" font-family="Times New Roman,serif" font-size="35.00">(57)(111001)</text>
</a>
</g>
</g>
<!-- (49)(110001)&#45;&gt;(57)(111001) -->
<g id="edge5" class="edge"><title>(49)(110001)&#45;&gt;(57)(111001)</title>
<path fill="none" stroke="green" d="M859.907,-64.9981C876.281,-59.648 894.119,-54.6252 911,-51.5 1070.36,-21.9985 1258.37,-18.5461 1375.78,-20.0362"/>
<polygon fill="green" stroke="green" points="1375.82,-23.5369 1385.87,-20.1785 1375.92,-16.5376 1375.82,-23.5369"/>
<text text-anchor="middle" x="1144" y="-60.5" font-family="Times New Roman,serif" font-size="30.00"> &#160;&#160;128 &#160;&#160;7% &#160;&#160;0.00022525 mol/s &#160;&#160;&#160;0.50</text>
</g>
<!-- (17)(010001) -->
<g id="node2" class="node"><title>(17)(010001)</title>
<g id="a_node2"><a xlink:href="17.svg" xlink:title="(17)(010001)">
<polygon fill="springgreen" stroke="none" points="209,-145 0,-145 0,-98 209,-98 209,-145"/>
<text text-anchor="middle" x="104.5" y="-113" font-family="Times New Roman,serif" font-size="35.00">(17)(010001)</text>
</a>
</g>
</g>
<!-- (17)(010001)&#45;&gt;(49)(110001) -->
<g id="edge1" class="edge"><title>(17)(010001)&#45;&gt;(49)(110001)</title>
<path fill="none" stroke="green" stroke-width="5" d="M209.258,-119.151C319.495,-116.286 499.431,-110.556 672.774,-99.6376"/>
<polygon fill="green" stroke="green" stroke-width="5" points="673.384,-108.367 692.782,-98.3521 672.262,-90.9026 673.384,-108.367"/>
<text text-anchor="middle" x="451" y="-127.5" font-family="Times New Roman,serif" font-size="30.00"> &#160;&#160;46 &#160;&#160;98% &#160;&#160;0.00316476 mol/s &#160;&#160;&#160;0.50</text>
</g>
<!-- (53)(110101) -->
<g id="node5" class="node"><title>(53)(110101)</title>
<g id="a_node5"><a xlink:href="53.svg" xlink:title="(53)(110101)">
<polygon fill="dodgerblue" stroke="none" points="209,-80 0,-80 0,-33 209,-33 209,-80"/>
<text text-anchor="middle" x="104.5" y="-48" font-family="Times New Roman,serif" font-size="35.00">(53)(110101)</text>
</a>
</g>
</g>
<!-- (53)(110101)&#45;&gt;(49)(110001) -->
<g id="edge4" class="edge"><title>(53)(110101)&#45;&gt;(49)(110001)</title>
<path fill="none" stroke="green" d="M209.21,-53.2319C323.853,-50.8016 513.838,-50.2754 676.5,-66.5 678.599,-66.7094 680.717,-66.9358 682.848,-67.1776"/>
<polygon fill="green" stroke="green" points="682.553,-70.6676 692.906,-68.4151 683.408,-63.72 682.553,-70.6676"/>
<text text-anchor="middle" x="451" y="-75.5" font-family="Times New Roman,serif" font-size="30.00"> &#160;&#160;127 &#160;&#160;1% &#160;&#160;4.24e&#45;05 mol/s &#160;&#160;&#160;0.50</text>
</g>
</g>
</svg>
