<?xml version="1.0" encoding="UTF-8" standalone="no"?>
<!DOCTYPE svg PUBLIC "-//W3C//DTD SVG 1.1//EN"
 "http://www.w3.org/Graphics/SVG/1.1/DTD/svg11.dtd">
<!-- Generated by graphviz version 2.38.0 (20140413.2041)
 -->
<!-- Title: G Pages: 1 -->
<svg width="640pt" height="126pt"
 viewBox="0.00 0.00 720.00 141.71" xmlns="http://www.w3.org/2000/svg" xmlns:xlink="http://www.w3.org/1999/xlink">
<g id="graph0" class="graph" transform="scale(0.399251 0.399251) rotate(0) translate(4 311.5)">
<title>G</title>
<polygon fill="white" stroke="none" points="-4,4 -4,-311.5 1599,-311.5 1599,4 -4,4"/>
<text text-anchor="middle" x="797.5" y="-274.7" font-family="Arial" font-size="36.00" fill="blue">Reaction Path Analysis</text>
<!-- (5)(000101) -->
<g id="node1" class="node"><title>(5)(000101)</title>
<g id="a_node1"><a xlink:href="5.svg" xlink:title="(5)(000101)">
<polygon fill="dodgerblue" stroke="none" points="893,-144 702,-144 702,-97 893,-97 893,-144"/>
<text text-anchor="middle" x="797.5" y="-112" font-family="Times New Roman,serif" font-size="35.00">(5)(000101)</text>
</a>
</g>
</g>
<!-- (1)(000001) -->
<g id="node2" class="node"><title>(1)(000001)</title>
<g id="a_node2"><a xlink:href="1.svg" xlink:title="(1)(000001)">
<polygon fill="springgreen" stroke="none" points="1586,-242 1395,-242 1395,-195 1586,-195 1586,-242"/>
<text text-anchor="middle" x="1490.5" y="-210" font-family="Times New Roman,serif" font-size="35.00">(1)(000001)</text>
</a>
</g>
</g>
<!-- (5)(000101)&#45;&gt;(1)(000001) -->
<g id="edge1" class="edge"><title>(5)(000101)&#45;&gt;(1)(000001)</title>
<path fill="none" stroke="green" d="M833.917,-144.016C858.615,-159.083 892.944,-177.451 926,-186.5 1081.5,-229.067 1269.89,-230.136 1384.65,-225.466"/>
<polygon fill="green" stroke="green" points="1385,-228.954 1394.84,-225.028 1384.7,-221.961 1385,-228.954"/>
<text text-anchor="middle" x="1144" y="-235.5" font-family="Times New Roman,serif" font-size="30.00"> &#160;&#160;4 &#160;&#160;17% &#160;&#160;0.08563241 mol/s &#160;&#160;&#160;0.50</text>
</g>
<!-- (4)(000100) -->
<g id="node3" class="node"><title>(4)(000100)</title>
<g id="a_node3"><a xlink:href="4.svg" xlink:title="(4)(000100)">
<polygon fill="springgreen" stroke="none" points="1586,-177 1395,-177 1395,-130 1586,-130 1586,-177"/>
<text text-anchor="middle" x="1490.5" y="-145" font-family="Times New Roman,serif" font-size="35.00">(4)(000100)</text>
</a>
</g>
</g>
<!-- (5)(000101)&#45;&gt;(4)(000100) -->
<g id="edge2" class="edge"><title>(5)(000101)&#45;&gt;(4)(000100)</title>
<path fill="none" stroke="green" stroke-width="5" d="M893.154,-129.165C904.222,-130.03 915.356,-130.833 926,-131.5 1081.16,-141.217 1260.64,-147.344 1374.57,-150.596"/>
<polygon fill="green" stroke="green" stroke-width="5" points="1374.48,-159.346 1394.71,-151.16 1374.97,-141.853 1374.48,-159.346"/>
<text text-anchor="middle" x="1144" y="-158.5" font-family="Times New Roman,serif" font-size="30.00"> &#160;&#160;12 &#160;&#160;82% &#160;&#160;0.4038757 mol/s &#160;&#160;&#160;0.50</text>
</g>
<!-- (13)(001101) -->
<g id="node4" class="node"><title>(13)(001101)</title>
<g id="a_node4"><a xlink:href="13.svg" xlink:title="(13)(001101)">
<polygon fill="purple" stroke="none" points="1595,-112 1386,-112 1386,-65 1595,-65 1595,-112"/>
<text text-anchor="middle" x="1490.5" y="-80" font-family="Times New Roman,serif" font-size="35.00">(13)(001101)</text>
</a>
</g>
</g>
<!-- (5)(000101)&#45;&gt;(13)(001101) -->
<g id="edge3" class="edge"><title>(5)(000101)&#45;&gt;(13)(001101)</title>
<path fill="none" stroke="green" d="M893.322,-102.491C904.308,-100.894 915.378,-99.5047 926,-98.5 1081.31,-83.8099 1261.74,-83.5391 1375.75,-85.4248"/>
<polygon fill="green" stroke="green" points="1375.83,-88.9266 1385.89,-85.6011 1375.96,-81.9277 1375.83,-88.9266"/>
<text text-anchor="middle" x="1144" y="-107.5" font-family="Times New Roman,serif" font-size="30.00"> &#160;&#160;15 &#160;&#160;0% &#160;&#160;0.00128465 mol/s &#160;&#160;&#160;0.50</text>
</g>
<!-- (37)(100101) -->
<g id="node5" class="node"><title>(37)(100101)</title>
<g id="a_node5"><a xlink:href="37.svg" xlink:title="(37)(100101)">
<polygon fill="purple" stroke="none" points="1595,-47 1386,-47 1386,3.55271e-015 1595,3.55271e-015 1595,-47"/>
<text text-anchor="middle" x="1490.5" y="-15" font-family="Times New Roman,serif" font-size="35.00">(37)(100101)</text>
</a>
</g>
</g>
<!-- (5)(000101)&#45;&gt;(37)(100101) -->
<g id="edge4" class="edge"><title>(5)(000101)&#45;&gt;(37)(100101)</title>
<path fill="none" stroke="green" d="M830.411,-96.8315C855.118,-79.9591 890.933,-58.5532 926,-48.5 1077,-5.21029 1260.01,-6.35536 1375.63,-13.2464"/>
<polygon fill="green" stroke="green" points="1375.71,-16.7583 1385.91,-13.885 1376.15,-9.77173 1375.71,-16.7583"/>
<text text-anchor="middle" x="1144" y="-57.5" font-family="Times New Roman,serif" font-size="30.00"> &#160;&#160;16 &#160;&#160;0% &#160;&#160;1.9e&#45;07 mol/s &#160;&#160;&#160;0.50</text>
</g>
<!-- (38)(100110) -->
<g id="node6" class="node"><title>(38)(100110)</title>
<g id="a_node6"><a xlink:href="38.svg" xlink:title="(38)(100110)">
<polygon fill="dodgerblue" stroke="none" points="209,-144 0,-144 0,-97 209,-97 209,-144"/>
<text text-anchor="middle" x="104.5" y="-112" font-family="Times New Roman,serif" font-size="35.00">(38)(100110)</text>
</a>
</g>
</g>
<!-- (38)(100110)&#45;&gt;(5)(000101) -->
<g id="edge5" class="edge"><title>(38)(100110)&#45;&gt;(5)(000101)</title>
<path fill="none" stroke="green" stroke-width="6" d="M209.324,-120.5C336.103,-120.5 549.864,-120.5 681.512,-120.5"/>
<polygon fill="green" stroke="green" stroke-width="6" points="681.91,-131 701.91,-120.5 681.91,-110 681.91,-131"/>
<text text-anchor="middle" x="451" y="-129.5" font-family="Times New Roman,serif" font-size="30.00"> &#160;&#160;17 &#160;&#160;100% &#160;&#160;0.49079295 mol/s &#160;&#160;&#160;0.50</text>
</g>
</g>
</svg>
