<?xml version="1.0" encoding="UTF-8" standalone="no"?>
<!DOCTYPE svg PUBLIC "-//W3C//DTD SVG 1.1//EN"
 "http://www.w3.org/Graphics/SVG/1.1/DTD/svg11.dtd">
<!-- Generated by graphviz version 2.38.0 (20140413.2041)
 -->
<!-- Title: G Pages: 1 -->
<svg width="640pt" height="125pt"
 viewBox="0.00 0.00 720.00 140.43" xmlns="http://www.w3.org/2000/svg" xmlns:xlink="http://www.w3.org/1999/xlink">
<g id="graph0" class="graph" transform="scale(0.391917 0.391917) rotate(0) translate(4 314.5)">
<title>G</title>
<polygon fill="white" stroke="none" points="-4,4 -4,-314.5 1629,-314.5 1629,4 -4,4"/>
<text text-anchor="middle" x="812.5" y="-277.7" font-family="Arial" font-size="36.00" fill="blue">Reaction Path Analysis</text>
<!-- (50)(110010) -->
<g id="node1" class="node"><title>(50)(110010)</title>
<g id="a_node1"><a xlink:href="50.svg" xlink:title="(50)(110010)">
<polygon fill="orange" stroke="none" points="917,-144 708,-144 708,-97 917,-97 917,-144"/>
<text text-anchor="middle" x="812.5" y="-112" font-family="Times New Roman,serif" font-size="35.00">(50)(110010)</text>
</a>
</g>
</g>
<!-- (17)(010001) -->
<g id="node2" class="node"><title>(17)(010001)</title>
<g id="a_node2"><a xlink:href="17.svg" xlink:title="(17)(010001)">
<polygon fill="springgreen" stroke="none" points="1625,-242 1416,-242 1416,-195 1625,-195 1625,-242"/>
<text text-anchor="middle" x="1520.5" y="-210" font-family="Times New Roman,serif" font-size="35.00">(17)(010001)</text>
</a>
</g>
</g>
<!-- (50)(110010)&#45;&gt;(17)(010001) -->
<g id="edge1" class="edge"><title>(50)(110010)&#45;&gt;(17)(010001)</title>
<path fill="none" stroke="green" stroke-width="5" d="M846.067,-144.095C869.23,-159.476 901.749,-178.334 933.5,-187.5 1088.14,-232.14 1275.09,-233.489 1395.58,-227.978"/>
<polygon fill="green" stroke="green" stroke-width="5" points="1396.27,-236.705 1415.8,-226.96 1395.39,-219.227 1396.27,-236.705"/>
<text text-anchor="middle" x="1166.5" y="-238.5" font-family="Times New Roman,serif" font-size="30.00"> &#160;&#160;47 &#160;&#160;93% &#160;&#160;45.28179837 mol/s &#160;&#160;&#160;0.50</text>
</g>
<!-- (20)(010100) -->
<g id="node3" class="node"><title>(20)(010100)</title>
<g id="a_node3"><a xlink:href="20.svg" xlink:title="(20)(010100)">
<polygon fill="springgreen" stroke="none" points="1625,-177 1416,-177 1416,-130 1625,-130 1625,-177"/>
<text text-anchor="middle" x="1520.5" y="-145" font-family="Times New Roman,serif" font-size="35.00">(20)(010100)</text>
</a>
</g>
</g>
<!-- (50)(110010)&#45;&gt;(20)(010100) -->
<g id="edge2" class="edge"><title>(50)(110010)&#45;&gt;(20)(010100)</title>
<path fill="none" stroke="green" d="M917.217,-130.358C922.723,-130.772 928.176,-131.156 933.5,-131.5 1097.5,-142.087 1287.67,-148.07 1405.8,-151.046"/>
<polygon fill="green" stroke="green" points="1405.86,-154.548 1415.94,-151.298 1406.03,-147.55 1405.86,-154.548"/>
<text text-anchor="middle" x="1166.5" y="-159.5" font-family="Times New Roman,serif" font-size="30.00"> &#160;&#160;54 &#160;&#160;4% &#160;&#160;2.16670565 mol/s &#160;&#160;&#160;0.50</text>
</g>
<!-- (42)(101010) -->
<g id="node5" class="node"><title>(42)(101010)</title>
<g id="a_node5"><a xlink:href="42.svg" xlink:title="(42)(101010)">
<polygon fill="springgreen" stroke="none" points="1625,-112 1416,-112 1416,-65 1625,-65 1625,-112"/>
<text text-anchor="middle" x="1520.5" y="-80" font-family="Times New Roman,serif" font-size="35.00">(42)(101010)</text>
</a>
</g>
</g>
<!-- (50)(110010)&#45;&gt;(42)(101010) -->
<g id="edge4" class="edge"><title>(50)(110010)&#45;&gt;(42)(101010)</title>
<path fill="none" stroke="green" d="M917.094,-100.412C922.631,-99.6814 928.126,-99.0349 933.5,-98.5 1097.06,-82.2226 1287.54,-82.5061 1405.84,-84.9314"/>
<polygon fill="green" stroke="green" points="1405.92,-88.4339 1415.99,-85.1486 1406.07,-81.4355 1405.92,-88.4339"/>
<text text-anchor="middle" x="1166.5" y="-107.5" font-family="Times New Roman,serif" font-size="30.00"> &#160;&#160;111 &#160;&#160;2% &#160;&#160;0.9855572 mol/s &#160;&#160;&#160;0.50</text>
</g>
<!-- (54)(110110) -->
<g id="node7" class="node"><title>(54)(110110)</title>
<g id="a_node7"><a xlink:href="54.svg" xlink:title="(54)(110110)">
<polygon fill="springgreen" stroke="none" points="1625,-47 1416,-47 1416,3.55271e-015 1625,3.55271e-015 1625,-47"/>
<text text-anchor="middle" x="1520.5" y="-15" font-family="Times New Roman,serif" font-size="35.00">(54)(110110)</text>
</a>
</g>
</g>
<!-- (50)(110010)&#45;&gt;(54)(110110) -->
<g id="edge6" class="edge"><title>(50)(110010)&#45;&gt;(54)(110110)</title>
<path fill="none" stroke="green" d="M842.47,-96.6648C865.563,-79.2151 899.552,-56.8492 933.5,-46.5 1091.77,1.74996 1285.25,-1.99111 1405.45,-11.158"/>
<polygon fill="green" stroke="green" points="1405.53,-14.6748 1415.77,-11.9722 1406.08,-7.69647 1405.53,-14.6748"/>
<text text-anchor="middle" x="1166.5" y="-55.5" font-family="Times New Roman,serif" font-size="30.00"> &#160;&#160;130 &#160;&#160;0% &#160;&#160;0.16914413 mol/s &#160;&#160;&#160;0.50</text>
</g>
<!-- (34)(100010) -->
<g id="node4" class="node"><title>(34)(100010)</title>
<g id="a_node4"><a xlink:href="34.svg" xlink:title="(34)(100010)">
<polygon fill="lawngreen" stroke="none" points="209,-209 0,-209 0,-162 209,-162 209,-209"/>
<text text-anchor="middle" x="104.5" y="-177" font-family="Times New Roman,serif" font-size="35.00">(34)(100010)</text>
</a>
</g>
</g>
<!-- (34)(100010)&#45;&gt;(50)(110010) -->
<g id="edge3" class="edge"><title>(34)(100010)&#45;&gt;(50)(110010)</title>
<path fill="none" stroke="green" d="M209.129,-189.028C328.344,-191.151 529.467,-188.778 699,-157.5 712.586,-154.994 726.79,-151.254 740.352,-147.101"/>
<polygon fill="green" stroke="green" points="741.618,-150.371 750.095,-144.016 739.505,-143.698 741.618,-150.371"/>
<text text-anchor="middle" x="458.5" y="-198.5" font-family="Times New Roman,serif" font-size="30.00"> &#160;&#160;90 &#160;&#160;4% &#160;&#160;1.99188418 mol/s &#160;&#160;&#160;0.50</text>
</g>
<!-- (51)(110011) -->
<g id="node6" class="node"><title>(51)(110011)</title>
<g id="a_node6"><a xlink:href="51.svg" xlink:title="(51)(110011)">
<polygon fill="lawngreen" stroke="none" points="209,-144 0,-144 0,-97 209,-97 209,-144"/>
<text text-anchor="middle" x="104.5" y="-112" font-family="Times New Roman,serif" font-size="35.00">(51)(110011)</text>
</a>
</g>
</g>
<!-- (51)(110011)&#45;&gt;(50)(110010) -->
<g id="edge5" class="edge"><title>(51)(110011)&#45;&gt;(50)(110010)</title>
<path fill="none" stroke="green" d="M209.293,-120.5C339.664,-120.5 562.593,-120.5 697.563,-120.5"/>
<polygon fill="green" stroke="green" points="697.929,-124 707.929,-120.5 697.929,-117 697.929,-124"/>
<text text-anchor="middle" x="458.5" y="-129.5" font-family="Times New Roman,serif" font-size="30.00"> &#160;&#160;129 &#160;&#160;0% &#160;&#160;0.40599979 mol/s &#160;&#160;&#160;0.50</text>
</g>
<!-- (58)(111010) -->
<g id="node8" class="node"><title>(58)(111010)</title>
<g id="a_node8"><a xlink:href="58.svg" xlink:title="(58)(111010)">
<polygon fill="springgreen" stroke="none" points="209,-79 0,-79 0,-32 209,-32 209,-79"/>
<text text-anchor="middle" x="104.5" y="-47" font-family="Times New Roman,serif" font-size="35.00">(58)(111010)</text>
</a>
</g>
</g>
<!-- (58)(111010)&#45;&gt;(50)(110010) -->
<g id="edge7" class="edge"><title>(58)(111010)&#45;&gt;(50)(110010)</title>
<path fill="none" stroke="green" stroke-width="5" d="M209.129,-51.9715C328.344,-49.8492 529.467,-52.2219 699,-83.5 709.42,-85.4224 720.204,-88.0703 730.783,-91.0736"/>
<polygon fill="green" stroke="green" stroke-width="5" points="728.41,-99.4981 750.095,-96.9841 733.531,-82.7642 728.41,-99.4981"/>
<text text-anchor="middle" x="458.5" y="-92.5" font-family="Times New Roman,serif" font-size="30.00"> &#160;&#160;131 &#160;&#160;95% &#160;&#160;46.20532138 mol/s &#160;&#160;&#160;0.50</text>
</g>
</g>
</svg>
