<?xml version="1.0" encoding="UTF-8" standalone="no"?>
<!DOCTYPE svg PUBLIC "-//W3C//DTD SVG 1.1//EN"
 "http://www.w3.org/Graphics/SVG/1.1/DTD/svg11.dtd">
<!-- Generated by graphviz version 2.38.0 (20140413.2041)
 -->
<!-- Title: G Pages: 1 -->
<svg width="640pt" height="98pt"
 viewBox="0.00 0.00 720.00 110.27" xmlns="http://www.w3.org/2000/svg" xmlns:xlink="http://www.w3.org/1999/xlink">
<g id="graph0" class="graph" transform="scale(0.399251 0.399251) rotate(0) translate(4 241.5)">
<title>G</title>
<polygon fill="white" stroke="none" points="-4,4 -4,-241.5 1599,-241.5 1599,4 -4,4"/>
<text text-anchor="middle" x="797.5" y="-204.7" font-family="Arial" font-size="36.00" fill="blue">Reaction Path Analysis</text>
<!-- (51)(110011) -->
<g id="node1" class="node"><title>(51)(110011)</title>
<g id="a_node1"><a xlink:href="51.svg" xlink:title="(51)(110011)">
<polygon fill="lawngreen" stroke="none" points="902,-112 693,-112 693,-65 902,-65 902,-112"/>
<text text-anchor="middle" x="797.5" y="-80" font-family="Times New Roman,serif" font-size="35.00">(51)(110011)</text>
</a>
</g>
</g>
<!-- (21)(010101) -->
<g id="node2" class="node"><title>(21)(010101)</title>
<g id="a_node2"><a xlink:href="21.svg" xlink:title="(21)(010101)">
<polygon fill="dodgerblue" stroke="none" points="1595,-177 1386,-177 1386,-130 1595,-130 1595,-177"/>
<text text-anchor="middle" x="1490.5" y="-145" font-family="Times New Roman,serif" font-size="35.00">(21)(010101)</text>
</a>
</g>
</g>
<!-- (51)(110011)&#45;&gt;(21)(010101) -->
<g id="edge1" class="edge"><title>(51)(110011)&#45;&gt;(21)(010101)</title>
<path fill="none" stroke="green" stroke-width="2" d="M859.907,-112.002C876.281,-117.352 894.119,-122.375 911,-125.5 1070.36,-155.002 1258.37,-158.454 1375.78,-156.964"/>
<polygon fill="green" stroke="green" stroke-width="2" points="1375.92,-160.462 1385.87,-156.821 1375.82,-153.463 1375.92,-160.462"/>
<text text-anchor="middle" x="1144" y="-165.5" font-family="Times New Roman,serif" font-size="30.00"> &#160;&#160;57 &#160;&#160;25% &#160;&#160;0.16289546 mol/s &#160;&#160;&#160;0.50</text>
</g>
<!-- (43)(101011) -->
<g id="node4" class="node"><title>(43)(101011)</title>
<g id="a_node4"><a xlink:href="43.svg" xlink:title="(43)(101011)">
<polygon fill="dodgerblue" stroke="none" points="1595,-112 1386,-112 1386,-65 1595,-65 1595,-112"/>
<text text-anchor="middle" x="1490.5" y="-80" font-family="Times New Roman,serif" font-size="35.00">(43)(101011)</text>
</a>
</g>
</g>
<!-- (51)(110011)&#45;&gt;(43)(101011) -->
<g id="edge3" class="edge"><title>(51)(110011)&#45;&gt;(43)(101011)</title>
<path fill="none" stroke="green" d="M902.324,-88.5C1029.46,-88.5 1244.08,-88.5 1375.64,-88.5"/>
<polygon fill="green" stroke="green" points="1375.75,-92.0001 1385.75,-88.5 1375.75,-85.0001 1375.75,-92.0001"/>
<text text-anchor="middle" x="1144" y="-97.5" font-family="Times New Roman,serif" font-size="30.00"> &#160;&#160;114 &#160;&#160;11% &#160;&#160;0.07366258 mol/s &#160;&#160;&#160;0.50</text>
</g>
<!-- (50)(110010) -->
<g id="node5" class="node"><title>(50)(110010)</title>
<g id="a_node5"><a xlink:href="50.svg" xlink:title="(50)(110010)">
<polygon fill="orange" stroke="none" points="1595,-47 1386,-47 1386,3.55271e-015 1595,3.55271e-015 1595,-47"/>
<text text-anchor="middle" x="1490.5" y="-15" font-family="Times New Roman,serif" font-size="35.00">(50)(110010)</text>
</a>
</g>
</g>
<!-- (51)(110011)&#45;&gt;(50)(110010) -->
<g id="edge4" class="edge"><title>(51)(110011)&#45;&gt;(50)(110010)</title>
<path fill="none" stroke="green" stroke-width="4" d="M859.907,-64.9981C876.281,-59.648 894.119,-54.6252 911,-51.5 1065.87,-22.8287 1247.81,-18.7611 1365.7,-19.9226"/>
<polygon fill="green" stroke="green" stroke-width="4" points="1365.78,-26.924 1385.87,-20.1785 1365.96,-12.9251 1365.78,-26.924"/>
<text text-anchor="middle" x="1144" y="-60.5" font-family="Times New Roman,serif" font-size="30.00"> &#160;&#160;129 &#160;&#160;63% &#160;&#160;0.40599979 mol/s &#160;&#160;&#160;0.50</text>
</g>
<!-- (35)(100011) -->
<g id="node3" class="node"><title>(35)(100011)</title>
<g id="a_node3"><a xlink:href="35.svg" xlink:title="(35)(100011)">
<polygon fill="springgreen" stroke="none" points="209,-177 0,-177 0,-130 209,-130 209,-177"/>
<text text-anchor="middle" x="104.5" y="-145" font-family="Times New Roman,serif" font-size="35.00">(35)(100011)</text>
</a>
</g>
</g>
<!-- (35)(100011)&#45;&gt;(51)(110011) -->
<g id="edge2" class="edge"><title>(35)(100011)&#45;&gt;(51)(110011)</title>
<path fill="none" stroke="green" d="M209.134,-156.821C325.649,-158.633 519.997,-155.861 684,-125.5 697.584,-122.985 711.787,-119.242 725.349,-115.088"/>
<polygon fill="green" stroke="green" points="726.616,-118.358 735.093,-112.002 724.503,-111.684 726.616,-118.358"/>
<text text-anchor="middle" x="451" y="-165.5" font-family="Times New Roman,serif" font-size="30.00"> &#160;&#160;93 &#160;&#160;0% &#160;&#160;0.00511988 mol/s &#160;&#160;&#160;0.50</text>
</g>
<!-- (55)(110111) -->
<g id="node6" class="node"><title>(55)(110111)</title>
<g id="a_node6"><a xlink:href="55.svg" xlink:title="(55)(110111)">
<polygon fill="springgreen" stroke="none" points="209,-112 0,-112 0,-65 209,-65 209,-112"/>
<text text-anchor="middle" x="104.5" y="-80" font-family="Times New Roman,serif" font-size="35.00">(55)(110111)</text>
</a>
</g>
</g>
<!-- (55)(110111)&#45;&gt;(51)(110011) -->
<g id="edge5" class="edge"><title>(55)(110111)&#45;&gt;(51)(110011)</title>
<path fill="none" stroke="green" stroke-width="2" d="M209.324,-88.5C336.465,-88.5 551.085,-88.5 682.638,-88.5"/>
<polygon fill="green" stroke="green" stroke-width="2" points="682.747,-92.0001 692.747,-88.5 682.747,-85.0001 682.747,-92.0001"/>
<text text-anchor="middle" x="451" y="-97.5" font-family="Times New Roman,serif" font-size="30.00"> &#160;&#160;132 &#160;&#160;24% &#160;&#160;0.15730636 mol/s &#160;&#160;&#160;0.50</text>
</g>
<!-- (59)(111011) -->
<g id="node7" class="node"><title>(59)(111011)</title>
<g id="a_node7"><a xlink:href="59.svg" xlink:title="(59)(111011)">
<polygon fill="springgreen" stroke="none" points="209,-47 0,-47 0,3.55271e-015 209,3.55271e-015 209,-47"/>
<text text-anchor="middle" x="104.5" y="-15" font-family="Times New Roman,serif" font-size="35.00">(59)(111011)</text>
</a>
</g>
</g>
<!-- (59)(111011)&#45;&gt;(51)(110011) -->
<g id="edge6" class="edge"><title>(59)(111011)&#45;&gt;(51)(110011)</title>
<path fill="none" stroke="green" stroke-width="4" d="M209.134,-20.1785C325.649,-18.367 519.997,-21.1386 684,-51.5 694.419,-53.4288 705.202,-56.0805 715.78,-59.0858"/>
<polygon fill="green" stroke="green" stroke-width="4" points="713.92,-65.8367 735.093,-64.9981 718.018,-52.45 713.92,-65.8367"/>
<text text-anchor="middle" x="451" y="-60.5" font-family="Times New Roman,serif" font-size="30.00"> &#160;&#160;133 &#160;&#160;74% &#160;&#160;0.48013159 mol/s &#160;&#160;&#160;0.50</text>
</g>
</g>
</svg>
