<?xml version="1.0" encoding="UTF-8" standalone="no"?>
<!DOCTYPE svg PUBLIC "-//W3C//DTD SVG 1.1//EN"
 "http://www.w3.org/Graphics/SVG/1.1/DTD/svg11.dtd">
<!-- Generated by graphviz version 2.38.0 (20140413.2041)
 -->
<!-- Title: G Pages: 1 -->
<svg width="640pt" height="71pt"
 viewBox="0.00 0.00 720.00 79.87" xmlns="http://www.w3.org/2000/svg" xmlns:xlink="http://www.w3.org/1999/xlink">
<g id="graph0" class="graph" transform="scale(0.406866 0.406866) rotate(0) translate(4 170.5)">
<title>G</title>
<polygon fill="white" stroke="none" points="-4,4 -4,-170.5 1569,-170.5 1569,4 -4,4"/>
<text text-anchor="middle" x="782.5" y="-133.7" font-family="Arial" font-size="36.00" fill="blue">Reaction Path Analysis</text>
<!-- (52)(110100) -->
<g id="node1" class="node"><title>(52)(110100)</title>
<g id="a_node1"><a xlink:href="52.svg" xlink:title="(52)(110100)">
<polygon fill="dodgerblue" stroke="none" points="887,-79 678,-79 678,-32 887,-32 887,-79"/>
<text text-anchor="middle" x="782.5" y="-47" font-family="Times New Roman,serif" font-size="35.00">(52)(110100)</text>
</a>
</g>
</g>
<!-- (48)(110000) -->
<g id="node3" class="node"><title>(48)(110000)</title>
<g id="a_node3"><a xlink:href="48.svg" xlink:title="(48)(110000)">
<polygon fill="springgreen" stroke="none" points="1565,-112 1356,-112 1356,-65 1565,-65 1565,-112"/>
<text text-anchor="middle" x="1460.5" y="-80" font-family="Times New Roman,serif" font-size="35.00">(48)(110000)</text>
</a>
</g>
</g>
<!-- (52)(110100)&#45;&gt;(48)(110000) -->
<g id="edge2" class="edge"><title>(52)(110100)&#45;&gt;(48)(110000)</title>
<path fill="none" stroke="green" stroke-width="5" d="M887.078,-65.8574C890.084,-66.0843 893.063,-66.2993 896,-66.5 1047.07,-76.8261 1221.29,-82.7053 1335.54,-85.7416"/>
<polygon fill="green" stroke="green" stroke-width="5" points="1335.58,-94.4956 1355.8,-86.2671 1336.04,-77.0015 1335.58,-94.4956"/>
<text text-anchor="middle" x="1121.5" y="-94.5" font-family="Times New Roman,serif" font-size="30.00"> &#160;&#160;125 &#160;&#160;99% &#160;&#160;0.0003446 mol/s &#160;&#160;&#160;0.50</text>
</g>
<!-- (60)(111100) -->
<g id="node5" class="node"><title>(60)(111100)</title>
<g id="a_node5"><a xlink:href="60.svg" xlink:title="(60)(111100)">
<polygon fill="dodgerblue" stroke="none" points="1565,-47 1356,-47 1356,3.55271e-015 1565,3.55271e-015 1565,-47"/>
<text text-anchor="middle" x="1460.5" y="-15" font-family="Times New Roman,serif" font-size="35.00">(60)(111100)</text>
</a>
</g>
</g>
<!-- (52)(110100)&#45;&gt;(60)(111100) -->
<g id="edge4" class="edge"><title>(52)(110100)&#45;&gt;(60)(111100)</title>
<path fill="none" stroke="green" d="M887.297,-34.5145C890.225,-34.1435 893.13,-33.8037 896,-33.5 1051.14,-17.0829 1231.61,-17.2362 1345.68,-19.6877"/>
<polygon fill="green" stroke="green" points="1345.75,-23.19 1355.82,-19.9155 1345.91,-16.1918 1345.75,-23.19"/>
<text text-anchor="middle" x="1121.5" y="-42.5" font-family="Times New Roman,serif" font-size="30.00"> &#160;&#160;135 &#160;&#160;0% &#160;&#160;1.62e&#45;06 mol/s &#160;&#160;&#160;0.50</text>
</g>
<!-- (20)(010100) -->
<g id="node2" class="node"><title>(20)(010100)</title>
<g id="a_node2"><a xlink:href="20.svg" xlink:title="(20)(010100)">
<polygon fill="springgreen" stroke="none" points="209,-112 0,-112 0,-65 209,-65 209,-112"/>
<text text-anchor="middle" x="104.5" y="-80" font-family="Times New Roman,serif" font-size="35.00">(20)(010100)</text>
</a>
</g>
</g>
<!-- (20)(010100)&#45;&gt;(52)(110100) -->
<g id="edge1" class="edge"><title>(20)(010100)&#45;&gt;(52)(110100)</title>
<path fill="none" stroke="green" stroke-width="4" d="M209.197,-86.2671C317.79,-83.522 493.882,-77.929 657.517,-67.2238"/>
<polygon fill="green" stroke="green" stroke-width="4" points="658.434,-74.1782 677.922,-65.8574 657.499,-60.2094 658.434,-74.1782"/>
<text text-anchor="middle" x="443.5" y="-94.5" font-family="Times New Roman,serif" font-size="30.00"> &#160;&#160;55 &#160;&#160;71% &#160;&#160;0.00024896 mol/s &#160;&#160;&#160;0.50</text>
</g>
<!-- (53)(110101) -->
<g id="node4" class="node"><title>(53)(110101)</title>
<g id="a_node4"><a xlink:href="53.svg" xlink:title="(53)(110101)">
<polygon fill="dodgerblue" stroke="none" points="209,-47 0,-47 0,3.55271e-015 209,3.55271e-015 209,-47"/>
<text text-anchor="middle" x="104.5" y="-15" font-family="Times New Roman,serif" font-size="35.00">(53)(110101)</text>
</a>
</g>
</g>
<!-- (53)(110101)&#45;&gt;(52)(110100) -->
<g id="edge3" class="edge"><title>(53)(110101)&#45;&gt;(52)(110100)</title>
<path fill="none" stroke="green" stroke-width="2" d="M209.175,-19.9155C320.153,-17.315 501.555,-16.6158 667.313,-33.4349"/>
<polygon fill="green" stroke="green" stroke-width="2" points="667.395,-36.9622 677.703,-34.5145 668.119,-29.9996 667.395,-36.9622"/>
<text text-anchor="middle" x="443.5" y="-42.5" font-family="Times New Roman,serif" font-size="30.00"> &#160;&#160;134 &#160;&#160;28% &#160;&#160;9.726e&#45;05 mol/s &#160;&#160;&#160;0.50</text>
</g>
</g>
</svg>
