<?xml version="1.0" encoding="UTF-8" standalone="no"?>
<!DOCTYPE svg PUBLIC "-//W3C//DTD SVG 1.1//EN"
 "http://www.w3.org/Graphics/SVG/1.1/DTD/svg11.dtd">
<!-- Generated by graphviz version 2.38.0 (20140413.2041)
 -->
<!-- Title: G Pages: 1 -->
<svg width="640pt" height="98pt"
 viewBox="0.00 0.00 720.00 109.82" xmlns="http://www.w3.org/2000/svg" xmlns:xlink="http://www.w3.org/1999/xlink">
<g id="graph0" class="graph" transform="scale(0.399251 0.399251) rotate(0) translate(4 240.5)">
<title>G</title>
<polygon fill="white" stroke="none" points="-4,4 -4,-240.5 1599,-240.5 1599,4 -4,4"/>
<text text-anchor="middle" x="797.5" y="-203.7" font-family="Arial" font-size="36.00" fill="blue">Reaction Path Analysis</text>
<!-- (53)(110101) -->
<g id="node1" class="node"><title>(53)(110101)</title>
<g id="a_node1"><a xlink:href="53.svg" xlink:title="(53)(110101)">
<polygon fill="dodgerblue" stroke="none" points="902,-112 693,-112 693,-65 902,-65 902,-112"/>
<text text-anchor="middle" x="797.5" y="-80" font-family="Times New Roman,serif" font-size="35.00">(53)(110101)</text>
</a>
</g>
</g>
<!-- (49)(110001) -->
<g id="node3" class="node"><title>(49)(110001)</title>
<g id="a_node3"><a xlink:href="49.svg" xlink:title="(49)(110001)">
<polygon fill="dodgerblue" stroke="none" points="1595,-177 1386,-177 1386,-130 1595,-130 1595,-177"/>
<text text-anchor="middle" x="1490.5" y="-145" font-family="Times New Roman,serif" font-size="35.00">(49)(110001)</text>
</a>
</g>
</g>
<!-- (53)(110101)&#45;&gt;(49)(110001) -->
<g id="edge2" class="edge"><title>(53)(110101)&#45;&gt;(49)(110001)</title>
<path fill="none" stroke="green" stroke-width="2" d="M866.388,-112.043C884.272,-117.358 903.691,-122.353 922,-125.5 1077.59,-152.24 1260.44,-156.489 1375.66,-155.918"/>
<polygon fill="green" stroke="green" stroke-width="2" points="1375.93,-159.416 1385.9,-155.853 1375.88,-152.416 1375.93,-159.416"/>
<text text-anchor="middle" x="1144" y="-164.5" font-family="Times New Roman,serif" font-size="30.00"> &#160;&#160;127 &#160;&#160;30% &#160;&#160;4.24e&#45;05 mol/s &#160;&#160;&#160;0.50</text>
</g>
<!-- (52)(110100) -->
<g id="node4" class="node"><title>(52)(110100)</title>
<g id="a_node4"><a xlink:href="52.svg" xlink:title="(52)(110100)">
<polygon fill="dodgerblue" stroke="none" points="1595,-112 1386,-112 1386,-65 1595,-65 1595,-112"/>
<text text-anchor="middle" x="1490.5" y="-80" font-family="Times New Roman,serif" font-size="35.00">(52)(110100)</text>
</a>
</g>
</g>
<!-- (53)(110101)&#45;&gt;(52)(110100) -->
<g id="edge3" class="edge"><title>(53)(110101)&#45;&gt;(52)(110100)</title>
<path fill="none" stroke="green" stroke-width="4" d="M902.324,-88.5C1026.28,-88.5 1233.39,-88.5 1365.6,-88.5"/>
<polygon fill="green" stroke="green" stroke-width="4" points="1365.75,-95.5001 1385.75,-88.5 1365.75,-81.5001 1365.75,-95.5001"/>
<text text-anchor="middle" x="1144" y="-97.5" font-family="Times New Roman,serif" font-size="30.00"> &#160;&#160;134 &#160;&#160;68% &#160;&#160;9.726e&#45;05 mol/s &#160;&#160;&#160;0.50</text>
</g>
<!-- (61)(111101) -->
<g id="node5" class="node"><title>(61)(111101)</title>
<g id="a_node5"><a xlink:href="61.svg" xlink:title="(61)(111101)">
<polygon fill="purple" stroke="none" points="1595,-47 1386,-47 1386,3.55271e-015 1595,3.55271e-015 1595,-47"/>
<text text-anchor="middle" x="1490.5" y="-15" font-family="Times New Roman,serif" font-size="35.00">(61)(111101)</text>
</a>
</g>
</g>
<!-- (53)(110101)&#45;&gt;(61)(111101) -->
<g id="edge4" class="edge"><title>(53)(110101)&#45;&gt;(61)(111101)</title>
<path fill="none" stroke="green" d="M866.388,-64.9569C884.272,-59.6421 903.691,-54.6465 922,-51.5 1077.59,-24.7605 1260.44,-20.5111 1375.66,-21.0823"/>
<polygon fill="green" stroke="green" points="1375.88,-24.5836 1385.9,-21.1467 1375.93,-17.5838 1375.88,-24.5836"/>
<text text-anchor="middle" x="1144" y="-60.5" font-family="Times New Roman,serif" font-size="30.00"> &#160;&#160;136 &#160;&#160;1% &#160;&#160;1.62e&#45;06 mol/s &#160;&#160;&#160;0.50</text>
</g>
<!-- (21)(010101) -->
<g id="node2" class="node"><title>(21)(010101)</title>
<g id="a_node2"><a xlink:href="21.svg" xlink:title="(21)(010101)">
<polygon fill="dodgerblue" stroke="none" points="209,-112 0,-112 0,-65 209,-65 209,-112"/>
<text text-anchor="middle" x="104.5" y="-80" font-family="Times New Roman,serif" font-size="35.00">(21)(010101)</text>
</a>
</g>
</g>
<!-- (21)(010101)&#45;&gt;(53)(110101) -->
<g id="edge1" class="edge"><title>(21)(010101)&#45;&gt;(53)(110101)</title>
<path fill="none" stroke="green" stroke-width="6" d="M209.324,-88.5C333.28,-88.5 540.387,-88.5 672.598,-88.5"/>
<polygon fill="green" stroke="green" stroke-width="6" points="672.747,-99.0001 692.747,-88.5 672.747,-78.0001 672.747,-99.0001"/>
<text text-anchor="middle" x="451" y="-97.5" font-family="Times New Roman,serif" font-size="30.00"> &#160;&#160;58 &#160;&#160;100% &#160;&#160;0.00014129 mol/s &#160;&#160;&#160;0.50</text>
</g>
</g>
</svg>
