<?xml version="1.0" encoding="UTF-8" standalone="no"?>
<!DOCTYPE svg PUBLIC "-//W3C//DTD SVG 1.1//EN"
 "http://www.w3.org/Graphics/SVG/1.1/DTD/svg11.dtd">
<!-- Generated by graphviz version 2.38.0 (20140413.2041)
 -->
<!-- Title: G Pages: 1 -->
<svg width="640pt" height="128pt"
 viewBox="0.00 0.00 720.00 143.51" xmlns="http://www.w3.org/2000/svg" xmlns:xlink="http://www.w3.org/1999/xlink">
<g id="graph0" class="graph" transform="scale(0.399251 0.399251) rotate(0) translate(4 315.5)">
<title>G</title>
<polygon fill="white" stroke="none" points="-4,4 -4,-315.5 1599,-315.5 1599,4 -4,4"/>
<text text-anchor="middle" x="797.5" y="-278.7" font-family="Arial" font-size="36.00" fill="blue">Reaction Path Analysis</text>
<!-- (54)(110110) -->
<g id="node1" class="node"><title>(54)(110110)</title>
<g id="a_node1"><a xlink:href="54.svg" xlink:title="(54)(110110)">
<polygon fill="springgreen" stroke="none" points="902,-144 693,-144 693,-97 902,-97 902,-144"/>
<text text-anchor="middle" x="797.5" y="-112" font-family="Times New Roman,serif" font-size="35.00">(54)(110110)</text>
</a>
</g>
</g>
<!-- (21)(010101) -->
<g id="node2" class="node"><title>(21)(010101)</title>
<g id="a_node2"><a xlink:href="21.svg" xlink:title="(21)(010101)">
<polygon fill="dodgerblue" stroke="none" points="1595,-177 1386,-177 1386,-130 1595,-130 1595,-177"/>
<text text-anchor="middle" x="1490.5" y="-145" font-family="Times New Roman,serif" font-size="35.00">(21)(010101)</text>
</a>
</g>
</g>
<!-- (54)(110110)&#45;&gt;(21)(010101) -->
<g id="edge1" class="edge"><title>(54)(110110)&#45;&gt;(21)(010101)</title>
<path fill="none" stroke="green" stroke-width="2" d="M902.078,-130.861C905.084,-131.087 908.063,-131.301 911,-131.5 1072.26,-142.44 1259.2,-148.317 1375.92,-151.175"/>
<polygon fill="green" stroke="green" stroke-width="2" points="1375.86,-154.674 1385.95,-151.417 1376.03,-147.676 1375.86,-154.674"/>
<text text-anchor="middle" x="1144" y="-159.5" font-family="Times New Roman,serif" font-size="30.00"> &#160;&#160;59 &#160;&#160;24% &#160;&#160;0.05120075 mol/s &#160;&#160;&#160;0.50</text>
</g>
<!-- (55)(110111) -->
<g id="node6" class="node"><title>(55)(110111)</title>
<g id="a_node6"><a xlink:href="55.svg" xlink:title="(55)(110111)">
<polygon fill="springgreen" stroke="none" points="1595,-112 1386,-112 1386,-65 1595,-65 1595,-112"/>
<text text-anchor="middle" x="1490.5" y="-80" font-family="Times New Roman,serif" font-size="35.00">(55)(110111)</text>
</a>
</g>
</g>
<!-- (54)(110110)&#45;&gt;(55)(110111) -->
<g id="edge5" class="edge"><title>(54)(110110)&#45;&gt;(55)(110111)</title>
<path fill="none" stroke="green" stroke-width="4" d="M902.297,-99.5127C905.225,-99.1423 908.13,-98.803 911,-98.5 1067.24,-82.0025 1248.5,-81.9309 1365.9,-84.3721"/>
<polygon fill="green" stroke="green" stroke-width="4" points="1365.82,-91.372 1385.97,-84.8272 1366.13,-77.3756 1365.82,-91.372"/>
<text text-anchor="middle" x="1144" y="-107.5" font-family="Times New Roman,serif" font-size="30.00"> &#160;&#160;137 &#160;&#160;75% &#160;&#160;0.15703159 mol/s &#160;&#160;&#160;0.50</text>
</g>
<!-- (38)(100110) -->
<g id="node3" class="node"><title>(38)(100110)</title>
<g id="a_node3"><a xlink:href="38.svg" xlink:title="(38)(100110)">
<polygon fill="dodgerblue" stroke="none" points="209,-242 0,-242 0,-195 209,-195 209,-242"/>
<text text-anchor="middle" x="104.5" y="-210" font-family="Times New Roman,serif" font-size="35.00">(38)(100110)</text>
</a>
</g>
</g>
<!-- (38)(100110)&#45;&gt;(54)(110110) -->
<g id="edge2" class="edge"><title>(38)(100110)&#45;&gt;(54)(110110)</title>
<path fill="none" stroke="green" d="M209.172,-227.639C326.972,-234.693 523.668,-236.279 684,-187.5 710.378,-179.475 737.015,-164.014 757.743,-149.965"/>
<polygon fill="green" stroke="green" points="759.74,-152.84 765.958,-144.262 755.748,-147.09 759.74,-152.84"/>
<text text-anchor="middle" x="451" y="-239.5" font-family="Times New Roman,serif" font-size="30.00"> &#160;&#160;101 &#160;&#160;0% &#160;&#160;0.00115816 mol/s &#160;&#160;&#160;0.50</text>
</g>
<!-- (46)(101110) -->
<g id="node4" class="node"><title>(46)(101110)</title>
<g id="a_node4"><a xlink:href="46.svg" xlink:title="(46)(101110)">
<polygon fill="purple" stroke="none" points="209,-177 0,-177 0,-130 209,-130 209,-177"/>
<text text-anchor="middle" x="104.5" y="-145" font-family="Times New Roman,serif" font-size="35.00">(46)(101110)</text>
</a>
</g>
</g>
<!-- (46)(101110)&#45;&gt;(54)(110110) -->
<g id="edge3" class="edge"><title>(46)(101110)&#45;&gt;(54)(110110)</title>
<path fill="none" stroke="green" d="M209.054,-151.417C322.678,-148.708 510.714,-142.982 682.912,-131.535"/>
<polygon fill="green" stroke="green" points="683.179,-135.025 692.922,-130.861 682.71,-128.04 683.179,-135.025"/>
<text text-anchor="middle" x="451" y="-159.5" font-family="Times New Roman,serif" font-size="30.00"> &#160;&#160;120 &#160;&#160;1% &#160;&#160;0.00239177 mol/s &#160;&#160;&#160;0.50</text>
</g>
<!-- (50)(110010) -->
<g id="node5" class="node"><title>(50)(110010)</title>
<g id="a_node5"><a xlink:href="50.svg" xlink:title="(50)(110010)">
<polygon fill="orange" stroke="none" points="209,-112 0,-112 0,-65 209,-65 209,-112"/>
<text text-anchor="middle" x="104.5" y="-80" font-family="Times New Roman,serif" font-size="35.00">(50)(110010)</text>
</a>
</g>
</g>
<!-- (50)(110010)&#45;&gt;(54)(110110) -->
<g id="edge4" class="edge"><title>(50)(110010)&#45;&gt;(54)(110110)</title>
<path fill="none" stroke="green" stroke-width="5" d="M209.029,-84.8272C320.621,-82.088 503.923,-81.1051 672.726,-97.4845"/>
<polygon fill="green" stroke="green" stroke-width="5" points="671.922,-106.198 692.703,-99.5127 673.69,-88.7873 671.922,-106.198"/>
<text text-anchor="middle" x="451" y="-107.5" font-family="Times New Roman,serif" font-size="30.00"> &#160;&#160;130 &#160;&#160;81% &#160;&#160;0.16914413 mol/s &#160;&#160;&#160;0.50</text>
</g>
<!-- (62)(111110) -->
<g id="node7" class="node"><title>(62)(111110)</title>
<g id="a_node7"><a xlink:href="62.svg" xlink:title="(62)(111110)">
<polygon fill="dodgerblue" stroke="none" points="209,-47 0,-47 0,3.55271e-015 209,3.55271e-015 209,-47"/>
<text text-anchor="middle" x="104.5" y="-15" font-family="Times New Roman,serif" font-size="35.00">(62)(111110)</text>
</a>
</g>
</g>
<!-- (62)(111110)&#45;&gt;(54)(110110) -->
<g id="edge6" class="edge"><title>(62)(111110)&#45;&gt;(54)(110110)</title>
<path fill="none" stroke="green" d="M209.007,-10.8642C327.079,-0.192285 524.429,6.1446 684,-45.5 712.785,-54.8162 741.103,-73.7633 762.127,-90.2817"/>
<polygon fill="green" stroke="green" points="760.114,-93.1551 770.097,-96.7032 764.506,-87.704 760.114,-93.1551"/>
<text text-anchor="middle" x="451" y="-54.5" font-family="Times New Roman,serif" font-size="30.00"> &#160;&#160;138 &#160;&#160;17% &#160;&#160;0.03553828 mol/s &#160;&#160;&#160;0.50</text>
</g>
</g>
</svg>
