<?xml version="1.0" encoding="UTF-8" standalone="no"?>
<!DOCTYPE svg PUBLIC "-//W3C//DTD SVG 1.1//EN"
 "http://www.w3.org/Graphics/SVG/1.1/DTD/svg11.dtd">
<!-- Generated by graphviz version 2.38.0 (20140413.2041)
 -->
<!-- Title: G Pages: 1 -->
<svg width="640pt" height="125pt"
 viewBox="0.00 0.00 720.00 140.43" xmlns="http://www.w3.org/2000/svg" xmlns:xlink="http://www.w3.org/1999/xlink">
<g id="graph0" class="graph" transform="scale(0.391917 0.391917) rotate(0) translate(4 314.5)">
<title>G</title>
<polygon fill="white" stroke="none" points="-4,4 -4,-314.5 1629,-314.5 1629,4 -4,4"/>
<text text-anchor="middle" x="812.5" y="-277.7" font-family="Arial" font-size="36.00" fill="blue">Reaction Path Analysis</text>
<!-- (55)(110111) -->
<g id="node1" class="node"><title>(55)(110111)</title>
<g id="a_node1"><a xlink:href="55.svg" xlink:title="(55)(110111)">
<polygon fill="springgreen" stroke="none" points="917,-144 708,-144 708,-97 917,-97 917,-144"/>
<text text-anchor="middle" x="812.5" y="-112" font-family="Times New Roman,serif" font-size="35.00">(55)(110111)</text>
</a>
</g>
</g>
<!-- (51)(110011) -->
<g id="node4" class="node"><title>(51)(110011)</title>
<g id="a_node4"><a xlink:href="51.svg" xlink:title="(51)(110011)">
<polygon fill="lawngreen" stroke="none" points="1625,-144 1416,-144 1416,-97 1625,-97 1625,-144"/>
<text text-anchor="middle" x="1520.5" y="-112" font-family="Times New Roman,serif" font-size="35.00">(51)(110011)</text>
</a>
</g>
</g>
<!-- (55)(110111)&#45;&gt;(51)(110011) -->
<g id="edge3" class="edge"><title>(55)(110111)&#45;&gt;(51)(110011)</title>
<path fill="none" stroke="green" stroke-width="6" d="M917.293,-120.5C1044.53,-120.5 1259.92,-120.5 1395.68,-120.5"/>
<polygon fill="green" stroke="green" stroke-width="6" points="1395.93,-131 1415.93,-120.5 1395.93,-110 1395.93,-131"/>
<text text-anchor="middle" x="1166.5" y="-129.5" font-family="Times New Roman,serif" font-size="30.00"> &#160;&#160;132 &#160;&#160;100% &#160;&#160;0.15730636 mol/s &#160;&#160;&#160;0.50</text>
</g>
<!-- (39)(100111) -->
<g id="node2" class="node"><title>(39)(100111)</title>
<g id="a_node2"><a xlink:href="39.svg" xlink:title="(39)(100111)">
<polygon fill="dodgerblue" stroke="none" points="209,-242 0,-242 0,-195 209,-195 209,-242"/>
<text text-anchor="middle" x="104.5" y="-210" font-family="Times New Roman,serif" font-size="35.00">(39)(100111)</text>
</a>
</g>
</g>
<!-- (39)(100111)&#45;&gt;(55)(110111) -->
<g id="edge1" class="edge"><title>(39)(100111)&#45;&gt;(55)(110111)</title>
<path fill="none" stroke="green" d="M209.196,-226.96C328.17,-233.5 527.915,-234.723 691.5,-187.5 719.53,-179.409 748.159,-163.762 770.42,-149.624"/>
<polygon fill="green" stroke="green" points="772.453,-152.477 778.933,-144.095 768.64,-146.607 772.453,-152.477"/>
<text text-anchor="middle" x="458.5" y="-238.5" font-family="Times New Roman,serif" font-size="30.00"> &#160;&#160;103 &#160;&#160;0% &#160;&#160;9.8e&#45;05 mol/s &#160;&#160;&#160;0.50</text>
</g>
<!-- (47)(101111) -->
<g id="node3" class="node"><title>(47)(101111)</title>
<g id="a_node3"><a xlink:href="47.svg" xlink:title="(47)(101111)">
<polygon fill="purple" stroke="none" points="209,-177 0,-177 0,-130 209,-130 209,-177"/>
<text text-anchor="middle" x="104.5" y="-145" font-family="Times New Roman,serif" font-size="35.00">(47)(101111)</text>
</a>
</g>
</g>
<!-- (47)(101111)&#45;&gt;(55)(110111) -->
<g id="edge2" class="edge"><title>(47)(101111)&#45;&gt;(55)(110111)</title>
<path fill="none" stroke="green" d="M209.059,-151.298C326.226,-148.415 522.723,-142.396 691.5,-131.5 693.58,-131.366 695.679,-131.225 697.794,-131.079"/>
<polygon fill="green" stroke="green" points="698.06,-134.569 707.783,-130.358 697.557,-127.587 698.06,-134.569"/>
<text text-anchor="middle" x="458.5" y="-159.5" font-family="Times New Roman,serif" font-size="30.00"> &#160;&#160;122 &#160;&#160;0% &#160;&#160;9.929e&#45;05 mol/s &#160;&#160;&#160;0.50</text>
</g>
<!-- (54)(110110) -->
<g id="node5" class="node"><title>(54)(110110)</title>
<g id="a_node5"><a xlink:href="54.svg" xlink:title="(54)(110110)">
<polygon fill="springgreen" stroke="none" points="209,-112 0,-112 0,-65 209,-65 209,-112"/>
<text text-anchor="middle" x="104.5" y="-80" font-family="Times New Roman,serif" font-size="35.00">(54)(110110)</text>
</a>
</g>
</g>
<!-- (54)(110110)&#45;&gt;(55)(110111) -->
<g id="edge4" class="edge"><title>(54)(110110)&#45;&gt;(55)(110111)</title>
<path fill="none" stroke="green" stroke-width="5" d="M209.006,-85.1486C322.094,-82.6311 509.05,-81.8075 687.838,-98.4644"/>
<polygon fill="green" stroke="green" stroke-width="5" points="687.154,-107.189 707.906,-100.412 688.845,-89.7709 687.154,-107.189"/>
<text text-anchor="middle" x="458.5" y="-107.5" font-family="Times New Roman,serif" font-size="30.00"> &#160;&#160;137 &#160;&#160;99% &#160;&#160;0.15703159 mol/s &#160;&#160;&#160;0.50</text>
</g>
<!-- (63)(111111) -->
<g id="node6" class="node"><title>(63)(111111)</title>
<g id="a_node6"><a xlink:href="63.svg" xlink:title="(63)(111111)">
<polygon fill="dodgerblue" stroke="none" points="209,-47 0,-47 0,3.55271e-015 209,3.55271e-015 209,-47"/>
<text text-anchor="middle" x="104.5" y="-15" font-family="Times New Roman,serif" font-size="35.00">(63)(111111)</text>
</a>
</g>
</g>
<!-- (63)(111111)&#45;&gt;(55)(110111) -->
<g id="edge5" class="edge"><title>(63)(111111)&#45;&gt;(55)(110111)</title>
<path fill="none" stroke="green" d="M209.226,-11.9722C328.442,-2.25335 528.616,3.15624 691.5,-46.5 721.602,-55.6769 751.737,-74.3021 774.278,-90.57"/>
<polygon fill="green" stroke="green" points="772.407,-93.5388 782.53,-96.6648 776.566,-87.9082 772.407,-93.5388"/>
<text text-anchor="middle" x="458.5" y="-55.5" font-family="Times New Roman,serif" font-size="30.00"> &#160;&#160;139 &#160;&#160;0% &#160;&#160;7.747e&#45;05 mol/s &#160;&#160;&#160;0.50</text>
</g>
</g>
</svg>
