<?xml version="1.0" encoding="UTF-8" standalone="no"?>
<!DOCTYPE svg PUBLIC "-//W3C//DTD SVG 1.1//EN"
 "http://www.w3.org/Graphics/SVG/1.1/DTD/svg11.dtd">
<!-- Generated by graphviz version 2.38.0 (20140413.2041)
 -->
<!-- Title: G Pages: 1 -->
<svg width="640pt" height="98pt"
 viewBox="0.00 0.00 720.00 110.27" xmlns="http://www.w3.org/2000/svg" xmlns:xlink="http://www.w3.org/1999/xlink">
<g id="graph0" class="graph" transform="scale(0.399251 0.399251) rotate(0) translate(4 241.5)">
<title>G</title>
<polygon fill="white" stroke="none" points="-4,4 -4,-241.5 1599,-241.5 1599,4 -4,4"/>
<text text-anchor="middle" x="797.5" y="-204.7" font-family="Arial" font-size="36.00" fill="blue">Reaction Path Analysis</text>
<!-- (57)(111001) -->
<g id="node1" class="node"><title>(57)(111001)</title>
<g id="a_node1"><a xlink:href="57.svg" xlink:title="(57)(111001)">
<polygon fill="dodgerblue" stroke="none" points="902,-112 693,-112 693,-65 902,-65 902,-112"/>
<text text-anchor="middle" x="797.5" y="-80" font-family="Times New Roman,serif" font-size="35.00">(57)(111001)</text>
</a>
</g>
</g>
<!-- (41)(101001) -->
<g id="node3" class="node"><title>(41)(101001)</title>
<g id="a_node3"><a xlink:href="41.svg" xlink:title="(41)(101001)">
<polygon fill="dodgerblue" stroke="none" points="1595,-145 1386,-145 1386,-98 1595,-98 1595,-145"/>
<text text-anchor="middle" x="1490.5" y="-113" font-family="Times New Roman,serif" font-size="35.00">(41)(101001)</text>
</a>
</g>
</g>
<!-- (57)(111001)&#45;&gt;(41)(101001) -->
<g id="edge2" class="edge"><title>(57)(111001)&#45;&gt;(41)(101001)</title>
<path fill="none" stroke="green" stroke-width="5" d="M902.078,-98.8614C905.084,-99.0871 908.063,-99.3008 911,-99.5 1067.72,-110.132 1248.7,-115.982 1365.9,-118.926"/>
<polygon fill="green" stroke="green" stroke-width="5" points="1365.74,-127.675 1385.95,-119.417 1366.17,-110.18 1365.74,-127.675"/>
<text text-anchor="middle" x="1144" y="-127.5" font-family="Times New Roman,serif" font-size="30.00"> &#160;&#160;108 &#160;&#160;99% &#160;&#160;0.00256245 mol/s &#160;&#160;&#160;0.50</text>
</g>
<!-- (61)(111101) -->
<g id="node6" class="node"><title>(61)(111101)</title>
<g id="a_node6"><a xlink:href="61.svg" xlink:title="(61)(111101)">
<polygon fill="purple" stroke="none" points="1595,-80 1386,-80 1386,-33 1595,-33 1595,-80"/>
<text text-anchor="middle" x="1490.5" y="-48" font-family="Times New Roman,serif" font-size="35.00">(61)(111101)</text>
</a>
</g>
</g>
<!-- (57)(111001)&#45;&gt;(61)(111101) -->
<g id="edge5" class="edge"><title>(57)(111001)&#45;&gt;(61)(111101)</title>
<path fill="none" stroke="green" d="M902.297,-67.5127C905.225,-67.1423 908.13,-66.803 911,-66.5 1071.76,-49.5248 1259.02,-49.9405 1375.93,-52.5902"/>
<polygon fill="green" stroke="green" points="1375.89,-56.0901 1385.97,-52.8272 1376.06,-49.0921 1375.89,-56.0901"/>
<text text-anchor="middle" x="1144" y="-75.5" font-family="Times New Roman,serif" font-size="30.00"> &#160;&#160;142 &#160;&#160;0% &#160;&#160;5.08e&#45;06 mol/s &#160;&#160;&#160;0.50</text>
</g>
<!-- (25)(011001) -->
<g id="node2" class="node"><title>(25)(011001)</title>
<g id="a_node2"><a xlink:href="25.svg" xlink:title="(25)(011001)">
<polygon fill="springgreen" stroke="none" points="209,-177 0,-177 0,-130 209,-130 209,-177"/>
<text text-anchor="middle" x="104.5" y="-145" font-family="Times New Roman,serif" font-size="35.00">(25)(011001)</text>
</a>
</g>
</g>
<!-- (25)(011001)&#45;&gt;(57)(111001) -->
<g id="edge1" class="edge"><title>(25)(011001)&#45;&gt;(57)(111001)</title>
<path fill="none" stroke="green" d="M209.134,-156.821C325.649,-158.633 519.997,-155.861 684,-125.5 697.584,-122.985 711.787,-119.242 725.349,-115.088"/>
<polygon fill="green" stroke="green" points="726.616,-118.358 735.093,-112.002 724.503,-111.684 726.616,-118.358"/>
<text text-anchor="middle" x="451" y="-165.5" font-family="Times New Roman,serif" font-size="30.00"> &#160;&#160;68 &#160;&#160;7% &#160;&#160;0.00019479 mol/s &#160;&#160;&#160;0.50</text>
</g>
<!-- (49)(110001) -->
<g id="node4" class="node"><title>(49)(110001)</title>
<g id="a_node4"><a xlink:href="49.svg" xlink:title="(49)(110001)">
<polygon fill="dodgerblue" stroke="none" points="209,-112 0,-112 0,-65 209,-65 209,-112"/>
<text text-anchor="middle" x="104.5" y="-80" font-family="Times New Roman,serif" font-size="35.00">(49)(110001)</text>
</a>
</g>
</g>
<!-- (49)(110001)&#45;&gt;(57)(111001) -->
<g id="edge3" class="edge"><title>(49)(110001)&#45;&gt;(57)(111001)</title>
<path fill="none" stroke="green" d="M209.324,-88.5C336.465,-88.5 551.085,-88.5 682.638,-88.5"/>
<polygon fill="green" stroke="green" points="682.747,-92.0001 692.747,-88.5 682.747,-85.0001 682.747,-92.0001"/>
<text text-anchor="middle" x="451" y="-97.5" font-family="Times New Roman,serif" font-size="30.00"> &#160;&#160;128 &#160;&#160;8% &#160;&#160;0.00022525 mol/s &#160;&#160;&#160;0.50</text>
</g>
<!-- (56)(111000) -->
<g id="node5" class="node"><title>(56)(111000)</title>
<g id="a_node5"><a xlink:href="56.svg" xlink:title="(56)(111000)">
<polygon fill="springgreen" stroke="none" points="209,-47 0,-47 0,3.55271e-015 209,3.55271e-015 209,-47"/>
<text text-anchor="middle" x="104.5" y="-15" font-family="Times New Roman,serif" font-size="35.00">(56)(111000)</text>
</a>
</g>
</g>
<!-- (56)(111000)&#45;&gt;(57)(111001) -->
<g id="edge4" class="edge"><title>(56)(111000)&#45;&gt;(57)(111001)</title>
<path fill="none" stroke="green" stroke-width="5" d="M209.134,-20.1785C325.649,-18.367 519.997,-21.1386 684,-51.5 694.419,-53.4288 705.202,-56.0805 715.78,-59.0858"/>
<polygon fill="green" stroke="green" stroke-width="5" points="713.407,-67.5101 735.093,-64.9981 718.53,-50.7767 713.407,-67.5101"/>
<text text-anchor="middle" x="451" y="-60.5" font-family="Times New Roman,serif" font-size="30.00"> &#160;&#160;140 &#160;&#160;83% &#160;&#160;0.00214749 mol/s &#160;&#160;&#160;0.50</text>
</g>
</g>
</svg>
