<?xml version="1.0" encoding="UTF-8" standalone="no"?>
<!DOCTYPE svg PUBLIC "-//W3C//DTD SVG 1.1//EN"
 "http://www.w3.org/Graphics/SVG/1.1/DTD/svg11.dtd">
<!-- Generated by graphviz version 2.38.0 (20140413.2041)
 -->
<!-- Title: G Pages: 1 -->
<svg width="640pt" height="126pt"
 viewBox="0.00 0.00 720.00 141.31" xmlns="http://www.w3.org/2000/svg" xmlns:xlink="http://www.w3.org/1999/xlink">
<g id="graph0" class="graph" transform="scale(0.391917 0.391917) rotate(0) translate(4 316.5)">
<title>G</title>
<polygon fill="white" stroke="none" points="-4,4 -4,-316.5 1629,-316.5 1629,4 -4,4"/>
<text text-anchor="middle" x="812.5" y="-279.7" font-family="Arial" font-size="36.00" fill="blue">Reaction Path Analysis</text>
<!-- (58)(111010) -->
<g id="node1" class="node"><title>(58)(111010)</title>
<g id="a_node1"><a xlink:href="58.svg" xlink:title="(58)(111010)">
<polygon fill="springgreen" stroke="none" points="917,-144 708,-144 708,-97 917,-97 917,-144"/>
<text text-anchor="middle" x="812.5" y="-112" font-family="Times New Roman,serif" font-size="35.00">(58)(111010)</text>
</a>
</g>
</g>
<!-- (28)(011100) -->
<g id="node3" class="node"><title>(28)(011100)</title>
<g id="a_node3"><a xlink:href="28.svg" xlink:title="(28)(011100)">
<polygon fill="springgreen" stroke="none" points="1625,-242 1416,-242 1416,-195 1625,-195 1625,-242"/>
<text text-anchor="middle" x="1520.5" y="-210" font-family="Times New Roman,serif" font-size="35.00">(28)(011100)</text>
</a>
</g>
</g>
<!-- (58)(111010)&#45;&gt;(28)(011100) -->
<g id="edge2" class="edge"><title>(58)(111010)&#45;&gt;(28)(011100)</title>
<path fill="none" stroke="green" d="M844.038,-144.275C865.635,-159.632 895.981,-178.389 926,-187.5 1087.21,-236.428 1284.23,-235.552 1405.78,-228.5"/>
<polygon fill="green" stroke="green" points="1406.08,-231.988 1415.85,-227.892 1405.66,-225.001 1406.08,-231.988"/>
<text text-anchor="middle" x="1166.5" y="-240.5" font-family="Times New Roman,serif" font-size="30.00"> &#160;&#160;73 &#160;&#160;0% &#160;&#160;9.427e&#45;05 mol/s &#160;&#160;&#160;0.50</text>
</g>
<!-- (50)(110010) -->
<g id="node5" class="node"><title>(50)(110010)</title>
<g id="a_node5"><a xlink:href="50.svg" xlink:title="(50)(110010)">
<polygon fill="orange" stroke="none" points="1625,-177 1416,-177 1416,-130 1625,-130 1625,-177"/>
<text text-anchor="middle" x="1520.5" y="-145" font-family="Times New Roman,serif" font-size="35.00">(50)(110010)</text>
</a>
</g>
</g>
<!-- (58)(111010)&#45;&gt;(50)(110010) -->
<g id="edge4" class="edge"><title>(58)(111010)&#45;&gt;(50)(110010)</title>
<path fill="none" stroke="green" stroke-width="5" d="M917.078,-130.865C920.084,-131.09 923.063,-131.302 926,-131.5 1088.16,-142.424 1275.65,-148.236 1395.78,-151.09"/>
<polygon fill="green" stroke="green" stroke-width="5" points="1395.74,-159.841 1415.94,-151.556 1396.15,-142.346 1395.74,-159.841"/>
<text text-anchor="middle" x="1166.5" y="-159.5" font-family="Times New Roman,serif" font-size="30.00"> &#160;&#160;131 &#160;&#160;98% &#160;&#160;46.20532138 mol/s &#160;&#160;&#160;0.50</text>
</g>
<!-- (59)(111011) -->
<g id="node6" class="node"><title>(59)(111011)</title>
<g id="a_node6"><a xlink:href="59.svg" xlink:title="(59)(111011)">
<polygon fill="springgreen" stroke="none" points="1625,-112 1416,-112 1416,-65 1625,-65 1625,-112"/>
<text text-anchor="middle" x="1520.5" y="-80" font-family="Times New Roman,serif" font-size="35.00">(59)(111011)</text>
</a>
</g>
</g>
<!-- (58)(111010)&#45;&gt;(59)(111011) -->
<g id="edge5" class="edge"><title>(58)(111010)&#45;&gt;(59)(111011)</title>
<path fill="none" stroke="green" d="M917.296,-99.5111C920.225,-99.1411 923.13,-98.8024 926,-98.5 1092.18,-80.9896 1285.95,-81.6493 1405.69,-84.4864"/>
<polygon fill="green" stroke="green" points="1405.89,-87.9922 1415.97,-84.7396 1406.06,-80.9943 1405.89,-87.9922"/>
<text text-anchor="middle" x="1166.5" y="-107.5" font-family="Times New Roman,serif" font-size="30.00"> &#160;&#160;143 &#160;&#160;1% &#160;&#160;0.48009707 mol/s &#160;&#160;&#160;0.50</text>
</g>
<!-- (62)(111110) -->
<g id="node7" class="node"><title>(62)(111110)</title>
<g id="a_node7"><a xlink:href="62.svg" xlink:title="(62)(111110)">
<polygon fill="dodgerblue" stroke="none" points="1625,-47 1416,-47 1416,3.55271e-015 1625,3.55271e-015 1625,-47"/>
<text text-anchor="middle" x="1520.5" y="-15" font-family="Times New Roman,serif" font-size="35.00">(62)(111110)</text>
</a>
</g>
</g>
<!-- (58)(111010)&#45;&gt;(62)(111110) -->
<g id="edge6" class="edge"><title>(58)(111010)&#45;&gt;(62)(111110)</title>
<path fill="none" stroke="green" d="M840.404,-96.6652C861.916,-79.2156 893.721,-56.8498 926,-46.5 1086.45,4.94624 1283.88,0.0866154 1405.71,-10.1591"/>
<polygon fill="green" stroke="green" points="1405.54,-13.6572 1415.8,-11.0349 1406.14,-6.68344 1405.54,-13.6572"/>
<text text-anchor="middle" x="1166.5" y="-55.5" font-family="Times New Roman,serif" font-size="30.00"> &#160;&#160;144 &#160;&#160;0% &#160;&#160;0.03448413 mol/s &#160;&#160;&#160;0.50</text>
</g>
<!-- (25)(011001) -->
<g id="node2" class="node"><title>(25)(011001)</title>
<g id="a_node2"><a xlink:href="25.svg" xlink:title="(25)(011001)">
<polygon fill="springgreen" stroke="none" points="209,-177 0,-177 0,-130 209,-130 209,-177"/>
<text text-anchor="middle" x="104.5" y="-145" font-family="Times New Roman,serif" font-size="35.00">(25)(011001)</text>
</a>
</g>
</g>
<!-- (25)(011001)&#45;&gt;(58)(111010) -->
<g id="edge1" class="edge"><title>(25)(011001)&#45;&gt;(58)(111010)</title>
<path fill="none" stroke="green" stroke-width="5" d="M209.059,-151.298C321.993,-148.519 508.627,-142.827 687.682,-131.64"/>
<polygon fill="green" stroke="green" stroke-width="5" points="688.38,-140.363 707.783,-130.358 687.266,-122.899 688.38,-140.363"/>
<text text-anchor="middle" x="458.5" y="-159.5" font-family="Times New Roman,serif" font-size="30.00"> &#160;&#160;69 &#160;&#160;99% &#160;&#160;46.71671555 mol/s &#160;&#160;&#160;0.50</text>
</g>
<!-- (42)(101010) -->
<g id="node4" class="node"><title>(42)(101010)</title>
<g id="a_node4"><a xlink:href="42.svg" xlink:title="(42)(101010)">
<polygon fill="springgreen" stroke="none" points="209,-112 0,-112 0,-65 209,-65 209,-112"/>
<text text-anchor="middle" x="104.5" y="-80" font-family="Times New Roman,serif" font-size="35.00">(42)(101010)</text>
</a>
</g>
</g>
<!-- (42)(101010)&#45;&gt;(58)(111010) -->
<g id="edge3" class="edge"><title>(42)(101010)&#45;&gt;(58)(111010)</title>
<path fill="none" stroke="green" d="M209.006,-85.1486C326.333,-82.5367 523.171,-81.7482 691.5,-98.5 693.599,-98.7089 695.717,-98.9349 697.849,-99.1763"/>
<polygon fill="green" stroke="green" points="697.554,-102.666 707.906,-100.412 698.408,-95.7186 697.554,-102.666"/>
<text text-anchor="middle" x="458.5" y="-107.5" font-family="Times New Roman,serif" font-size="30.00"> &#160;&#160;112 &#160;&#160;0% &#160;&#160;0.00328131 mol/s &#160;&#160;&#160;0.50</text>
</g>
</g>
</svg>
