<?xml version="1.0" encoding="UTF-8" standalone="no"?>
<!DOCTYPE svg PUBLIC "-//W3C//DTD SVG 1.1//EN"
 "http://www.w3.org/Graphics/SVG/1.1/DTD/svg11.dtd">
<!-- Generated by graphviz version 2.38.0 (20140413.2041)
 -->
<!-- Title: G Pages: 1 -->
<svg width="640pt" height="98pt"
 viewBox="0.00 0.00 720.00 110.27" xmlns="http://www.w3.org/2000/svg" xmlns:xlink="http://www.w3.org/1999/xlink">
<g id="graph0" class="graph" transform="scale(0.399251 0.399251) rotate(0) translate(4 241.5)">
<title>G</title>
<polygon fill="white" stroke="none" points="-4,4 -4,-241.5 1599,-241.5 1599,4 -4,4"/>
<text text-anchor="middle" x="797.5" y="-204.7" font-family="Arial" font-size="36.00" fill="blue">Reaction Path Analysis</text>
<!-- (59)(111011) -->
<g id="node1" class="node"><title>(59)(111011)</title>
<g id="a_node1"><a xlink:href="59.svg" xlink:title="(59)(111011)">
<polygon fill="springgreen" stroke="none" points="902,-112 693,-112 693,-65 902,-65 902,-112"/>
<text text-anchor="middle" x="797.5" y="-80" font-family="Times New Roman,serif" font-size="35.00">(59)(111011)</text>
</a>
</g>
</g>
<!-- (29)(011101) -->
<g id="node2" class="node"><title>(29)(011101)</title>
<g id="a_node2"><a xlink:href="29.svg" xlink:title="(29)(011101)">
<polygon fill="dodgerblue" stroke="none" points="1595,-145 1386,-145 1386,-98 1595,-98 1595,-145"/>
<text text-anchor="middle" x="1490.5" y="-113" font-family="Times New Roman,serif" font-size="35.00">(29)(011101)</text>
</a>
</g>
</g>
<!-- (59)(111011)&#45;&gt;(29)(011101) -->
<g id="edge1" class="edge"><title>(59)(111011)&#45;&gt;(29)(011101)</title>
<path fill="none" stroke="green" d="M902.078,-98.8614C905.084,-99.0871 908.063,-99.3008 911,-99.5 1072.26,-110.44 1259.2,-116.317 1375.92,-119.175"/>
<polygon fill="green" stroke="green" points="1375.86,-122.674 1385.95,-119.417 1376.03,-115.676 1375.86,-122.674"/>
<text text-anchor="middle" x="1144" y="-127.5" font-family="Times New Roman,serif" font-size="30.00"> &#160;&#160;75 &#160;&#160;0% &#160;&#160;9.885e&#45;05 mol/s &#160;&#160;&#160;0.50</text>
</g>
<!-- (51)(110011) -->
<g id="node4" class="node"><title>(51)(110011)</title>
<g id="a_node4"><a xlink:href="51.svg" xlink:title="(51)(110011)">
<polygon fill="lawngreen" stroke="none" points="1595,-80 1386,-80 1386,-33 1595,-33 1595,-80"/>
<text text-anchor="middle" x="1490.5" y="-48" font-family="Times New Roman,serif" font-size="35.00">(51)(110011)</text>
</a>
</g>
</g>
<!-- (59)(111011)&#45;&gt;(51)(110011) -->
<g id="edge3" class="edge"><title>(59)(111011)&#45;&gt;(51)(110011)</title>
<path fill="none" stroke="green" stroke-width="5" d="M902.297,-67.5127C905.225,-67.1423 908.13,-66.803 911,-66.5 1067.24,-50.0025 1248.5,-49.9309 1365.9,-52.3721"/>
<polygon fill="green" stroke="green" stroke-width="5" points="1365.78,-61.1216 1385.97,-52.8272 1366.17,-43.6261 1365.78,-61.1216"/>
<text text-anchor="middle" x="1144" y="-75.5" font-family="Times New Roman,serif" font-size="30.00"> &#160;&#160;133 &#160;&#160;99% &#160;&#160;0.48013159 mol/s &#160;&#160;&#160;0.50</text>
</g>
<!-- (43)(101011) -->
<g id="node3" class="node"><title>(43)(101011)</title>
<g id="a_node3"><a xlink:href="43.svg" xlink:title="(43)(101011)">
<polygon fill="dodgerblue" stroke="none" points="209,-177 0,-177 0,-130 209,-130 209,-177"/>
<text text-anchor="middle" x="104.5" y="-145" font-family="Times New Roman,serif" font-size="35.00">(43)(101011)</text>
</a>
</g>
</g>
<!-- (43)(101011)&#45;&gt;(59)(111011) -->
<g id="edge2" class="edge"><title>(43)(101011)&#45;&gt;(59)(111011)</title>
<path fill="none" stroke="green" d="M209.134,-156.821C325.649,-158.633 519.997,-155.861 684,-125.5 697.584,-122.985 711.787,-119.242 725.349,-115.088"/>
<polygon fill="green" stroke="green" points="726.616,-118.358 735.093,-112.002 724.503,-111.684 726.616,-118.358"/>
<text text-anchor="middle" x="451" y="-165.5" font-family="Times New Roman,serif" font-size="30.00"> &#160;&#160;115 &#160;&#160;0% &#160;&#160;4.909e&#45;05 mol/s &#160;&#160;&#160;0.50</text>
</g>
<!-- (58)(111010) -->
<g id="node5" class="node"><title>(58)(111010)</title>
<g id="a_node5"><a xlink:href="58.svg" xlink:title="(58)(111010)">
<polygon fill="springgreen" stroke="none" points="209,-112 0,-112 0,-65 209,-65 209,-112"/>
<text text-anchor="middle" x="104.5" y="-80" font-family="Times New Roman,serif" font-size="35.00">(58)(111010)</text>
</a>
</g>
</g>
<!-- (58)(111010)&#45;&gt;(59)(111011) -->
<g id="edge4" class="edge"><title>(58)(111010)&#45;&gt;(59)(111011)</title>
<path fill="none" stroke="green" stroke-width="5" d="M209.324,-88.5C333.28,-88.5 540.387,-88.5 672.598,-88.5"/>
<polygon fill="green" stroke="green" stroke-width="5" points="672.747,-97.2501 692.747,-88.5 672.747,-79.7501 672.747,-97.2501"/>
<text text-anchor="middle" x="451" y="-97.5" font-family="Times New Roman,serif" font-size="30.00"> &#160;&#160;143 &#160;&#160;99% &#160;&#160;0.48009707 mol/s &#160;&#160;&#160;0.50</text>
</g>
<!-- (63)(111111) -->
<g id="node6" class="node"><title>(63)(111111)</title>
<g id="a_node6"><a xlink:href="63.svg" xlink:title="(63)(111111)">
<polygon fill="dodgerblue" stroke="none" points="209,-47 0,-47 0,3.55271e-015 209,3.55271e-015 209,-47"/>
<text text-anchor="middle" x="104.5" y="-15" font-family="Times New Roman,serif" font-size="35.00">(63)(111111)</text>
</a>
</g>
</g>
<!-- (63)(111111)&#45;&gt;(59)(111011) -->
<g id="edge5" class="edge"><title>(63)(111111)&#45;&gt;(59)(111011)</title>
<path fill="none" stroke="green" d="M209.134,-20.1785C325.649,-18.367 519.997,-21.1386 684,-51.5 697.584,-54.0148 711.787,-57.7583 725.349,-61.9124"/>
<polygon fill="green" stroke="green" points="724.503,-65.3156 735.093,-64.9981 726.616,-58.6422 724.503,-65.3156"/>
<text text-anchor="middle" x="451" y="-60.5" font-family="Times New Roman,serif" font-size="30.00"> &#160;&#160;145 &#160;&#160;0% &#160;&#160;8.428e&#45;05 mol/s &#160;&#160;&#160;0.50</text>
</g>
</g>
</svg>
