<?xml version="1.0" encoding="UTF-8" standalone="no"?>
<!DOCTYPE svg PUBLIC "-//W3C//DTD SVG 1.1//EN"
 "http://www.w3.org/Graphics/SVG/1.1/DTD/svg11.dtd">
<!-- Generated by graphviz version 2.38.0 (20140413.2041)
 -->
<!-- Title: G Pages: 1 -->
<svg width="640pt" height="98pt"
 viewBox="0.00 0.00 720.00 110.33" xmlns="http://www.w3.org/2000/svg" xmlns:xlink="http://www.w3.org/1999/xlink">
<g id="graph0" class="graph" transform="scale(0.402769 0.402769) rotate(0) translate(4 239.5)">
<title>G</title>
<polygon fill="white" stroke="none" points="-4,4 -4,-239.5 1585,-239.5 1585,4 -4,4"/>
<text text-anchor="middle" x="790.5" y="-202.7" font-family="Arial" font-size="36.00" fill="blue">Reaction Path Analysis</text>
<!-- (60)(111100) -->
<g id="node1" class="node"><title>(60)(111100)</title>
<g id="a_node1"><a xlink:href="60.svg" xlink:title="(60)(111100)">
<polygon fill="dodgerblue" stroke="none" points="895,-112 686,-112 686,-65 895,-65 895,-112"/>
<text text-anchor="middle" x="790.5" y="-80" font-family="Times New Roman,serif" font-size="35.00">(60)(111100)</text>
</a>
</g>
</g>
<!-- (56)(111000) -->
<g id="node4" class="node"><title>(56)(111000)</title>
<g id="a_node4"><a xlink:href="56.svg" xlink:title="(56)(111000)">
<polygon fill="springgreen" stroke="none" points="1581,-112 1372,-112 1372,-65 1581,-65 1581,-112"/>
<text text-anchor="middle" x="1476.5" y="-80" font-family="Times New Roman,serif" font-size="35.00">(56)(111000)</text>
</a>
</g>
</g>
<!-- (60)(111100)&#45;&gt;(56)(111000) -->
<g id="edge3" class="edge"><title>(60)(111100)&#45;&gt;(56)(111000)</title>
<path fill="none" stroke="green" stroke-width="6" d="M895.013,-88.5C1017.4,-88.5 1220.94,-88.5 1351.6,-88.5"/>
<polygon fill="green" stroke="green" stroke-width="6" points="1351.92,-99.0001 1371.92,-88.5 1351.92,-78.0001 1351.92,-99.0001"/>
<text text-anchor="middle" x="1133.5" y="-97.5" font-family="Times New Roman,serif" font-size="30.00"> &#160;&#160;141 &#160;&#160;100% &#160;&#160;2.088e&#45;05 mol/s &#160;&#160;&#160;0.50</text>
</g>
<!-- (28)(011100) -->
<g id="node2" class="node"><title>(28)(011100)</title>
<g id="a_node2"><a xlink:href="28.svg" xlink:title="(28)(011100)">
<polygon fill="springgreen" stroke="none" points="209,-177 0,-177 0,-130 209,-130 209,-177"/>
<text text-anchor="middle" x="104.5" y="-145" font-family="Times New Roman,serif" font-size="35.00">(28)(011100)</text>
</a>
</g>
</g>
<!-- (28)(011100)&#45;&gt;(60)(111100) -->
<g id="edge1" class="edge"><title>(28)(011100)&#45;&gt;(60)(111100)</title>
<path fill="none" stroke="green" stroke-width="3" d="M209.095,-155.43C321.439,-155.867 505.661,-151.75 662,-125.5 677.624,-122.877 694.049,-118.995 709.719,-114.719"/>
<polygon fill="green" stroke="green" stroke-width="3" points="710.681,-118.085 719.364,-112.014 708.791,-111.345 710.681,-118.085"/>
<text text-anchor="middle" x="447.5" y="-163.5" font-family="Times New Roman,serif" font-size="30.00"> &#160;&#160;74 &#160;&#160;59% &#160;&#160;1.238e&#45;05 mol/s &#160;&#160;&#160;0.50</text>
</g>
<!-- (52)(110100) -->
<g id="node3" class="node"><title>(52)(110100)</title>
<g id="a_node3"><a xlink:href="52.svg" xlink:title="(52)(110100)">
<polygon fill="dodgerblue" stroke="none" points="209,-112 0,-112 0,-65 209,-65 209,-112"/>
<text text-anchor="middle" x="104.5" y="-80" font-family="Times New Roman,serif" font-size="35.00">(52)(110100)</text>
</a>
</g>
</g>
<!-- (52)(110100)&#45;&gt;(60)(111100) -->
<g id="edge2" class="edge"><title>(52)(110100)&#45;&gt;(60)(111100)</title>
<path fill="none" stroke="green" d="M209.013,-88.5C334.553,-88.5 545.463,-88.5 675.533,-88.5"/>
<polygon fill="green" stroke="green" points="675.919,-92.0001 685.919,-88.5 675.919,-85.0001 675.919,-92.0001"/>
<text text-anchor="middle" x="447.5" y="-97.5" font-family="Times New Roman,serif" font-size="30.00"> &#160;&#160;135 &#160;&#160;7% &#160;&#160;1.62e&#45;06 mol/s &#160;&#160;&#160;0.50</text>
</g>
<!-- (61)(111101) -->
<g id="node5" class="node"><title>(61)(111101)</title>
<g id="a_node5"><a xlink:href="61.svg" xlink:title="(61)(111101)">
<polygon fill="purple" stroke="none" points="209,-47 0,-47 0,3.55271e-015 209,3.55271e-015 209,-47"/>
<text text-anchor="middle" x="104.5" y="-15" font-family="Times New Roman,serif" font-size="35.00">(61)(111101)</text>
</a>
</g>
</g>
<!-- (61)(111101)&#45;&gt;(60)(111100) -->
<g id="edge4" class="edge"><title>(61)(111101)&#45;&gt;(60)(111100)</title>
<path fill="none" stroke="green" stroke-width="2" d="M209.095,-21.57C321.439,-21.1332 505.661,-25.2496 662,-51.5 677.624,-54.1233 694.049,-58.0052 709.719,-62.2808"/>
<polygon fill="green" stroke="green" stroke-width="2" points="708.791,-65.6554 719.364,-64.9861 710.681,-58.9155 708.791,-65.6554"/>
<text text-anchor="middle" x="447.5" y="-60.5" font-family="Times New Roman,serif" font-size="30.00"> &#160;&#160;146 &#160;&#160;32% &#160;&#160;6.88e&#45;06 mol/s &#160;&#160;&#160;0.50</text>
</g>
</g>
</svg>
