<?xml version="1.0" encoding="UTF-8" standalone="no"?>
<!DOCTYPE svg PUBLIC "-//W3C//DTD SVG 1.1//EN"
 "http://www.w3.org/Graphics/SVG/1.1/DTD/svg11.dtd">
<!-- Generated by graphviz version 2.38.0 (20140413.2041)
 -->
<!-- Title: G Pages: 1 -->
<svg width="640pt" height="100pt"
 viewBox="0.00 0.00 720.00 112.92" xmlns="http://www.w3.org/2000/svg" xmlns:xlink="http://www.w3.org/1999/xlink">
<g id="graph0" class="graph" transform="scale(0.41052 0.41052) rotate(0) translate(4 240.5)">
<title>G</title>
<polygon fill="white" stroke="none" points="-4,4 -4,-240.5 1555,-240.5 1555,4 -4,4"/>
<text text-anchor="middle" x="775.5" y="-203.7" font-family="Arial" font-size="36.00" fill="blue">Reaction Path Analysis</text>
<!-- (61)(111101) -->
<g id="node1" class="node"><title>(61)(111101)</title>
<g id="a_node1"><a xlink:href="61.svg" xlink:title="(61)(111101)">
<polygon fill="purple" stroke="none" points="880,-112 671,-112 671,-65 880,-65 880,-112"/>
<text text-anchor="middle" x="775.5" y="-80" font-family="Times New Roman,serif" font-size="35.00">(61)(111101)</text>
</a>
</g>
</g>
<!-- (60)(111100) -->
<g id="node5" class="node"><title>(60)(111100)</title>
<g id="a_node5"><a xlink:href="60.svg" xlink:title="(60)(111100)">
<polygon fill="dodgerblue" stroke="none" points="1551,-112 1342,-112 1342,-65 1551,-65 1551,-112"/>
<text text-anchor="middle" x="1446.5" y="-80" font-family="Times New Roman,serif" font-size="35.00">(60)(111100)</text>
</a>
</g>
</g>
<!-- (61)(111101)&#45;&gt;(60)(111100) -->
<g id="edge4" class="edge"><title>(61)(111101)&#45;&gt;(60)(111100)</title>
<path fill="none" stroke="green" stroke-width="6" d="M880.297,-88.5C999.405,-88.5 1194.6,-88.5 1321.58,-88.5"/>
<polygon fill="green" stroke="green" stroke-width="6" points="1321.73,-99.0001 1341.73,-88.5 1321.73,-78.0001 1321.73,-99.0001"/>
<text text-anchor="middle" x="1111" y="-97.5" font-family="Times New Roman,serif" font-size="30.00"> &#160;&#160;146 &#160;&#160;100% &#160;&#160;6.88e&#45;06 mol/s &#160;&#160;&#160;0.50</text>
</g>
<!-- (29)(011101) -->
<g id="node2" class="node"><title>(29)(011101)</title>
<g id="a_node2"><a xlink:href="29.svg" xlink:title="(29)(011101)">
<polygon fill="dodgerblue" stroke="none" points="209,-177 0,-177 0,-130 209,-130 209,-177"/>
<text text-anchor="middle" x="104.5" y="-145" font-family="Times New Roman,serif" font-size="35.00">(29)(011101)</text>
</a>
</g>
</g>
<!-- (29)(011101)&#45;&gt;(61)(111101) -->
<g id="edge1" class="edge"><title>(29)(011101)&#45;&gt;(61)(111101)</title>
<path fill="none" stroke="green" d="M209.059,-155.82C320.077,-156.544 501.08,-152.629 654.5,-125.5 668.978,-122.94 684.155,-119.161 698.659,-114.983"/>
<polygon fill="green" stroke="green" points="699.986,-118.24 708.575,-112.037 697.992,-111.53 699.986,-118.24"/>
<text text-anchor="middle" x="440" y="-164.5" font-family="Times New Roman,serif" font-size="30.00"> &#160;&#160;76 &#160;&#160;2% &#160;&#160;1.8e&#45;07 mol/s &#160;&#160;&#160;0.50</text>
</g>
<!-- (53)(110101) -->
<g id="node3" class="node"><title>(53)(110101)</title>
<g id="a_node3"><a xlink:href="53.svg" xlink:title="(53)(110101)">
<polygon fill="dodgerblue" stroke="none" points="209,-112 0,-112 0,-65 209,-65 209,-112"/>
<text text-anchor="middle" x="104.5" y="-80" font-family="Times New Roman,serif" font-size="35.00">(53)(110101)</text>
</a>
</g>
</g>
<!-- (53)(110101)&#45;&gt;(61)(111101) -->
<g id="edge2" class="edge"><title>(53)(110101)&#45;&gt;(61)(111101)</title>
<path fill="none" stroke="green" stroke-width="2" d="M209.297,-88.5C331.595,-88.5 534.112,-88.5 660.626,-88.5"/>
<polygon fill="green" stroke="green" stroke-width="2" points="660.735,-92.0001 670.735,-88.5 660.735,-85.0001 660.735,-92.0001"/>
<text text-anchor="middle" x="440" y="-97.5" font-family="Times New Roman,serif" font-size="30.00"> &#160;&#160;136 &#160;&#160;23% &#160;&#160;1.62e&#45;06 mol/s &#160;&#160;&#160;0.50</text>
</g>
<!-- (57)(111001) -->
<g id="node4" class="node"><title>(57)(111001)</title>
<g id="a_node4"><a xlink:href="57.svg" xlink:title="(57)(111001)">
<polygon fill="dodgerblue" stroke="none" points="209,-47 0,-47 0,3.55271e-015 209,3.55271e-015 209,-47"/>
<text text-anchor="middle" x="104.5" y="-15" font-family="Times New Roman,serif" font-size="35.00">(57)(111001)</text>
</a>
</g>
</g>
<!-- (57)(111001)&#45;&gt;(61)(111101) -->
<g id="edge3" class="edge"><title>(57)(111001)&#45;&gt;(61)(111101)</title>
<path fill="none" stroke="green" stroke-width="4" d="M209.059,-21.1797C320.077,-20.4555 501.08,-24.3707 654.5,-51.5 665.776,-53.4939 677.476,-56.2271 688.952,-59.3124"/>
<polygon fill="green" stroke="green" stroke-width="4" points="687.419,-66.1553 708.575,-64.9629 691.293,-52.702 687.419,-66.1553"/>
<text text-anchor="middle" x="440" y="-60.5" font-family="Times New Roman,serif" font-size="30.00"> &#160;&#160;142 &#160;&#160;73% &#160;&#160;5.08e&#45;06 mol/s &#160;&#160;&#160;0.50</text>
</g>
</g>
</svg>
