<?xml version="1.0" encoding="UTF-8" standalone="no"?>
<!DOCTYPE svg PUBLIC "-//W3C//DTD SVG 1.1//EN"
 "http://www.w3.org/Graphics/SVG/1.1/DTD/svg11.dtd">
<!-- Generated by graphviz version 2.38.0 (20140413.2041)
 -->
<!-- Title: G Pages: 1 -->
<svg width="640pt" height="70pt"
 viewBox="0.00 0.00 720.00 78.38" xmlns="http://www.w3.org/2000/svg" xmlns:xlink="http://www.w3.org/1999/xlink">
<g id="graph0" class="graph" transform="scale(0.399251 0.399251) rotate(0) translate(4 170.5)">
<title>G</title>
<polygon fill="white" stroke="none" points="-4,4 -4,-170.5 1599,-170.5 1599,4 -4,4"/>
<text text-anchor="middle" x="797.5" y="-133.7" font-family="Arial" font-size="36.00" fill="blue">Reaction Path Analysis</text>
<!-- (62)(111110) -->
<g id="node1" class="node"><title>(62)(111110)</title>
<g id="a_node1"><a xlink:href="62.svg" xlink:title="(62)(111110)">
<polygon fill="dodgerblue" stroke="none" points="902,-79 693,-79 693,-32 902,-32 902,-79"/>
<text text-anchor="middle" x="797.5" y="-47" font-family="Times New Roman,serif" font-size="35.00">(62)(111110)</text>
</a>
</g>
</g>
<!-- (54)(110110) -->
<g id="node3" class="node"><title>(54)(110110)</title>
<g id="a_node3"><a xlink:href="54.svg" xlink:title="(54)(110110)">
<polygon fill="springgreen" stroke="none" points="1595,-112 1386,-112 1386,-65 1595,-65 1595,-112"/>
<text text-anchor="middle" x="1490.5" y="-80" font-family="Times New Roman,serif" font-size="35.00">(54)(110110)</text>
</a>
</g>
</g>
<!-- (62)(111110)&#45;&gt;(54)(110110) -->
<g id="edge2" class="edge"><title>(62)(111110)&#45;&gt;(54)(110110)</title>
<path fill="none" stroke="green" stroke-width="5" d="M902.078,-65.8614C905.084,-66.0871 908.063,-66.3008 911,-66.5 1067.72,-77.1323 1248.7,-82.9822 1365.9,-85.9262"/>
<polygon fill="green" stroke="green" stroke-width="5" points="1365.74,-94.6747 1385.95,-86.4169 1366.17,-77.18 1365.74,-94.6747"/>
<text text-anchor="middle" x="1144" y="-94.5" font-family="Times New Roman,serif" font-size="30.00"> &#160;&#160;138 &#160;&#160;99% &#160;&#160;0.03553828 mol/s &#160;&#160;&#160;0.50</text>
</g>
<!-- (63)(111111) -->
<g id="node5" class="node"><title>(63)(111111)</title>
<g id="a_node5"><a xlink:href="63.svg" xlink:title="(63)(111111)">
<polygon fill="dodgerblue" stroke="none" points="1595,-47 1386,-47 1386,3.55271e-015 1595,3.55271e-015 1595,-47"/>
<text text-anchor="middle" x="1490.5" y="-15" font-family="Times New Roman,serif" font-size="35.00">(63)(111111)</text>
</a>
</g>
</g>
<!-- (62)(111110)&#45;&gt;(63)(111111) -->
<g id="edge4" class="edge"><title>(62)(111110)&#45;&gt;(63)(111111)</title>
<path fill="none" stroke="green" d="M902.297,-34.5127C905.225,-34.1423 908.13,-33.803 911,-33.5 1071.76,-16.5248 1259.02,-16.9405 1375.93,-19.5902"/>
<polygon fill="green" stroke="green" points="1375.89,-23.0901 1385.97,-19.8272 1376.06,-16.0921 1375.89,-23.0901"/>
<text text-anchor="middle" x="1144" y="-42.5" font-family="Times New Roman,serif" font-size="30.00"> &#160;&#160;147 &#160;&#160;0% &#160;&#160;0.00016176 mol/s &#160;&#160;&#160;0.50</text>
</g>
<!-- (29)(011101) -->
<g id="node2" class="node"><title>(29)(011101)</title>
<g id="a_node2"><a xlink:href="29.svg" xlink:title="(29)(011101)">
<polygon fill="dodgerblue" stroke="none" points="209,-112 0,-112 0,-65 209,-65 209,-112"/>
<text text-anchor="middle" x="104.5" y="-80" font-family="Times New Roman,serif" font-size="35.00">(29)(011101)</text>
</a>
</g>
</g>
<!-- (29)(011101)&#45;&gt;(62)(111110) -->
<g id="edge1" class="edge"><title>(29)(011101)&#45;&gt;(62)(111110)</title>
<path fill="none" stroke="green" d="M209.054,-86.4169C322.678,-83.7078 510.714,-77.9825 682.912,-66.5346"/>
<polygon fill="green" stroke="green" points="683.179,-70.0246 692.922,-65.8614 682.71,-63.0404 683.179,-70.0246"/>
<text text-anchor="middle" x="451" y="-94.5" font-family="Times New Roman,serif" font-size="30.00"> &#160;&#160;77 &#160;&#160;3% &#160;&#160;0.0012159 mol/s &#160;&#160;&#160;0.50</text>
</g>
<!-- (58)(111010) -->
<g id="node4" class="node"><title>(58)(111010)</title>
<g id="a_node4"><a xlink:href="58.svg" xlink:title="(58)(111010)">
<polygon fill="springgreen" stroke="none" points="209,-47 0,-47 0,3.55271e-015 209,3.55271e-015 209,-47"/>
<text text-anchor="middle" x="104.5" y="-15" font-family="Times New Roman,serif" font-size="35.00">(58)(111010)</text>
</a>
</g>
</g>
<!-- (58)(111010)&#45;&gt;(62)(111110) -->
<g id="edge3" class="edge"><title>(58)(111010)&#45;&gt;(62)(111110)</title>
<path fill="none" stroke="green" stroke-width="5" d="M209.029,-19.8272C320.621,-17.088 503.923,-16.1051 672.726,-32.4845"/>
<polygon fill="green" stroke="green" stroke-width="5" points="671.922,-41.1978 692.703,-34.5127 673.69,-23.7873 671.922,-41.1978"/>
<text text-anchor="middle" x="451" y="-42.5" font-family="Times New Roman,serif" font-size="30.00"> &#160;&#160;144 &#160;&#160;96% &#160;&#160;0.03448413 mol/s &#160;&#160;&#160;0.50</text>
</g>
</g>
</svg>
