<?xml version="1.0" encoding="UTF-8" standalone="no"?>
<!DOCTYPE svg PUBLIC "-//W3C//DTD SVG 1.1//EN"
 "http://www.w3.org/Graphics/SVG/1.1/DTD/svg11.dtd">
<!-- Generated by graphviz version 2.38.0 (20140413.2041)
 -->
<!-- Title: G Pages: 1 -->
<svg width="640pt" height="68pt"
 viewBox="0.00 0.00 720.00 76.50" xmlns="http://www.w3.org/2000/svg" xmlns:xlink="http://www.w3.org/1999/xlink">
<g id="graph0" class="graph" transform="scale(0.391917 0.391917) rotate(0) translate(4 169.5)">
<title>G</title>
<polygon fill="white" stroke="none" points="-4,4 -4,-169.5 1629,-169.5 1629,4 -4,4"/>
<text text-anchor="middle" x="812.5" y="-132.7" font-family="Arial" font-size="36.00" fill="blue">Reaction Path Analysis</text>
<!-- (63)(111111) -->
<g id="node1" class="node"><title>(63)(111111)</title>
<g id="a_node1"><a xlink:href="63.svg" xlink:title="(63)(111111)">
<polygon fill="dodgerblue" stroke="none" points="917,-79 708,-79 708,-32 917,-32 917,-79"/>
<text text-anchor="middle" x="812.5" y="-47" font-family="Times New Roman,serif" font-size="35.00">(63)(111111)</text>
</a>
</g>
</g>
<!-- (55)(110111) -->
<g id="node2" class="node"><title>(55)(110111)</title>
<g id="a_node2"><a xlink:href="55.svg" xlink:title="(55)(110111)">
<polygon fill="springgreen" stroke="none" points="1625,-112 1416,-112 1416,-65 1625,-65 1625,-112"/>
<text text-anchor="middle" x="1520.5" y="-80" font-family="Times New Roman,serif" font-size="35.00">(55)(110111)</text>
</a>
</g>
</g>
<!-- (63)(111111)&#45;&gt;(55)(110111) -->
<g id="edge1" class="edge"><title>(63)(111111)&#45;&gt;(55)(110111)</title>
<path fill="none" stroke="green" stroke-width="3" d="M917.154,-64.6421C926.398,-65.3247 935.616,-65.9573 944.5,-66.5 1104.33,-76.2629 1289.43,-82.4249 1405.5,-85.6679"/>
<polygon fill="green" stroke="green" stroke-width="3" points="1405.72,-89.1753 1415.82,-85.9535 1405.92,-82.178 1405.72,-89.1753"/>
<text text-anchor="middle" x="1166.5" y="-93.5" font-family="Times New Roman,serif" font-size="30.00"> &#160;&#160;139 &#160;&#160;47% &#160;&#160;7.747e&#45;05 mol/s &#160;&#160;&#160;0.50</text>
</g>
<!-- (59)(111011) -->
<g id="node3" class="node"><title>(59)(111011)</title>
<g id="a_node3"><a xlink:href="59.svg" xlink:title="(59)(111011)">
<polygon fill="springgreen" stroke="none" points="1625,-47 1416,-47 1416,3.55271e-015 1625,3.55271e-015 1625,-47"/>
<text text-anchor="middle" x="1520.5" y="-15" font-family="Times New Roman,serif" font-size="35.00">(59)(111011)</text>
</a>
</g>
</g>
<!-- (63)(111111)&#45;&gt;(59)(111011) -->
<g id="edge2" class="edge"><title>(63)(111111)&#45;&gt;(59)(111011)</title>
<path fill="none" stroke="green" stroke-width="3" d="M917,-36.6551C926.276,-35.4097 935.544,-34.3253 944.5,-33.5 1103.98,-18.8044 1289.36,-18.599 1405.56,-20.4946"/>
<polygon fill="green" stroke="green" stroke-width="3" points="1405.84,-23.9997 1415.89,-20.6717 1405.96,-17.0007 1405.84,-23.9997"/>
<text text-anchor="middle" x="1166.5" y="-42.5" font-family="Times New Roman,serif" font-size="30.00"> &#160;&#160;145 &#160;&#160;52% &#160;&#160;8.428e&#45;05 mol/s &#160;&#160;&#160;0.50</text>
</g>
<!-- (62)(111110) -->
<g id="node4" class="node"><title>(62)(111110)</title>
<g id="a_node4"><a xlink:href="62.svg" xlink:title="(62)(111110)">
<polygon fill="dodgerblue" stroke="none" points="209,-79 0,-79 0,-32 209,-32 209,-79"/>
<text text-anchor="middle" x="104.5" y="-47" font-family="Times New Roman,serif" font-size="35.00">(62)(111110)</text>
</a>
</g>
</g>
<!-- (62)(111110)&#45;&gt;(63)(111111) -->
<g id="edge3" class="edge"><title>(62)(111110)&#45;&gt;(63)(111111)</title>
<path fill="none" stroke="green" stroke-width="6" d="M209.293,-55.5C336.529,-55.5 551.924,-55.5 687.675,-55.5"/>
<polygon fill="green" stroke="green" stroke-width="6" points="687.929,-66.0001 707.929,-55.5 687.929,-45.0001 687.929,-66.0001"/>
<text text-anchor="middle" x="458.5" y="-64.5" font-family="Times New Roman,serif" font-size="30.00"> &#160;&#160;147 &#160;&#160;100% &#160;&#160;0.00016176 mol/s &#160;&#160;&#160;0.50</text>
</g>
</g>
</svg>
