<?xml version="1.0" encoding="UTF-8" standalone="no"?>
<!DOCTYPE svg PUBLIC "-//W3C//DTD SVG 1.1//EN"
 "http://www.w3.org/Graphics/SVG/1.1/DTD/svg11.dtd">
<!-- Generated by graphviz version 2.38.0 (20140413.2041)
 -->
<!-- Title: G Pages: 1 -->
<svg width="640pt" height="100pt"
 viewBox="0.00 0.00 720.00 112.37" xmlns="http://www.w3.org/2000/svg" xmlns:xlink="http://www.w3.org/1999/xlink">
<g id="graph0" class="graph" transform="scale(0.406866 0.406866) rotate(0) translate(4 241.5)">
<title>G</title>
<polygon fill="white" stroke="none" points="-4,4 -4,-241.5 1569,-241.5 1569,4 -4,4"/>
<text text-anchor="middle" x="782.5" y="-204.7" font-family="Arial" font-size="36.00" fill="blue">Reaction Path Analysis</text>
<!-- (8)(001000) -->
<g id="node1" class="node"><title>(8)(001000)</title>
<g id="a_node1"><a xlink:href="8.svg" xlink:title="(8)(001000)">
<polygon fill="dodgerblue" stroke="none" points="878,-112 687,-112 687,-65 878,-65 878,-112"/>
<text text-anchor="middle" x="782.5" y="-80" font-family="Times New Roman,serif" font-size="35.00">(8)(001000)</text>
</a>
</g>
</g>
<!-- (9)(001001) -->
<g id="node3" class="node"><title>(9)(001001)</title>
<g id="a_node3"><a xlink:href="9.svg" xlink:title="(9)(001001)">
<polygon fill="springgreen" stroke="none" points="1556,-145 1365,-145 1365,-98 1556,-98 1556,-145"/>
<text text-anchor="middle" x="1460.5" y="-113" font-family="Times New Roman,serif" font-size="35.00">(9)(001001)</text>
</a>
</g>
</g>
<!-- (8)(001000)&#45;&gt;(9)(001001) -->
<g id="edge2" class="edge"><title>(8)(001000)&#45;&gt;(9)(001001)</title>
<path fill="none" stroke="green" stroke-width="5" d="M878.299,-98.1684C884.286,-98.6554 890.224,-99.1052 896,-99.5 1051.1,-110.101 1230.6,-116.016 1344.55,-118.978"/>
<polygon fill="green" stroke="green" stroke-width="5" points="1344.48,-127.729 1364.69,-119.489 1344.92,-110.235 1344.48,-127.729"/>
<text text-anchor="middle" x="1121.5" y="-127.5" font-family="Times New Roman,serif" font-size="30.00"> &#160;&#160;22 &#160;&#160;99% &#160;&#160;0.47525848 mol/s &#160;&#160;&#160;0.50</text>
</g>
<!-- (16)(010000) -->
<g id="node5" class="node"><title>(16)(010000)</title>
<g id="a_node5"><a xlink:href="16.svg" xlink:title="(16)(010000)">
<polygon fill="gold" stroke="none" points="1565,-80 1356,-80 1356,-33 1565,-33 1565,-80"/>
<text text-anchor="middle" x="1460.5" y="-48" font-family="Times New Roman,serif" font-size="35.00">(16)(010000)</text>
</a>
</g>
</g>
<!-- (8)(001000)&#45;&gt;(16)(010000) -->
<g id="edge4" class="edge"><title>(8)(001000)&#45;&gt;(16)(010000)</title>
<path fill="none" stroke="green" d="M878.152,-68.76C884.175,-67.8854 890.162,-67.1178 896,-66.5 1051.14,-50.0829 1231.61,-50.2362 1345.68,-52.6877"/>
<polygon fill="green" stroke="green" points="1345.75,-56.19 1355.82,-52.9155 1345.91,-49.1918 1345.75,-56.19"/>
<text text-anchor="middle" x="1121.5" y="-75.5" font-family="Times New Roman,serif" font-size="30.00"> &#160;&#160;24 &#160;&#160;0% &#160;&#160;1.382e&#45;05 mol/s &#160;&#160;&#160;0.50</text>
</g>
<!-- (0)(000000) -->
<g id="node2" class="node"><title>(0)(000000)</title>
<g id="a_node2"><a xlink:href="0.svg" xlink:title="(0)(000000)">
<polygon fill="springgreen" stroke="none" points="200,-177 9,-177 9,-130 200,-130 200,-177"/>
<text text-anchor="middle" x="104.5" y="-145" font-family="Times New Roman,serif" font-size="35.00">(0)(000000)</text>
</a>
</g>
</g>
<!-- (0)(000000)&#45;&gt;(8)(001000) -->
<g id="edge1" class="edge"><title>(0)(000000)&#45;&gt;(8)(001000)</title>
<path fill="none" stroke="green" d="M200.117,-156.473C312.803,-158.255 506.249,-155.738 669,-125.5 682.501,-122.992 696.615,-119.274 710.103,-115.148"/>
<polygon fill="green" stroke="green" points="711.316,-118.435 719.796,-112.083 709.206,-111.761 711.316,-118.435"/>
<text text-anchor="middle" x="443.5" y="-165.5" font-family="Times New Roman,serif" font-size="30.00"> &#160;&#160;2 &#160;&#160;1% &#160;&#160;0.00716466 mol/s &#160;&#160;&#160;0.50</text>
</g>
<!-- (12)(001100) -->
<g id="node4" class="node"><title>(12)(001100)</title>
<g id="a_node4"><a xlink:href="12.svg" xlink:title="(12)(001100)">
<polygon fill="dodgerblue" stroke="none" points="209,-112 0,-112 0,-65 209,-65 209,-112"/>
<text text-anchor="middle" x="104.5" y="-80" font-family="Times New Roman,serif" font-size="35.00">(12)(001100)</text>
</a>
</g>
</g>
<!-- (12)(001100)&#45;&gt;(8)(001000) -->
<g id="edge3" class="edge"><title>(12)(001100)&#45;&gt;(8)(001000)</title>
<path fill="none" stroke="green" d="M209.274,-88.5C336.118,-88.5 549.541,-88.5 676.803,-88.5"/>
<polygon fill="green" stroke="green" points="676.949,-92.0001 686.949,-88.5 676.949,-85.0001 676.949,-92.0001"/>
<text text-anchor="middle" x="443.5" y="-97.5" font-family="Times New Roman,serif" font-size="30.00"> &#160;&#160;23 &#160;&#160;1% &#160;&#160;0.00587585 mol/s &#160;&#160;&#160;0.50</text>
</g>
<!-- (40)(101000) -->
<g id="node6" class="node"><title>(40)(101000)</title>
<g id="a_node6"><a xlink:href="40.svg" xlink:title="(40)(101000)">
<polygon fill="dodgerblue" stroke="none" points="209,-47 0,-47 0,3.55271e-015 209,3.55271e-015 209,-47"/>
<text text-anchor="middle" x="104.5" y="-15" font-family="Times New Roman,serif" font-size="35.00">(40)(101000)</text>
</a>
</g>
</g>
<!-- (40)(101000)&#45;&gt;(8)(001000) -->
<g id="edge5" class="edge"><title>(40)(101000)&#45;&gt;(8)(001000)</title>
<path fill="none" stroke="green" stroke-width="5" d="M209.029,-20.3973C322.798,-18.8941 510.462,-22.045 669,-51.5 679.355,-53.4239 690.071,-56.0594 700.588,-59.0446"/>
<polygon fill="green" stroke="green" stroke-width="5" points="698.111,-67.4371 719.796,-64.9168 703.228,-50.7018 698.111,-67.4371"/>
<text text-anchor="middle" x="443.5" y="-60.5" font-family="Times New Roman,serif" font-size="30.00"> &#160;&#160;25 &#160;&#160;97% &#160;&#160;0.46223179 mol/s &#160;&#160;&#160;0.50</text>
</g>
</g>
</svg>
