<?xml version="1.0" encoding="UTF-8" standalone="no"?>
<!DOCTYPE svg PUBLIC "-//W3C//DTD SVG 1.1//EN"
 "http://www.w3.org/Graphics/SVG/1.1/DTD/svg11.dtd">
<!-- Generated by graphviz version 2.38.0 (20140413.2041)
 -->
<!-- Title: G Pages: 1 -->
<svg width="640pt" height="100pt"
 viewBox="0.00 0.00 720.00 112.37" xmlns="http://www.w3.org/2000/svg" xmlns:xlink="http://www.w3.org/1999/xlink">
<g id="graph0" class="graph" transform="scale(0.406866 0.406866) rotate(0) translate(4 241.5)">
<title>G</title>
<polygon fill="white" stroke="none" points="-4,4 -4,-241.5 1569,-241.5 1569,4 -4,4"/>
<text text-anchor="middle" x="782.5" y="-204.7" font-family="Arial" font-size="36.00" fill="blue">Reaction Path Analysis</text>
<!-- (9)(001001) -->
<g id="node1" class="node"><title>(9)(001001)</title>
<g id="a_node1"><a xlink:href="9.svg" xlink:title="(9)(001001)">
<polygon fill="springgreen" stroke="none" points="878,-112 687,-112 687,-65 878,-65 878,-112"/>
<text text-anchor="middle" x="782.5" y="-80" font-family="Times New Roman,serif" font-size="35.00">(9)(001001)</text>
</a>
</g>
</g>
<!-- (13)(001101) -->
<g id="node4" class="node"><title>(13)(001101)</title>
<g id="a_node4"><a xlink:href="13.svg" xlink:title="(13)(001101)">
<polygon fill="purple" stroke="none" points="1565,-177 1356,-177 1356,-130 1565,-130 1565,-177"/>
<text text-anchor="middle" x="1460.5" y="-145" font-family="Times New Roman,serif" font-size="35.00">(13)(001101)</text>
</a>
</g>
</g>
<!-- (9)(001001)&#45;&gt;(13)(001101) -->
<g id="edge3" class="edge"><title>(9)(001001)&#45;&gt;(13)(001101)</title>
<path fill="none" stroke="green" d="M845.204,-112.083C861.498,-117.398 879.222,-122.383 896,-125.5 1049.89,-154.092 1231.23,-157.899 1345.78,-156.722"/>
<polygon fill="green" stroke="green" points="1346.01,-160.22 1355.97,-156.603 1345.93,-153.22 1346.01,-160.22"/>
<text text-anchor="middle" x="1121.5" y="-165.5" font-family="Times New Roman,serif" font-size="30.00"> &#160;&#160;26 &#160;&#160;0% &#160;&#160;0.00013719 mol/s &#160;&#160;&#160;0.50</text>
</g>
<!-- (17)(010001) -->
<g id="node5" class="node"><title>(17)(010001)</title>
<g id="a_node5"><a xlink:href="17.svg" xlink:title="(17)(010001)">
<polygon fill="springgreen" stroke="none" points="1565,-112 1356,-112 1356,-65 1565,-65 1565,-112"/>
<text text-anchor="middle" x="1460.5" y="-80" font-family="Times New Roman,serif" font-size="35.00">(17)(010001)</text>
</a>
</g>
</g>
<!-- (9)(001001)&#45;&gt;(17)(010001) -->
<g id="edge4" class="edge"><title>(9)(001001)&#45;&gt;(17)(010001)</title>
<path fill="none" stroke="green" d="M878.207,-88.5C1000.83,-88.5 1214.33,-88.5 1345.65,-88.5"/>
<polygon fill="green" stroke="green" points="1345.74,-92.0001 1355.74,-88.5 1345.74,-85.0001 1345.74,-92.0001"/>
<text text-anchor="middle" x="1121.5" y="-97.5" font-family="Times New Roman,serif" font-size="30.00"> &#160;&#160;27 &#160;&#160;0% &#160;&#160;0.000312 mol/s &#160;&#160;&#160;0.50</text>
</g>
<!-- (42)(101010) -->
<g id="node7" class="node"><title>(42)(101010)</title>
<g id="a_node7"><a xlink:href="42.svg" xlink:title="(42)(101010)">
<polygon fill="springgreen" stroke="none" points="1565,-47 1356,-47 1356,3.55271e-015 1565,3.55271e-015 1565,-47"/>
<text text-anchor="middle" x="1460.5" y="-15" font-family="Times New Roman,serif" font-size="35.00">(42)(101010)</text>
</a>
</g>
</g>
<!-- (9)(001001)&#45;&gt;(42)(101010) -->
<g id="edge6" class="edge"><title>(9)(001001)&#45;&gt;(42)(101010)</title>
<path fill="none" stroke="green" stroke-width="5" d="M845.204,-64.9168C861.498,-59.6025 879.222,-54.6172 896,-51.5 1045.56,-23.7133 1221.04,-19.3354 1335.95,-20.1906"/>
<polygon fill="green" stroke="green" stroke-width="5" points="1335.88,-28.9403 1355.97,-20.3973 1336.06,-11.4413 1335.88,-28.9403"/>
<text text-anchor="middle" x="1121.5" y="-60.5" font-family="Times New Roman,serif" font-size="30.00"> &#160;&#160;29 &#160;&#160;99% &#160;&#160;0.87912158 mol/s &#160;&#160;&#160;0.50</text>
</g>
<!-- (1)(000001) -->
<g id="node2" class="node"><title>(1)(000001)</title>
<g id="a_node2"><a xlink:href="1.svg" xlink:title="(1)(000001)">
<polygon fill="springgreen" stroke="none" points="200,-177 9,-177 9,-130 200,-130 200,-177"/>
<text text-anchor="middle" x="104.5" y="-145" font-family="Times New Roman,serif" font-size="35.00">(1)(000001)</text>
</a>
</g>
</g>
<!-- (1)(000001)&#45;&gt;(9)(001001) -->
<g id="edge1" class="edge"><title>(1)(000001)&#45;&gt;(9)(001001)</title>
<path fill="none" stroke="green" d="M200.117,-156.473C312.803,-158.255 506.249,-155.738 669,-125.5 682.501,-122.992 696.615,-119.274 710.103,-115.148"/>
<polygon fill="green" stroke="green" points="711.316,-118.435 719.796,-112.083 709.206,-111.761 711.316,-118.435"/>
<text text-anchor="middle" x="443.5" y="-165.5" font-family="Times New Roman,serif" font-size="30.00"> &#160;&#160;5 &#160;&#160;18% &#160;&#160;0.15863216 mol/s &#160;&#160;&#160;0.50</text>
</g>
<!-- (8)(001000) -->
<g id="node3" class="node"><title>(8)(001000)</title>
<g id="a_node3"><a xlink:href="8.svg" xlink:title="(8)(001000)">
<polygon fill="dodgerblue" stroke="none" points="200,-112 9,-112 9,-65 200,-65 200,-112"/>
<text text-anchor="middle" x="104.5" y="-80" font-family="Times New Roman,serif" font-size="35.00">(8)(001000)</text>
</a>
</g>
</g>
<!-- (8)(001000)&#45;&gt;(9)(001001) -->
<g id="edge2" class="edge"><title>(8)(001000)&#45;&gt;(9)(001001)</title>
<path fill="none" stroke="green" stroke-width="3" d="M200.207,-88.5C325.624,-88.5 546.114,-88.5 676.499,-88.5"/>
<polygon fill="green" stroke="green" stroke-width="3" points="676.89,-92.0001 686.89,-88.5 676.89,-85.0001 676.89,-92.0001"/>
<text text-anchor="middle" x="443.5" y="-97.5" font-family="Times New Roman,serif" font-size="30.00"> &#160;&#160;22 &#160;&#160;54% &#160;&#160;0.47525848 mol/s &#160;&#160;&#160;0.50</text>
</g>
<!-- (41)(101001) -->
<g id="node6" class="node"><title>(41)(101001)</title>
<g id="a_node6"><a xlink:href="41.svg" xlink:title="(41)(101001)">
<polygon fill="dodgerblue" stroke="none" points="209,-47 0,-47 0,3.55271e-015 209,3.55271e-015 209,-47"/>
<text text-anchor="middle" x="104.5" y="-15" font-family="Times New Roman,serif" font-size="35.00">(41)(101001)</text>
</a>
</g>
</g>
<!-- (41)(101001)&#45;&gt;(9)(001001) -->
<g id="edge5" class="edge"><title>(41)(101001)&#45;&gt;(9)(001001)</title>
<path fill="none" stroke="green" stroke-width="2" d="M209.029,-20.3973C322.798,-18.8941 510.462,-22.045 669,-51.5 682.501,-54.0084 696.615,-57.7264 710.103,-61.8521"/>
<polygon fill="green" stroke="green" stroke-width="2" points="709.206,-65.2392 719.796,-64.9168 711.316,-58.5648 709.206,-65.2392"/>
<text text-anchor="middle" x="443.5" y="-60.5" font-family="Times New Roman,serif" font-size="30.00"> &#160;&#160;28 &#160;&#160;27% &#160;&#160;0.24568012 mol/s &#160;&#160;&#160;0.50</text>
</g>
</g>
</svg>
